<svg width="270" height="264" viewBox="0 0 270 264" fill="none" xmlns="http://www.w3.org/2000/svg">
<path d="M0 0H270V264H0V0Z" fill="#E7E7E7"/>
<path d="M135.5 172.5C122.919 172.5 112.148 168.02 103.189 159.061C94.2297 150.102 89.75 139.331 89.75 126.75C89.75 114.169 94.2297 103.398 103.189 94.4391C112.148 85.4797 122.919 81 135.5 81C148.081 81 158.852 85.4797 167.811 94.4391C176.77 103.398 181.25 114.169 181.25 126.75C181.25 139.331 176.77 150.102 167.811 159.061C158.852 168.02 148.081 172.5 135.5 172.5ZM44 264V231.975C44 225.494 45.6699 219.539 49.0096 214.11C52.3494 208.681 56.7795 204.533 62.3 201.666C74.1187 195.756 86.1281 191.326 98.3281 188.375C110.528 185.424 122.919 183.945 135.5 183.938C148.081 183.93 160.472 185.409 172.672 188.375C184.872 191.341 196.881 195.772 208.7 201.666C214.228 204.525 218.662 208.673 222.002 214.11C225.342 219.546 227.008 225.501 227 231.975V264H44Z" fill="#A6A1E1"/>
</svg>
