<svg width="993" height="280" viewBox="0 0 993 280" fill="none" xmlns="http://www.w3.org/2000/svg">
<circle cx="825" cy="18" r="8" fill="#559BDD"/>
<circle cx="815" cy="171" r="6" fill="#9BACF2"/>
<path fill-rule="evenodd" clip-rule="evenodd" d="M983.589 22.2058C986.119 23.8867 989.533 23.1984 991.214 20.6683C992.894 18.1383 992.206 14.7246 989.676 13.0436C987.146 11.3627 983.732 12.051 982.051 14.5811C980.37 17.1112 981.059 20.5249 983.589 22.2058ZM875.673 93.3781C878.894 95.5175 883.238 94.6414 885.378 91.4213C887.517 88.2012 886.641 83.8565 883.421 81.7171C880.201 79.5778 875.856 80.4538 873.717 83.6739C871.577 86.894 872.453 91.2387 875.673 93.3781ZM869.746 115.853C874.576 119.062 881.217 117.561 884.579 112.501C887.941 107.441 886.75 100.738 881.92 97.5285C877.09 94.3194 870.449 95.82 867.087 100.88C863.725 105.94 864.916 112.644 869.746 115.853ZM885.732 216.478C881.877 216.193 878.982 212.836 879.268 208.981C879.553 205.125 882.909 202.231 886.765 202.516C890.62 202.801 893.514 206.158 893.229 210.013C892.944 213.869 889.588 216.763 885.732 216.478Z" fill="#559BDD"/>
<path fill-rule="evenodd" clip-rule="evenodd" d="M793 0H715V61H699V173H780.179C811.107 173 836.179 147.928 836.179 117C836.179 96.3357 824.986 78.2855 808.332 68.5811C820.547 62.8231 829 50.3987 829 36C829 16.1178 812.882 0 793 0Z" fill="#4F4296"/>
<path d="M755 153H793C812.882 153 829 169.118 829 189C829 208.882 812.882 225 793 225H755V153Z" fill="#559BDD"/>
<path fill-rule="evenodd" clip-rule="evenodd" d="M861 8C861 12.4183 857.418 16 853 16C848.582 16 845 12.4183 845 8C845 3.58172 848.582 0 853 0C857.418 0 861 3.58172 861 8ZM845 38C845 41.8003 843.233 45.1881 840.477 47.3868C849.857 53.885 856 64.725 856 77C856 96.8822 839.882 113 820 113H742V41H820C820.464 41 820.925 41.0088 821.385 41.0261C821.134 40.0594 821 39.0453 821 38C821 31.3726 826.373 26 833 26C839.627 26 845 31.3726 845 38ZM866.97 226.121C860.911 225.673 856.347 220.621 856.774 214.838C857.202 209.055 862.46 204.73 868.519 205.178C874.577 205.626 879.142 210.677 878.714 216.46C878.287 222.244 873.029 226.569 866.97 226.121ZM809 266C809 272.627 803.627 278 797 278C790.373 278 785 272.627 785 266C785 259.373 790.373 254 797 254C803.627 254 809 259.373 809 266ZM825 236C825 240.418 821.418 244 817 244C812.582 244 809 240.418 809 236C809 231.582 812.582 228 817 228C821.418 228 825 231.582 825 236ZM901.894 99.993C905.344 102.285 909.875 101.533 912.014 98.313C914.154 95.0929 913.091 90.6243 909.641 88.3321C906.191 86.0399 901.66 86.7921 899.52 90.0122C897.381 93.2323 898.444 97.7009 901.894 99.993ZM789 254C793.418 254 797 250.418 797 246C797 241.582 793.418 238 789 238C784.582 238 781 241.582 781 246C781 250.418 784.582 254 789 254ZM845 153C845 157.418 841.418 161 837 161C832.582 161 829 157.418 829 153C829 148.582 832.582 145 837 145C841.418 145 845 148.582 845 153ZM957.837 48.3174C961.287 50.6096 965.942 49.671 968.234 46.2209C970.526 42.7708 969.587 38.1157 966.137 35.8235C962.687 33.5313 958.032 34.47 955.74 37.9201C953.448 41.3702 954.386 46.0252 957.837 48.3174ZM898.819 175.496C894.688 175.19 891.587 171.594 891.893 167.463C892.198 163.332 895.794 160.231 899.925 160.537C904.056 160.842 907.157 164.438 906.852 168.569C906.546 172.7 902.95 175.801 898.819 175.496ZM861.488 265.373C861.182 269.504 864.283 273.101 868.414 273.406C872.545 273.712 876.141 270.61 876.447 266.48C876.752 262.349 873.651 258.752 869.52 258.447C865.39 258.141 861.793 261.243 861.488 265.373ZM926.48 25.5123C922.349 25.2068 919.248 21.6104 919.553 17.4796C919.859 13.3487 923.455 10.2476 927.586 10.5531C931.717 10.8586 934.818 14.4549 934.512 18.5858C934.207 22.7166 930.611 25.8177 926.48 25.5123ZM933.431 48.9108C935.961 50.5917 939.374 49.9033 941.055 47.3733C942.736 44.8432 942.048 41.4295 939.518 39.7486C936.988 38.0676 933.574 38.756 931.893 41.286C930.212 43.8161 930.901 47.2298 933.431 48.9108ZM884.485 152.376C881.456 152.152 879.182 149.514 879.406 146.485C879.63 143.456 882.267 141.182 885.296 141.406C888.326 141.63 890.6 144.267 890.376 147.296C890.152 150.326 887.514 152.6 884.485 152.376ZM839.406 254.674C839.182 257.703 841.456 260.34 844.485 260.564C847.514 260.788 850.152 258.514 850.376 255.485C850.6 252.456 848.326 249.818 845.296 249.594C842.267 249.37 839.63 251.645 839.406 254.674ZM851 115C851 118.314 848.314 121 845 121C841.686 121 839 118.314 839 115C839 111.686 841.686 109 845 109C848.314 109 851 111.686 851 115ZM927.278 177.099C927.054 180.128 929.329 182.765 932.358 182.989C935.387 183.214 938.024 180.939 938.248 177.91C938.472 174.881 936.198 172.243 933.169 172.019C930.14 171.795 927.502 174.07 927.278 177.099ZM892.704 270.564C889.674 270.34 887.4 267.703 887.624 264.674C887.848 261.645 890.486 259.37 893.515 259.594C896.544 259.818 898.818 262.456 898.594 265.485C898.37 268.514 895.733 270.788 892.704 270.564ZM849.5 50C851.433 50 853 48.433 853 46.5C853 44.567 851.433 43 849.5 43C847.567 43 846 44.567 846 46.5C846 48.433 847.567 50 849.5 50ZM754 232H664V280H754C767.255 280 778 269.255 778 256C778 242.745 767.255 232 754 232Z" fill="#9BACF2"/>
<path d="M656 154H737.179C768.106 154 793.179 179.072 793.179 210C793.179 240.928 768.107 266 737.179 266H656V154Z" fill="#4F4296"/>
<path fill-rule="evenodd" clip-rule="evenodd" d="M811.391 13.1571C831.801 21.5171 846.179 41.5796 846.179 65C846.179 94.0399 824.074 117.917 795.773 120.724C797.642 125.822 798.79 131.267 799.096 136.936C805.451 146.019 809.179 157.074 809.179 169C809.179 191.903 795.43 211.594 775.735 220.271C776.678 224.025 777.179 227.954 777.179 232C777.179 258.51 755.688 280 729.179 280H719.607H640H523H281.393H0V0H292.562H523H652H708.438H776.116C779.65 -1.91352 783.698 -3 788 -3C798.694 -3 807.819 3.71428 811.391 13.1571Z" fill="#0C0728"/>
</svg>
