<svg width="282" height="504" viewBox="0 0 282 504" fill="none" xmlns="http://www.w3.org/2000/svg">
<circle opacity="0.7" cx="97.2525" cy="213.018" r="13.6656" fill="#559BDD"/>
<circle opacity="0.7" cx="56.2554" cy="109.55" r="13.6656" fill="#4F4296"/>
<circle opacity="0.7" cx="241.717" cy="93.2815" r="13.6656" fill="#8681FF"/>
<circle opacity="0.7" cx="195.515" cy="46.4283" r="13.6656" fill="#8681FF"/>
<circle opacity="0.7" cx="-7.33165" cy="247.197" r="13.6656" transform="rotate(91.1459 -7.33165 247.197)" fill="#559BDD"/>
<circle opacity="0.7" cx="-32.451" cy="84.822" r="38.3937" fill="#4F4296"/>
<circle opacity="0.7" cx="79.0318" cy="13.8912" r="13.6656" fill="#9BACF2"/>
<circle opacity="0.7" cx="20.4649" cy="65.9505" r="13.6656" fill="#9BACF2"/>
<circle opacity="0.7" cx="25.6709" cy="233.191" r="13.6656" fill="#9BACF2"/>
<circle opacity="0.7" cx="110.918" cy="162.26" r="13.6656" fill="#9BACF2"/>
<circle opacity="0.7" cx="257.335" cy="84.8219" r="13.6656" fill="#9BACF2"/>
<circle opacity="0.7" cx="-11.422" cy="190.893" r="26.0297" fill="#8681FF"/>
<circle opacity="0.7" cx="70.2462" cy="83.1951" r="30.9102" fill="#8681FF"/>
<circle cx="244.587" cy="373.747" r="27.2472" transform="rotate(-118.034 244.587 373.747)" fill="#9BACF2"/>
<ellipse cx="101.092" cy="348.41" rx="23.9408" ry="25.0808" transform="rotate(-23.8051 101.092 348.41)" fill="#9BACF2"/>
<ellipse cx="162.851" cy="365.653" rx="18.3137" ry="17.867" transform="rotate(-118.034 162.851 365.653)" fill="#9BACF2"/>
<circle cx="223.057" cy="360.526" r="10.051" transform="rotate(-118.034 223.057 360.526)" fill="#9BACF2"/>
<circle cx="68.8817" cy="317.762" r="15.9605" transform="rotate(-23.8051 68.8817 317.762)" fill="#559BDD"/>
<circle cx="95.5578" cy="444.486" r="14.572" transform="rotate(-48.9999 95.5578 444.486)" fill="#39357D"/>
<circle cx="-7.67179" cy="375.23" r="17.1005" transform="rotate(-23.8051 -7.67179 375.23)" fill="#9BACF2"/>
<circle cx="219.608" cy="319.236" r="17.1005" transform="rotate(-23.8051 219.608 319.236)" fill="#9BACF2"/>
<ellipse cx="34.0543" cy="439.295" rx="13.847" ry="13.4003" transform="rotate(-118.034 34.0543 439.295)" fill="#9BACF2"/>
<circle cx="189.989" cy="316.233" r="12.5404" transform="rotate(-23.8051 189.989 316.233)" fill="#9BACF2"/>
<circle cx="195.016" cy="396.153" r="11.4495" transform="rotate(-48.9999 195.016 396.153)" fill="#3E73AF"/>
<circle cx="52.1943" cy="361.284" r="12.5404" transform="rotate(-23.8051 52.1943 361.284)" fill="#9BACF2"/>
<circle cx="98.6867" cy="486.927" r="11.4495" transform="rotate(-48.9999 98.6867 486.927)" fill="#9BACF2"/>
<circle cx="192.032" cy="271.556" r="12.5404" transform="rotate(-23.8051 192.032 271.556)" fill="#9BACF2"/>
</svg>
