<svg width="574" height="621" viewBox="0 0 574 621" fill="none" xmlns="http://www.w3.org/2000/svg">
<circle opacity="0.7" cx="90.5" cy="433.5" r="28.5" fill="#8681FF"/>
<circle opacity="0.7" cx="307" cy="351" r="21" fill="#559BDD"/>
<circle opacity="0.7" cx="35" cy="600" r="21" fill="#559BDD"/>
<circle opacity="0.7" cx="244" cy="192" r="21" fill="#4F4296"/>
<circle opacity="0.7" cx="62" cy="308" r="21" fill="#8681FF"/>
<circle opacity="0.7" cx="529" cy="167" r="21" fill="#8681FF"/>
<circle opacity="0.7" cx="458" cy="95" r="21" fill="#FFCE3F"/>
<circle opacity="0.7" cx="146.285" cy="403.523" r="21" transform="rotate(91.1459 146.285 403.523)" fill="#FFCE3F"/>
<circle opacity="0.7" cx="100" cy="154" r="59" fill="#4F4296"/>
<circle opacity="0.7" cx="279" cy="45" r="21" fill="#9BACF2"/>
<circle opacity="0.7" cx="189" cy="125" r="21" fill="#FFCE3F"/>
<circle opacity="0.7" cx="197" cy="382" r="21" fill="#9BACF2"/>
<circle opacity="0.7" cx="328" cy="273" r="21" fill="#9BACF2"/>
<circle opacity="0.7" cx="553" cy="154" r="21" fill="#9BACF2"/>
<circle opacity="0.7" cx="48" cy="351" r="21" fill="#9BACF2"/>
<circle opacity="0.7" cy="133" r="21" fill="#8681FF"/>
<circle opacity="0.7" cx="131.416" cy="504.416" r="21" transform="rotate(91.1459 131.416 504.416)" fill="#8681FF"/>
<circle opacity="0.7" cx="140" cy="317" r="40" fill="#8681FF"/>
<circle opacity="0.7" cx="265.5" cy="151.5" r="47.5" fill="#8681FF"/>
<circle opacity="0.7" cx="74.5" cy="561.5" r="47.5" fill="#9BACF2"/>
<circle opacity="0.7" cx="14.5" cy="47.5" r="47.5" fill="#9BACF2"/>
</svg>
