<svg width="319" height="357" viewBox="0 0 319 357" fill="none" xmlns="http://www.w3.org/2000/svg">
<circle opacity="0.7" cx="19.645" cy="19.645" r="19.645" transform="matrix(-0.960114 0.279611 0.279611 0.960114 320.096 214.371)" fill="#8681FF"/>
<circle opacity="0.7" cx="14.4753" cy="14.4753" r="14.4753" transform="matrix(-0.960114 0.279611 0.279611 0.960114 157.396 207.909)" fill="#559BDD"/>
<circle opacity="0.7" cx="14.4753" cy="14.4753" r="14.4753" transform="matrix(-0.960114 0.279611 0.279611 0.960114 168.445 90.5396)" fill="#4F4296"/>
<circle opacity="0.7" cx="14.4753" cy="14.4753" r="14.4753" transform="matrix(-0.960114 0.279611 0.279611 0.960114 311.251 132.231)" fill="#8681FF"/>
<circle opacity="0.7" cx="14.4753" cy="14.4753" r="14.4753" transform="matrix(-0.960114 0.279611 0.279611 0.960114 27.7958 22.8555)" fill="#8681FF"/>
<circle opacity="0.7" cx="14.4753" cy="14.4753" r="14.4753" transform="matrix(0.298756 0.95433 0.95433 -0.298756 245.892 220.149)" fill="#559BDD"/>
<circle opacity="0.7" cx="14.4753" cy="14.4753" r="14.4753" transform="matrix(0.298756 0.95433 0.95433 -0.298756 42.5455 21.1802)" fill="#559BDD"/>
<circle opacity="0.7" cx="40.6686" cy="40.6686" r="40.6686" transform="matrix(-0.960114 0.279611 0.279611 0.960114 274.246 5.16455)" fill="#4F4296"/>
<circle opacity="0.7" cx="14.4753" cy="14.4753" r="14.4753" transform="matrix(-0.960114 0.279611 0.279611 0.960114 116.95 0)" fill="#9BACF2"/>
<circle opacity="0.7" cx="14.4753" cy="14.4753" r="14.4753" transform="matrix(-0.960114 0.279611 0.279611 0.960114 191.931 35.5986)" fill="#9BACF2"/>
<circle opacity="0.7" cx="14.4753" cy="14.4753" r="14.4753" transform="matrix(-0.960114 0.279611 0.279611 0.960114 236.17 207.224)" fill="#9BACF2"/>
<circle opacity="0.7" cx="14.4753" cy="14.4753" r="14.4753" transform="matrix(-0.960114 0.279611 0.279611 0.960114 128.465 160.336)" fill="#9BACF2"/>
<circle opacity="0.7" cx="14.4753" cy="14.4753" r="14.4753" transform="matrix(-0.960114 0.279611 0.279611 0.960114 328.804 157.99)" fill="#9BACF2"/>
<circle opacity="0.7" cx="14.4753" cy="14.4753" r="14.4753" transform="matrix(-0.960114 0.279611 0.279611 0.960114 68.9329 29.0312)" fill="#9BACF2"/>
<circle opacity="0.7" cx="14.4753" cy="14.4753" r="14.4753" transform="matrix(-0.960114 0.279611 0.279611 0.960114 318.554 4.46582)" fill="#8681FF"/>
<circle opacity="0.7" cx="27.5719" cy="27.5719" r="26.0719" transform="matrix(-0.960114 0.279611 0.279611 0.960114 270.277 136.984)" stroke="#8681FF" stroke-width="3"/>
</svg>
