<svg width="322" height="477" viewBox="0 0 322 477" fill="none" xmlns="http://www.w3.org/2000/svg">
<circle opacity="0.7" cx="20.8072" cy="20.8072" r="20.8072" transform="matrix(-0.997517 0.0704238 0.0704238 0.997517 291.339 299.832)" fill="#8681FF"/>
<circle opacity="0.7" cx="15.3317" cy="15.3317" r="15.3317" transform="matrix(-0.997517 0.0704238 0.0704238 0.997517 124.352 256.729)" fill="#559BDD"/>
<circle opacity="0.7" cx="15.3317" cy="15.3317" r="15.3317" transform="matrix(-0.997517 0.0704238 0.0704238 0.997517 335.242 424.083)" fill="#559BDD"/>
<circle opacity="0.7" cx="15.3317" cy="15.3317" r="15.3317" transform="matrix(-0.997517 0.0704238 0.0704238 0.997517 162.058 137.696)" fill="#4F4296"/>
<circle opacity="0.7" cx="15.3317" cy="15.3317" r="15.3317" transform="matrix(-0.997517 0.0704238 0.0704238 0.997517 300.566 212.817)" fill="#8681FF"/>
<circle opacity="0.7" cx="15.3317" cy="15.3317" r="15.3317" transform="matrix(-0.997517 0.0704238 0.0704238 0.997517 31.5986 36.1479)" fill="#8681FF"/>
<circle opacity="0.7" cx="15.3317" cy="15.3317" r="15.3317" transform="matrix(0.0903592 0.995909 0.995909 -0.0903592 213.228 289.206)" fill="#559BDD"/>
<circle opacity="0.7" cx="15.3317" cy="15.3317" r="15.3317" transform="matrix(0.0903592 0.995909 0.995909 -0.0903592 47.2432 37.7148)" fill="#559BDD"/>
<circle opacity="0.7" cx="43.0746" cy="43.0746" r="43.0746" transform="matrix(-0.997517 0.0704238 0.0704238 0.997517 290.695 72.99)" fill="#4F4296"/>
<circle opacity="0.7" cx="15.3317" cy="15.3317" r="15.3317" transform="matrix(-0.997517 0.0704238 0.0704238 0.997517 129.01 32.4402)" fill="#9BACF2"/>
<circle opacity="0.7" cx="15.3317" cy="15.3317" r="15.3317" transform="matrix(-0.997517 0.0704238 0.0704238 0.997517 198.667 86.0741)" fill="#9BACF2"/>
<circle opacity="0.7" cx="15.3317" cy="15.3317" r="15.3317" transform="matrix(-0.997517 0.0704238 0.0704238 0.997517 206.055 273.65)" fill="#9BACF2"/>
<circle opacity="0.7" cx="15.3317" cy="15.3317" r="15.3317" transform="matrix(-0.997517 0.0704238 0.0704238 0.997517 105.048 201.004)" fill="#9BACF2"/>
<circle opacity="0.7" cx="15.3317" cy="15.3317" r="15.3317" transform="matrix(-0.997517 0.0704238 0.0704238 0.997517 312.973 243.413)" fill="#9BACF2"/>
<circle opacity="0.7" cx="15.3317" cy="15.3317" r="15.3317" transform="matrix(-0.997517 0.0704238 0.0704238 0.997517 72.8035 51.7483)" fill="#9BACF2"/>
<circle opacity="0.7" cx="15.3317" cy="15.3317" r="15.3317" transform="matrix(-0.997517 0.0704238 0.0704238 0.997517 336.721 82.1827)" fill="#8681FF"/>
<circle opacity="0.7" cx="15.3317" cy="15.3317" r="15.3317" transform="matrix(0.0903592 0.995909 0.995909 -0.0903592 229.243 361.919)" fill="#8681FF"/>
<circle opacity="0.7" cx="29.2031" cy="29.2031" r="29.2031" transform="matrix(-0.997517 0.0704238 0.0704238 0.997517 257.084 208.568)" fill="#8681FF"/>
<circle opacity="0.7" cx="34.6787" cy="34.6787" r="34.6787" transform="matrix(-0.997517 0.0704238 0.0704238 0.997517 170.327 265.194)" fill="#8681FF"/>
<circle opacity="0.7" cx="34.6787" cy="34.6787" r="34.6787" transform="matrix(-0.997517 0.0704238 0.0704238 0.997517 322.433 377.414)" fill="#9BACF2"/>
<circle opacity="0.7" cx="34.6787" cy="34.6787" r="34.6787" transform="matrix(-0.997517 0.0704238 0.0704238 0.997517 339.702 0)" fill="#9BACF2"/>
</svg>
