<svg width="484" height="1077" viewBox="0 0 484 1077" fill="none" xmlns="http://www.w3.org/2000/svg">
<circle opacity="0.7" cx="320.006" cy="534.62" r="23.2191" transform="rotate(-19.1408 320.006 534.62)" fill="#8681FF"/>
<circle opacity="0.7" cx="464.6" cy="413.288" r="17.1088" transform="rotate(-19.1408 464.6 413.288)" fill="#559BDD"/>
<circle opacity="0.7" cx="321.768" cy="677.595" r="17.1088" transform="rotate(-19.1408 321.768 677.595)" fill="#559BDD"/>
<circle opacity="0.7" cx="373.637" cy="307.74" r="17.1088" transform="rotate(-19.1408 373.637 307.74)" fill="#4F4296"/>
<circle opacity="0.7" cx="264.545" cy="445.64" r="17.1088" transform="rotate(-19.1408 264.545 445.64)" fill="#8681FF"/>
<circle opacity="0.7" cx="462.863" cy="146.267" r="17.1088" transform="rotate(-19.1408 462.863 146.267)" fill="#8681FF"/>
<circle opacity="0.7" cx="354.934" cy="496.645" r="17.1088" transform="rotate(72.0051 354.934 496.645)" fill="#559BDD"/>
<circle opacity="0.7" cx="414.744" cy="165.75" r="17.1088" transform="rotate(72.0051 414.744 165.75)" fill="#559BDD"/>
<circle opacity="0.7" cx="252.654" cy="316.96" r="48.0676" transform="rotate(-19.1408 252.654 316.96)" fill="#4F4296"/>
<circle opacity="0.7" cx="361.306" cy="185.25" r="17.1088" transform="rotate(-19.1408 361.306 185.25)" fill="#9BACF2"/>
<circle opacity="0.7" cx="313.407" cy="270.865" r="17.1088" transform="rotate(-19.1408 313.407 270.865)" fill="#9BACF2"/>
<circle opacity="0.7" cx="388.218" cy="466.532" r="17.1088" transform="rotate(-19.1408 388.218 466.532)" fill="#9BACF2"/>
<circle opacity="0.7" cx="459.927" cy="347.644" r="17.1088" transform="rotate(-19.1408 459.927 347.644)" fill="#9BACF2"/>
<circle opacity="0.7" cx="265.257" cy="482.475" r="17.1088" transform="rotate(-19.1408 265.257 482.475)" fill="#9BACF2"/>
<circle opacity="0.7" cx="427.446" cy="180.369" r="17.1088" transform="rotate(-19.1408 427.446 180.369)" fill="#9BACF2"/>
<circle opacity="0.7" cx="170.077" cy="327.511" r="17.1088" transform="rotate(-19.1408 170.077 327.511)" fill="#8681FF"/>
<circle opacity="0.7" cx="370.442" cy="578.271" r="17.1088" transform="rotate(72.0051 370.442 578.271)" fill="#8681FF"/>
<circle opacity="0.7" cx="326.983" cy="431.73" r="32.5882" transform="rotate(-19.1408 326.983 431.73)" fill="#8681FF"/>
<circle opacity="0.7" cx="448.63" cy="455.482" r="38.6985" transform="rotate(-19.1408 448.63 455.482)" fill="#8681FF"/>
<circle opacity="0.7" cx="341.885" cy="637.411" r="38.6985" transform="rotate(-19.1408 341.885 637.411)" fill="#9BACF2"/>
<circle opacity="0.7" cx="158.398" cy="257.831" r="38.6985" transform="rotate(-19.1408 158.398 257.831)" fill="#9BACF2"/>
<circle opacity="0.7" cx="111.263" cy="94.9112" r="15.8561" transform="rotate(83.6628 111.263 94.9112)" fill="#8681FF"/>
<circle opacity="0.7" cx="170.177" cy="209.559" r="11.6834" transform="rotate(83.6628 170.177 209.559)" fill="#559BDD"/>
<circle opacity="0.7" cx="15.788" cy="74.4471" r="11.6834" transform="rotate(83.6628 15.788 74.4471)" fill="#559BDD"/>
<circle opacity="0.7" cx="254.228" cy="164.959" r="11.6834" transform="rotate(83.6628 254.228 164.959)" fill="#4F4296"/>
<circle opacity="0.7" cx="178.909" cy="71.4449" r="11.6834" transform="rotate(83.6628 178.909 71.4449)" fill="#8681FF"/>
<circle opacity="0.7" cx="348.251" cy="248.812" r="11.6834" transform="rotate(83.6628 348.251 248.812)" fill="#8681FF"/>
<circle opacity="0.7" cx="131.265" cy="123.917" r="11.6834" transform="rotate(174.809 131.265 123.917)" fill="#559BDD"/>
<circle opacity="0.7" cx="342.56" cy="213.821" r="11.6834" transform="rotate(174.809 342.56 213.821)" fill="#559BDD"/>
<circle opacity="0.7" cx="266.397" cy="82.9999" r="32.8249" transform="rotate(83.6628 266.397 82.9999)" fill="#4F4296"/>
<circle opacity="0.7" cx="337.662" cy="175.285" r="11.6834" transform="rotate(83.6628 337.662 175.285)" fill="#9BACF2"/>
<circle opacity="0.7" cx="287.898" cy="130.432" r="11.6834" transform="rotate(83.6628 287.898 130.432)" fill="#9BACF2"/>
<circle opacity="0.7" cx="146.28" cy="150.638" r="11.6834" transform="rotate(83.6628 146.28 150.638)" fill="#9BACF2"/>
<circle opacity="0.7" cx="214.597" cy="216.382" r="11.6834" transform="rotate(83.6628 214.597 216.382)" fill="#9BACF2"/>
<circle opacity="0.7" cx="154.272" cy="66.3443" r="11.6834" transform="rotate(83.6628 154.272 66.3443)" fill="#9BACF2"/>
<circle opacity="0.7" cx="330.903" cy="220.067" r="11.6834" transform="rotate(83.6628 330.903 220.067)" fill="#9BACF2"/>
<circle opacity="0.7" cx="271.868" cy="26.4151" r="11.6834" transform="rotate(83.6628 271.868 26.4151)" fill="#8681FF"/>
<circle opacity="0.7" cx="74.5626" cy="121.891" r="11.6834" transform="rotate(174.809 74.5626 121.891)" fill="#8681FF"/>
<circle opacity="0.7" cx="178.722" cy="115.128" r="22.2541" transform="rotate(83.6628 178.722 115.128)" fill="#8681FF"/>
<circle opacity="0.7" cx="144.497" cy="192.539" r="26.4268" transform="rotate(83.6628 144.497 192.539)" fill="#8681FF"/>
<circle opacity="0.7" cx="39.5025" cy="93.9242" r="26.4268" transform="rotate(83.6628 39.5025 93.9242)" fill="#9BACF2"/>
<circle opacity="0.7" cx="320.036" cy="29.1823" r="26.4268" transform="rotate(83.6628 320.036 29.1823)" fill="#9BACF2"/>
<circle opacity="0.7" cx="515.893" cy="671.201" r="49.3298" transform="rotate(-19.1408 515.893 671.201)" fill="#4F4296"/>
<circle opacity="0.7" cx="431.148" cy="682.028" r="17.5581" transform="rotate(-19.1408 431.148 682.028)" fill="#8681FF"/>
<circle opacity="0.7" cx="419.162" cy="610.519" r="39.7147" transform="rotate(-19.1408 419.162 610.519)" fill="#9BACF2"/>
</svg>
