<svg width="352" height="406" viewBox="0 0 352 406" fill="none" xmlns="http://www.w3.org/2000/svg">
<circle opacity="0.7" cx="35.7422" cy="283.416" r="18.6329" fill="#FFC63B"/>
<circle opacity="0.7" cx="177.287" cy="229.478" r="13.7295" fill="#559BDD"/>
<circle opacity="0.7" cx="-0.542993" cy="392.27" r="13.7295" fill="#559BDD"/>
<circle opacity="0.7" cx="136.099" cy="125.527" r="13.7295" fill="#4F4296"/>
<circle opacity="0.7" cx="17.1094" cy="201.366" r="13.7295" fill="#8681FF"/>
<circle opacity="0.7" cx="322.427" cy="109.182" r="13.7295" fill="#559BDD"/>
<circle opacity="0.7" cx="276.008" cy="62.1094" r="13.7295" fill="#8681FF"/>
<circle opacity="0.7" cx="72.2135" cy="263.817" r="13.7295" transform="rotate(91.1459 72.2135 263.817)" fill="#559BDD"/>
<circle opacity="0.7" cx="41.9532" cy="100.683" r="38.5733" fill="#4F4296"/>
<circle opacity="0.7" cx="158.981" cy="29.4204" r="13.7295" fill="#9BACF2"/>
<circle opacity="0.7" cx="100.141" cy="81.7231" r="13.7295" fill="#9BACF2"/>
<circle opacity="0.7" cx="105.37" cy="249.746" r="13.7295" fill="#9BACF2"/>
<circle opacity="0.7" cx="191.016" cy="178.483" r="13.7295" fill="#9BACF2"/>
<circle opacity="0.7" cx="338.118" cy="100.683" r="13.7295" fill="#FFC63B"/>
<circle opacity="0.7" cx="7.95603" cy="229.478" r="13.7295" fill="#9BACF2"/>
<circle opacity="0.7" cx="62.4928" cy="329.779" r="13.7295" transform="rotate(91.1459 62.4928 329.779)" fill="#8681FF"/>
<circle opacity="0.7" cx="68.1045" cy="207.25" r="26.1514" fill="#8681FF"/>
<circle opacity="0.7" cx="150.154" cy="99.0484" r="31.0548" fill="#8681FF"/>
<circle opacity="0.7" cx="25.2813" cy="367.1" r="31.0548" fill="#9BACF2"/>
<circle opacity="0.7" cx="-13.9452" cy="31.0548" r="31.0548" fill="#FFC63B"/>
</svg>
