<svg width="465" height="668" viewBox="0 0 465 668" fill="none" xmlns="http://www.w3.org/2000/svg">
<circle opacity="0.7" cx="27.5143" cy="27.5143" r="27.5143" transform="matrix(0.748844 -0.662746 -0.662746 -0.748844 172.904 339.82)" fill="#8681FF"/>
<circle opacity="0.7" cx="20.2737" cy="20.2737" r="20.2737" transform="matrix(0.748844 -0.662746 -0.662746 -0.748844 382.83 250.721)" fill="#FFCE3F"/>
<circle opacity="0.7" cx="20.2737" cy="20.2737" r="20.2737" transform="matrix(0.748844 -0.662746 -0.662746 -0.748844 26.8726 244.74)" fill="#FFCE3F"/>
<circle opacity="0.7" cx="20.2737" cy="20.2737" r="20.2737" transform="matrix(0.748844 -0.662746 -0.662746 -0.748844 439.016 405.978)" fill="#4F4296"/>
<circle opacity="0.7" cx="20.2737" cy="20.2737" r="20.2737" transform="matrix(0.748844 -0.662746 -0.662746 -0.748844 411.108 588.25)" fill="#8681FF"/>
<circle opacity="0.7" cx="20.2737" cy="20.2737" r="20.2737" transform="matrix(-0.67759 -0.73544 -0.73544 0.67759 441.316 437.82)" fill="#559BDD"/>
<circle opacity="0.7" cx="20.2737" cy="20.2737" r="20.2737" transform="matrix(0.748844 -0.662746 -0.662746 -0.748844 438.649 335.042)" fill="#9BACF2"/>
<circle opacity="0.7" cx="20.2737" cy="20.2737" r="20.2737" transform="matrix(0.748844 -0.662746 -0.662746 -0.748844 283.472 298.69)" fill="#9BACF2"/>
<circle opacity="0.7" cx="20.2737" cy="20.2737" r="20.2737" transform="matrix(0.748844 -0.662746 -0.662746 -0.748844 447.918 293.674)" fill="#9BACF2"/>
<circle opacity="0.7" cx="20.2737" cy="20.2737" r="20.2737" transform="matrix(0.748844 -0.662746 -0.662746 -0.748844 195.587 416.435)" fill="#9BACF2"/>
<circle opacity="0.7" cx="20.2737" cy="20.2737" r="20.2737" transform="matrix(0.748844 -0.662746 -0.662746 -0.748844 355.808 415.163)" fill="#8681FF"/>
<circle opacity="0.7" cx="20.2737" cy="20.2737" r="20.2737" transform="matrix(-0.67759 -0.73544 -0.73544 0.67759 188.126 224.707)" fill="#8681FF"/>
<circle opacity="0.7" cx="38.6166" cy="38.6166" r="38.6166" transform="matrix(0.748844 -0.662746 -0.662746 -0.748844 341.186 373.022)" fill="#559BDD"/>
<circle opacity="0.7" cx="38.6166" cy="38.6166" r="38.6166" transform="matrix(0.748844 -0.662746 -0.662746 -0.748844 450.207 624.021)" fill="#8681FF"/>
<circle opacity="0.7" cx="45.8572" cy="45.8572" r="45.8572" transform="matrix(0.748844 -0.662746 -0.662746 -0.748844 327.771 278.823)" fill="#8681FF"/>
<circle opacity="0.7" cx="45.8572" cy="45.8572" r="45.8572" transform="matrix(0.748844 -0.662746 -0.662746 -0.748844 77.8596 283.413)" fill="#9BACF2"/>
<circle opacity="0.7" cx="56.9594" cy="56.9594" r="56.9594" transform="matrix(0.748844 -0.662746 -0.662746 -0.748844 460.499 494.807)" fill="#FFCE3F"/>
</svg>
