<svg width="203" height="477" viewBox="0 0 203 477" fill="none" xmlns="http://www.w3.org/2000/svg">
<circle opacity="0.7" cx="15.3317" cy="15.3317" r="15.3317" transform="matrix(-0.997517 0.0704238 0.0704238 0.997517 124.352 256.729)" fill="#559BDD"/>
<circle opacity="0.7" cx="15.3317" cy="15.3317" r="15.3317" transform="matrix(-0.997517 0.0704238 0.0704238 0.997517 162.058 137.696)" fill="#4F4296"/>
<circle opacity="0.7" cx="15.3317" cy="15.3317" r="15.3317" transform="matrix(-0.997517 0.0704238 0.0704238 0.997517 31.5986 36.1479)" fill="#8681FF"/>
<circle opacity="0.7" cx="15.3317" cy="15.3317" r="15.3317" transform="matrix(0.0903592 0.995909 0.995909 -0.0903592 47.2432 37.7148)" fill="#559BDD"/>
<circle opacity="0.7" cx="15.3317" cy="15.3317" r="15.3317" transform="matrix(-0.997517 0.0704238 0.0704238 0.997517 129.01 32.4399)" fill="#FFC63B"/>
<circle opacity="0.7" cx="15.3317" cy="15.3317" r="15.3317" transform="matrix(-0.997517 0.0704238 0.0704238 0.997517 198.667 86.0742)" fill="#9BACF2"/>
<circle opacity="0.7" cx="15.3317" cy="15.3317" r="15.3317" transform="matrix(-0.997517 0.0704238 0.0704238 0.997517 206.055 273.65)" fill="#FFC63B"/>
<circle opacity="0.7" cx="15.3317" cy="15.3317" r="15.3317" transform="matrix(-0.997517 0.0704238 0.0704238 0.997517 105.048 201.004)" fill="#9BACF2"/>
<circle opacity="0.7" cx="15.3317" cy="15.3317" r="15.3317" transform="matrix(-0.997517 0.0704238 0.0704238 0.997517 72.8037 51.748)" fill="#9BACF2"/>
<circle opacity="0.7" cx="29.2031" cy="29.2031" r="29.2031" transform="matrix(-0.997517 0.0704238 0.0704238 0.997517 257.084 208.568)" fill="#8681FF"/>
<circle opacity="0.7" cx="34.6787" cy="34.6787" r="34.6787" transform="matrix(-0.997517 0.0704238 0.0704238 0.997517 170.327 265.194)" fill="#8681FF"/>
</svg>
