<svg width="333" height="951" viewBox="0 0 333 951" fill="none" xmlns="http://www.w3.org/2000/svg">
<circle opacity="0.7" cx="23.8288" cy="23.8288" r="23.8288" transform="matrix(-0.950969 -0.309285 -0.309285 0.950969 152.199 418.072)" fill="#8681FF"/>
<circle opacity="0.7" cx="17.5581" cy="17.5581" r="17.5581" transform="matrix(-0.950969 -0.309285 -0.309285 0.950969 145.369 568.832)" fill="#559BDD"/>
<circle opacity="0.7" cx="17.5581" cy="17.5581" r="17.5581" transform="matrix(-0.950969 -0.309285 -0.309285 0.950969 84.6984 190.384)" fill="#4F4296"/>
<circle opacity="0.7" cx="17.5581" cy="17.5581" r="17.5581" transform="matrix(-0.950969 -0.309285 -0.309285 0.950969 199.41 329.68)" fill="#8681FF"/>
<circle opacity="0.7" cx="17.5581" cy="17.5581" r="17.5581" transform="matrix(-0.290205 0.956964 0.956964 0.290205 73.8591 373.204)" fill="#559BDD"/>
<circle opacity="0.7" cx="17.5581" cy="17.5581" r="17.5581" transform="matrix(-0.290205 0.956964 0.956964 0.290205 5.82568 34.8908)" fill="#559BDD"/>
<circle opacity="0.7" cx="49.3298" cy="49.3298" r="49.3298" transform="matrix(-0.950969 -0.309285 -0.309285 0.950969 249.06 177.02)" fill="#4F4296"/>
<circle opacity="0.7" cx="17.5581" cy="17.5581" r="17.5581" transform="matrix(-0.950969 -0.309285 -0.309285 0.950969 94.8831 64.4533)" fill="#9BACF2"/>
<circle opacity="0.7" cx="17.5581" cy="17.5581" r="17.5581" transform="matrix(-0.950969 -0.309285 -0.309285 0.950969 145.755 151.335)" fill="#9BACF2"/>
<circle opacity="0.7" cx="17.5581" cy="17.5581" r="17.5581" transform="matrix(-0.950969 -0.309285 -0.309285 0.950969 72.9357 353.608)" fill="#9BACF2"/>
<circle opacity="0.7" cx="17.5581" cy="17.5581" r="17.5581" transform="matrix(-0.950969 -0.309285 -0.309285 0.950969 199.422 367.49)" fill="#9BACF2"/>
<circle opacity="0.7" cx="17.5581" cy="17.5581" r="17.5581" transform="matrix(-0.950969 -0.309285 -0.309285 0.950969 26.9215 60.7775)" fill="#9BACF2"/>
<circle opacity="0.7" cx="17.5581" cy="17.5581" r="17.5581" transform="matrix(-0.950969 -0.309285 -0.309285 0.950969 293.961 206.57)" fill="#8681FF"/>
<circle opacity="0.7" cx="17.5581" cy="17.5581" r="17.5581" transform="matrix(-0.290205 0.956964 0.956964 0.290205 59.5914 457.269)" fill="#8681FF"/>
<circle opacity="0.7" cx="33.4439" cy="33.4439" r="33.4439" transform="matrix(-0.950969 -0.309285 -0.309285 0.950969 155.085 306.472)" fill="#8681FF"/>
<circle opacity="0.7" cx="39.7147" cy="39.7147" r="39.7147" transform="matrix(-0.950969 -0.309285 -0.309285 0.950969 38.6495 329.269)" fill="#8681FF"/>
<circle opacity="0.7" cx="39.7147" cy="39.7147" r="39.7147" transform="matrix(-0.950969 -0.309285 -0.309285 0.950969 151.841 513.789)" fill="#9BACF2"/>
<circle opacity="0.7" cx="39.7147" cy="39.7147" r="39.7147" transform="matrix(-0.950969 -0.309285 -0.309285 0.950969 332.464 120.621)" fill="#9BACF2"/>
<circle opacity="0.7" cx="13.9715" cy="13.9715" r="13.9715" transform="matrix(0.0986535 -0.995122 -0.995122 -0.0986535 59.7308 769.869)" fill="#4F4296"/>
<circle opacity="0.7" cx="13.9715" cy="13.9715" r="13.9715" transform="matrix(0.0986535 -0.995122 -0.995122 -0.0986535 170.977 668.275)" fill="#8681FF"/>
<circle opacity="0.7" cx="13.9715" cy="13.9715" r="13.9715" transform="matrix(-0.996896 -0.0787322 -0.0787322 0.996896 167.168 682.087)" fill="#559BDD"/>
<circle opacity="0.7" cx="39.2532" cy="39.2532" r="39.2532" transform="matrix(0.0986535 -0.995122 -0.995122 -0.0986535 98.1021 895.352)" fill="#4F4296"/>
<circle opacity="0.7" cx="13.9715" cy="13.9715" r="13.9715" transform="matrix(0.0986535 -0.995122 -0.995122 -0.0986535 159.351 756.345)" fill="#9BACF2"/>
<circle opacity="0.7" cx="13.9715" cy="13.9715" r="13.9715" transform="matrix(0.0986535 -0.995122 -0.995122 -0.0986535 100.479 810.68)" fill="#9BACF2"/>
<circle opacity="0.7" cx="13.9715" cy="13.9715" r="13.9715" transform="matrix(0.0986535 -0.995122 -0.995122 -0.0986535 11.6171 708.939)" fill="#9BACF2"/>
<circle opacity="0.7" cx="13.9715" cy="13.9715" r="13.9715" transform="matrix(0.0986535 -0.995122 -0.995122 -0.0986535 150.638 702.892)" fill="#9BACF2"/>
<circle opacity="0.7" cx="13.9715" cy="13.9715" r="13.9715" transform="matrix(0.0986535 -0.995122 -0.995122 -0.0986535 82.7777 935.284)" fill="#8681FF"/>
<circle opacity="0.7" cx="31.6021" cy="31.6021" r="31.6021" transform="matrix(0.0986535 -0.995122 -0.995122 -0.0986535 156.141 950.58)" fill="#9BACF2"/>
</svg>
