<svg width="263" height="364" viewBox="0 0 263 364" fill="none" xmlns="http://www.w3.org/2000/svg">
<circle opacity="0.7" cx="15.3317" cy="15.3317" r="15.3317" transform="matrix(-0.924792 -0.380474 -0.380474 0.924792 42.0911 156.913)" fill="#4F4296"/>
<circle opacity="0.7" cx="15.3317" cy="15.3317" r="15.3317" transform="matrix(-0.924792 -0.380474 -0.380474 0.924792 132.75 285.788)" fill="#081544"/>
<circle opacity="0.7" cx="15.3317" cy="15.3317" r="15.3317" transform="matrix(-0.361903 0.932216 0.932216 0.361903 33.531 190.79)" fill="#559BDD"/>
<circle opacity="0.7" cx="15.3317" cy="15.3317" r="15.3317" transform="matrix(-0.361903 0.932216 0.932216 0.361903 -16.2913 16.307)" fill="#559BDD"/>
<circle opacity="0.7" cx="43.0746" cy="43.0746" r="43.0746" transform="matrix(-0.924792 -0.380474 -0.380474 0.924792 186.083 156.155)" fill="#4F4296"/>
<circle opacity="0.7" cx="15.3317" cy="15.3317" r="15.3317" transform="matrix(-0.924792 -0.380474 -0.380474 0.924792 59.2932 47.9407)" fill="#081544"/>
<circle opacity="0.7" cx="15.3317" cy="15.3317" r="15.3317" transform="matrix(-0.924792 -0.380474 -0.380474 0.924792 97.8364 126.954)" fill="#9BACF2"/>
<circle opacity="0.7" cx="15.3317" cy="15.3317" r="15.3317" transform="matrix(-0.924792 -0.380474 -0.380474 0.924792 34.0239 173.667)" fill="#9BACF2"/>
<circle opacity="0.7" cx="15.3317" cy="15.3317" r="15.3317" transform="matrix(-0.924792 -0.380474 -0.380474 0.924792 130.258 318.709)" fill="#9BACF2"/>
<circle opacity="0.7" cx="15.3317" cy="15.3317" r="15.3317" transform="matrix(-0.924792 -0.380474 -0.380474 0.924792 223.221 184.855)" fill="#8681FF"/>
<circle opacity="0.7" cx="15.3317" cy="15.3317" r="15.3317" transform="matrix(-0.361903 0.932216 0.932216 0.361903 15.5444 263.04)" fill="#8681FF"/>
<circle opacity="0.9" cx="34.6787" cy="34.6787" r="34.6787" transform="matrix(-0.924792 -0.380474 -0.380474 0.924792 262.434 112.569)" fill="#081544"/>
</svg>
