<svg width="253" height="615" viewBox="0 0 253 615" fill="none" xmlns="http://www.w3.org/2000/svg">
<circle opacity="0.7" cx="210.295" cy="433.362" r="23.8288" transform="rotate(-18.0162 210.295 433.362)" fill="#8681FF"/>
<circle opacity="0.7" cx="209.223" cy="580.099" r="17.5581" transform="rotate(-18.0162 209.223 580.099)" fill="#559BDD"/>
<circle opacity="0.7" cx="269.893" cy="201.651" r="17.5581" transform="rotate(-18.0162 269.893 201.651)" fill="#4F4296"/>
<circle opacity="0.7" cx="155.182" cy="340.947" r="17.5581" transform="rotate(-18.0162 155.182 340.947)" fill="#8681FF"/>
<circle opacity="0.7" cx="246.898" cy="395.102" r="17.5581" transform="rotate(73.1298 246.898 395.102)" fill="#559BDD"/>
<circle opacity="0.7" cx="145.572" cy="208.674" r="49.3298" transform="rotate(-18.0162 145.572 208.674)" fill="#4F4296"/>
<circle opacity="0.7" cx="259.709" cy="75.7201" r="17.5581" transform="rotate(-18.0162 259.709 75.7201)" fill="#9BACF2"/>
<circle opacity="0.7" cx="208.837" cy="162.602" r="17.5581" transform="rotate(-18.0162 208.837 162.602)" fill="#9BACF2"/>
<circle opacity="0.7" cx="155.169" cy="378.757" r="17.5581" transform="rotate(-18.0162 155.169 378.757)" fill="#9BACF2"/>
<circle opacity="0.7" cx="60.6312" cy="217.836" r="17.5581" transform="rotate(-18.0162 60.6312 217.836)" fill="#8681FF"/>
<circle opacity="0.7" cx="261.166" cy="479.167" r="17.5581" transform="rotate(73.1298 261.166 479.167)" fill="#8681FF"/>
<circle opacity="0.7" cx="219.527" cy="327.933" r="33.4439" transform="rotate(-18.0162 219.527 327.933)" fill="#8681FF"/>
<circle opacity="0.7" cx="230.674" cy="539.273" r="39.7147" transform="rotate(-18.0162 230.674 539.273)" fill="#9BACF2"/>
<circle opacity="0.7" cx="50.0506" cy="146.106" r="39.7147" transform="rotate(-18.0162 50.0506 146.106)" fill="#9BACF2"/>
</svg>
