<svg width="1200" height="407" viewBox="0 0 1200 407" fill="none" xmlns="http://www.w3.org/2000/svg">
<g clip-path="url(#clip0_452_1880)">
<circle cx="22.6926" cy="22.6926" r="22.6926" transform="matrix(0 1 1 0 915.145 241.807)" fill="#9BACF2"/>
<ellipse cx="19.9389" cy="20.8883" rx="19.9389" ry="20.8883" transform="matrix(0.553384 0.832926 0.832926 -0.553384 606.931 349.606)" fill="#559BDD"/>
<ellipse cx="19.9389" cy="20.8883" rx="19.9389" ry="20.8883" transform="matrix(0.997277 -0.0737469 -0.0737469 -0.997277 823.925 361.597)" fill="#9BACF2"/>
<circle cx="22.6926" cy="22.6926" r="22.6926" transform="matrix(0 1 1 0 482.125 310.256)" fill="#9BACF2"/>
<ellipse cx="15.2524" cy="14.8804" rx="15.2524" ry="14.8804" transform="matrix(0 1 1 0 866.04 287.192)" fill="#9BACF2"/>
<ellipse cx="14.242" cy="13.2926" rx="14.242" ry="13.2926" transform="matrix(0.553384 0.832926 0.832926 -0.553384 587.815 359.193)" fill="#9BACF2"/>
<ellipse cx="15.2524" cy="14.8804" rx="15.2524" ry="14.8804" transform="matrix(0 1 1 0 427.068 267.103)" fill="#9BACF2"/>
<ellipse cx="15.2524" cy="14.8804" rx="15.2524" ry="14.8804" transform="matrix(0 1 1 0 421.859 312.489)" fill="#9BACF2"/>
<circle cx="8.37088" cy="8.37088" r="8.37088" transform="matrix(0 1 1 0 918.815 274.275)" fill="#9BACF2"/>
<circle cx="13.2926" cy="13.2926" r="13.2926" transform="matrix(0.997277 -0.0737469 -0.0737469 -0.997277 818.311 388.669)" fill="#559BDD"/>
<circle cx="13.2926" cy="13.2926" r="13.2926" transform="matrix(0.997277 -0.0737469 -0.0737469 -0.997277 569.448 406.436)" fill="#559BDD"/>
<ellipse cx="14.8804" cy="15.2524" rx="14.8804" ry="15.2524" transform="matrix(0 1 1 0 451.62 302.816)" fill="#559BDD"/>
<circle cx="14.242" cy="14.242" r="14.242" transform="matrix(0.553384 0.832926 0.832926 -0.553384 492.91 380.351)" fill="#9BACF2"/>
<circle cx="14.242" cy="14.242" r="14.242" transform="matrix(0.997277 -0.0737469 -0.0737469 -0.997277 738.664 377.406)" fill="#9BACF2"/>
<circle cx="14.242" cy="14.242" r="14.242" transform="matrix(0.997277 -0.0737469 -0.0737469 -0.997277 421.726 262.641)" fill="#9BACF2"/>
<ellipse cx="11.5323" cy="11.1603" rx="11.5323" ry="11.1603" transform="matrix(0 1 1 0 746.252 287.192)" fill="#9BACF2"/>
<circle cx="10.4442" cy="10.4442" r="10.4442" transform="matrix(0.553384 0.832926 0.832926 -0.553384 453.167 343.392)" fill="#9BACF2"/>
<circle cx="10.4442" cy="10.4442" r="10.4442" transform="matrix(0.997277 -0.0737469 -0.0737469 -0.997277 702.055 383.04)" fill="#9BACF2"/>
<circle cx="11.1603" cy="11.1603" r="11.1603" transform="matrix(0 1 1 0 659 344)" fill="#9BACF2"/>
<circle cx="10.4442" cy="10.4442" r="10.4442" transform="matrix(0.553384 0.832926 0.832926 -0.553384 391 357.559)" fill="#559BDD"/>
<circle cx="10.4442" cy="10.4442" r="10.4442" transform="matrix(0.553384 0.832926 0.832926 -0.553384 459.12 389.522)" fill="#559BDD"/>
<circle cx="10.4442" cy="10.4442" r="10.4442" transform="matrix(0.997277 -0.0737469 -0.0737469 -0.997277 791.639 360.157)" fill="#9BACF2"/>
<circle cx="10.4442" cy="10.4442" r="10.4442" transform="matrix(0.997277 -0.0737469 -0.0737469 -0.997277 929.559 371.38)" fill="#9BACF2"/>
<ellipse cx="6.32417" cy="6.69618" rx="6.32417" ry="6.69618" transform="matrix(0 1 1 0 514.118 357.874)" fill="#9BACF2"/>
<path d="M548.6 78.381V232.534C548.6 291.264 596.21 338.875 654.94 338.875C713.671 338.875 761.281 291.264 761.281 232.534V78.381L548.6 78.381Z" fill="#4F4296"/>
<path d="M432.765 108.764V256.881C432.765 294.636 463.371 325.243 501.126 325.243C538.882 325.243 569.488 294.636 569.488 256.881V108.764L432.765 108.764Z" fill="#4F4296"/>
<path d="M598.903 188.981V284.128C598.903 308.381 618.564 328.042 642.817 328.042C667.07 328.042 686.731 308.381 686.731 284.128V188.981H598.903Z" fill="#9BACF2"/>
<path d="M635 210V282.16C635 319.915 665.607 350.521 703.362 350.521C741.117 350.521 771.724 319.915 771.724 282.16V210H635Z" fill="#559BDD"/>
<path d="M912.537 159.291V253.463C912.537 267.333 923.78 278.576 937.65 278.576C951.519 278.576 962.762 267.333 962.762 253.463V159.291L912.537 159.291Z" fill="#9BACF2"/>
<path d="M830.921 165.8V250.742C830.921 283.104 857.155 309.339 889.517 309.339C921.879 309.339 948.113 283.104 948.113 250.742V165.8H830.921Z" fill="#4F4296"/>
<path fill-rule="evenodd" clip-rule="evenodd" d="M427.068 174.119L427.068 0L962.762 0V172.335V210.744V242.305C889.266 245.994 803.19 248.116 711.177 248.116C605.22 248.116 507.136 245.302 427.068 240.522L427.068 210.744L427.068 174.119Z" fill="#0C0728"/>
<path d="M862.312 143.85V237.163C862.312 264.902 884.798 287.389 912.537 287.389C940.276 287.389 962.762 264.902 962.762 237.163V143.85H862.312Z" fill="#0C0728"/>
<path d="M677.167 87.7944V241.948C677.167 300.678 724.777 348.288 783.508 348.288C842.238 348.288 889.848 300.678 889.848 241.948V87.7944L677.167 87.7944Z" fill="#0C0728"/>
<path d="M540.267 81.0982V235.251C540.267 293.982 587.878 341.592 646.608 341.592C705.338 341.592 752.949 293.982 752.949 235.251V81.0982L540.267 81.0982Z" fill="#0C0728"/>
<path d="M449.855 97.3704V251.524C449.855 310.254 497.465 357.864 556.196 357.864C614.926 357.864 662.536 310.254 662.536 251.524V97.3704L449.855 97.3704Z" fill="#0C0728"/>
<ellipse cx="47.2453" cy="47.6173" rx="47.2453" ry="47.6173" transform="matrix(0 1 1 0 412.931 203.118)" fill="#0C0728"/>
<circle cx="24.9247" cy="264.499" r="22.6926" transform="rotate(90 24.9247 264.499)" fill="#9BACF2"/>
<ellipse cx="327.399" cy="354.655" rx="19.9389" ry="20.8883" transform="rotate(123.6 327.399 354.655)" fill="#559BDD"/>
<ellipse cx="120.493" cy="339.295" rx="19.9389" ry="20.8883" transform="rotate(-175.771 120.493 339.295)" fill="#9BACF2"/>
<ellipse cx="81.8423" cy="302.444" rx="15.2524" ry="14.8804" transform="rotate(90 81.8423 302.444)" fill="#9BACF2"/>
<ellipse cx="355.994" cy="363.7" rx="14.242" ry="13.2926" transform="rotate(123.6 355.994 363.7)" fill="#9BACF2"/>
<ellipse cx="520.814" cy="282.356" rx="15.2524" ry="14.8804" transform="rotate(90 520.814 282.356)" fill="#9BACF2"/>
<ellipse cx="526.022" cy="327.741" rx="15.2524" ry="14.8804" transform="rotate(90 526.022 327.741)" fill="#9BACF2"/>
<circle cx="35.5763" cy="282.646" r="8.37088" transform="rotate(90 35.5763 282.646)" fill="#9BACF2"/>
<circle cx="132.175" cy="374.433" r="13.2926" transform="rotate(-175.771 132.175 374.433)" fill="#559BDD"/>
<circle cx="381.039" cy="392.199" r="13.2926" transform="rotate(-175.771 381.039 392.199)" fill="#559BDD"/>
<ellipse cx="495.89" cy="317.697" rx="14.8804" ry="15.2524" transform="rotate(90 495.89 317.697)" fill="#559BDD"/>
<circle cx="239.203" cy="340.389" r="15.2524" transform="rotate(90 239.203 340.389)" fill="#9BACF2"/>
<circle cx="210.945" cy="362.153" r="14.242" transform="rotate(-175.771 210.945 362.153)" fill="#9BACF2"/>
<circle cx="21.9497" cy="314.35" r="14.242" transform="rotate(-175.771 21.9497 314.35)" fill="#9BACF2"/>
<circle cx="527.884" cy="247.388" r="14.242" transform="rotate(-175.771 527.884 247.388)" fill="#9BACF2"/>
<ellipse cx="205.35" cy="298.724" rx="11.5323" ry="11.1603" transform="rotate(90 205.35 298.724)" fill="#9BACF2"/>
<circle cx="251.062" cy="371.854" r="10.4442" transform="rotate(-175.771 251.062 371.854)" fill="#9BACF2"/>
<circle cx="917.186" cy="340.186" r="10.4442" transform="rotate(-175.771 917.186 340.186)" fill="#9BACF2"/>
<circle cx="42.5476" cy="328.151" r="10.4442" transform="rotate(-175.771 42.5476 328.151)" fill="#9BACF2"/>
<circle cx="311.744" cy="355.642" r="11.1603" transform="rotate(90 311.744 355.642)" fill="#9BACF2"/>
<circle cx="161.478" cy="348.971" r="10.4442" transform="rotate(-175.771 161.478 348.971)" fill="#9BACF2"/>
<circle cx="23.5584" cy="360.194" r="10.4442" transform="rotate(-175.771 23.5584 360.194)" fill="#9BACF2"/>
<ellipse cx="441.948" cy="364.198" rx="6.32417" ry="6.69618" transform="rotate(90 441.948 364.198)" fill="#9BACF2"/>
<path d="M414.162 78.381V232.534C414.162 291.264 366.552 338.875 307.822 338.875C249.092 338.875 201.481 291.264 201.481 232.534L201.481 78.381L414.162 78.381Z" fill="#4F4296"/>
<path d="M529.998 108.764V256.881C529.998 294.636 499.391 325.243 461.636 325.243C423.881 325.243 393.274 294.636 393.274 256.881V108.764L529.998 108.764Z" fill="#4F4296"/>
<path d="M363.859 188.981V284.128C363.859 308.381 344.198 328.042 319.945 328.042C295.692 328.042 276.032 308.381 276.032 284.128V188.981H363.859Z" fill="#9BACF2"/>
<path d="M331.657 217.998V290.158C331.657 327.913 301.05 358.519 263.295 358.519C225.54 358.519 194.933 327.913 194.933 290.158V217.998H331.657Z" fill="#559BDD"/>
<path d="M50.2253 159.291L50.2253 253.463C50.2253 267.333 38.982 278.576 25.1127 278.576C11.2433 278.576 3.05176e-05 267.333 3.05176e-05 253.463L3.05176e-05 159.291H50.2253Z" fill="#9BACF2"/>
<path d="M131.841 165.8V250.742C131.841 283.104 105.607 309.339 73.2452 309.339C40.8834 309.339 14.649 283.104 14.649 250.742L14.649 165.8L131.841 165.8Z" fill="#4F4296"/>
<path fill-rule="evenodd" clip-rule="evenodd" d="M535.695 210.558V0L0 0L-6.10352e-05 135.749L0 210.558L-6.10352e-05 239.499C73.4964 244.97 159.572 248.116 251.585 248.116C357.543 248.116 455.626 243.944 535.695 236.855L535.695 210.558Z" fill="#0C0728"/>
<path d="M126 143.85L126 260.897C126 295.691 97.794 323.897 63 323.897V323.897C28.2061 323.897 6.10352e-05 295.691 6.10352e-05 260.897L6.10352e-05 143.85L126 143.85Z" fill="#0C0728"/>
<path d="M285.595 87.7944V241.948C285.595 300.678 237.985 348.288 179.255 348.288C120.524 348.288 72.914 300.678 72.914 241.948L72.914 87.7944L285.595 87.7944Z" fill="#0C0728"/>
<path d="M422.495 81.0982V235.251C422.495 293.982 374.885 341.592 316.154 341.592C257.424 341.592 209.814 293.982 209.814 235.251L209.814 81.0982L422.495 81.0982Z" fill="#0C0728"/>
<path d="M512.907 97.3704V251.524C512.907 310.254 465.297 357.864 406.567 357.864C347.836 357.864 300.226 310.254 300.226 251.524V97.3704L512.907 97.3704Z" fill="#0C0728"/>
<ellipse cx="548.715" cy="276.492" rx="93.3745" ry="94.1186" transform="rotate(90 548.715 276.492)" fill="#0C0728"/>
<circle cx="890.925" cy="264.499" r="22.6926" transform="rotate(90 890.925 264.499)" fill="#9BACF2"/>
<ellipse cx="1193.4" cy="354.655" rx="19.9389" ry="20.8883" transform="rotate(123.6 1193.4 354.655)" fill="#559BDD"/>
<ellipse cx="952.88" cy="317.252" rx="15.2524" ry="14.8804" transform="rotate(90 952.88 317.252)" fill="#9BACF2"/>
<circle cx="901.576" cy="282.646" r="8.37088" transform="rotate(90 901.576 282.646)" fill="#9BACF2"/>
<circle cx="998.176" cy="374.433" r="13.2926" transform="rotate(-175.771 998.176 374.433)" fill="#559BDD"/>
<circle cx="932.237" cy="334.237" r="13.2926" transform="rotate(-175.771 932.237 334.237)" fill="#559BDD"/>
<circle cx="1151.24" cy="375.237" r="13.2926" transform="rotate(-175.771 1151.24 375.237)" fill="#559BDD"/>
<circle cx="1076.95" cy="362.153" r="14.242" transform="rotate(-175.771 1076.95 362.153)" fill="#9BACF2"/>
<circle cx="887.95" cy="314.35" r="14.242" transform="rotate(-175.771 887.95 314.35)" fill="#9BACF2"/>
<ellipse cx="1071.35" cy="298.724" rx="11.5323" ry="11.1603" transform="rotate(90 1071.35 298.724)" fill="#9BACF2"/>
<circle cx="1117.06" cy="371.854" r="10.4442" transform="rotate(-175.771 1117.06 371.854)" fill="#9BACF2"/>
<circle cx="908.548" cy="328.151" r="10.4442" transform="rotate(-175.771 908.548 328.151)" fill="#9BACF2"/>
<circle cx="1177.74" cy="355.642" r="11.1603" transform="rotate(90 1177.74 355.642)" fill="#9BACF2"/>
<circle cx="1027.48" cy="348.971" r="10.4442" transform="rotate(-175.771 1027.48 348.971)" fill="#9BACF2"/>
<circle cx="889.558" cy="360.194" r="10.4442" transform="rotate(-175.771 889.558 360.194)" fill="#9BACF2"/>
<path d="M1280.16 78.381V232.534C1280.16 291.264 1232.55 338.875 1173.82 338.875C1115.09 338.875 1067.48 291.264 1067.48 232.534V78.381L1280.16 78.381Z" fill="#4F4296"/>
<path d="M1229.86 188.981V284.128C1229.86 308.381 1210.2 328.042 1185.95 328.042C1161.69 328.042 1142.03 308.381 1142.03 284.128V188.981L1229.86 188.981Z" fill="#9BACF2"/>
<path d="M1174 218V283.5C1174 314.704 1148.7 340 1117.5 340V340C1086.3 340 1061 314.704 1061 283.5V218H1174Z" fill="#559BDD"/>
<path d="M916.225 159.291V253.463C916.225 267.333 904.982 278.576 891.113 278.576C877.243 278.576 866 267.333 866 253.463V159.291H916.225Z" fill="#9BACF2"/>
<path d="M997.842 165.8V250.742C997.842 283.104 971.607 309.339 939.245 309.339C906.884 309.339 880.649 283.104 880.649 250.742V165.8H997.842Z" fill="#4F4296"/>
<path fill-rule="evenodd" clip-rule="evenodd" d="M1401.69 210.744V0L866 0V172.335V210.744V242.305C939.497 245.994 1025.57 248.116 1117.59 248.116C1223.54 248.116 1321.63 245.302 1401.69 240.522L1401.69 210.744Z" fill="#0C0728"/>
<path d="M996 202V217C996 288.245 938.245 346 867 346C795.755 346 738 288.245 738 217V202L996 202Z" fill="#0C0728"/>
<path d="M1151.6 87.7944V241.948C1151.6 300.678 1103.98 348.288 1045.25 348.288C986.524 348.288 938.914 300.678 938.914 241.948V87.7944L1151.6 87.7944Z" fill="#0C0728"/>
<path d="M1288.5 81.0982V235.251C1288.5 293.982 1240.88 341.592 1182.15 341.592C1123.42 341.592 1075.81 293.982 1075.81 235.251V81.0982L1288.5 81.0982Z" fill="#0C0728"/>
<path d="M1378.91 97.3704V251.524C1378.91 310.254 1331.3 357.864 1272.57 357.864C1213.84 357.864 1166.23 310.254 1166.23 251.524V97.3704L1378.91 97.3704Z" fill="#0C0728"/>
</g>
<defs>
<clipPath id="clip0_452_1880">
<rect width="1200" height="406.92" fill="white"/>
</clipPath>
</defs>
</svg>
