<svg width="400" height="384" viewBox="0 0 400 384" fill="none" xmlns="http://www.w3.org/2000/svg">
<circle cx="18.1326" cy="279.567" r="16.5088" transform="rotate(90 18.1326 279.567)" fill="#9BACF2"/>
<ellipse cx="238.181" cy="345.155" rx="14.5054" ry="15.1962" transform="rotate(123.6 238.181 345.155)" fill="#559BDD"/>
<ellipse cx="87.6583" cy="333.98" rx="14.5054" ry="15.1962" transform="rotate(-175.771 87.6583 333.98)" fill="#9BACF2"/>
<circle cx="333.153" cy="329.364" r="16.5088" transform="rotate(90 333.153 329.364)" fill="#9BACF2"/>
<ellipse cx="59.5399" cy="307.172" rx="11.0961" ry="10.8254" transform="rotate(90 59.5399 307.172)" fill="#9BACF2"/>
<ellipse cx="258.984" cy="351.735" rx="10.361" ry="9.6703" transform="rotate(123.6 258.984 351.735)" fill="#9BACF2"/>
<ellipse cx="378.89" cy="292.557" rx="11.0961" ry="10.8254" transform="rotate(90 378.89 292.557)" fill="#9BACF2"/>
<ellipse cx="382.679" cy="325.575" rx="11.0961" ry="10.8254" transform="rotate(90 382.679 325.575)" fill="#9BACF2"/>
<circle cx="25.8816" cy="292.768" r="6.08979" transform="rotate(90 25.8816 292.768)" fill="#9BACF2"/>
<circle cx="96.1571" cy="359.543" r="9.6703" transform="rotate(-175.771 96.1571 359.543)" fill="#559BDD"/>
<circle cx="277.204" cy="372.468" r="9.6703" transform="rotate(-175.771 277.204 372.468)" fill="#559BDD"/>
<ellipse cx="360.758" cy="318.268" rx="10.8254" ry="11.0961" transform="rotate(90 360.758 318.268)" fill="#559BDD"/>
<circle cx="174.019" cy="334.777" r="11.0961" transform="rotate(90 174.019 334.777)" fill="#9BACF2"/>
<circle cx="327.452" cy="366.745" r="10.361" transform="rotate(123.6 327.452 366.745)" fill="#9BACF2"/>
<circle cx="153.462" cy="350.61" r="10.361" transform="rotate(-175.771 153.462 350.61)" fill="#9BACF2"/>
<circle cx="15.9684" cy="315.833" r="10.361" transform="rotate(-175.771 15.9684 315.833)" fill="#9BACF2"/>
<circle cx="384.033" cy="267.119" r="10.361" transform="rotate(-175.771 384.033 267.119)" fill="#9BACF2"/>
<ellipse cx="149.391" cy="304.466" rx="8.38972" ry="8.11908" transform="rotate(90 149.391 304.466)" fill="#9BACF2"/>
<circle cx="360.195" cy="339.085" r="7.59809" transform="rotate(123.6 360.195 339.085)" fill="#9BACF2"/>
<circle cx="182.646" cy="357.667" r="7.59809" transform="rotate(-175.771 182.646 357.667)" fill="#9BACF2"/>
<circle cx="30.9532" cy="325.874" r="7.59809" transform="rotate(-175.771 30.9532 325.874)" fill="#9BACF2"/>
<circle cx="226.793" cy="345.873" r="8.11908" transform="rotate(90 226.793 345.873)" fill="#9BACF2"/>
<circle cx="368.314" cy="346.122" r="7.59809" transform="rotate(123.6 368.314 346.122)" fill="#559BDD"/>
<circle cx="355.865" cy="372.644" r="7.59809" transform="rotate(123.6 355.865 372.644)" fill="#559BDD"/>
<circle cx="117.475" cy="341.02" r="7.59809" transform="rotate(-175.771 117.475 341.02)" fill="#9BACF2"/>
<circle cx="17.1385" cy="349.185" r="7.59809" transform="rotate(-175.771 17.1385 349.185)" fill="#9BACF2"/>
<ellipse cx="321.516" cy="352.097" rx="4.60081" ry="4.87145" transform="rotate(90 321.516 352.097)" fill="#9BACF2"/>
<path d="M301.302 144.167V256.313C301.302 299.039 266.665 333.675 223.939 333.675V333.675C181.213 333.675 146.577 299.039 146.577 256.313V144.167H301.302Z" fill="#4F4296"/>
<path d="M385.571 166.27V274.025C385.571 301.492 363.305 323.758 335.838 323.758V323.758C308.372 323.758 286.105 301.492 286.105 274.025V166.27H385.571Z" fill="#4F4296"/>
<path d="M264.706 224.628V293.847C264.706 311.491 250.403 325.794 232.759 325.794V325.794C215.115 325.794 200.812 311.491 200.812 293.847V224.628H264.706Z" fill="#9BACF2"/>
<path d="M241.279 245.737V298.233C241.279 325.7 219.013 347.966 191.546 347.966V347.966C164.079 347.966 141.813 325.7 141.813 298.233V245.737H241.279Z" fill="#559BDD"/>
<path d="M36.5387 203.028L36.5387 271.538C36.5387 281.628 28.3593 289.808 18.2694 289.808V289.808C8.17947 289.808 -3.8147e-06 281.628 -3.8147e-06 271.538L-3.8147e-06 203.028H36.5387Z" fill="#9BACF2"/>
<path d="M95.9142 207.764V269.559C95.9142 293.102 76.8287 312.187 53.2856 312.187V312.187C29.7426 312.187 10.6571 293.102 10.6571 269.559V207.764H95.9142Z" fill="#4F4296"/>
<path fill-rule="evenodd" clip-rule="evenodd" d="M400 227.334V0L0 0V185.902V227.334V261.38C54.8794 265.359 119.151 267.648 187.857 267.648C266.975 267.648 340.213 264.613 400 259.456L400 227.334Z" fill="#0C0728"/>
<path d="M73.0775 191.795V259.68C73.0775 279.86 56.7185 296.219 36.5387 296.219V296.219C16.3589 296.219 -7.62939e-06 279.86 -7.62939e-06 259.68V191.795H73.0775Z" fill="#0C0728"/>
<path d="M207.769 151.015V263.161C207.769 305.887 173.133 340.523 130.407 340.523V340.523C87.681 340.523 53.0446 305.887 53.0446 263.161V151.015H207.769Z" fill="#0C0728"/>
<path d="M307.363 146.143V258.289C307.363 301.015 272.727 335.652 230.001 335.652V335.652C187.275 335.652 152.639 301.015 152.639 258.289V146.143H307.363Z" fill="#0C0728"/>
<path d="M373.138 157.981V270.127C373.138 312.853 338.502 347.49 295.776 347.49V347.49C253.05 347.49 218.413 312.853 218.413 270.127V157.981H373.138Z" fill="#0C0728"/>
<ellipse cx="365.359" cy="261.283" rx="34.3708" ry="34.6414" transform="rotate(90 365.359 261.283)" fill="#0C0728"/>
</svg>
