<svg width="27" height="24" viewBox="0 0 27 24" fill="none" xmlns="http://www.w3.org/2000/svg">
<path d="M15.2305 1.00256L26.7323 20.9923C26.9077 21.2971 27 21.6429 27 21.9949C27 22.3468 26.9077 22.6926 26.7323 22.9974C26.5569 23.3022 26.3047 23.5554 26.0009 23.7313C25.6972 23.9073 25.3526 24 25.0018 24H1.99818C1.64742 24 1.30285 23.9073 0.999083 23.7313C0.69532 23.5554 0.443075 23.3022 0.267699 22.9974C0.092324 22.6926 -2.22769e-06 22.3468 0 21.9949C2.22777e-06 21.6429 0.0923329 21.2971 0.267712 20.9923L11.7695 1.00256C12.5382 -0.334187 14.4605 -0.334187 15.2305 1.00256ZM13.5 16.8457C13.1467 16.8457 12.8079 16.9866 12.558 17.2372C12.3082 17.4879 12.1678 17.8279 12.1678 18.1825C12.1678 18.537 12.3082 18.877 12.558 19.1277C12.8079 19.3784 13.1467 19.5192 13.5 19.5192C13.8533 19.5192 14.1921 19.3784 14.442 19.1277C14.6918 18.877 14.8322 18.537 14.8322 18.1825C14.8322 17.8279 14.6918 17.4879 14.442 17.2372C14.1921 16.9866 13.8533 16.8457 13.5 16.8457ZM13.5 7.48847C13.1737 7.48851 12.8588 7.60872 12.615 7.82629C12.3711 8.04386 12.2153 8.34366 12.1772 8.66882L12.1678 8.82522V14.1722C12.1682 14.5129 12.2982 14.8406 12.5313 15.0884C12.7644 15.3361 13.083 15.4852 13.4219 15.5052C13.7609 15.5252 14.0946 15.4145 14.355 15.1958C14.6154 14.9771 14.7827 14.6669 14.8228 14.3286L14.8322 14.1722V8.82522C14.8322 8.47069 14.6918 8.13069 14.442 7.88C14.1921 7.62931 13.8533 7.48847 13.5 7.48847Z" fill="#FF0000"/>
</svg>
