<svg width="244" height="252" viewBox="0 0 244 252" fill="none" xmlns="http://www.w3.org/2000/svg">
<path d="M208.06 204.165C201.918 210.495 196.422 214.217 192.215 217.026C151.179 244.426 104.271 236.529 89.7681 233.829C66.3695 229.475 46.6179 226.402 29.6477 211.07C-8.91364 176.232 -7.03809 103.556 22.4275 58.5361C25.9212 53.198 55.3422 9.58708 102.352 3.44192C103.502 3.29158 104.36 3.20603 105.111 3.12644C112.383 2.35643 157.448 -1.70728 194.194 29.0785C199.454 33.4853 207.919 41.4341 215.769 53.5573C244.471 97.8853 244.562 166.54 208.06 204.165Z" fill="url(#paint0_linear_1127_3340)"/>
<path d="M64.0364 177.591C63.139 179.878 60.1971 180.506 58.4221 178.807C48.6279 169.431 23.3337 140.421 27.1264 93.7705C30.3292 54.3766 28.3223 32.7113 26.7297 22.9392C26.393 20.8728 28.8899 19.5776 30.3881 21.0401C46.9169 37.1759 96.5549 94.7055 64.0364 177.591Z" fill="#7D97F4"/>
<path d="M60.7101 177.523C60.6585 177.555 60.6032 177.583 60.5441 177.605C60.0496 177.795 59.4946 177.548 59.3047 177.054C59.0895 176.493 37.8001 120.354 39.779 65.3779C39.7982 64.8489 40.2427 64.4351 40.7724 64.4536C41.3019 64.4728 41.7156 64.9174 41.6968 65.447C39.7321 120.022 60.882 175.809 61.0958 176.366C61.2631 176.802 61.0915 177.284 60.7101 177.523Z" fill="#91B3FA"/>
<path d="M52.5191 0.992906C45.9474 1.56438 40.909 7.0681 40.8903 13.6646C40.7759 54.0046 40.5871 193.148 43.2164 242.397C43.4949 247.615 47.7724 251.713 52.9971 251.77C78.8383 252.048 153.169 252.559 195.368 249.86C204.157 249.298 210.996 242.018 210.986 233.211C210.934 190.873 210.258 71.803 204.458 17.3775C203.763 10.8565 198.521 5.76645 191.983 5.25705C163.8 3.06101 88.9573 -2.17601 52.5191 0.992906Z" fill="#09005D"/>
<path d="M50.7547 23.0552C50.272 55.8807 48.8974 165.078 51.2969 205.38C51.6476 211.271 56.2234 215.922 61.8735 216.119C85.1366 216.929 144.791 218.498 178.783 214.758C184.904 214.084 189.582 208.779 189.745 202.355C190.595 168.856 192.892 67.1523 190.56 27.3002C190.188 20.9427 185.331 15.8699 179.243 15.4596C154.054 13.7623 89.3733 9.84823 60.4675 12.2554C55.0413 12.7073 50.8382 17.3723 50.7547 23.0552Z" fill="#F1EEFD"/>
<path d="M106.961 6.65188C106.981 7.55872 107.705 8.29116 108.611 8.31871C113.087 8.45474 125.697 8.8407 131.333 9.04377C132.444 9.08376 133.294 8.06707 133.059 6.98008C133.04 6.94583 132.895 5.5521 131.472 5.45323C127.66 5.18811 116.157 4.47344 108.556 4.91193C106.996 5.00204 106.911 6.7771 106.961 6.65188Z" fill="url(#paint1_linear_1127_3340)"/>
<path d="M80.3917 122.186C80.3917 122.186 112.455 114.142 146.333 118.993C155.865 120.358 164.308 125.904 169.452 134.044C178.72 148.71 191.823 174.847 189.051 202.106L174.505 205.703C174.505 205.703 164.451 173.354 153.136 160.189C153.136 160.189 139.735 190.734 140.413 207.507C140.432 207.981 140.463 208.445 140.505 208.896C142.043 225.306 76.1781 211.958 76.1781 211.958L80.3917 122.186Z" fill="#6A3FDC"/>
<path d="M115.055 94.8029L108.229 116.547C107.594 118.57 108.226 120.736 109.812 121.957C113.465 124.772 120.687 129.252 129.511 129.123C131.126 129.099 132.483 127.721 132.596 126.03L135.021 89.6874L115.055 94.8029Z" fill="url(#paint2_linear_1127_3340)"/>
<path d="M141.487 70.9724C141.487 70.9724 144.139 88.0962 142.469 96.2797C140.799 104.463 141.162 110.153 131.41 109.327C121.657 108.501 115.022 101.791 112.877 92.6388C112.877 92.6388 109.461 78.5072 112.289 73.8305C115.117 69.1537 141.487 70.9724 141.487 70.9724Z" fill="url(#paint3_linear_1127_3340)"/>
<path d="M117.581 87.6996L118.76 88.0093C118.76 88.0093 116.52 76.7695 121.248 76.1405C125.976 75.5115 143.789 76.5059 149.013 71.4653C154.049 66.606 152.875 58.3116 148.732 54.9882C148.47 54.7779 148.084 54.8257 147.856 55.0731L147.274 55.7064C146.876 56.1402 146.152 55.8684 146.138 55.2795C146.124 54.721 145.454 54.4239 145.048 54.8075C143.46 56.3081 139.67 58.4309 131.167 57.7969C119.103 56.8972 110.272 59.5554 107.996 67.4585C107.852 67.9591 107.24 68.0953 106.879 67.7201C106.165 66.9792 104.87 66.3791 102.652 67.4294C98.7942 69.256 98.2762 76.4872 103.713 83.9759C103.971 84.3318 103.834 84.8449 103.416 84.9834C101.946 85.4708 99.5633 86.9241 103.732 90.791C107.997 94.7466 111.009 95.2288 112.191 95.2364C112.509 95.2385 112.781 95.0194 112.843 94.7073L114.259 87.5456C114.332 87.1753 114.703 86.9433 115.068 87.0392L117.581 87.6996Z" fill="#09005D"/>
<path d="M117.483 89.2503C117.483 89.2503 117.51 78.7639 112.386 80.3598C107.262 81.9556 111.78 91.958 115.222 93.255L117.483 89.2503Z" fill="url(#paint4_linear_1127_3340)"/>
<path d="M80.5906 187.578C79.1703 177.549 89.5565 162.806 93.8526 157.212C95.0815 155.612 95.7686 153.655 95.7862 151.638C95.9118 137.433 89.9476 128.311 80.3917 122.186C80.3917 122.186 45.7088 162.592 54.5399 193.672C55.4927 197.026 56.9695 199.908 58.8419 202.384C60.2336 190.673 73.7693 188.119 80.5906 187.578Z" fill="#6A3FDC"/>
<path d="M81.2375 183.699L79.916 183.548C81.0361 173.713 89.6667 161.571 93.3253 156.807L94.3804 157.617C90.7894 162.293 82.3205 174.194 81.2375 183.699Z" fill="#081544"/>
<path d="M80.8627 188.967C80.7415 188.517 80.6574 188.051 80.5905 187.578C73.7692 188.119 60.2336 190.673 58.8419 202.384C74.3196 222.854 116.981 215.469 116.981 215.469V207.503C116.981 207.503 84.2169 201.417 80.8627 188.967Z" fill="url(#paint5_linear_1127_3340)"/>
<path d="M112.88 213.27C112.88 213.27 119.179 198.407 130.278 203.679C141.377 208.951 140.505 212.401 140.505 212.401L112.88 213.27Z" fill="url(#paint6_linear_1127_3340)"/>
<path d="M111.465 216.354C111.553 217.479 112.511 218.334 113.639 218.295L171.154 216.288C172.048 216.257 172.825 215.665 173.092 214.811L174.761 209.469C175.171 208.157 174.235 206.81 172.862 206.737L151.888 205.623C151.697 205.613 151.507 205.629 151.321 205.67L113.11 214.132C112.084 214.359 111.383 215.307 111.465 216.354Z" fill="#6876EB"/>
<path d="M150.018 214.255L151.601 206.881L173.145 207.909L171.728 214.027L150.018 214.255Z" fill="#6876EB"/>
<path d="M138.974 134.88C137.754 144.843 132.269 185.322 130.699 196.888C130.478 198.515 131.77 199.945 133.411 199.898L226.46 197.236C227.678 197.201 228.716 196.343 228.981 195.154L243.455 129.968C243.838 128.244 242.466 126.633 240.704 126.736L141.458 132.549C140.174 132.624 139.13 133.604 138.974 134.88Z" fill="#6876EB"/>
<path d="M176.376 175.758L162.624 214.791L194.601 215.469L197.264 175.993C197.389 174.14 195.852 172.602 194 172.725L179.066 173.717C177.842 173.798 176.784 174.601 176.376 175.758Z" fill="#6876EB"/>
<path d="M149.66 215.347C149.308 216.421 150.108 217.526 151.238 217.526H201.316C202.233 217.526 202.977 216.782 202.977 215.865V213.717C202.977 212.772 202.189 212.017 201.245 212.058L151.167 214.206C150.476 214.235 149.876 214.69 149.66 215.347Z" fill="#6876EB"/>
<path d="M137.568 176.06L136.908 175.977L141.48 139.922C141.763 137.685 143.602 135.964 145.852 135.828L231.616 130.649L231.656 131.313L145.892 136.492C143.961 136.609 142.383 138.086 142.14 140.005L137.568 176.06Z" fill="#002E8F"/>
<path d="M135.612 186.238L134.629 194.045L135.289 194.128L136.272 186.321L135.612 186.238Z" fill="#002E8F"/>
<path d="M132.354 100.305C122.021 101.085 116.015 90.4008 115.955 90.2926L116.647 89.9116C116.704 90.015 122.472 100.259 132.294 99.517L132.354 100.305Z" fill="url(#paint7_linear_1127_3340)"/>
<path d="M136.566 99.9056C136.566 100.518 136.07 101.014 135.458 101.014H132.501C131.888 101.014 131.392 100.518 131.392 99.9056C131.392 99.2932 131.888 98.7967 132.501 98.7967H135.458C136.07 98.7967 136.566 99.2932 136.566 99.9056Z" fill="url(#paint8_linear_1127_3340)"/>
<path d="M116.667 78.4403C116.667 78.4403 120.376 59.4174 131.303 57.6227C131.303 57.6227 128.208 56.0648 124.982 57.7546C121.757 59.4443 113.603 68.7034 113.935 78.9091C116.153 79.7078 116.667 78.4403 116.667 78.4403Z" fill="url(#paint9_linear_1127_3340)"/>
<path d="M114.769 77.5398C109.089 78.6926 109.787 85.8762 109.787 85.8762C109.378 91.0894 110.899 93.6736 112.849 94.9049C114.181 95.7463 115.858 95.8241 117.264 95.1145C118.671 94.4047 119.602 93.0095 119.718 91.4385C119.823 90.0198 119.943 88.6712 120.049 88.1922C120.303 87.0317 120.45 76.3869 114.769 77.5398Z" fill="url(#paint10_linear_1127_3340)"/>
<path d="M115.291 79.3562C114.112 79.1512 112.949 79.7778 112.474 80.8767C109.08 88.7413 113.248 93.8573 115.294 93.964C117.451 94.0764 117.407 83.7002 116.949 81.04C116.757 79.9253 116.049 79.488 115.291 79.3562Z" fill="url(#paint11_linear_1127_3340)"/>
<defs>
<linearGradient id="paint0_linear_1127_3340" x1="258.014" y1="275.22" x2="91.6389" y2="98.1112" gradientUnits="userSpaceOnUse">
<stop stop-color="#DAE3FE"/>
<stop offset="1" stop-color="#E9EFFD"/>
</linearGradient>
<linearGradient id="paint1_linear_1127_3340" x1="127.08" y1="-80.0104" x2="120.084" y2="6.28138" gradientUnits="userSpaceOnUse">
<stop stop-color="#53D8FF"/>
<stop offset="1" stop-color="#3840F7"/>
</linearGradient>
<linearGradient id="paint2_linear_1127_3340" x1="109.538" y1="149.305" x2="125.213" y2="106.861" gradientUnits="userSpaceOnUse">
<stop stop-color="#FEBBBA"/>
<stop offset="1" stop-color="#FF928E"/>
</linearGradient>
<linearGradient id="paint3_linear_1127_3340" x1="139.335" y1="84.8661" x2="93.4072" y2="104.08" gradientUnits="userSpaceOnUse">
<stop stop-color="#FEBBBA"/>
<stop offset="1" stop-color="#FF928E"/>
</linearGradient>
<linearGradient id="paint4_linear_1127_3340" x1="136.221" y1="77.4205" x2="90.2925" y2="96.6341" gradientUnits="userSpaceOnUse">
<stop stop-color="#FEBBBA"/>
<stop offset="1" stop-color="#FF928E"/>
</linearGradient>
<linearGradient id="paint5_linear_1127_3340" x1="76.9435" y1="176.08" x2="102.225" y2="242.61" gradientUnits="userSpaceOnUse">
<stop stop-color="#FEBBBA"/>
<stop offset="1" stop-color="#FF928E"/>
</linearGradient>
<linearGradient id="paint6_linear_1127_3340" x1="108.311" y1="164.161" x2="133.592" y2="230.691" gradientUnits="userSpaceOnUse">
<stop stop-color="#FEBBBA"/>
<stop offset="1" stop-color="#FF928E"/>
</linearGradient>
<linearGradient id="paint7_linear_1127_3340" x1="115.562" y1="103.56" x2="129.095" y2="90.5492" gradientUnits="userSpaceOnUse">
<stop stop-color="#4042E2"/>
<stop offset="1" stop-color="#4F52FF"/>
</linearGradient>
<linearGradient id="paint8_linear_1127_3340" x1="131.392" y1="99.9056" x2="136.566" y2="99.9056" gradientUnits="userSpaceOnUse">
<stop stop-color="#4042E2"/>
<stop offset="1" stop-color="#4F52FF"/>
</linearGradient>
<linearGradient id="paint9_linear_1127_3340" x1="160.766" y1="54.397" x2="47.7419" y2="93.5725" gradientUnits="userSpaceOnUse">
<stop stop-color="#4042E2"/>
<stop offset="1" stop-color="#4F52FF"/>
</linearGradient>
<linearGradient id="paint10_linear_1127_3340" x1="134.651" y1="79.8581" x2="76.647" y2="99.9632" gradientUnits="userSpaceOnUse">
<stop stop-color="#4042E2"/>
<stop offset="1" stop-color="#4F52FF"/>
</linearGradient>
<linearGradient id="paint11_linear_1127_3340" x1="104.667" y1="50.8681" x2="109.398" y2="67.8219" gradientUnits="userSpaceOnUse">
<stop stop-color="#4042E2"/>
<stop offset="1" stop-color="#4F52FF"/>
</linearGradient>
</defs>
</svg>
