<svg width="471" height="342" viewBox="0 0 471 342" fill="none" xmlns="http://www.w3.org/2000/svg">
<path d="M30.8825 337.547C30.8825 337.547 -3.15384 257.432 39.8859 196.895C82.9257 136.358 56.6751 82.6807 132.252 29.2531C229.386 -39.4232 323.074 28.3371 351.011 74.2809C378.948 120.225 473.844 96.774 446.271 227.486C424.881 328.887 440.838 333.342 440.838 333.342L30.8825 337.547Z" fill="#F1EEFD"/>
<path d="M51.3979 315.876C51.3979 315.876 -8.99313 284.328 5.55817 213.372C20.1095 142.416 79.3763 125.585 103.753 130.79C149.437 140.553 74.7965 169.354 56.9665 119.912C34.5983 57.8769 114.36 10.913 188.293 23.0704C235.808 30.8768 258.749 53.6302 300.987 67.9213C343.08 82.1603 360.733 63.0916 343.964 52.0376C328.049 41.5457 270.25 58.668 290.1 82.1291C317.266 114.261 382.757 64.476 433.51 119.912C484.263 175.349 440.203 245.045 401.191 250.853C362.179 256.661 379.281 200.663 440.203 245.045C501.125 289.428 424.173 337.537 424.173 337.537" stroke="#C3C8FF" stroke-miterlimit="10"/>
<path d="M466.1 341.981H4.43409C1.98805 341.981 0 339.993 0 337.547C0 335.101 1.98805 333.113 4.43409 333.113H470.544V337.547C470.534 339.993 468.556 341.981 466.1 341.981Z" fill="#6876EB"/>
<path d="M170.338 341.981H4.43409C1.98805 341.981 0 339.993 0 337.547V333.113H174.782V337.547C174.772 339.993 172.784 341.981 170.338 341.981Z" fill="#1C145E"/>
<path d="M239.305 163.941C219.539 201.933 197.317 217.41 197.317 217.41L216.5 248.043L249.995 213.226L239.305 163.941Z" fill="#1C145E"/>
<path d="M288.33 154.875L239.305 163.941C236.204 256.682 235.038 333.092 235.038 333.092H323.022C323.022 333.092 325.572 191.076 311.417 160.09L288.33 154.875Z" fill="#1C145E"/>
<path d="M282.636 202.141L306.514 200.111" stroke="#6876EB" stroke-width="4" stroke-miterlimit="10"/>
<path d="M271.676 182.208C271.676 182.208 286.831 285.649 273.644 327.503" stroke="#6876EB" stroke-miterlimit="10"/>
<path d="M255.803 234.012C255.803 234.012 270.448 239.904 289.423 240.528C308.398 241.153 296.594 251.249 268.46 249.334" stroke="#6876EB" stroke-miterlimit="10"/>
<path d="M259.571 151.107L271.676 183.249L288.33 154.875L277.349 136.931L259.571 151.107Z" fill="#E9A394"/>
<path d="M271.676 183.249L294.253 177.014L288.33 154.875L271.676 183.249Z" fill="#6876EB"/>
<path d="M262.267 158.248L250.005 171.935L271.676 183.249L262.267 158.248Z" fill="#6876EB"/>
<path d="M216.51 248.043C216.51 248.043 223.672 233.117 208.298 213.892C199.773 203.234 195.849 184.831 195.849 184.831L183.047 186.778L194.777 248.043H216.51Z" fill="#E9A394"/>
<path d="M180.423 165.617L175.178 170.384L182.193 176.567L160.241 176.192L159.773 183.728L183.036 186.778L195.849 184.831L180.423 165.617Z" fill="#E9A394"/>
<path d="M184.264 177.347L163.197 168.656L161.844 172.403L179.414 179.783L184.264 177.347Z" fill="#E9A394"/>
<path d="M311.427 160.09C311.427 160.09 339.717 176.192 348.648 236.531L315.83 244.452L311.427 160.09Z" fill="#1C145E"/>
<path d="M249.995 111.825L239.305 139.158L247.476 141.677L249.995 157.071L276.069 151.107L279.847 109.306L249.995 111.825Z" fill="#E9A394"/>
<path d="M267.398 118.32H247.455L249.631 112.429L267.398 111.325V118.32Z" fill="#E37A82"/>
<path d="M277.817 130.79C277.817 130.79 265.088 128.156 265.088 114.989C265.088 114.989 246.206 117.56 239.691 107.308C231.967 95.1712 243.771 81.2132 253.513 84.0547C253.513 84.0547 247.372 90.1438 256.698 90.8516C263.349 91.3616 275.496 82.5143 279.837 91.0702C279.837 91.0702 313.311 98.7205 288.32 129.905L277.817 130.79Z" fill="#16005C"/>
<path d="M265.098 113.959C265.098 113.959 239.857 118.83 234.58 100.74C231.499 90.1543 242.095 84.1381 242.095 84.1381" stroke="#16005C" stroke-width="2" stroke-miterlimit="10"/>
<path d="M254.419 138.284C259.679 138.284 263.943 134.02 263.943 128.76C263.943 123.5 259.679 119.236 254.419 119.236C249.159 119.236 244.895 123.5 244.895 128.76C244.895 134.02 249.159 138.284 254.419 138.284Z" stroke="#16005C" stroke-width="0.5" stroke-miterlimit="10"/>
<path d="M263.433 125.679L276.995 126.428" stroke="#16005C" stroke-width="0.5" stroke-miterlimit="10"/>
<path d="M294.253 133.194C294.253 139.096 286.342 143.873 280.451 143.873C274.549 143.873 272.894 139.085 272.894 133.194C272.894 127.303 277.682 122.515 283.573 122.515C289.475 122.504 294.253 127.292 294.253 133.194Z" fill="#E9A394"/>
<path d="M344.735 237.468V286.742H320.17L318.12 243.89L344.735 237.468Z" fill="#E9A394"/>
<path d="M237.39 226.331L238.421 192.003L222.516 241.798L237.39 226.331Z" fill="#1C145C"/>
<path d="M260.841 154.375L276.069 151.107L263.589 161.755L260.841 154.375Z" fill="#E37A82"/>
<path d="M251.827 133.184C252.833 133.184 253.648 131.483 253.648 129.384C253.648 127.286 252.833 125.585 251.827 125.585C250.821 125.585 250.005 127.286 250.005 129.384C250.005 131.483 250.821 133.184 251.827 133.184Z" fill="#16005C"/>
<path d="M256.781 120.141C256.781 115.041 252.722 118.476 252.722 118.476L256.781 120.141Z" fill="#16005C"/>
<path d="M252.722 142.697L258.53 141.157C258.53 141.157 261.018 162.682 252.722 142.697Z" fill="white"/>
<path d="M127.673 239.175C127.673 239.175 166.82 233.117 167.59 301.387C167.715 312.462 174.772 333.113 174.772 333.113H139.289L127.673 239.175Z" fill="#5321D7"/>
<path d="M86.7458 233.117L63.0869 238.707L70.3105 333.113H162.375C162.375 333.113 159.284 258.421 124.571 236.011L86.7458 233.117Z" fill="#6A3FDC"/>
<path d="M63.0764 238.696C38.6889 244.254 44.3929 262.979 49.108 301.419C36.9403 311.307 48.6084 315.751 48.6084 315.751C35.2436 329.918 51.9183 333.103 51.9183 333.103H96.4361C96.4465 333.103 87.4847 233.127 63.0764 238.696Z" fill="#6A3FDC"/>
<path d="M93.8027 311.296L83.113 262.251" stroke="#5321D7" stroke-miterlimit="10"/>
<path d="M51.9185 333.103C51.9185 333.103 59.4335 315.845 83.1965 307.164C102.89 299.972 131.711 318.645 150.155 300.898L153.569 320.872L96.4467 333.092H51.9185V333.103Z" fill="#E9A394"/>
<path d="M130.243 184.488L147.855 211.301L136.551 215.339L134.594 237.124L100.631 225.321L103.826 181.001L130.243 184.488Z" fill="#E9A394"/>
<path d="M104.107 212.654L86.7456 233.117L109.01 260.398L119.054 228.527L104.107 212.654Z" fill="#E37A82"/>
<path d="M109.915 199.986L134.761 191.368L130.243 184.488L105.7 187.048L109.915 199.986Z" fill="#E37A82"/>
<path d="M107.761 209.375C107.761 209.375 115.286 224.436 110.051 195.406C110.051 195.406 117.191 196.208 122.78 186.788C122.78 186.788 121.042 202.141 137.446 186.788C153.85 171.435 133.002 159.424 107.521 163.941C85.4446 167.855 63.347 180.335 95.6346 222.625L107.761 209.375Z" fill="#16005C"/>
<path d="M103.743 215.36C102.046 217.629 99.1318 219.69 96.1133 220.137C90.0554 221.022 84.1433 216.245 83.269 210.187C82.3947 204.129 85.4444 200.986 91.5022 200.111C94.9059 199.612 98.8403 200.621 101.796 202.682C102.681 203.785 103.743 215.36 103.743 215.36Z" fill="#E9A394"/>
<path d="M127.705 207.001C128.609 206.755 128.887 204.879 128.325 202.809C127.764 200.74 126.575 199.261 125.671 199.507C124.767 199.752 124.489 201.629 125.051 203.698C125.612 205.767 126.8 207.246 127.705 207.001Z" fill="#16005C"/>
<path d="M120.823 197.988C120.823 197.988 119.939 193.013 124.56 195.407L120.823 197.988Z" fill="#16005C"/>
<path d="M83.9561 233.95L87.9946 229.318L86.5166 225.883L95.6346 222.625L121.812 235.792L122.78 245.847L118.346 244.442L111.123 271.4L83.9561 233.95Z" fill="#6A3FDC"/>
<path d="M107.604 240.528L122.78 245.847L121.812 235.792" stroke="#5321D7" stroke-miterlimit="10"/>
<path d="M110.051 195.406C110.051 195.406 113.1 213.184 117.576 216.838C119.044 218.035 121.823 214.985 134.594 214.725C142.411 214.569 142.401 241.84 132.034 241.059C121.667 240.278 105.908 233.814 103.545 213.934C101.474 196.499 110.051 195.406 110.051 195.406Z" fill="#16005C"/>
<path d="M122.781 220.137C122.781 220.137 125.414 225.04 130.608 221.72" stroke="#C4C6C5" stroke-miterlimit="10"/>
<path d="M182.037 321.882H94.6353V328.356C94.6353 330.979 96.7586 333.102 99.3816 333.102H182.037C184.66 333.102 186.783 330.979 186.783 328.356V326.628C186.783 324.005 184.66 321.882 182.037 321.882Z" fill="#1C145E"/>
<path d="M253.024 256.963H151.352C148.333 256.963 145.783 259.211 145.398 262.209L137.207 326.337C136.749 329.928 139.549 333.102 143.16 333.102H244.832C247.851 333.102 250.401 330.854 250.786 327.856L258.977 263.729C259.435 260.148 256.636 256.963 253.024 256.963Z" fill="#1C145E"/>
<path d="M257.937 256.963H156.265C153.246 256.963 150.696 259.211 150.311 262.209L142.119 326.337C141.662 329.928 144.461 333.102 148.073 333.102H249.745C252.763 333.102 255.314 330.854 255.699 327.856L263.89 263.729C264.359 260.148 261.559 256.963 257.937 256.963Z" fill="#6876EB"/>
<path d="M209.553 301.93C213.786 297.914 214.285 291.569 210.669 287.757C207.053 283.946 200.69 284.112 196.457 288.128C192.225 292.144 191.725 298.489 195.342 302.301C198.958 306.112 205.321 305.946 209.553 301.93Z" fill="white"/>
<path d="M255.72 332.561H129.171" stroke="#1C145E" stroke-miterlimit="10"/>
<path d="M311.656 246.742L353.665 247.543L344.141 196.156L321.804 198.685C321.804 198.685 311.739 213.538 319.691 225.082C328.653 238.103 310.73 238.592 311.656 246.742Z" fill="#16005C"/>
<path d="M321.804 198.675C321.804 198.675 311.739 213.528 319.691 225.071C328.653 238.103 310.74 238.582 311.656 246.742" stroke="#7079F1" stroke-width="2" stroke-miterlimit="10"/>
<path d="M330.183 240.528C330.183 240.528 311.073 259.284 300.987 329.97H322.262L330.183 240.528Z" fill="#7079F1"/>
<path d="M380.696 235.303L372.38 329.97H310.584L318.276 293.81C318.276 293.81 294.752 281.538 330.183 240.528L338.989 236L377.251 233.107L380.696 235.303Z" fill="#C3C8FF"/>
<path d="M330.183 282.902C330.183 282.902 326.478 289.251 330.037 294.341L324.792 329.98" stroke="#7079F1" stroke-miterlimit="10"/>
<path d="M321.544 293.976L357.34 295.038" stroke="#7079F1" stroke-miterlimit="10"/>
<path d="M364.397 311.796L360.608 266.269" stroke="#7079F1" stroke-miterlimit="10"/>
<path d="M380.697 235.303C380.697 235.303 384.111 239.591 388.055 249.552C393.655 263.666 400.338 289.178 399.9 329.97H372.37L380.697 235.303Z" fill="#C3C8FF"/>
<path d="M399.911 333.092C399.911 333.092 386.161 301.637 351.562 310.641C313.789 320.466 299.759 318.635 299.759 318.635L296.896 333.092H399.911Z" fill="#E9A394"/>
<path d="M363.897 304.031L351.625 306.779L379.51 333.102H405.792C405.792 333.092 394.457 305.634 363.897 304.031Z" fill="#7079F1"/>
<path d="M364.657 312.191L370.506 310.412" stroke="#C3C8FF" stroke-miterlimit="10"/>
<path d="M299.759 318.634L281.804 314.919L268.939 333.092H296.896L299.759 318.634Z" fill="#E9A394"/>
<path d="M330.183 282.902L363.533 249.542L357.34 246.617L380.697 235.303L369.965 228.485H345.005L330.183 247.013L334.274 248.043L330.183 250.916V282.902Z" fill="#7079F1"/>
<path d="M353.498 239.82L364.396 232.284L352.634 205.992L334.398 217.442L339.54 239.258L330.183 282.902L353.498 239.82Z" fill="#E9A394"/>
<path d="M335.866 223.666L348.658 217.004L337.24 229.495L335.866 223.666Z" fill="#E37A82"/>
<path d="M312.499 185.591L306.909 216.557H315.288L324.698 229.495L348.659 217.004L331.901 179.658L312.499 185.591Z" fill="#E9A394"/>
<path d="M311.145 193.106L310.583 196.51L332.681 193.491L332.337 189.255L311.145 193.106Z" fill="#E37A82"/>
<path d="M373.577 183.249C368.039 168.25 361.284 162.473 361.284 162.473C347.722 149.005 324.552 163.952 324.552 163.952C294.856 156.759 306.909 193.637 306.909 193.637L331.099 190.671C334.482 210.957 346.577 200.684 346.577 200.684L352.218 210.853C352.218 210.853 346.525 215.88 352.458 224.509C357.339 231.608 345.64 234.033 348.669 241.59L395.414 231.899C395.414 201.121 383.579 210.353 373.577 183.249Z" fill="#16005C"/>
<path d="M305.015 193.866C305.015 193.866 300.737 172.82 308.595 165.96C312.696 162.39 325.593 163.941 325.593 163.941" stroke="#7079F1" stroke-width="2" stroke-miterlimit="10"/>
<path d="M398.474 231.004C398.474 231.004 402.211 217.004 381.862 201.131" stroke="#16005C" stroke-width="2" stroke-miterlimit="10"/>
<path d="M347.264 212.154C352.828 212.154 357.339 207.643 357.339 202.079C357.339 196.514 352.828 192.003 347.264 192.003C341.699 192.003 337.188 196.514 337.188 202.079C337.188 207.643 341.699 212.154 347.264 212.154Z" fill="#E9A394"/>
<path d="M321.544 215.422L327.789 213.892C327.789 213.882 329.975 231.691 321.544 215.422Z" fill="white"/>
<path d="M316.34 204.899C316.34 204.899 318.328 192.783 322.678 204.899" stroke="#1C145E" stroke-width="0.5" stroke-miterlimit="10"/>
<path d="M317.88 195.687C317.88 195.687 320.295 191.586 323.168 195.687H317.88Z" fill="#16005C"/>
<path d="M223.932 86.5839C220.31 76.5084 208.923 71.4706 198.941 75.7693C190.354 79.4748 185.795 89.2173 188.459 98.1896C189.948 103.207 193.31 107.079 197.525 109.348C201.418 111.44 204.749 114.417 207.195 118.091L207.903 119.153L221.892 114.125L221.757 112.866C221.299 108.4 222.079 103.935 223.724 99.7613C225.348 95.6811 225.535 91.0284 223.932 86.5839Z" fill="#C3C8FF"/>
<path d="M223.932 86.5839C220.31 76.5084 208.923 71.4706 198.941 75.7693C190.354 79.4748 185.795 89.2173 188.459 98.1896C189.948 103.207 193.31 107.079 197.525 109.348C201.418 111.44 204.749 114.417 207.195 118.091L207.903 119.153L221.892 114.125L221.757 112.866C221.299 108.4 222.079 103.935 223.724 99.7613C225.348 95.6811 225.535 91.0284 223.932 86.5839Z" fill="#C3C8FF"/>
<path d="M211.108 115.02L199.961 99.2929C199.961 99.2929 200.169 96.1078 203.666 96.6178C207.163 97.1175 209.256 102.644 206.758 101.749C204.259 100.854 203.375 94.3696 208.1 93.3808C212.826 92.3919 214.408 103.123 211.795 101.052C209.183 98.9806 209.734 92.1525 214.793 92.0901L217.759 114.771" stroke="white" stroke-miterlimit="10"/>
<path d="M221.569 124.857L215.001 127.219C212.503 128.115 209.756 126.824 208.85 124.326L207.466 120.464C206.57 117.966 207.861 115.218 210.359 114.313L216.927 111.95C219.425 111.055 222.173 112.345 223.079 114.843L224.463 118.705C225.369 121.203 224.067 123.961 221.569 124.857Z" fill="#16005C"/>
<path d="M223.112 108.455L203.337 115.564L206.809 125.222L226.584 118.112L223.112 108.455Z" fill="#6876EB"/>
<path d="M205.894 69.4617L203.927 58.1475" stroke="#C3C8FF" stroke-miterlimit="10"/>
<path d="M191.644 76.1961L182.193 66.974" stroke="#C3C8FF" stroke-miterlimit="10"/>
<path d="M181.798 92.9644L171.014 93.7346" stroke="#C3C8FF" stroke-miterlimit="10"/>
<path d="M221.434 75.6547L226.284 66.6616" stroke="#C3C8FF" stroke-miterlimit="10"/>
<path d="M373.234 158.768H440.088C442.41 158.768 444.637 156.884 445.064 154.563L451.975 116.446C452.391 114.125 450.851 112.241 448.53 112.241H381.675C379.354 112.241 377.127 114.125 376.7 116.446L369.788 154.563C369.372 156.884 370.913 158.768 373.234 158.768Z" fill="#1C145C"/>
<path d="M426.836 138.466C428.788 136.682 429.164 133.916 427.675 132.286C426.187 130.656 423.397 130.781 421.445 132.564C419.493 134.347 419.117 137.114 420.605 138.744C422.094 140.374 424.884 140.249 426.836 138.466Z" fill="white"/>
<path d="M413.556 138.467C415.508 136.683 415.884 133.917 414.395 132.287C412.906 130.657 410.117 130.782 408.165 132.565C406.212 134.348 405.836 137.115 407.325 138.745C408.814 140.375 411.603 140.25 413.556 138.467Z" fill="white"/>
<path d="M400.275 138.468C402.227 136.685 402.603 133.918 401.115 132.288C399.626 130.658 396.836 130.783 394.884 132.566C392.932 134.35 392.556 137.116 394.045 138.746C395.533 140.376 398.323 140.251 400.275 138.468Z" fill="white"/>
<path d="M409.216 156.259L385.984 170.072L390.148 155.177L409.216 156.259Z" fill="#1C145C"/>
<path d="M157.868 153.116H91.0134C88.6923 153.116 86.4649 151.232 86.0381 148.911L79.1268 110.794C78.7104 108.473 80.2509 106.589 82.572 106.589H149.427C151.748 106.589 153.975 108.473 154.402 110.794L161.314 148.911C161.74 151.232 160.189 153.116 157.868 153.116Z" fill="#C3C8FF"/>
<path d="M110.47 133.076C111.959 131.447 111.583 128.68 109.631 126.896C107.678 125.113 104.889 124.989 103.4 126.618C101.911 128.248 102.287 131.015 104.24 132.798C106.192 134.582 108.981 134.706 110.47 133.076Z" fill="white"/>
<path d="M123.75 133.075C125.239 131.445 124.863 128.678 122.911 126.895C120.958 125.111 118.169 124.987 116.68 126.617C115.191 128.246 115.567 131.013 117.52 132.797C119.472 134.58 122.261 134.704 123.75 133.075Z" fill="white"/>
<path d="M137.023 133.081C138.512 131.451 138.136 128.684 136.184 126.901C134.231 125.118 131.442 124.993 129.953 126.623C128.464 128.253 128.84 131.02 130.793 132.803C132.745 134.586 135.534 134.711 137.023 133.081Z" fill="white"/>
<path d="M134.022 150.618L137.686 163.941L152.518 149.681L134.022 150.618Z" fill="#C3C8FF"/>
<path d="M442.577 335.465C442.425 335.617 442.301 335.787 442.193 335.967L442.03 335.883C442.007 335.781 441.911 335.708 441.798 335.719C441.685 335.73 441.6 335.838 441.612 335.95C441.623 336.063 441.73 336.148 441.843 336.137C441.866 336.137 441.888 336.126 441.905 336.12L442.063 336.199C441.979 336.391 441.911 336.594 441.877 336.803L442.137 336.849C442.216 336.397 442.431 335.979 442.758 335.64L442.577 335.465Z" fill="#1C145C"/>
<path d="M444.487 334.663C444.424 334.663 444.368 334.663 444.311 334.668L444.283 334.448C444.351 334.397 444.385 334.313 444.374 334.222C444.357 334.087 444.232 333.985 444.097 334.002C443.961 334.019 443.86 334.143 443.876 334.279C443.888 334.369 443.944 334.437 444.018 334.476L444.046 334.691C443.797 334.73 443.56 334.804 443.329 334.917L443.442 335.154C443.764 334.996 444.119 334.923 444.481 334.923C444.656 334.923 444.825 334.939 444.995 334.979L445.051 334.719C444.871 334.685 444.679 334.663 444.487 334.663Z" fill="#1C145C"/>
<path d="M446.78 335.549C446.893 335.538 446.978 335.431 446.961 335.318C446.949 335.205 446.842 335.12 446.729 335.137C446.622 335.148 446.543 335.244 446.543 335.346L446.396 335.47C446.249 335.324 446.085 335.188 445.904 335.075L445.763 335.295C446.159 335.544 446.464 335.894 446.656 336.312L446.898 336.205C446.814 336.013 446.701 335.832 446.571 335.668L446.712 335.544C446.735 335.549 446.757 335.555 446.78 335.549Z" fill="#1C145C"/>
<path d="M444.295 338.215C444.159 338.221 444.024 338.227 443.894 338.227C443.589 338.227 443.289 338.204 443.029 338.165C442.894 338.142 442.736 338.108 442.589 338.063C442.95 338.712 443.656 339.147 444.464 339.147C445.458 339.147 446.294 338.481 446.531 337.583C446.294 337.741 446.006 337.871 445.678 337.973C445.266 338.102 444.792 338.182 444.295 338.215Z" fill="#1C145C"/>
<path d="M444.487 335.194C443.323 335.194 442.374 336.12 442.374 337.261C442.374 337.408 442.391 337.555 442.419 337.701C442.651 337.871 443.363 338.012 444.278 337.956C445.277 337.894 446.119 337.622 446.599 337.204C446.599 337.137 446.594 337.069 446.582 337.001C446.452 335.967 445.549 335.194 444.487 335.194ZM443.735 337.459C443.38 337.459 443.092 337.171 443.092 336.815C443.092 336.459 443.38 336.171 443.735 336.171C444.091 336.171 444.379 336.459 444.379 336.815C444.379 337.165 444.091 337.459 443.735 337.459ZM445.385 337.142C445.125 337.142 444.91 336.928 444.91 336.668C444.91 336.408 445.125 336.193 445.385 336.193C445.645 336.193 445.859 336.408 445.859 336.668C445.854 336.928 445.645 337.142 445.385 337.142Z" fill="#1C145C"/>
<path d="M450.05 335.838C449.948 335.798 449.768 335.73 449.57 335.753C449.378 335.775 449.276 335.871 449.276 336.103V336.402H450.05V337.001H449.276V338.899H448.604V337.001H448.141V336.402H448.604V336.092C448.604 335.51 448.915 335.126 449.496 335.126C449.722 335.126 449.897 335.165 450.05 335.233V335.838Z" fill="#1C145C"/>
<path d="M451.682 337.001C451.62 336.99 451.558 336.984 451.502 336.984C451.191 336.984 450.976 337.176 450.976 337.543V338.905H450.304V336.414H450.954V336.685C451.112 336.453 451.349 336.346 451.654 336.346C451.801 336.346 451.948 336.391 452.033 336.464L451.682 337.001Z" fill="#1C145C"/>
<path d="M454.348 337.651C454.348 337.73 454.343 337.82 454.337 337.877H452.569C452.643 338.238 452.891 338.396 453.207 338.396C453.422 338.396 453.659 338.311 453.84 338.159L454.235 338.594C453.953 338.854 453.592 338.972 453.174 338.972C452.411 338.972 451.88 338.453 451.88 337.668C451.88 336.882 452.394 336.346 453.14 336.346C453.857 336.34 454.348 336.877 454.348 337.651ZM452.575 337.419H453.676C453.614 337.103 453.422 336.922 453.134 336.922C452.818 336.922 452.631 337.114 452.575 337.419Z" fill="#1C145C"/>
<path d="M457.009 337.651C457.009 337.73 457.003 337.82 456.998 337.877H455.23C455.303 338.238 455.552 338.396 455.868 338.396C456.083 338.396 456.32 338.311 456.5 338.159L456.896 338.594C456.613 338.854 456.252 338.972 455.834 338.972C455.071 338.972 454.541 338.453 454.541 337.668C454.541 336.882 455.055 336.346 455.8 336.346C456.517 336.34 457.009 336.877 457.009 337.651ZM455.235 337.419H456.337C456.275 337.103 456.082 336.922 455.794 336.922C455.478 336.922 455.292 337.114 455.235 337.419Z" fill="#1C145C"/>
<path d="M459.912 337.656C459.912 338.408 459.392 338.967 458.703 338.967C458.37 338.967 458.133 338.837 457.969 338.645V339.933H457.302V336.408H457.958V336.685C458.121 336.481 458.359 336.34 458.703 336.34C459.392 336.34 459.912 336.905 459.912 337.656ZM457.941 337.656C457.941 338.052 458.201 338.345 458.579 338.345C458.974 338.345 459.223 338.04 459.223 337.656C459.223 337.278 458.974 336.967 458.579 336.967C458.201 336.967 457.941 337.261 457.941 337.656Z" fill="#1C145C"/>
<path d="M460.991 335.595C460.991 335.838 460.804 336.024 460.561 336.024C460.318 336.024 460.132 335.838 460.132 335.595C460.132 335.352 460.318 335.16 460.561 335.16C460.804 335.16 460.991 335.352 460.991 335.595ZM460.9 338.905H460.228V336.414H460.9V338.905Z" fill="#1C145C"/>
<path d="M462.024 337.295L462.962 336.408H463.787L462.578 337.583L463.792 338.905H462.968L462.024 337.894V338.905H461.352V335.199H462.024V337.295Z" fill="#1C145C"/>
<path d="M416.262 338.882V338.515C416.082 338.763 415.777 338.944 415.432 338.944C414.788 338.944 414.336 338.453 414.336 337.656C414.336 336.871 414.783 336.363 415.432 336.363C415.765 336.363 416.065 336.527 416.262 336.798V335.487H416.647V338.882H416.262ZM416.262 338.21V337.097C416.127 336.882 415.828 336.702 415.523 336.702C415.031 336.702 414.732 337.108 414.732 337.656C414.732 338.199 415.026 338.605 415.523 338.605C415.828 338.6 416.127 338.424 416.262 338.21Z" fill="#1C145C"/>
<path d="M417.138 337.645C417.138 336.933 417.646 336.357 418.352 336.357C419.098 336.357 419.533 336.939 419.533 337.679V337.775H417.539C417.567 338.238 417.895 338.628 418.426 338.628C418.708 338.628 418.991 338.515 419.183 338.317L419.363 338.566C419.12 338.809 418.787 338.944 418.386 338.944C417.663 338.938 417.138 338.419 417.138 337.645ZM418.347 336.673C417.821 336.673 417.562 337.114 417.545 337.492H419.16C419.149 337.125 418.906 336.673 418.347 336.673Z" fill="#1C145C"/>
<path d="M419.804 338.554L420.001 338.278C420.165 338.464 420.476 338.628 420.809 338.628C421.188 338.628 421.391 338.447 421.391 338.204C421.391 337.611 419.866 337.973 419.866 337.063C419.866 336.679 420.199 336.357 420.781 336.357C421.199 336.357 421.493 336.515 421.69 336.713L421.509 336.978C421.363 336.798 421.092 336.668 420.775 336.668C420.442 336.668 420.233 336.837 420.233 337.058C420.233 337.6 421.758 337.238 421.758 338.199C421.758 338.611 421.425 338.944 420.792 338.944C420.397 338.938 420.058 338.82 419.804 338.554Z" fill="#1C145C"/>
<path d="M422.193 335.815C422.193 335.674 422.312 335.555 422.447 335.555C422.588 335.555 422.707 335.674 422.707 335.815C422.707 335.956 422.588 336.069 422.447 336.069C422.312 336.069 422.193 335.956 422.193 335.815ZM422.261 338.882V336.425H422.645V338.882H422.261Z" fill="#1C145C"/>
<path d="M423.272 339.509L423.464 339.226C423.667 339.469 423.91 339.565 424.266 339.565C424.673 339.565 425.057 339.368 425.057 338.825V338.475C424.876 338.724 424.577 338.916 424.232 338.916C423.588 338.916 423.136 338.436 423.136 337.645C423.136 336.854 423.583 336.368 424.232 336.368C424.565 336.368 424.859 336.532 425.057 336.803V336.431H425.441V338.82C425.441 339.633 424.87 339.887 424.272 339.887C423.848 339.876 423.566 339.797 423.272 339.509ZM425.057 338.17V337.097C424.927 336.882 424.628 336.702 424.323 336.702C423.831 336.702 423.532 337.091 423.532 337.639C423.532 338.182 423.826 338.577 424.323 338.577C424.628 338.577 424.927 338.385 425.057 338.17Z" fill="#1C145C"/>
<path d="M427.734 338.882V337.272C427.734 336.837 427.514 336.702 427.186 336.702C426.887 336.702 426.599 336.882 426.458 337.086V338.882H426.073V336.425H426.458V336.781C426.633 336.577 426.966 336.363 427.333 336.363C427.847 336.363 428.118 336.623 428.118 337.159V338.888H427.734V338.882Z" fill="#1C145C"/>
<path d="M428.61 337.645C428.61 336.933 429.118 336.357 429.824 336.357C430.57 336.357 431.004 336.939 431.004 337.679V337.775H429.011C429.039 338.238 429.366 338.628 429.897 338.628C430.18 338.628 430.462 338.515 430.654 338.317L430.835 338.566C430.592 338.809 430.259 338.944 429.858 338.944C429.135 338.938 428.61 338.419 428.61 337.645ZM429.818 336.673C429.293 336.673 429.033 337.114 429.016 337.492H430.632C430.62 337.125 430.378 336.673 429.818 336.673Z" fill="#1C145C"/>
<path d="M433.275 338.882V338.515C433.094 338.763 432.789 338.944 432.445 338.944C431.801 338.944 431.349 338.453 431.349 337.656C431.349 336.871 431.795 336.363 432.445 336.363C432.778 336.363 433.077 336.527 433.275 336.798V335.487H433.659V338.882H433.275ZM433.275 338.21V337.097C433.139 336.882 432.84 336.702 432.535 336.702C432.044 336.702 431.744 337.108 431.744 337.656C431.744 338.199 432.038 338.605 432.535 338.605C432.846 338.6 433.139 338.424 433.275 338.21Z" fill="#1C145C"/>
<path d="M435.483 338.882V335.487H435.867V336.798C436.065 336.527 436.359 336.363 436.698 336.363C437.342 336.363 437.794 336.871 437.794 337.656C437.794 338.458 437.342 338.944 436.698 338.944C436.353 338.944 436.048 338.763 435.867 338.515V338.882H435.483ZM436.596 338.6C437.093 338.6 437.393 338.199 437.393 337.651C437.393 337.108 437.099 336.696 436.596 336.696C436.297 336.696 435.997 336.877 435.862 337.091V338.204C435.997 338.424 436.297 338.6 436.596 338.6Z" fill="#1C145C"/>
<path d="M438.206 339.498C438.262 339.526 438.353 339.537 438.415 339.537C438.584 339.537 438.697 339.481 438.782 339.277L438.946 338.905L437.918 336.419H438.33L439.149 338.436L439.962 336.419H440.38L439.149 339.379C439.002 339.735 438.754 339.87 438.426 339.876C438.347 339.876 438.217 339.859 438.144 339.842L438.206 339.498Z" fill="#1C145C"/>
</svg>
