<svg width="471" height="358" viewBox="0 0 471 358" fill="none" xmlns="http://www.w3.org/2000/svg">
<path d="M30.8825 337.547C30.8825 337.547 -3.15384 257.432 39.8859 196.895C82.9257 136.358 56.6751 82.6807 132.252 29.2531C229.386 -39.4232 323.074 28.3371 351.011 74.2809C378.948 120.225 473.844 96.774 446.271 227.486C424.881 328.887 440.838 333.342 440.838 333.342L30.8825 337.547Z" fill="#F1EEFD"/>
<path d="M51.3979 315.876C51.3979 315.876 -8.99313 284.328 5.55817 213.372C20.1095 142.416 79.3763 125.585 103.753 130.79C149.437 140.553 74.7965 169.354 56.9665 119.912C34.5983 57.8769 114.36 10.913 188.293 23.0704C235.808 30.8768 258.749 53.6302 300.987 67.9213C343.08 82.1603 360.733 63.0916 343.964 52.0376C328.049 41.5457 270.25 58.668 290.1 82.1291C317.266 114.261 382.757 64.476 433.51 119.912C484.263 175.349 440.203 245.045 401.191 250.853C362.179 256.661 379.281 200.663 440.203 245.045C501.125 289.428 424.173 337.537 424.173 337.537" stroke="#C3C8FF" stroke-miterlimit="10"/>
<path d="M466.1 341.981H4.43409C1.98805 341.981 0 339.993 0 337.547C0 335.101 1.98805 333.113 4.43409 333.113H470.544V337.547C470.534 339.993 468.556 341.981 466.1 341.981Z" fill="#6876EB"/>
<path d="M170.338 341.981H4.43409C1.98805 341.981 0 339.993 0 337.547V333.113H174.782V337.547C174.772 339.993 172.784 341.981 170.338 341.981Z" fill="#1C145E"/>
<path d="M239.305 163.941C219.539 201.933 197.317 217.41 197.317 217.41L216.5 248.043L249.995 213.226L239.305 163.941Z" fill="#1C145E"/>
<path d="M288.33 154.875L239.305 163.941C236.204 256.682 235.038 333.092 235.038 333.092H323.022C323.022 333.092 325.572 191.076 311.417 160.09L288.33 154.875Z" fill="#1C145E"/>
<path d="M282.636 202.141L306.514 200.111" stroke="#6876EB" stroke-width="4" stroke-miterlimit="10"/>
<path d="M271.676 182.208C271.676 182.208 286.831 285.649 273.644 327.503" stroke="#6876EB" stroke-miterlimit="10"/>
<path d="M255.803 234.012C255.803 234.012 270.448 239.904 289.423 240.528C308.398 241.153 296.594 251.249 268.46 249.334" stroke="#6876EB" stroke-miterlimit="10"/>
<path d="M259.571 151.107L271.676 183.249L288.33 154.875L277.349 136.931L259.571 151.107Z" fill="#E9A394"/>
<path d="M271.676 183.249L294.253 177.014L288.33 154.875L271.676 183.249Z" fill="#6876EB"/>
<path d="M262.267 158.248L250.005 171.935L271.676 183.249L262.267 158.248Z" fill="#6876EB"/>
<path d="M216.51 248.043C216.51 248.043 223.672 233.117 208.298 213.892C199.773 203.234 195.849 184.831 195.849 184.831L183.047 186.778L194.777 248.043H216.51Z" fill="#E9A394"/>
<path d="M180.423 165.617L175.178 170.384L182.193 176.567L160.241 176.192L159.773 183.728L183.036 186.778L195.849 184.831L180.423 165.617Z" fill="#E9A394"/>
<path d="M184.264 177.347L163.197 168.656L161.844 172.403L179.414 179.783L184.264 177.347Z" fill="#E9A394"/>
<path d="M311.427 160.09C311.427 160.09 339.717 176.192 348.648 236.531L315.83 244.452L311.427 160.09Z" fill="#1C145E"/>
<path d="M249.995 111.825L239.305 139.158L247.476 141.677L249.995 157.071L276.069 151.107L279.847 109.306L249.995 111.825Z" fill="#E9A394"/>
<path d="M267.398 118.32H247.455L249.631 112.429L267.398 111.325V118.32Z" fill="#E37A82"/>
<path d="M277.817 130.79C277.817 130.79 265.088 128.156 265.088 114.989C265.088 114.989 246.206 117.56 239.691 107.308C231.967 95.1712 243.771 81.2132 253.513 84.0547C253.513 84.0547 247.372 90.1438 256.698 90.8516C263.349 91.3616 275.496 82.5143 279.837 91.0702C279.837 91.0702 313.311 98.7205 288.32 129.905L277.817 130.79Z" fill="#16005C"/>
<path d="M265.098 113.959C265.098 113.959 239.857 118.83 234.58 100.74C231.499 90.1543 242.095 84.1381 242.095 84.1381" stroke="#16005C" stroke-width="2" stroke-miterlimit="10"/>
<path d="M254.419 138.284C259.679 138.284 263.943 134.02 263.943 128.76C263.943 123.5 259.679 119.236 254.419 119.236C249.159 119.236 244.895 123.5 244.895 128.76C244.895 134.02 249.159 138.284 254.419 138.284Z" stroke="#16005C" stroke-width="0.5" stroke-miterlimit="10"/>
<path d="M263.433 125.679L276.995 126.428" stroke="#16005C" stroke-width="0.5" stroke-miterlimit="10"/>
<path d="M294.253 133.194C294.253 139.096 286.342 143.873 280.451 143.873C274.549 143.873 272.894 139.085 272.894 133.194C272.894 127.303 277.682 122.515 283.573 122.515C289.475 122.504 294.253 127.292 294.253 133.194Z" fill="#E9A394"/>
<path d="M344.735 237.468V286.742H320.17L318.12 243.89L344.735 237.468Z" fill="#E9A394"/>
<path d="M237.39 226.331L238.421 192.003L222.516 241.798L237.39 226.331Z" fill="#1C145C"/>
<path d="M260.841 154.375L276.069 151.107L263.589 161.755L260.841 154.375Z" fill="#E37A82"/>
<path d="M251.827 133.184C252.833 133.184 253.648 131.483 253.648 129.384C253.648 127.286 252.833 125.585 251.827 125.585C250.821 125.585 250.005 127.286 250.005 129.384C250.005 131.483 250.821 133.184 251.827 133.184Z" fill="#16005C"/>
<path d="M256.781 120.141C256.781 115.041 252.722 118.476 252.722 118.476L256.781 120.141Z" fill="#16005C"/>
<path d="M252.722 142.697L258.53 141.157C258.53 141.157 261.018 162.682 252.722 142.697Z" fill="white"/>
<path d="M127.673 239.175C127.673 239.175 166.82 233.117 167.59 301.387C167.715 312.462 174.772 333.113 174.772 333.113H139.289L127.673 239.175Z" fill="#5321D7"/>
<path d="M86.7458 233.117L63.0869 238.707L70.3105 333.113H162.375C162.375 333.113 159.284 258.421 124.571 236.011L86.7458 233.117Z" fill="#6A3FDC"/>
<path d="M63.0764 238.696C38.6889 244.254 44.3929 262.979 49.108 301.419C36.9403 311.307 48.6084 315.751 48.6084 315.751C35.2436 329.918 51.9183 333.103 51.9183 333.103H96.4361C96.4465 333.103 87.4847 233.127 63.0764 238.696Z" fill="#6A3FDC"/>
<path d="M93.8027 311.296L83.113 262.251" stroke="#5321D7" stroke-miterlimit="10"/>
<path d="M51.9185 333.103C51.9185 333.103 59.4335 315.845 83.1965 307.164C102.89 299.972 131.711 318.645 150.155 300.898L153.569 320.872L96.4467 333.092H51.9185V333.103Z" fill="#E9A394"/>
<path d="M130.243 184.488L147.855 211.301L136.551 215.339L134.594 237.124L100.631 225.321L103.826 181.001L130.243 184.488Z" fill="#E9A394"/>
<path d="M104.107 212.654L86.7456 233.117L109.01 260.398L119.054 228.527L104.107 212.654Z" fill="#E37A82"/>
<path d="M109.915 199.986L134.761 191.368L130.243 184.488L105.7 187.048L109.915 199.986Z" fill="#E37A82"/>
<path d="M107.761 209.375C107.761 209.375 115.286 224.436 110.051 195.406C110.051 195.406 117.191 196.208 122.78 186.788C122.78 186.788 121.042 202.141 137.446 186.788C153.85 171.435 133.002 159.424 107.521 163.941C85.4446 167.855 63.347 180.335 95.6346 222.625L107.761 209.375Z" fill="#16005C"/>
<path d="M103.743 215.36C102.046 217.629 99.1318 219.69 96.1133 220.137C90.0554 221.022 84.1433 216.245 83.269 210.187C82.3947 204.129 85.4444 200.986 91.5022 200.111C94.9059 199.612 98.8403 200.621 101.796 202.682C102.681 203.785 103.743 215.36 103.743 215.36Z" fill="#E9A394"/>
<path d="M127.705 207.001C128.609 206.755 128.887 204.879 128.325 202.809C127.764 200.74 126.575 199.261 125.671 199.507C124.767 199.752 124.489 201.629 125.051 203.698C125.612 205.767 126.8 207.246 127.705 207.001Z" fill="#16005C"/>
<path d="M120.823 197.988C120.823 197.988 119.939 193.013 124.56 195.407L120.823 197.988Z" fill="#16005C"/>
<path d="M83.9561 233.95L87.9946 229.318L86.5166 225.883L95.6346 222.625L121.812 235.792L122.78 245.847L118.346 244.442L111.123 271.4L83.9561 233.95Z" fill="#6A3FDC"/>
<path d="M107.604 240.528L122.78 245.847L121.812 235.792" stroke="#5321D7" stroke-miterlimit="10"/>
<path d="M110.051 195.406C110.051 195.406 113.1 213.184 117.576 216.838C119.044 218.035 121.823 214.985 134.594 214.725C142.411 214.569 142.401 241.84 132.034 241.059C121.667 240.278 105.908 233.814 103.545 213.934C101.474 196.499 110.051 195.406 110.051 195.406Z" fill="#16005C"/>
<path d="M122.781 220.137C122.781 220.137 125.414 225.04 130.608 221.72" stroke="#C4C6C5" stroke-miterlimit="10"/>
<path d="M182.037 321.882H94.6353V328.356C94.6353 330.979 96.7586 333.102 99.3816 333.102H182.037C184.66 333.102 186.783 330.979 186.783 328.356V326.628C186.783 324.005 184.66 321.882 182.037 321.882Z" fill="#1C145E"/>
<path d="M253.024 256.963H151.352C148.333 256.963 145.783 259.211 145.398 262.209L137.207 326.337C136.749 329.928 139.549 333.102 143.16 333.102H244.832C247.851 333.102 250.401 330.854 250.786 327.856L258.977 263.729C259.435 260.148 256.636 256.963 253.024 256.963Z" fill="#1C145E"/>
<path d="M257.937 256.963H156.265C153.246 256.963 150.696 259.211 150.311 262.209L142.119 326.337C141.662 329.928 144.461 333.102 148.073 333.102H249.745C252.763 333.102 255.314 330.854 255.699 327.856L263.89 263.729C264.359 260.148 261.559 256.963 257.937 256.963Z" fill="#6876EB"/>
<path d="M209.553 301.93C213.786 297.914 214.285 291.569 210.669 287.757C207.053 283.946 200.69 284.112 196.457 288.128C192.225 292.144 191.725 298.489 195.342 302.301C198.958 306.112 205.321 305.946 209.553 301.93Z" fill="white"/>
<path d="M255.72 332.561H129.171" stroke="#1C145E" stroke-miterlimit="10"/>
<path d="M311.656 246.742L353.665 247.543L344.141 196.156L321.804 198.685C321.804 198.685 311.739 213.538 319.691 225.082C328.653 238.103 310.73 238.592 311.656 246.742Z" fill="#16005C"/>
<path d="M321.804 198.675C321.804 198.675 311.739 213.528 319.691 225.071C328.653 238.103 310.74 238.582 311.656 246.742" stroke="#7079F1" stroke-width="2" stroke-miterlimit="10"/>
<path d="M330.183 240.528C330.183 240.528 311.073 259.284 300.987 329.97H322.262L330.183 240.528Z" fill="#7079F1"/>
<path d="M380.696 235.303L372.38 329.97H310.584L318.276 293.81C318.276 293.81 294.752 281.538 330.183 240.528L338.989 236L377.251 233.107L380.696 235.303Z" fill="#C3C8FF"/>
<path d="M330.183 282.902C330.183 282.902 326.478 289.251 330.037 294.341L324.792 329.98" stroke="#7079F1" stroke-miterlimit="10"/>
<path d="M321.544 293.976L357.34 295.038" stroke="#7079F1" stroke-miterlimit="10"/>
<path d="M364.397 311.796L360.608 266.269" stroke="#7079F1" stroke-miterlimit="10"/>
<path d="M380.697 235.303C380.697 235.303 384.111 239.591 388.055 249.552C393.655 263.666 400.338 289.178 399.9 329.97H372.37L380.697 235.303Z" fill="#C3C8FF"/>
<path d="M399.911 333.092C399.911 333.092 386.161 301.637 351.562 310.641C313.789 320.466 299.759 318.635 299.759 318.635L296.896 333.092H399.911Z" fill="#E9A394"/>
<path d="M363.897 304.031L351.625 306.779L379.51 333.102H405.792C405.792 333.092 394.457 305.634 363.897 304.031Z" fill="#7079F1"/>
<path d="M364.657 312.191L370.506 310.412" stroke="#C3C8FF" stroke-miterlimit="10"/>
<path d="M299.759 318.634L281.804 314.919L268.939 333.092H296.896L299.759 318.634Z" fill="#E9A394"/>
<path d="M330.183 282.902L363.533 249.542L357.34 246.617L380.697 235.303L369.965 228.485H345.005L330.183 247.013L334.274 248.043L330.183 250.916V282.902Z" fill="#7079F1"/>
<path d="M353.498 239.82L364.396 232.284L352.634 205.992L334.398 217.442L339.54 239.258L330.183 282.902L353.498 239.82Z" fill="#E9A394"/>
<path d="M335.866 223.666L348.658 217.004L337.24 229.495L335.866 223.666Z" fill="#E37A82"/>
<path d="M312.499 185.591L306.909 216.557H315.288L324.698 229.495L348.659 217.004L331.901 179.658L312.499 185.591Z" fill="#E9A394"/>
<path d="M311.145 193.106L310.583 196.51L332.681 193.491L332.337 189.255L311.145 193.106Z" fill="#E37A82"/>
<path d="M373.577 183.249C368.039 168.25 361.284 162.473 361.284 162.473C347.722 149.005 324.552 163.952 324.552 163.952C294.856 156.759 306.909 193.637 306.909 193.637L331.099 190.671C334.482 210.957 346.577 200.684 346.577 200.684L352.218 210.853C352.218 210.853 346.525 215.88 352.458 224.509C357.339 231.608 345.64 234.033 348.669 241.59L395.414 231.899C395.414 201.121 383.579 210.353 373.577 183.249Z" fill="#16005C"/>
<path d="M305.015 193.866C305.015 193.866 300.737 172.82 308.595 165.96C312.696 162.39 325.593 163.941 325.593 163.941" stroke="#7079F1" stroke-width="2" stroke-miterlimit="10"/>
<path d="M398.474 231.004C398.474 231.004 402.211 217.004 381.862 201.131" stroke="#16005C" stroke-width="2" stroke-miterlimit="10"/>
<path d="M347.264 212.154C352.828 212.154 357.339 207.643 357.339 202.079C357.339 196.514 352.828 192.003 347.264 192.003C341.699 192.003 337.188 196.514 337.188 202.079C337.188 207.643 341.699 212.154 347.264 212.154Z" fill="#E9A394"/>
<path d="M321.544 215.422L327.789 213.892C327.789 213.882 329.975 231.691 321.544 215.422Z" fill="white"/>
<path d="M316.34 204.899C316.34 204.899 318.328 192.783 322.678 204.899" stroke="#1C145E" stroke-width="0.5" stroke-miterlimit="10"/>
<path d="M317.88 195.687C317.88 195.687 320.295 191.586 323.168 195.687H317.88Z" fill="#16005C"/>
<path d="M223.932 86.5839C220.31 76.5084 208.923 71.4706 198.941 75.7693C190.354 79.4748 185.795 89.2173 188.459 98.1896C189.948 103.207 193.31 107.079 197.525 109.348C201.418 111.44 204.749 114.417 207.195 118.091L207.903 119.153L221.892 114.125L221.757 112.866C221.299 108.4 222.079 103.935 223.724 99.7613C225.348 95.6811 225.535 91.0284 223.932 86.5839Z" fill="#C3C8FF"/>
<path d="M223.932 86.5839C220.31 76.5084 208.923 71.4706 198.941 75.7693C190.354 79.4748 185.795 89.2173 188.459 98.1896C189.948 103.207 193.31 107.079 197.525 109.348C201.418 111.44 204.749 114.417 207.195 118.091L207.903 119.153L221.892 114.125L221.757 112.866C221.299 108.4 222.079 103.935 223.724 99.7613C225.348 95.6811 225.535 91.0284 223.932 86.5839Z" fill="#C3C8FF"/>
<path d="M211.108 115.02L199.961 99.2929C199.961 99.2929 200.169 96.1078 203.666 96.6178C207.163 97.1175 209.256 102.644 206.758 101.749C204.259 100.854 203.375 94.3696 208.1 93.3808C212.826 92.3919 214.408 103.123 211.795 101.052C209.183 98.9806 209.734 92.1525 214.793 92.0901L217.759 114.771" stroke="white" stroke-miterlimit="10"/>
<path d="M221.569 124.857L215.001 127.219C212.503 128.115 209.756 126.824 208.85 124.326L207.466 120.464C206.57 117.966 207.861 115.218 210.359 114.313L216.927 111.95C219.425 111.055 222.173 112.345 223.079 114.843L224.463 118.705C225.369 121.203 224.067 123.961 221.569 124.857Z" fill="#16005C"/>
<path d="M223.112 108.455L203.337 115.564L206.809 125.222L226.584 118.112L223.112 108.455Z" fill="#6876EB"/>
<path d="M205.894 69.4617L203.927 58.1475" stroke="#C3C8FF" stroke-miterlimit="10"/>
<path d="M191.644 76.1961L182.193 66.974" stroke="#C3C8FF" stroke-miterlimit="10"/>
<path d="M181.798 92.9644L171.014 93.7346" stroke="#C3C8FF" stroke-miterlimit="10"/>
<path d="M221.434 75.6547L226.284 66.6616" stroke="#C3C8FF" stroke-miterlimit="10"/>
<path d="M373.234 158.768H440.088C442.41 158.768 444.637 156.884 445.064 154.563L451.975 116.446C452.391 114.125 450.851 112.241 448.53 112.241H381.675C379.354 112.241 377.127 114.125 376.7 116.446L369.788 154.563C369.372 156.884 370.913 158.768 373.234 158.768Z" fill="#1C145C"/>
<path d="M426.836 138.466C428.788 136.682 429.164 133.916 427.675 132.286C426.187 130.656 423.397 130.781 421.445 132.564C419.493 134.347 419.117 137.114 420.605 138.744C422.094 140.374 424.884 140.249 426.836 138.466Z" fill="white"/>
<path d="M413.556 138.467C415.508 136.683 415.884 133.917 414.395 132.287C412.906 130.657 410.117 130.782 408.165 132.565C406.212 134.348 405.836 137.115 407.325 138.745C408.814 140.375 411.603 140.25 413.556 138.467Z" fill="white"/>
<path d="M400.275 138.468C402.227 136.685 402.603 133.918 401.115 132.288C399.626 130.658 396.836 130.783 394.884 132.566C392.932 134.35 392.556 137.116 394.045 138.746C395.533 140.376 398.323 140.251 400.275 138.468Z" fill="white"/>
<path d="M409.216 156.259L385.984 170.072L390.148 155.177L409.216 156.259Z" fill="#1C145C"/>
<path d="M157.868 153.116H91.0134C88.6923 153.116 86.4649 151.232 86.0381 148.911L79.1268 110.794C78.7104 108.473 80.2509 106.589 82.572 106.589H149.427C151.748 106.589 153.975 108.473 154.402 110.794L161.314 148.911C161.74 151.232 160.189 153.116 157.868 153.116Z" fill="#C3C8FF"/>
<path d="M110.47 133.076C111.959 131.447 111.583 128.68 109.631 126.896C107.678 125.113 104.889 124.989 103.4 126.618C101.911 128.248 102.287 131.015 104.24 132.798C106.192 134.582 108.981 134.706 110.47 133.076Z" fill="white"/>
<path d="M123.75 133.075C125.239 131.445 124.863 128.678 122.911 126.895C120.958 125.111 118.169 124.987 116.68 126.617C115.191 128.246 115.567 131.013 117.52 132.797C119.472 134.58 122.261 134.704 123.75 133.075Z" fill="white"/>
<path d="M137.023 133.081C138.512 131.451 138.136 128.684 136.184 126.901C134.231 125.118 131.442 124.993 129.953 126.623C128.464 128.253 128.84 131.02 130.793 132.803C132.745 134.586 135.534 134.711 137.023 133.081Z" fill="white"/>
<path d="M134.022 150.618L137.686 163.941L152.518 149.681L134.022 150.618Z" fill="#C3C8FF"/>
<path d="M246.945 349.767C246.664 350.048 246.435 350.36 246.237 350.693L245.935 350.537C245.894 350.35 245.717 350.214 245.509 350.235C245.301 350.256 245.144 350.454 245.165 350.662C245.186 350.87 245.384 351.026 245.592 351.005C245.634 351.005 245.675 350.985 245.706 350.974L245.998 351.12C245.842 351.474 245.717 351.848 245.654 352.234L246.133 352.317C246.279 351.484 246.674 350.714 247.278 350.089L246.945 349.767Z" fill="#1C145C"/>
<path d="M250.463 348.289C250.349 348.289 250.245 348.289 250.14 348.299L250.088 347.893C250.213 347.8 250.276 347.643 250.255 347.477C250.224 347.227 249.995 347.04 249.745 347.071C249.495 347.102 249.308 347.331 249.339 347.581C249.36 347.747 249.464 347.872 249.599 347.945L249.651 348.341C249.193 348.414 248.756 348.549 248.329 348.757L248.538 349.194C249.131 348.903 249.787 348.768 250.453 348.768C250.775 348.768 251.088 348.799 251.4 348.872L251.504 348.393C251.171 348.33 250.817 348.289 250.463 348.289Z" fill="#1C145C"/>
<path d="M254.689 349.923C254.897 349.902 255.054 349.704 255.022 349.496C255.001 349.288 254.804 349.132 254.596 349.163C254.398 349.184 254.252 349.361 254.252 349.548L253.981 349.777C253.711 349.507 253.409 349.257 253.076 349.049L252.816 349.455C253.544 349.912 254.106 350.558 254.46 351.328L254.908 351.13C254.752 350.776 254.544 350.443 254.304 350.141L254.564 349.912C254.606 349.923 254.648 349.933 254.689 349.923Z" fill="#1C145C"/>
<path d="M250.109 354.836C249.86 354.846 249.61 354.857 249.37 354.857C248.808 354.857 248.257 354.815 247.778 354.742C247.528 354.7 247.237 354.638 246.966 354.555C247.632 355.752 248.933 356.553 250.422 356.553C252.254 356.553 253.794 355.325 254.231 353.67C253.794 353.961 253.263 354.201 252.66 354.388C251.9 354.628 251.025 354.773 250.109 354.836Z" fill="#1C145C"/>
<path d="M250.463 349.267C248.319 349.267 246.57 350.974 246.57 353.077C246.57 353.347 246.602 353.618 246.654 353.889C247.08 354.201 248.392 354.461 250.078 354.357C251.92 354.242 253.471 353.743 254.356 352.973C254.356 352.848 254.346 352.723 254.325 352.598C254.085 350.693 252.42 349.267 250.463 349.267ZM249.079 353.441C248.423 353.441 247.892 352.91 247.892 352.254C247.892 351.599 248.423 351.068 249.079 351.068C249.735 351.068 250.265 351.599 250.265 352.254C250.265 352.9 249.735 353.441 249.079 353.441ZM252.118 352.858C251.639 352.858 251.244 352.463 251.244 351.984C251.244 351.505 251.639 351.109 252.118 351.109C252.597 351.109 252.992 351.505 252.992 351.984C252.982 352.463 252.597 352.858 252.118 352.858Z" fill="#1C145C"/>
<path d="M260.716 350.454C260.528 350.381 260.195 350.256 259.831 350.298C259.477 350.339 259.29 350.516 259.29 350.943V351.495H260.716V352.598H259.29V356.095H258.051V352.598H257.198V351.495H258.051V350.922C258.051 349.85 258.624 349.142 259.696 349.142C260.112 349.142 260.435 349.215 260.716 349.34V350.454Z" fill="#1C145C"/>
<path d="M263.724 352.598C263.609 352.577 263.495 352.567 263.391 352.567C262.818 352.567 262.423 352.921 262.423 353.597V356.106H261.184V351.515H262.381V352.015C262.673 351.588 263.11 351.391 263.672 351.391C263.942 351.391 264.213 351.474 264.369 351.609L263.724 352.598Z" fill="#1C145C"/>
<path d="M268.637 353.795C268.637 353.941 268.626 354.107 268.616 354.211H265.358C265.493 354.877 265.951 355.169 266.534 355.169C266.93 355.169 267.367 355.013 267.7 354.732L268.429 355.533C267.908 356.012 267.242 356.231 266.472 356.231C265.067 356.231 264.088 355.273 264.088 353.826C264.088 352.379 265.035 351.391 266.409 351.391C267.731 351.38 268.637 352.369 268.637 353.795ZM265.368 353.368H267.398C267.284 352.785 266.93 352.452 266.399 352.452C265.816 352.452 265.472 352.806 265.368 353.368Z" fill="#1C145C"/>
<path d="M273.539 353.795C273.539 353.941 273.529 354.107 273.518 354.211H270.261C270.396 354.877 270.854 355.169 271.437 355.169C271.832 355.169 272.269 355.013 272.603 354.732L273.331 355.533C272.811 356.012 272.145 356.231 271.374 356.231C269.969 356.231 268.991 355.273 268.991 353.826C268.991 352.379 269.938 351.391 271.312 351.391C272.634 351.38 273.539 352.369 273.539 353.795ZM270.271 353.368H272.301C272.186 352.785 271.832 352.452 271.301 352.452C270.719 352.452 270.375 352.806 270.271 353.368Z" fill="#1C145C"/>
<path d="M278.889 353.805C278.889 355.19 277.932 356.22 276.662 356.22C276.048 356.22 275.61 355.981 275.309 355.627V358H274.08V351.505H275.288V352.015C275.59 351.64 276.027 351.38 276.662 351.38C277.932 351.38 278.889 352.421 278.889 353.805ZM275.257 353.805C275.257 354.534 275.735 355.075 276.433 355.075C277.161 355.075 277.619 354.513 277.619 353.805C277.619 353.108 277.161 352.535 276.433 352.535C275.735 352.535 275.257 353.077 275.257 353.805Z" fill="#1C145C"/>
<path d="M280.877 350.006C280.877 350.454 280.534 350.797 280.086 350.797C279.639 350.797 279.295 350.454 279.295 350.006C279.295 349.559 279.639 349.205 280.086 349.205C280.534 349.205 280.877 349.559 280.877 350.006ZM280.711 356.106H279.472V351.515H280.711V356.106Z" fill="#1C145C"/>
<path d="M282.782 353.139L284.51 351.505H286.03L283.802 353.67L286.04 356.106H284.52L282.782 354.243V356.106H281.543V349.278H282.782V353.139Z" fill="#1C145C"/>
<path d="M198.451 356.064V355.387C198.118 355.845 197.556 356.179 196.921 356.179C195.735 356.179 194.902 355.273 194.902 353.805C194.902 352.359 195.724 351.422 196.921 351.422C197.535 351.422 198.087 351.724 198.451 352.223V349.808H199.159V356.064H198.451ZM198.451 354.825V352.775C198.202 352.379 197.65 352.046 197.088 352.046C196.182 352.046 195.631 352.796 195.631 353.805C195.631 354.805 196.172 355.554 197.088 355.554C197.65 355.544 198.202 355.221 198.451 354.825Z" fill="#1C145C"/>
<path d="M200.065 353.785C200.065 352.473 201.001 351.411 202.303 351.411C203.676 351.411 204.478 352.483 204.478 353.847V354.024H200.804C200.856 354.877 201.459 355.596 202.438 355.596C202.958 355.596 203.479 355.387 203.833 355.023L204.166 355.481C203.718 355.929 203.104 356.179 202.365 356.179C201.033 356.168 200.065 355.211 200.065 353.785ZM202.292 351.994C201.324 351.994 200.845 352.806 200.814 353.504H203.791C203.77 352.827 203.323 351.994 202.292 351.994Z" fill="#1C145C"/>
<path d="M204.978 355.46L205.342 354.95C205.644 355.294 206.216 355.596 206.83 355.596C207.528 355.596 207.902 355.263 207.902 354.815C207.902 353.722 205.092 354.388 205.092 352.712C205.092 352.005 205.706 351.411 206.778 351.411C207.548 351.411 208.09 351.703 208.454 352.067L208.121 352.556C207.85 352.223 207.351 351.984 206.768 351.984C206.154 351.984 205.769 352.296 205.769 352.702C205.769 353.701 208.579 353.035 208.579 354.805C208.579 355.564 207.965 356.179 206.799 356.179C206.07 356.168 205.446 355.95 204.978 355.46Z" fill="#1C145C"/>
<path d="M209.38 350.412C209.38 350.152 209.599 349.933 209.849 349.933C210.109 349.933 210.328 350.152 210.328 350.412C210.328 350.672 210.109 350.881 209.849 350.881C209.599 350.881 209.38 350.672 209.38 350.412ZM209.505 356.064V351.536H210.213V356.064H209.505Z" fill="#1C145C"/>
<path d="M211.369 357.219L211.723 356.699C212.097 357.146 212.545 357.323 213.201 357.323C213.95 357.323 214.658 356.959 214.658 355.96V355.315C214.325 355.773 213.773 356.126 213.138 356.126C211.952 356.126 211.119 355.242 211.119 353.784C211.119 352.327 211.941 351.432 213.138 351.432C213.752 351.432 214.294 351.734 214.658 352.234V351.547H215.366V355.949C215.366 357.448 214.314 357.917 213.211 357.917C212.43 357.896 211.91 357.75 211.369 357.219ZM214.658 354.752V352.775C214.418 352.379 213.867 352.046 213.305 352.046C212.399 352.046 211.847 352.764 211.847 353.774C211.847 354.773 212.389 355.502 213.305 355.502C213.867 355.502 214.418 355.148 214.658 354.752Z" fill="#1C145C"/>
<path d="M219.591 356.064V353.098C219.591 352.296 219.185 352.046 218.582 352.046C218.03 352.046 217.499 352.379 217.239 352.754V356.064H216.531V351.536H217.239V352.192C217.562 351.817 218.176 351.422 218.852 351.422C219.8 351.422 220.299 351.901 220.299 352.889V356.074H219.591V356.064Z" fill="#1C145C"/>
<path d="M221.205 353.785C221.205 352.473 222.142 351.411 223.443 351.411C224.817 351.411 225.618 352.483 225.618 353.847V354.024H221.944C221.996 354.877 222.6 355.596 223.578 355.596C224.098 355.596 224.619 355.387 224.973 355.023L225.306 355.481C224.858 355.929 224.244 356.179 223.505 356.179C222.173 356.168 221.205 355.211 221.205 353.785ZM223.432 351.994C222.464 351.994 221.985 352.806 221.954 353.504H224.931C224.91 352.827 224.463 351.994 223.432 351.994Z" fill="#1C145C"/>
<path d="M229.802 356.064V355.387C229.469 355.845 228.907 356.179 228.272 356.179C227.086 356.179 226.253 355.273 226.253 353.805C226.253 352.359 227.075 351.422 228.272 351.422C228.886 351.422 229.438 351.724 229.802 352.223V349.808H230.51V356.064H229.802ZM229.802 354.825V352.775C229.552 352.379 229.001 352.046 228.439 352.046C227.533 352.046 226.982 352.796 226.982 353.805C226.982 354.805 227.523 355.554 228.439 355.554C229.011 355.544 229.552 355.221 229.802 354.825Z" fill="#1C145C"/>
<path d="M233.872 356.064V349.808H234.58V352.223C234.944 351.724 235.485 351.422 236.11 351.422C237.297 351.422 238.129 352.359 238.129 353.805C238.129 355.283 237.297 356.179 236.11 356.179C235.475 356.179 234.913 355.845 234.58 355.387V356.064H233.872ZM235.923 355.544C236.839 355.544 237.39 354.805 237.39 353.795C237.39 352.796 236.849 352.036 235.923 352.036C235.371 352.036 234.819 352.369 234.569 352.764V354.815C234.819 355.221 235.371 355.544 235.923 355.544Z" fill="#1C145C"/>
<path d="M238.889 357.199C238.993 357.251 239.16 357.271 239.274 357.271C239.586 357.271 239.795 357.167 239.951 356.793L240.253 356.106L238.358 351.526H239.118L240.627 355.242L242.126 351.526H242.896L240.627 356.98C240.357 357.636 239.899 357.886 239.295 357.896C239.149 357.896 238.91 357.865 238.774 357.834L238.889 357.199Z" fill="#1C145C"/>
</svg>
