<svg width="448" height="445" viewBox="0 0 448 445" fill="none" xmlns="http://www.w3.org/2000/svg">
<path d="M188.92 399.74H10.1901L33.3601 342.77L45.6001 336.06L64.8701 291.51L80.4501 282.36L95.2701 255.56H109.89L142.39 310.43L158.93 318.97L188.92 399.74Z" fill="#F8F8FF"/>
<path d="M10.1901 399.74H87.2801V355.28L107.06 324.16L97.6401 291.51L109.89 255.56H95.2701L80.4501 282.36L64.8701 291.51L45.6001 336.06L33.3601 342.77L10.1901 399.74Z" fill="#DBDBDB"/>
<path d="M109.89 399.74L117.36 376.33L129.44 364.43L134.84 350.4L138.6 353.45V366.87L129.44 377.55V399.82L109.89 399.74Z" fill="#DBDBDB"/>
<path d="M124.25 327.65L126.25 318.26L131.64 312.87L134.16 316.07L130.8 320.26L132.31 329.19L124.25 327.65Z" fill="#DBDBDB"/>
<path d="M176.06 399.69H437.51L388.18 296.67L364.45 286.49L339.26 237.27L322.65 219.41L308.01 186.82L290.87 189.6L261.56 257.88L245.19 270.09L218.61 340.42L192.43 365.85L176.06 399.69Z" fill="#F8F8FF"/>
<path d="M308.01 186.82L310.02 238.16L290.72 265.13L299.77 285.76L281.85 331.26L297.47 368.9L288.22 399.69H176.06L192.43 365.85L218.61 340.42L245.19 270.09L261.56 257.88L290.87 189.6L308.01 186.82Z" fill="#DBDBDB"/>
<path d="M303.19 318.03L316.65 294.63L315.59 284.71L320.61 277.59L326.68 297.81L308.47 318.03H303.19Z" fill="#DBDBDB"/>
<path d="M10 399.73L63.46 399.48L116.92 399.4L223.85 399.23L330.78 399.39L384.24 399.48L437.7 399.73L384.24 399.97L330.78 400.06L223.85 400.23L116.92 400.06L63.46 399.97L10 399.73Z" fill="#263238"/>
<path d="M443.22 408.69H4.48001C3.29184 408.69 2.15234 408.218 1.31217 407.378C0.472011 406.538 1.12117e-05 405.398 1.12117e-05 404.21C-0.00130725 403.621 0.113672 403.038 0.338346 402.494C0.56302 401.95 0.892963 401.455 1.30923 401.039C1.7255 400.623 2.2199 400.293 2.76403 400.068C3.30816 399.844 3.89132 399.729 4.48001 399.73H443.22C444.408 399.73 445.548 400.202 446.388 401.042C447.228 401.882 447.7 403.022 447.7 404.21C447.697 405.397 447.225 406.535 446.385 407.375C445.545 408.214 444.407 408.687 443.22 408.69Z" fill="#455A64"/>
<path d="M354 417.55H77.43C74.9558 417.55 72.95 419.556 72.95 422.03C72.95 424.504 74.9558 426.51 77.43 426.51H354C356.474 426.51 358.48 424.504 358.48 422.03C358.48 419.556 356.474 417.55 354 417.55Z" fill="#455A64"/>
<path d="M329.16 444.23H127.67C127.081 444.231 126.498 444.116 125.954 443.892C125.41 443.667 124.916 443.337 124.499 442.921C124.083 442.504 123.753 442.01 123.528 441.466C123.304 440.922 123.189 440.339 123.19 439.75C123.19 438.562 123.662 437.422 124.502 436.582C125.342 435.742 126.482 435.27 127.67 435.27H329.16C329.748 435.27 330.331 435.386 330.874 435.611C331.418 435.836 331.912 436.166 332.328 436.582C332.744 436.998 333.074 437.492 333.299 438.036C333.524 438.579 333.64 439.162 333.64 439.75C333.641 440.339 333.526 440.922 333.302 441.466C333.077 442.01 332.747 442.504 332.331 442.921C331.915 443.337 331.42 443.667 330.876 443.892C330.332 444.116 329.749 444.231 329.16 444.23Z" fill="#455A64"/>
<path d="M58.76 417.55H37.71C35.2358 417.55 33.23 419.556 33.23 422.03C33.23 424.504 35.2358 426.51 37.71 426.51H58.76C61.2342 426.51 63.24 424.504 63.24 422.03C63.24 419.556 61.2342 417.55 58.76 417.55Z" fill="#455A64"/>
<path d="M363.98 444.23H353.45C352.862 444.23 352.279 444.114 351.736 443.889C351.192 443.664 350.698 443.334 350.282 442.918C349.866 442.502 349.536 442.008 349.311 441.464C349.086 440.921 348.97 440.338 348.97 439.75C348.973 438.563 349.445 437.425 350.285 436.585C351.125 435.745 352.263 435.273 353.45 435.27H363.98C365.167 435.273 366.305 435.745 367.145 436.585C367.984 437.425 368.457 438.563 368.46 439.75C368.46 440.338 368.344 440.921 368.119 441.464C367.894 442.008 367.564 442.502 367.148 442.918C366.732 443.334 366.238 443.664 365.694 443.889C365.151 444.114 364.568 444.23 363.98 444.23Z" fill="#455A64"/>
<path d="M207.33 417.64H91.44C92.6335 417.64 93.7781 417.166 94.622 416.322C95.4659 415.478 95.94 414.333 95.94 413.14C95.94 411.947 95.4659 410.802 94.622 409.958C93.7781 409.114 92.6335 408.64 91.44 408.64H207.33C206.137 408.64 204.992 409.114 204.148 409.958C203.304 410.802 202.83 411.947 202.83 413.14C202.83 414.333 203.304 415.478 204.148 416.322C204.992 417.166 206.137 417.64 207.33 417.64Z" fill="#455A64"/>
<path d="M327.68 417.64H251.68C252.873 417.64 254.018 417.166 254.862 416.322C255.706 415.478 256.18 414.333 256.18 413.14C256.18 411.947 255.706 410.802 254.862 409.958C254.018 409.114 252.873 408.64 251.68 408.64H327.68C326.487 408.64 325.342 409.114 324.498 409.958C323.654 410.802 323.18 411.947 323.18 413.14C323.18 414.333 323.654 415.478 324.498 416.322C325.342 417.166 326.487 417.64 327.68 417.64Z" fill="#455A64"/>
<path d="M270.19 435.37H153.58C154.773 435.37 155.918 434.896 156.762 434.052C157.606 433.208 158.08 432.063 158.08 430.87C158.08 429.677 157.606 428.532 156.762 427.688C155.918 426.844 154.773 426.37 153.58 426.37H270.19C268.997 426.37 267.852 426.844 267.008 427.688C266.164 428.532 265.69 429.677 265.69 430.87C265.69 432.063 266.164 433.208 267.008 434.052C267.852 434.896 268.997 435.37 270.19 435.37Z" fill="#455A64"/>
<path d="M39.98 399.65H318.99L268.06 274.09L243.56 261.69L217.56 201.71L200.4 179.94L185.29 140.22L167.59 143.61L137.33 226.82L120.44 241.7L83.91 327.41L56.88 358.4L39.98 399.65Z" fill="#455A64"/>
<path d="M185.29 140.22L187.36 202.79L167.44 235.65L176.78 260.8L158.28 316.25L174.41 362.13L164.86 399.65H39.98L56.88 358.4L83.91 327.41L120.44 241.7L137.33 226.82L167.59 143.61L185.29 140.22Z" fill="#37474F"/>
<path d="M180.31 300.13L194.21 271.61L193.12 259.52L198.3 250.84L204.57 275.49L185.76 300.13H180.31Z" fill="#37474F"/>
<path d="M407.72 399.67H201.13L228.41 332.64L247.7 317.17L267.59 259.45L283.68 247.59L298.97 212.87H314.07L347.62 283.96L364.7 295.03L407.72 399.67Z" fill="#37474F"/>
<path d="M201.13 399.67H290.73V342.07L311.15 301.75L301.42 259.45L314.07 212.87H298.97L283.68 247.59L267.59 259.45L247.7 317.17L228.41 332.64L201.13 399.67Z" fill="#263238"/>
<path d="M314.07 399.67L321.78 369.35L334.26 353.93L339.82 335.75L343.71 339.7V357.09L334.26 370.93V399.78L314.07 399.67Z" fill="#263238"/>
<path d="M328.89 306.27L330.96 294.1L336.52 287.12L339.13 291.27L335.65 296.69L337.22 308.27L328.89 306.27Z" fill="#263238"/>
<path d="M316.08 395.66H314.6V399.83H316.08V395.66Z" fill="#263238"/>
<path d="M244.47 395.66H242.99V399.83H244.47V395.66Z" fill="#263238"/>
<path d="M242.99 399.82L263.89 368.75L285.34 399.82H242.99Z" fill="#9A92FF"/>
<path opacity="0.1" d="M242.99 399.82L263.89 368.75L285.34 399.82H242.99Z" fill="black"/>
<path d="M263.89 368.75H294.53L315.82 399.82H285.34L263.89 368.75Z" fill="#9A92FF"/>
<path d="M276.95 374.4H290.95L295.21 380.62H281.24L276.95 374.4Z" fill="white"/>
<path opacity="0.3" d="M257.02 399.82H270.2L263.89 368.75L257.02 399.82Z" fill="black"/>
<path d="M286.07 395.66H284.59V399.83H286.07V395.66Z" fill="#263238"/>
<path d="M263.85 368.75C258.79 378.84 252.92 389.94 247.44 399.82C252.51 389.72 258.36 378.62 263.85 368.75Z" fill="white"/>
<path d="M263.85 368.75C269.28 378.57 275.07 389.61 280.09 399.65C274.66 389.82 268.86 378.79 263.85 368.75Z" fill="white"/>
<path d="M257.02 399.82C256.069 396.566 254.15 393.679 251.52 391.54L263.85 368.75L257.02 399.82Z" fill="#9A92FF"/>
<path d="M270.2 399.82L263.85 368.75L276.73 392.75C275.022 393.06 273.461 393.918 272.283 395.193C271.105 396.469 270.374 398.093 270.2 399.82Z" fill="#9A92FF"/>
<path d="M52.53 399.42C51.39 400.57 38.03 401.08 33.17 401.08C28.31 401.08 14.95 400.57 13.85 399.42C12.75 398.27 28.85 309.42 33.22 309.42C37.59 309.42 53.68 398.27 52.53 399.42Z" fill="#263238"/>
<path d="M52.85 376.79C49.55 378.05 37.32 383.03 34.68 384.48C34.68 383.92 34.68 383.37 34.68 382.81C37.63 381.07 40.6 379.36 43.55 377.63C46.8129 375.926 49.9809 374.047 53.04 372C53.18 371.89 53.1 371.6 52.9 371.68C49.6768 373.187 46.5596 374.911 43.57 376.84C40.57 378.6 37.57 380.42 34.62 382.25C34.62 377.99 34.6034 373.733 34.57 369.48C39.3911 367.48 44.0515 365.113 48.51 362.4C48.66 362.31 48.51 362.03 48.38 362.1C43.6079 364.018 38.988 366.294 34.56 368.91C34.56 366.7 34.56 364.48 34.56 362.27C34.43 350.87 34.41 339.47 34.12 328.07C37.02 326.61 40.01 325.32 42.91 323.85C43.1 323.75 42.91 323.42 42.76 323.5C39.82 324.64 36.99 326.01 34.1 327.27C33.94 321.39 33.72 315.52 33.36 309.64C33.36 309.6 33.3442 309.562 33.3161 309.534C33.2879 309.506 33.2498 309.49 33.21 309.49C33.1702 309.49 33.1321 309.506 33.1039 309.534C33.0758 309.562 33.06 309.6 33.06 309.64C32.65 320.56 32.68 331.49 32.82 342.42C29.82 340.02 26.61 337.9 23.56 335.57C23.44 335.48 23.32 335.68 23.44 335.77C26.64 338.2 29.63 340.9 32.83 343.32V345.17C29.57 343.68 26.26 342.3 22.97 340.89C22.71 340.78 22.48 341.15 22.75 341.27C26.1 342.88 29.44 344.52 32.84 346.04C32.91 351.45 33.01 356.86 33.08 362.27C33.2 371.72 33.41 381.17 33.61 390.62C27.4633 387.513 21.27 384.487 15.03 381.54C14.79 381.43 14.58 381.76 14.82 381.9C20.9115 385.384 27.1874 388.535 33.62 391.34C33.79 399.19 33.95 392.05 34.05 399.9C34.0646 399.989 34.1103 400.07 34.179 400.128C34.2477 400.187 34.3349 400.219 34.425 400.219C34.5151 400.219 34.6023 400.187 34.671 400.128C34.7397 400.07 34.7854 399.989 34.8 399.9C34.69 389.9 34.67 394.9 34.64 384.9C37.88 384.1 50.13 378.85 53.04 377.41C53.33 377.19 53.12 376.67 52.85 376.79Z" fill="#37474F"/>
<path d="M152.52 399.35C151.52 400.35 140.07 400.77 135.9 400.77C131.73 400.77 120.26 400.33 119.28 399.35C118.3 398.37 132.18 322.15 135.9 322.15C139.62 322.15 153.5 398.36 152.52 399.35Z" fill="#263238"/>
<path d="M152.75 379.93C149.92 381.01 139.42 385.28 137.16 386.53C137.16 386.05 137.16 385.53 137.16 385.09C139.69 383.6 142.23 382.09 144.77 380.65C147.586 379.177 150.321 377.551 152.96 375.78C153.09 375.69 153.02 375.44 152.85 375.51C150.086 376.804 147.413 378.284 144.85 379.94C142.27 381.45 139.72 383.01 137.18 384.58C137.18 380.93 137.18 377.27 137.13 373.58C141.281 371.867 145.294 369.835 149.13 367.5C149.26 367.43 149.13 367.18 149.02 367.25C144.929 368.897 140.968 370.849 137.17 373.09C137.17 371.19 137.17 369.29 137.17 367.39C137.06 357.61 137.04 347.82 136.79 338.04C139.28 336.79 141.85 335.68 144.33 334.42C144.5 334.34 144.33 334.05 144.21 334.12C141.68 335.12 139.21 336.27 136.77 337.36C136.64 332.36 136.45 327.27 136.14 322.23C136.14 322.196 136.126 322.162 136.102 322.138C136.078 322.114 136.044 322.1 136.01 322.1C135.976 322.1 135.942 322.114 135.918 322.138C135.894 322.162 135.88 322.196 135.88 322.23C135.53 331.6 135.56 340.98 135.68 350.35C133.1 348.3 130.35 346.48 127.73 344.48C127.63 344.4 127.53 344.58 127.63 344.65C130.37 346.74 132.94 349.05 135.69 351.13C135.69 351.66 135.69 352.19 135.69 352.72C132.89 351.44 130.06 350.25 127.23 349.04C127.01 348.95 126.81 349.27 127.04 349.37C129.92 350.76 132.78 352.16 135.7 353.46C135.76 358.11 135.84 362.75 135.9 367.39C136.01 375.5 136.19 383.61 136.36 391.72C131.08 389.053 125.767 386.457 120.42 383.93C120.21 383.84 120.03 384.12 120.24 384.24C125.464 387.234 130.849 389.938 136.37 392.34C136.52 399.08 136.66 393.99 136.74 400.73C136.74 400.815 136.774 400.896 136.834 400.956C136.894 401.016 136.975 401.05 137.06 401.05C137.145 401.05 137.226 401.016 137.286 400.956C137.346 400.896 137.38 400.815 137.38 400.73C137.28 392.14 137.27 395.37 137.25 386.78C140.03 386.09 150.54 381.59 153.04 380.35C153.2 380.27 153.02 379.82 152.75 379.93Z" fill="#37474F"/>
<path d="M44.21 399.75C45.04 400.58 54.69 400.95 58.21 400.95C61.73 400.95 71.38 400.58 72.21 399.75C73.04 398.92 61.35 334.75 58.21 334.75C55.07 334.75 43.38 398.92 44.21 399.75Z" fill="#263238"/>
<path d="M44.01 383.39C46.4 384.3 55.24 387.9 57.15 388.95V387.75C55.02 386.49 52.88 385.25 50.74 384.01C48.3715 382.762 46.0684 381.394 43.84 379.91C43.74 379.83 43.84 379.61 43.94 379.67C46.2698 380.763 48.5247 382.009 50.69 383.4C52.86 384.68 55.01 385.99 57.15 387.31C57.15 384.24 57.15 381.16 57.15 378.09C53.684 376.647 50.3312 374.945 47.12 373C47.01 372.93 47.12 372.73 47.21 372.78C50.6623 374.166 54.0051 375.811 57.21 377.7C57.21 376.1 57.21 374.5 57.21 372.9C57.3 364.67 57.31 356.42 57.52 348.19C55.43 347.13 53.27 346.19 51.18 345.14C51.04 345.07 51.18 344.83 51.28 344.88C53.41 345.71 55.45 346.7 57.54 347.61C57.6534 343.363 57.83 339.117 58.07 334.87C58.07 334.841 58.0816 334.813 58.1022 334.792C58.1229 334.772 58.1508 334.76 58.18 334.76C58.2092 334.76 58.2372 334.772 58.2578 334.792C58.2784 334.813 58.29 334.841 58.29 334.87C58.59 342.76 58.56 350.66 58.46 358.56C60.63 356.82 62.95 355.29 65.16 353.61C65.24 353.54 65.33 353.69 65.24 353.75C62.93 355.51 60.77 357.46 58.46 359.21C58.46 359.66 58.46 360.1 58.46 360.55C60.81 359.47 63.2 358.47 65.58 357.45C65.77 357.37 65.93 357.64 65.74 357.73C63.32 358.89 60.9 360.08 58.45 361.17C58.39 365.08 58.33 369 58.28 372.9C58.19 379.73 58.04 386.56 57.89 393.39C62.33 391.14 66.82 388.95 71.32 386.83C71.49 386.75 71.64 386.99 71.47 387.09C67.0584 389.602 62.5115 391.869 57.85 393.88C57.73 399.56 57.61 395.14 57.54 400.82C57.528 400.881 57.495 400.937 57.4467 400.977C57.3983 401.017 57.3377 401.038 57.275 401.038C57.2124 401.038 57.1517 401.017 57.1034 400.977C57.055 400.937 57.022 400.881 57.01 400.82C57.08 393.58 57.1 396.43 57.12 389.2C52.6021 387.638 48.1723 385.832 43.85 383.79C43.63 383.68 43.78 383.31 44.01 383.39Z" fill="#455A64"/>
<path d="M398.62 399.22C397.56 400.28 385.23 400.75 380.75 400.75C376.27 400.75 363.93 400.28 362.87 399.22C361.81 398.16 376.75 316.22 380.75 316.22C384.75 316.22 399.68 398.16 398.62 399.22Z" fill="#263238"/>
<path d="M398.85 378.33C395.85 379.49 384.52 384.09 382.08 385.43C382.08 384.92 382.08 384.43 382.08 383.89L390.27 379.11C393.299 377.526 396.24 375.781 399.08 373.88C399.21 373.78 399.14 373.51 398.95 373.58C395.976 374.977 393.096 376.567 390.33 378.34C387.56 379.97 384.82 381.65 382.08 383.34C382.08 379.41 382.08 375.48 382.03 371.55C386.482 369.702 390.785 367.512 394.9 365C395.04 364.91 394.95 364.65 394.79 364.72C390.388 366.489 386.126 368.589 382.04 371C382.04 369 382.04 366.92 381.99 364.88C381.88 354.36 381.86 343.88 381.59 333.31C384.27 331.96 387.03 330.77 389.7 329.42C389.87 329.33 389.7 329.02 389.56 329.09C386.85 330.15 384.24 331.41 381.56 332.58C381.42 327.15 381.21 321.73 380.88 316.31C380.88 316.273 380.865 316.237 380.839 316.211C380.813 316.185 380.777 316.17 380.74 316.17C380.703 316.17 380.667 316.185 380.641 316.211C380.615 316.237 380.6 316.273 380.6 316.31C380.22 326.39 380.26 336.47 380.38 346.55C377.61 344.34 374.65 342.38 371.83 340.24C371.72 340.15 371.62 340.34 371.73 340.42C374.67 342.67 377.43 345.15 380.39 347.42C380.39 347.99 380.39 348.56 380.39 349.13C377.39 347.76 374.34 346.48 371.3 345.18C371.06 345.07 370.85 345.41 371.09 345.53C374.19 347.01 377.27 348.53 380.41 349.93C380.483 354.923 380.557 359.923 380.63 364.93C380.74 373.65 380.93 382.37 381.12 391.09C375.44 388.217 369.723 385.423 363.97 382.71C363.75 382.61 363.56 382.92 363.78 383.04C369.402 386.256 375.194 389.167 381.13 391.76C381.29 399 381.44 393.53 381.53 400.76C381.53 400.85 381.566 400.937 381.63 401C381.693 401.064 381.78 401.1 381.87 401.1C381.96 401.1 382.047 401.064 382.11 401C382.174 400.937 382.21 400.85 382.21 400.76C382.11 391.52 382.1 394.99 382.07 385.76C385.07 385.02 396.37 380.18 399.07 378.86C399.36 378.7 399.16 378.22 398.85 378.33Z" fill="#455A64"/>
<path d="M347.62 399.22C346.56 400.28 334.23 400.75 329.74 400.75C325.25 400.75 312.93 400.28 311.87 399.22C310.81 398.16 325.74 316.22 329.74 316.22C333.74 316.22 348.67 398.16 347.62 399.22Z" fill="#263238"/>
<path d="M347.85 378.33C344.85 379.49 333.52 384.09 331.08 385.43V383.89C333.8 382.29 336.527 380.697 339.26 379.11C342.289 377.526 345.23 375.781 348.07 373.88C348.2 373.78 348.13 373.51 347.95 373.58C344.975 374.975 342.095 376.565 339.33 378.34C336.55 379.97 333.81 381.65 331.07 383.34C331.07 379.41 331.07 375.48 331.02 371.55C335.475 369.7 339.781 367.51 343.9 365C344.04 364.91 343.9 364.65 343.78 364.72C339.379 366.491 335.117 368.591 331.03 371C331.03 368.96 331.03 366.92 331.03 364.88C330.91 354.36 330.89 343.88 330.63 333.31C333.3 331.96 336.06 330.77 338.73 329.42C338.91 329.33 338.79 329.02 338.6 329.09C335.88 330.15 333.27 331.41 330.6 332.58C330.45 327.15 330.24 321.73 329.91 316.31C329.91 316.273 329.895 316.237 329.869 316.211C329.843 316.185 329.807 316.17 329.77 316.17C329.733 316.17 329.697 316.185 329.671 316.211C329.645 316.237 329.63 316.273 329.63 316.31C329.26 326.39 329.29 336.47 329.42 346.55C326.64 344.34 323.69 342.38 320.87 340.24C320.76 340.15 320.65 340.34 320.76 340.42C323.71 342.67 326.47 345.15 329.43 347.42C329.43 347.99 329.43 348.56 329.43 349.13C326.43 347.76 323.37 346.48 320.33 345.18C320.1 345.07 319.88 345.41 320.13 345.53C323.22 347.01 326.31 348.53 329.44 349.93C329.51 354.93 329.6 359.93 329.66 364.93C329.77 373.65 329.97 382.37 330.15 391.09C324.477 388.217 318.76 385.423 313 382.71C312.78 382.61 312.59 382.92 312.81 383.04C318.436 386.256 324.231 389.167 330.17 391.76C330.32 399 330.47 393.53 330.56 400.76C330.574 400.841 330.616 400.915 330.679 400.969C330.742 401.022 330.822 401.051 330.905 401.051C330.988 401.051 331.068 401.022 331.131 400.969C331.194 400.915 331.236 400.841 331.25 400.76C331.15 391.52 331.13 394.99 331.1 385.76C334.1 385.02 345.4 380.18 348.1 378.86C348.35 378.7 348.16 378.22 347.85 378.33Z" fill="#455A64"/>
<path d="M341.04 400C341.78 400.74 350.4 401.07 353.53 401.07C356.66 401.07 365.29 400.74 366.03 400C366.77 399.26 356.33 342 353.53 342C350.73 342 340.3 399.27 341.04 400Z" fill="#263238"/>
<path d="M340.85 385.41C342.98 386.22 350.85 389.41 352.57 390.41V389.33C350.67 388.21 348.76 387.11 346.85 386C344.738 384.887 342.686 383.665 340.7 382.34C340.6 382.27 340.7 382.08 340.78 382.13C342.851 383.107 344.855 384.219 346.78 385.46C348.72 386.6 350.63 387.77 352.55 388.95C352.55 386.2 352.55 383.46 352.55 380.71C349.437 379.421 346.428 377.893 343.55 376.14C343.45 376.09 343.55 375.9 343.63 375.95C346.706 377.189 349.684 378.656 352.54 380.34V376.06C352.62 368.71 352.64 361.35 352.82 354C350.95 353.06 349.03 352.23 347.16 351.28C347.04 351.22 347.16 351 347.25 351.05C349.15 351.79 350.98 352.67 352.84 353.49C352.94 349.7 353.08 345.91 353.32 342.12C353.327 342.1 353.339 342.083 353.356 342.07C353.373 342.058 353.394 342.051 353.415 342.051C353.436 342.051 353.457 342.058 353.474 342.07C353.491 342.083 353.503 342.1 353.51 342.12C353.77 349.12 353.75 356.21 353.66 363.26C355.6 361.71 357.66 360.34 359.66 358.84C359.73 358.78 359.81 358.91 359.73 358.97C357.67 360.54 355.73 362.28 353.68 363.84C353.68 364.24 353.68 364.64 353.68 365.03C355.78 364.03 357.91 363.18 360.04 362.27C360.2 362.2 360.35 362.44 360.18 362.52C358.02 363.52 355.86 364.61 353.67 365.59C353.67 369.08 353.56 372.59 353.52 376.06C353.44 382.16 353.31 388.25 353.17 394.34C357.17 392.34 361.17 390.34 365.17 388.49C365.32 388.42 365.46 388.64 365.3 388.72C361.376 390.972 357.329 393.005 353.18 394.81C353.07 399.88 352.96 395.81 352.9 400.89C352.9 400.954 352.875 401.015 352.83 401.06C352.785 401.105 352.724 401.13 352.66 401.13C352.596 401.13 352.535 401.105 352.49 401.06C352.445 401.015 352.42 400.954 352.42 400.89C352.49 394.43 352.5 397.09 352.52 390.63C348.48 389.234 344.517 387.621 340.65 385.8C340.53 385.67 340.66 385.33 340.85 385.41Z" fill="#37474F"/>
<path d="M101.37 399.89C102.11 400.63 110.73 400.96 113.87 400.96C117.01 400.96 125.62 400.63 126.36 399.89C127.1 399.15 116.66 341.89 113.87 341.89C111.08 341.89 100.63 399.15 101.37 399.89Z" fill="#263238"/>
<path d="M101.2 385.3C103.33 386.11 111.2 389.3 112.92 390.3C112.92 389.94 112.92 389.58 112.92 389.22L107.2 385.88C105.082 384.773 103.025 383.551 101.04 382.22C100.95 382.15 101.04 381.96 101.13 382.02C103.203 382.989 105.208 384.098 107.13 385.34C109.07 386.48 110.99 387.65 112.9 388.83C112.9 386.09 112.9 383.34 112.9 380.6C109.789 379.307 106.78 377.779 103.9 376.03C103.8 375.97 103.9 375.79 103.98 375.84C107.056 377.079 110.034 378.546 112.89 380.23C112.89 378.8 112.89 377.37 112.89 375.95C112.96 368.6 112.98 361.24 113.17 353.89C111.3 352.89 109.37 352.11 107.5 351.16C107.38 351.1 107.5 350.89 107.59 350.94C109.49 351.68 111.32 352.56 113.18 353.38C113.28 349.58 113.43 345.79 113.66 342.01C113.655 341.995 113.654 341.979 113.656 341.963C113.659 341.948 113.665 341.933 113.674 341.92C113.683 341.907 113.695 341.897 113.71 341.89C113.724 341.883 113.739 341.879 113.755 341.879C113.771 341.879 113.786 341.883 113.8 341.89C113.815 341.897 113.827 341.907 113.836 341.92C113.845 341.933 113.851 341.948 113.854 341.963C113.856 341.979 113.855 341.995 113.85 342.01C114.12 349.01 114.09 356.09 114.01 363.14C115.94 361.59 118.01 360.23 120.01 358.73C120.09 358.67 120.16 358.8 120.08 358.85C118.02 360.42 116.08 362.16 114.03 363.73C114.03 364.12 114.03 364.52 114.03 364.92C116.13 363.92 118.26 363.07 120.39 362.16C120.55 362.08 120.7 362.32 120.53 362.4C118.37 363.4 116.21 364.5 114.02 365.48L113.87 375.95C113.79 382.04 113.66 388.13 113.53 394.23C117.49 392.23 121.49 390.28 125.53 388.38C125.68 388.3 125.82 388.52 125.67 388.61C121.737 390.852 117.688 392.885 113.54 394.7C113.43 399.76 113.32 395.82 113.26 400.89C113.26 400.954 113.235 401.015 113.19 401.06C113.145 401.105 113.084 401.13 113.02 401.13C112.956 401.13 112.895 401.105 112.85 401.06C112.805 401.015 112.78 400.954 112.78 400.89C112.85 394.43 112.86 396.97 112.88 390.51C108.84 389.117 104.878 387.508 101.01 385.69C100.85 385.55 101 385.22 101.2 385.3Z" fill="#37474F"/>
<path d="M175.57 399.78C176.31 400.52 184.93 400.85 188.06 400.85C191.19 400.85 199.82 400.52 200.56 399.78C201.3 399.04 190.86 341.78 188.06 341.78C185.26 341.78 174.85 399 175.57 399.78Z" fill="#263238"/>
<path d="M175.4 385.18C177.53 385.99 185.4 389.18 187.12 390.18V389.1C185.22 387.98 183.31 386.88 181.4 385.77C179.49 384.66 177.16 383.51 175.25 382.11C175.15 382.04 175.25 381.85 175.33 381.9C177.401 382.877 179.405 383.989 181.33 385.23C183.27 386.37 185.18 387.54 187.1 388.72C187.1 385.97 187.1 383.23 187.1 380.48C183.987 379.191 180.978 377.663 178.1 375.91C178 375.85 178.1 375.67 178.18 375.72C181.256 376.959 184.234 378.426 187.09 380.11V375.83C187.17 368.48 187.19 361.12 187.37 353.77C185.5 352.83 183.58 352 181.71 351.05C181.59 350.99 181.71 350.77 181.8 350.82C183.7 351.56 185.53 352.44 187.39 353.26C187.49 349.47 187.64 345.68 187.87 341.89C187.877 341.87 187.889 341.853 187.906 341.84C187.923 341.828 187.944 341.821 187.965 341.821C187.986 341.821 188.007 341.828 188.024 341.84C188.041 341.853 188.053 341.87 188.06 341.89C188.32 348.89 188.3 355.98 188.21 363.03C190.15 361.48 192.21 360.11 194.21 358.61C194.29 358.55 194.36 358.68 194.28 358.74C192.22 360.31 190.28 362.05 188.28 363.61C188.28 364.01 188.28 364.41 188.28 364.8C190.38 363.8 192.51 362.95 194.64 362.04C194.8 361.97 194.95 362.21 194.78 362.29C192.62 363.29 190.46 364.38 188.27 365.36C188.22 368.85 188.16 372.36 188.12 375.83C188.04 381.93 187.91 388.02 187.78 394.11C191.78 392.11 195.78 390.11 199.78 388.26C199.93 388.19 200.07 388.4 199.91 388.49C195.983 390.738 191.937 392.771 187.79 394.58C187.68 399.65 187.57 395.82 187.51 400.89C187.51 400.954 187.485 401.015 187.44 401.06C187.395 401.105 187.334 401.13 187.27 401.13C187.206 401.13 187.145 401.105 187.1 401.06C187.055 401.015 187.03 400.954 187.03 400.89C187.1 394.43 187.11 396.89 187.13 390.4C183.09 389.004 179.127 387.391 175.26 385.57C175.06 385.44 175.19 385.1 175.4 385.18Z" fill="#37474F"/>
<path d="M408.94 399.78C409.68 400.52 418.3 400.85 421.43 400.85C424.56 400.85 433.18 400.52 433.92 399.78C434.66 399.04 424.22 341.78 421.43 341.78C418.64 341.78 408.2 399 408.94 399.78Z" fill="#263238"/>
<path d="M408.77 385.18C410.89 385.99 418.77 389.18 420.49 390.18V389.1C418.59 387.98 416.68 386.88 414.77 385.77C412.656 384.655 410.6 383.434 408.61 382.11C408.52 382.04 408.61 381.85 408.7 381.9C410.772 382.874 412.777 383.987 414.7 385.23C416.64 386.37 418.56 387.54 420.47 388.72C420.47 385.97 420.47 383.23 420.47 380.48C417.355 379.195 414.346 377.667 411.47 375.91C411.37 375.85 411.47 375.67 411.55 375.72C414.626 376.959 417.604 378.426 420.46 380.11C420.46 378.69 420.46 377.26 420.46 375.83C420.54 368.48 420.55 361.12 420.74 353.77C418.87 352.83 416.94 352 415.07 351.05C414.95 350.99 415.07 350.77 415.17 350.82C417.07 351.56 418.89 352.44 420.75 353.26C420.86 349.47 421 345.68 421.23 341.89C421.23 341.864 421.241 341.838 421.259 341.819C421.278 341.801 421.304 341.79 421.33 341.79C421.357 341.79 421.382 341.801 421.401 341.819C421.419 341.838 421.43 341.864 421.43 341.89C421.69 348.89 421.67 355.98 421.58 363.03C423.52 361.48 425.58 360.11 427.58 358.61C427.66 358.55 427.73 358.68 427.66 358.74C425.6 360.31 423.66 362.05 421.6 363.61C421.6 364.01 421.6 364.41 421.6 364.8C423.7 363.8 425.83 362.95 427.95 362.04C428.12 361.97 428.27 362.21 428.1 362.29C425.93 363.29 423.78 364.38 421.59 365.36C421.54 368.85 421.48 372.36 421.43 375.83C421.36 381.93 421.22 388.02 421.09 394.11C425.09 392.11 429.09 390.11 433.09 388.26C433.121 388.243 433.157 388.238 433.19 388.248C433.224 388.257 433.253 388.28 433.27 388.31C433.287 388.341 433.292 388.377 433.282 388.41C433.273 388.444 433.251 388.473 433.22 388.49C429.29 390.738 425.241 392.771 421.09 394.58C420.98 399.65 420.88 395.82 420.81 400.89C420.81 401.19 420.33 401.19 420.34 400.89C420.41 394.43 420.42 396.89 420.44 390.4C416.398 389.007 412.436 387.395 408.57 385.57C408.42 385.44 408.56 385.1 408.77 385.18Z" fill="#37474F"/>
<path opacity="0.2" d="M230.48 398.12C236.351 398.12 241.11 393.361 241.11 387.49C241.11 381.619 236.351 376.86 230.48 376.86C224.609 376.86 219.85 381.619 219.85 387.49C219.85 393.361 224.609 398.12 230.48 398.12Z" fill="#9A92FF"/>
<path opacity="0.2" d="M230.48 398.07C234.987 398.07 238.64 394.417 238.64 389.91C238.64 385.403 234.987 381.75 230.48 381.75C225.973 381.75 222.32 385.403 222.32 389.91C222.32 394.417 225.973 398.07 230.48 398.07Z" fill="#9A92FF"/>
<path d="M231.21 398.05C231.21 398.05 224.72 397.1 224.34 397.35C223.96 397.6 223.59 399.49 224.34 399.95C225.09 400.41 231.06 399.58 231.06 399.58C231.26 399.383 231.385 399.122 231.412 398.842C231.44 398.563 231.368 398.282 231.21 398.05Z" fill="#9A92FF"/>
<path opacity="0.49" d="M231.21 398.05C231.21 398.05 224.72 397.1 224.34 397.35C223.96 397.6 223.59 399.49 224.34 399.95C225.09 400.41 231.06 399.58 231.06 399.58C231.26 399.383 231.385 399.122 231.412 398.842C231.44 398.563 231.368 398.282 231.21 398.05Z" fill="black"/>
<path opacity="0.2" d="M224.37 397.43C224.56 397.38 224.88 398.03 224.81 398.75C224.74 399.47 224.48 399.9 224.37 399.89C224.26 399.88 223.9 399.47 223.96 398.58C224.01 397.94 224.2 397.46 224.37 397.43Z" fill="white"/>
<g opacity="0.2">
<path d="M225.05 397.61C225.423 397.585 225.797 397.585 226.17 397.61L226.73 397.66L227.01 397.71C227.098 397.739 227.188 397.76 227.28 397.77C227.641 397.83 228.005 397.87 228.37 397.89L229.49 397.99C229.117 398.01 228.743 398.01 228.37 397.99C227.992 397.993 227.614 397.966 227.24 397.91C227.148 397.897 227.057 397.874 226.97 397.84L226.7 397.79L226.16 397.71L225.05 397.61Z" fill="black"/>
<path d="M225.78 398L226.57 398.13C226.83 398.18 227.09 398.24 227.34 398.27C227.6 398.285 227.86 398.285 228.12 398.27H228.91C228.653 398.339 228.393 398.392 228.13 398.43C227.861 398.46 227.589 398.46 227.32 398.43C227.057 398.386 226.796 398.326 226.54 398.25C226.281 398.186 226.027 398.102 225.78 398Z" fill="black"/>
<path d="M228.97 398.56C229.311 398.308 229.717 398.159 230.14 398.13C230.356 398.117 230.572 398.155 230.77 398.24C230.88 398.28 230.979 398.345 231.06 398.43C231.103 398.476 231.137 398.531 231.16 398.59C231.166 398.613 231.166 398.637 231.16 398.66C231.145 398.69 231.125 398.717 231.1 398.74C230.942 398.904 230.735 399.013 230.51 399.05C230.399 399.08 230.281 399.08 230.17 399.05L229.85 399C229.76 398.93 229.66 398.88 229.61 398.75C229.6 398.731 229.595 398.711 229.595 398.69C229.595 398.669 229.6 398.649 229.61 398.63C229.618 398.613 229.629 398.599 229.643 398.586C229.656 398.574 229.673 398.565 229.69 398.56H229.85C229.956 398.545 230.064 398.545 230.17 398.56C230.274 398.567 230.374 398.602 230.46 398.66C230.269 398.595 230.061 398.595 229.87 398.66H229.73C229.73 398.66 229.73 398.66 229.73 398.72C229.73 398.78 229.85 398.84 229.93 398.88C230.016 398.925 230.107 398.962 230.2 398.99C230.288 399.015 230.382 399.015 230.47 398.99C230.656 398.948 230.826 398.855 230.96 398.72C230.945 398.687 230.925 398.657 230.9 398.63C230.836 398.56 230.758 398.505 230.67 398.47C230.493 398.395 230.303 398.354 230.11 398.35C229.907 398.347 229.705 398.374 229.51 398.43C229.327 398.458 229.146 398.501 228.97 398.56Z" fill="black"/>
<path d="M231.13 399.19C230.877 399.323 230.603 399.411 230.32 399.45C230.177 399.465 230.033 399.465 229.89 399.45C229.743 399.429 229.599 399.392 229.46 399.34C229.2 399.239 228.949 399.115 228.71 398.97C228.464 398.844 228.201 398.754 227.93 398.7C228.215 398.679 228.5 398.731 228.76 398.85C229.03 398.95 229.27 399.08 229.52 399.17C229.772 399.266 230.041 399.31 230.31 399.3C230.586 399.292 230.861 399.255 231.13 399.19Z" fill="black"/>
<path d="M224.85 399.74H225.85C226.183 399.761 226.517 399.761 226.85 399.74C227.18 399.681 227.516 399.661 227.85 399.68C228.18 399.68 228.51 399.74 228.85 399.79H227.85C227.515 399.793 227.18 399.823 226.85 399.88C226.518 399.918 226.182 399.918 225.85 399.88C225.514 399.853 225.18 399.807 224.85 399.74Z" fill="black"/>
<path d="M229.31 399.53L228.48 399.33L228.06 399.25C227.928 399.225 227.792 399.225 227.66 399.25L226.82 399.42L226.39 399.47C226.241 399.494 226.089 399.494 225.94 399.47C225.798 399.439 225.657 399.399 225.52 399.35C225.371 399.299 225.235 399.217 225.12 399.11C225.094 399.07 225.074 399.026 225.06 398.98C225.04 398.929 225.04 398.871 225.06 398.82C225.106 398.741 225.182 398.684 225.27 398.66C225.411 398.609 225.56 398.582 225.71 398.58C225.857 398.57 226.004 398.57 226.15 398.58C226.3 398.598 226.443 398.649 226.57 398.73C226.591 398.741 226.608 398.757 226.622 398.776C226.636 398.795 226.646 398.817 226.65 398.84C226.65 398.91 226.58 398.93 226.55 398.95H226.34C226.197 398.965 226.053 398.965 225.91 398.95L226.33 398.9C226.45 398.9 226.67 398.81 226.52 398.75C226.4 398.686 226.266 398.651 226.13 398.65C225.994 398.635 225.856 398.635 225.72 398.65C225.584 398.66 225.45 398.687 225.32 398.73C225.27 398.73 225.22 398.79 225.21 398.82C225.198 398.836 225.191 398.855 225.191 398.875C225.191 398.895 225.198 398.914 225.21 398.93C225.306 399.013 225.418 399.074 225.54 399.11C225.67 399.159 225.804 399.199 225.94 399.23C226.212 399.269 226.488 399.269 226.76 399.23C227.04 399.23 227.31 399.13 227.6 399.1H227.82C227.893 399.094 227.967 399.094 228.04 399.1L228.46 399.21C228.77 399.33 229.04 399.42 229.31 399.53Z" fill="black"/>
<path d="M227.48 398.73C227.09 398.66 226.73 398.56 226.36 398.46L225.82 398.32C225.639 398.262 225.45 398.228 225.26 398.22C225.451 398.175 225.649 398.175 225.84 398.22C226.033 398.241 226.223 398.278 226.41 398.33C226.782 398.42 227.141 398.554 227.48 398.73Z" fill="black"/>
</g>
<path d="M230.31 398C230.31 398 236.81 397.12 237.2 397.38C237.59 397.64 237.91 399.53 237.13 399.98C236.35 400.43 230.4 399.53 230.4 399.53C230.209 399.326 230.095 399.061 230.079 398.781C230.063 398.502 230.144 398.226 230.31 398Z" fill="#9A92FF"/>
<path opacity="0.49" d="M230.31 398C230.31 398 236.81 397.12 237.2 397.38C237.59 397.64 237.91 399.53 237.13 399.98C236.35 400.43 230.4 399.53 230.4 399.53C230.209 399.326 230.095 399.061 230.079 398.781C230.063 398.502 230.144 398.226 230.31 398Z" fill="black"/>
<path opacity="0.2" d="M237.16 397.46C236.97 397.46 236.64 398.06 236.71 398.78C236.78 399.5 237.02 399.93 237.13 399.92C237.24 399.91 237.6 399.51 237.55 398.62C237.52 398 237.33 397.5 237.16 397.46Z" fill="white"/>
<g opacity="0.2">
<path d="M230.55 399.35L231.66 399.41C231.843 399.42 232.027 399.42 232.21 399.41H232.48H232.77C233.146 399.417 233.52 399.453 233.89 399.52C234.257 399.576 234.621 399.653 234.98 399.75L233.87 399.66C233.5 399.66 233.13 399.59 232.77 399.59H232.5C232.404 399.6 232.306 399.6 232.21 399.59C232.023 399.6 231.837 399.6 231.65 399.59C231.28 399.5 230.91 399.43 230.55 399.35Z" fill="black"/>
<path d="M231.22 399.33C231.471 399.241 231.729 399.171 231.99 399.12C232.253 399.06 232.521 399.02 232.79 399C233.059 398.999 233.328 399.029 233.59 399.09C233.851 399.148 234.108 399.222 234.36 399.31L233.57 399.23C233.315 399.199 233.057 399.182 232.8 399.18L232.02 399.26L231.22 399.33Z" fill="black"/>
<path d="M234.44 399C234.62 399.101 234.807 399.188 235 399.26C235.191 399.325 235.389 399.365 235.59 399.38C235.784 399.394 235.978 399.367 236.16 399.3C236.25 399.273 236.333 399.225 236.4 399.16C236.432 399.137 236.456 399.106 236.47 399.07V399.02C236.345 398.877 236.182 398.773 236 398.72C235.915 398.7 235.826 398.7 235.74 398.72L235.45 398.8C235.368 398.83 235.295 398.882 235.24 398.95C235.24 398.95 235.24 398.95 235.24 399.01H235.37C235.564 399.08 235.776 399.08 235.97 399.01C235.881 399.068 235.777 399.1 235.67 399.1C235.564 399.115 235.456 399.115 235.35 399.1L235.19 399.05C235.19 399.05 235.13 399.05 235.11 398.97C235.1 398.953 235.095 398.934 235.095 398.915C235.095 398.896 235.1 398.877 235.11 398.86C235.165 398.751 235.257 398.666 235.37 398.62L235.67 398.51C235.785 398.48 235.905 398.48 236.02 398.51C236.237 398.569 236.432 398.691 236.58 398.86V398.95C236.587 398.973 236.587 398.997 236.58 399.02C236.554 399.077 236.517 399.128 236.47 399.17C236.383 399.247 236.281 399.305 236.17 399.34C235.964 399.409 235.745 399.43 235.53 399.4C235.139 399.36 234.764 399.223 234.44 399Z" fill="black"/>
<path d="M236.64 398.51C236.381 398.421 236.113 398.36 235.84 398.33C235.575 398.295 235.306 398.315 235.05 398.39C234.79 398.46 234.54 398.57 234.26 398.66C233.99 398.751 233.702 398.779 233.42 398.74C233.696 398.712 233.966 398.641 234.22 398.53C234.471 398.404 234.732 398.301 235 398.22C235.139 398.177 235.284 398.153 235.43 398.15C235.573 398.135 235.717 398.135 235.86 398.15C236.14 398.221 236.404 398.343 236.64 398.51Z" fill="black"/>
<path d="M232.76 397.89C233.09 397.82 233.424 397.77 233.76 397.74C234.092 397.702 234.428 397.702 234.76 397.74C235.09 397.797 235.425 397.827 235.76 397.83H236.76C236.429 397.89 236.095 397.93 235.76 397.95C235.428 397.989 235.092 397.989 234.76 397.95C234.427 397.924 234.093 397.924 233.76 397.95L232.76 397.89Z" fill="black"/>
<path d="M234.85 398L234.02 398.22L233.6 398.29C233.524 398.3 233.446 398.3 233.37 398.29H233.15L232.32 398.09C232.056 398.021 231.783 397.991 231.51 398L231.11 398.08C230.984 398.11 230.865 398.165 230.76 398.24C230.751 398.257 230.747 398.276 230.747 398.295C230.747 398.314 230.751 398.333 230.76 398.35C230.785 398.392 230.824 398.424 230.87 398.44C230.994 398.496 231.125 398.537 231.26 398.56C231.397 398.57 231.534 398.57 231.67 398.56C231.804 398.568 231.937 398.544 232.06 398.49C232.21 398.49 232 398.37 231.88 398.33C231.746 398.289 231.609 398.259 231.47 398.24H231.89C231.966 398.254 232.04 398.278 232.11 398.31C232.134 398.317 232.155 398.331 232.169 398.351C232.184 398.371 232.191 398.395 232.19 398.42C232.186 398.443 232.176 398.465 232.162 398.484C232.148 398.503 232.131 398.519 232.11 398.53C231.972 398.596 231.823 398.633 231.67 398.64C231.527 398.655 231.383 398.655 231.24 398.64C231.089 398.631 230.94 398.597 230.8 398.54C230.713 398.502 230.642 398.435 230.6 398.35C230.585 398.301 230.585 398.249 230.6 398.2C230.613 398.152 230.637 398.108 230.67 398.07C230.793 397.971 230.937 397.899 231.09 397.86C231.231 397.82 231.375 397.789 231.52 397.77C231.669 397.75 231.821 397.75 231.97 397.77C232.112 397.79 232.252 397.82 232.39 397.86L233.21 398.09C233.346 398.115 233.485 398.115 233.62 398.09H234.04C234.3 398.13 234.58 398.08 234.85 398Z" fill="black"/>
<path d="M232.97 398.69C232.619 398.851 232.25 398.969 231.87 399.04C231.681 399.073 231.491 399.097 231.3 399.11C231.102 399.125 230.904 399.094 230.72 399.02C230.906 399.041 231.094 399.041 231.28 399.02L231.84 398.91C232.212 398.816 232.59 398.742 232.97 398.69Z" fill="black"/>
<path d="M234.7 399.39C235 399.49 235.27 399.58 235.56 399.65L235.99 399.73H236.44C236.299 399.797 236.146 399.834 235.99 399.84C235.832 399.844 235.674 399.827 235.52 399.79C235.368 399.752 235.221 399.698 235.08 399.63C234.942 399.57 234.814 399.489 234.7 399.39Z" fill="black"/>
</g>
<path d="M235.72 384.25C235.72 384.277 235.725 384.304 235.736 384.329C235.747 384.354 235.762 384.376 235.782 384.395C235.802 384.414 235.825 384.428 235.85 384.438C235.876 384.447 235.903 384.451 235.93 384.45C235.983 384.45 236.034 384.429 236.071 384.391C236.109 384.354 236.13 384.303 236.13 384.25C236.131 384.223 236.127 384.196 236.118 384.17C236.108 384.145 236.094 384.122 236.075 384.102C236.056 384.082 236.034 384.067 236.009 384.056C235.984 384.045 235.957 384.04 235.93 384.04C235.874 384.04 235.821 384.062 235.782 384.102C235.742 384.141 235.72 384.194 235.72 384.25Z" fill="#9A92FF"/>
<path d="M233.57 375.6C233.57 375.64 233.582 375.678 233.604 375.711C233.626 375.744 233.657 375.77 233.694 375.785C233.73 375.8 233.77 375.804 233.809 375.796C233.848 375.788 233.883 375.769 233.911 375.741C233.939 375.713 233.958 375.678 233.966 375.639C233.974 375.6 233.97 375.56 233.955 375.523C233.94 375.487 233.914 375.456 233.881 375.434C233.848 375.412 233.81 375.4 233.77 375.4C233.717 375.4 233.666 375.421 233.629 375.459C233.591 375.496 233.57 375.547 233.57 375.6Z" fill="#9A92FF"/>
<path d="M225.85 382.93C225.887 382.967 225.938 382.987 225.99 382.987C226.042 382.987 226.093 382.967 226.13 382.93C226.167 382.891 226.188 382.839 226.188 382.785C226.188 382.731 226.167 382.679 226.13 382.64C226.093 382.603 226.042 382.583 225.99 382.583C225.938 382.583 225.887 382.603 225.85 382.64C225.829 382.658 225.812 382.68 225.8 382.705C225.789 382.73 225.783 382.757 225.783 382.785C225.783 382.813 225.789 382.84 225.8 382.865C225.812 382.89 225.829 382.912 225.85 382.93Z" fill="#9A92FF"/>
<path d="M224.07 395.23C224.07 395.283 224.091 395.334 224.129 395.371C224.166 395.409 224.217 395.43 224.27 395.43C224.323 395.43 224.374 395.409 224.411 395.371C224.449 395.334 224.47 395.283 224.47 395.23C224.47 395.177 224.449 395.126 224.411 395.089C224.374 395.051 224.323 395.03 224.27 395.03C224.217 395.03 224.166 395.051 224.129 395.089C224.091 395.126 224.07 395.177 224.07 395.23Z" fill="#9A92FF"/>
<path d="M236.65 393.86C236.65 393.9 236.662 393.938 236.684 393.971C236.706 394.004 236.737 394.03 236.773 394.045C236.81 394.06 236.85 394.064 236.889 394.056C236.928 394.048 236.963 394.029 236.991 394.001C237.019 393.973 237.038 393.938 237.046 393.899C237.054 393.86 237.05 393.82 237.035 393.784C237.02 393.747 236.994 393.716 236.961 393.694C236.928 393.672 236.89 393.66 236.85 393.66C236.797 393.66 236.746 393.681 236.709 393.719C236.671 393.756 236.65 393.807 236.65 393.86Z" fill="#9A92FF"/>
<path d="M235.45 385.56C235.45 385.632 235.478 385.7 235.529 385.751C235.58 385.802 235.648 385.83 235.72 385.83C235.792 385.83 235.86 385.802 235.911 385.751C235.962 385.7 235.99 385.632 235.99 385.56C235.99 385.488 235.962 385.42 235.911 385.369C235.86 385.318 235.792 385.29 235.72 385.29C235.685 385.29 235.649 385.297 235.617 385.311C235.584 385.324 235.554 385.344 235.529 385.369C235.504 385.394 235.484 385.424 235.471 385.457C235.457 385.489 235.45 385.525 235.45 385.56Z" fill="#9A92FF"/>
<path d="M226.97 380.68C227.013 380.711 227.063 380.729 227.116 380.731C227.169 380.734 227.221 380.721 227.266 380.694C227.312 380.667 227.348 380.627 227.371 380.58C227.394 380.533 227.403 380.479 227.396 380.427C227.39 380.375 227.368 380.326 227.334 380.286C227.299 380.246 227.254 380.217 227.203 380.202C227.153 380.187 227.099 380.188 227.048 380.204C226.998 380.219 226.953 380.249 226.92 380.29C226.897 380.319 226.879 380.351 226.869 380.387C226.859 380.422 226.856 380.459 226.861 380.496C226.865 380.532 226.878 380.568 226.896 380.599C226.915 380.631 226.94 380.658 226.97 380.68Z" fill="#9A92FF"/>
<path d="M224.58 390.76C224.583 390.833 224.613 390.901 224.665 390.952C224.718 391.002 224.787 391.03 224.86 391.03C224.932 391.03 225 391.002 225.051 390.951C225.102 390.9 225.13 390.832 225.13 390.76C225.13 390.687 225.102 390.618 225.052 390.565C225.001 390.513 224.933 390.483 224.86 390.48C224.787 390.483 224.717 390.513 224.665 390.565C224.613 390.617 224.583 390.687 224.58 390.76Z" fill="#9A92FF"/>
<path d="M235.02 385.17C235.02 385.186 235.023 385.201 235.029 385.216C235.035 385.231 235.044 385.244 235.055 385.255C235.066 385.266 235.08 385.275 235.094 385.281C235.109 385.287 235.124 385.29 235.14 385.29C235.156 385.29 235.171 385.287 235.186 385.281C235.201 385.275 235.214 385.266 235.225 385.255C235.236 385.244 235.245 385.231 235.251 385.216C235.257 385.201 235.26 385.186 235.26 385.17C235.258 385.139 235.244 385.11 235.222 385.088C235.2 385.066 235.171 385.052 235.14 385.05C235.108 385.05 235.078 385.063 235.055 385.085C235.033 385.108 235.02 385.138 235.02 385.17Z" fill="#9A92FF"/>
<path d="M236.14 389.11C236.206 389.11 236.26 389.056 236.26 388.99C236.26 388.924 236.206 388.87 236.14 388.87C236.074 388.87 236.02 388.924 236.02 388.99C236.02 389.056 236.074 389.11 236.14 389.11Z" fill="#9A92FF"/>
<path d="M237.56 392.78C237.56 392.812 237.573 392.842 237.595 392.865C237.618 392.887 237.648 392.9 237.68 392.9C237.712 392.9 237.742 392.887 237.765 392.865C237.787 392.842 237.8 392.812 237.8 392.78C237.8 392.748 237.787 392.718 237.765 392.695C237.742 392.673 237.712 392.66 237.68 392.66C237.649 392.662 237.62 392.676 237.598 392.698C237.576 392.72 237.562 392.749 237.56 392.78Z" fill="#9A92FF"/>
<path d="M224.19 389.91C224.19 389.942 224.203 389.972 224.225 389.995C224.248 390.017 224.278 390.03 224.31 390.03C224.342 390.03 224.372 390.017 224.395 389.995C224.417 389.972 224.43 389.942 224.43 389.91C224.428 389.879 224.414 389.85 224.392 389.828C224.37 389.806 224.341 389.792 224.31 389.79C224.278 389.79 224.248 389.803 224.225 389.825C224.203 389.848 224.19 389.878 224.19 389.91Z" fill="#9A92FF"/>
<path d="M236.62 381.44C236.62 381.469 236.632 381.497 236.652 381.518C236.673 381.538 236.701 381.55 236.73 381.55C236.745 381.551 236.761 381.55 236.775 381.545C236.79 381.54 236.803 381.532 236.814 381.522C236.826 381.511 236.835 381.499 236.841 381.485C236.847 381.471 236.85 381.455 236.85 381.44C236.85 381.408 236.837 381.378 236.815 381.355C236.792 381.333 236.762 381.32 236.73 381.32C236.715 381.32 236.7 381.323 236.685 381.329C236.671 381.335 236.659 381.344 236.648 381.356C236.638 381.367 236.63 381.38 236.625 381.395C236.62 381.409 236.619 381.425 236.62 381.44Z" fill="#9A92FF"/>
<path d="M231.3 380.46C231.366 380.46 231.42 380.406 231.42 380.34C231.42 380.274 231.366 380.22 231.3 380.22C231.234 380.22 231.18 380.274 231.18 380.34C231.18 380.406 231.234 380.46 231.3 380.46Z" fill="#9A92FF"/>
<path d="M230.41 378.68C230.476 378.68 230.53 378.626 230.53 378.56C230.53 378.494 230.476 378.44 230.41 378.44C230.344 378.44 230.29 378.494 230.29 378.56C230.29 378.626 230.344 378.68 230.41 378.68Z" fill="#9A92FF"/>
<path d="M226.35 398.33C227.592 398.803 228.889 399.116 230.21 399.26H231C231 399.26 233 398.79 233.27 398.69C233.54 398.59 234.27 398.9 234.55 398.69C235.287 398.127 235.931 397.452 236.46 396.69C236.362 395.967 236.188 395.256 235.94 394.57C235.94 394.28 236.34 392.57 236.38 391.99C236.42 391.41 234.73 388.6 234.57 388.14C234.608 387.407 234.774 386.686 235.06 386.01C235.06 386.01 233.67 387.47 233.71 387.82C233.75 388.17 234.39 388.95 234.43 389.2C234.47 389.45 233.56 391.2 233.59 391.46C233.776 391.917 233.91 392.393 233.99 392.88C233.893 392.457 233.67 392.073 233.35 391.78C232.989 391.582 232.639 391.365 232.3 391.13C231.979 390.58 231.759 389.977 231.65 389.35C231.885 388.989 232.017 388.571 232.03 388.14C231.695 387.22 231.255 386.341 230.72 385.52C230.72 385.52 230.94 386.64 230.72 386.91C230.5 387.18 229.72 387.59 229.63 387.8C229.54 388.01 230.35 388.92 230.25 389.14C230.15 389.36 228.36 389.73 228.18 389.98C227.832 390.761 227.648 391.605 227.64 392.46C227.77 392.82 228.2 394.19 227.96 394.46C227.72 394.73 227.18 394.84 227.16 394.73C227.306 394.244 227.37 393.737 227.35 393.23C227.22 392.7 226.65 391.54 226.61 391.23C226.691 390.524 226.862 389.832 227.12 389.17C226.639 389.898 226.246 390.68 225.95 391.5C226.009 392.302 226.113 393.1 226.26 393.89C226.26 393.89 226 393.72 225.94 393.6C225.912 393.267 225.912 392.933 225.94 392.6C225.616 392.962 225.346 393.37 225.14 393.81C225.06 394.17 225.47 395.07 225.41 395.38C225.35 395.69 225.03 396.38 224.99 396.78C224.95 397.18 226.04 398.14 226.35 398.33ZM234.93 395.62C234.838 396.046 234.679 396.454 234.46 396.83C234.46 396.83 234.55 396.24 234.55 396C234.498 395.688 234.411 395.382 234.29 395.09C234.255 394.709 234.362 394.328 234.59 394.02C234.774 394.536 234.888 395.074 234.93 395.62ZM233.25 398.4L233.98 397.76C234.22 397.54 234.93 397.22 235.06 397.01C235.207 396.603 235.32 396.185 235.4 395.76C235.488 396.214 235.518 396.678 235.49 397.14C235.196 397.627 234.796 398.04 234.32 398.35C233.969 398.433 233.607 398.449 233.25 398.4ZM227.96 395.25C227.764 395.585 227.625 395.95 227.55 396.33C227.572 396.688 227.689 397.033 227.89 397.33C228.022 397.599 228.126 397.88 228.2 398.17C228.2 398.17 227.36 397.78 227.2 397.17C227.04 396.56 227.91 395.32 227.96 395.25Z" fill="#9A92FF"/>
<path d="M233.65 386.41C233.65 386.41 234.52 385.79 234.54 385.33C234.56 384.87 234 383.88 234.06 383.51C234.108 383.253 234.192 383.003 234.31 382.77C234.31 382.77 233.39 383.4 233.39 383.92C233.39 384.44 233.94 385.26 233.89 385.52C233.84 385.78 233.65 386.41 233.65 386.41Z" fill="#9A92FF"/>
<path d="M228.45 389.26C228.545 388.982 228.602 388.693 228.62 388.4C228.562 388.187 228.452 387.991 228.3 387.83C228.23 387.919 228.183 388.024 228.164 388.136C228.144 388.248 228.154 388.363 228.19 388.47C228.3 388.87 228.45 389.26 228.45 389.26Z" fill="#9A92FF"/>
<path d="M226.3 389.15C226.554 388.748 226.724 388.299 226.8 387.83C226.807 387.295 226.683 386.767 226.44 386.29C226.28 386.103 226.087 385.947 225.87 385.83C226.016 386.05 226.124 386.294 226.19 386.55C226.19 386.77 226.03 387.46 226.01 387.73C226.07 388.21 226.167 388.685 226.3 389.15Z" fill="#9A92FF"/>
<path d="M231.95 385.56C231.95 385.56 232.6 384.67 232.48 384.09C232.322 383.527 232.038 383.007 231.65 382.57C231.335 382.26 231.044 381.925 230.78 381.57C230.575 381.008 230.575 380.392 230.78 379.83C230.936 379.642 231.13 379.488 231.35 379.38C231.064 379.38 230.783 379.447 230.529 379.578C230.275 379.708 230.056 379.898 229.89 380.13C229.32 380.92 228.59 384.01 228.89 384.72C229.227 385.265 229.669 385.737 230.19 386.11C230.076 385.608 230.019 385.095 230.02 384.58C230.11 384.28 231.02 384.58 231.24 384.77C231.499 385.012 231.737 385.277 231.95 385.56Z" fill="#9A92FF"/>
<path d="M233.45 389.93C233.45 389.93 233.85 389.51 233.77 389.15C233.69 388.79 233.17 388.25 233.14 388.08C233.153 387.79 233.193 387.502 233.26 387.22C233.26 387.22 232.74 388.22 232.86 388.5C232.98 388.78 233.08 389.26 233.08 389.26C233.08 389.26 232.85 389.11 232.8 388.98C232.761 388.873 232.731 388.762 232.71 388.65C232.71 388.65 232.32 389.14 232.44 389.48C232.656 389.851 232.925 390.188 233.24 390.48C233.233 390.377 233.233 390.273 233.24 390.17C233.24 390.05 233.31 390.11 233.45 389.93Z" fill="#9A92FF"/>
<g opacity="0.4">
<path d="M230.67 399.26C230.67 399.26 233.04 398.4 233.57 397.19C233.9 396.43 233.01 394.87 232.93 394.63C232.85 394.39 232.93 393.43 232.83 393.05C232.73 392.67 231.03 391.68 230.83 391.42C230.63 391.16 231.12 390.12 231.12 390.12C231.12 390.12 229.85 391.12 229.66 391.73C229.47 392.34 230.22 393.45 230.22 393.66C230.112 393.957 229.96 394.237 229.77 394.49C229.581 394.25 229.46 393.963 229.42 393.66C229.42 393.26 229.61 393.06 229.57 392.78C229.436 392.477 229.246 392.203 229.01 391.97C229.153 392.214 229.203 392.502 229.15 392.78C229.01 393.11 228.37 393.78 228.46 394.27C228.55 394.76 229.32 395.96 229.25 396.27C229.206 396.467 229.124 396.654 229.01 396.82C228.897 396.562 228.806 396.294 228.74 396.02C228.67 395.7 228.6 395.27 228.6 395.27C228.6 395.27 228.21 397.38 228.6 397.97C229.202 398.527 229.904 398.965 230.67 399.26Z" fill="#FFCC00"/>
<path d="M231.3 384.59C231.441 384.3 231.536 383.99 231.58 383.67C231.58 383.36 231.03 382.94 230.77 382.67C230.368 382.301 230.101 381.808 230.01 381.27C230.01 380.87 230.12 380.57 230.12 380.57C229.761 381.539 229.513 382.545 229.38 383.57C229.404 383.999 229.565 384.41 229.84 384.74C229.84 384.74 229.99 384.06 230.32 384.08C230.687 384.159 231.025 384.335 231.3 384.59Z" fill="white"/>
<path d="M233.85 386.1C233.85 386.1 234.36 385.63 234.35 385.31C234.241 384.892 234.073 384.491 233.85 384.12C233.85 384.12 234.07 385.12 234.1 385.35C234.067 385.614 233.982 385.869 233.85 386.1Z" fill="white"/>
<path d="M228 398.51C228 398.51 227 397.87 226.78 397.71C226.542 397.327 226.388 396.897 226.33 396.45C226.33 396.27 226.68 395.45 226.68 395.25C226.68 395.05 226.01 394.25 226.01 394.25C226.107 394.552 226.167 394.864 226.19 395.18C226.19 395.36 225.27 396.4 225.33 396.79C225.39 397.18 226.22 397.88 226.46 398.04C226.961 398.236 227.475 398.393 228 398.51Z" fill="white"/>
<path d="M235.26 394.37C235.556 393.651 235.764 392.899 235.88 392.13C235.643 391.365 235.356 390.617 235.02 389.89C235.02 389.89 235.08 391.4 235.14 391.64C235.156 391.978 235.115 392.316 235.02 392.64C234.911 392.409 234.814 392.172 234.73 391.93C234.735 391.617 234.775 391.305 234.85 391C234.612 391.575 234.483 392.188 234.47 392.81C234.678 393.356 234.943 393.879 235.26 394.37Z" fill="white"/>
</g>
<circle opacity="0.7" cx="83.4909" cy="253.984" r="4.79381" transform="rotate(83.6628 83.4909 253.984)" fill="#559BDD" fill-opacity="0.8"/>
<circle opacity="0.7" cx="295.491" cy="188.984" r="4.79381" transform="rotate(83.6628 295.491 188.984)" fill="#559BDD" fill-opacity="0.8"/>
<circle opacity="0.7" cx="148.144" cy="236.294" r="4.79381" transform="rotate(83.6628 148.144 236.294)" fill="#FFCE3F" fill-opacity="0.8"/>
<circle opacity="0.7" cx="232.826" cy="331.465" r="2.56533" transform="rotate(83.6628 232.826 331.465)" fill="#FFCE3F" fill-opacity="0.8"/>
<circle opacity="0.7" cx="217.683" cy="308.833" r="2.56533" transform="rotate(83.6628 217.683 308.833)" fill="#FFCE3F" fill-opacity="0.8"/>
<circle opacity="0.7" cx="231.683" cy="368.833" r="2.56533" transform="rotate(83.6628 231.683 368.833)" fill="#FFCE3F" fill-opacity="0.8"/>
<circle opacity="0.7" cx="232.144" cy="133.546" r="4.79381" transform="rotate(83.6628 232.144 133.546)" fill="#FFCE3F" fill-opacity="0.8"/>
<circle opacity="0.7" cx="117.978" cy="235.684" r="4.79381" transform="rotate(83.6628 117.978 235.684)" fill="#4F4296" fill-opacity="0.8"/>
<circle opacity="0.7" cx="216.683" cy="331.139" r="2.56533" transform="rotate(83.6628 216.683 331.139)" fill="#4F4296" fill-opacity="0.8"/>
<circle opacity="0.7" cx="227.683" cy="356.833" r="2.56533" transform="rotate(83.6628 227.683 356.833)" fill="#4F4296" fill-opacity="0.8"/>
<circle opacity="0.7" cx="237.683" cy="374.833" r="2.56533" transform="rotate(83.6628 237.683 374.833)" fill="#4F4296" fill-opacity="0.8"/>
<circle opacity="0.7" cx="329.978" cy="170.684" r="4.79381" transform="rotate(83.6628 329.978 170.684)" fill="#4F4296" fill-opacity="0.8"/>
<circle opacity="0.7" cx="87.0735" cy="197.315" r="4.79381" transform="rotate(83.6628 87.0735 197.315)" fill="#8681FF" fill-opacity="0.8"/>
<circle opacity="0.7" cx="299.074" cy="132.315" r="4.79381" transform="rotate(83.6628 299.074 132.315)" fill="#8681FF" fill-opacity="0.8"/>
<circle opacity="0.7" cx="156.556" cy="270.09" r="4.79381" transform="rotate(83.6628 156.556 270.09)" fill="#8681FF" fill-opacity="0.8"/>
<circle opacity="0.7" cx="237.328" cy="349.551" r="2.56533" transform="rotate(83.6628 237.328 349.551)" fill="#8681FF" fill-opacity="0.8"/>
<circle opacity="0.7" cx="338.556" cy="215.09" r="4.79381" transform="rotate(83.6628 338.556 215.09)" fill="#8681FF" fill-opacity="0.8"/>
<circle opacity="0.7" cx="67.5249" cy="218.844" r="4.79381" transform="rotate(174.809 67.5249 218.844)" fill="#559BDD" fill-opacity="0.8"/>
<circle opacity="0.7" cx="279.525" cy="153.844" r="4.79381" transform="rotate(174.809 279.525 153.844)" fill="#559BDD" fill-opacity="0.8"/>
<circle opacity="0.7" cx="154.221" cy="255.732" r="4.79381" transform="rotate(174.809 154.221 255.732)" fill="#559BDD" fill-opacity="0.8"/>
<circle opacity="0.7" cx="236.078" cy="341.868" r="2.56533" transform="rotate(174.809 236.078 341.868)" fill="#559BDD" fill-opacity="0.8"/>
<circle opacity="0.7" cx="336.221" cy="200.732" r="4.79381" transform="rotate(174.809 336.221 200.732)" fill="#559BDD" fill-opacity="0.8"/>
<circle opacity="0.7" cx="143.723" cy="162.873" r="13.4683" transform="rotate(83.6628 143.723 162.873)" fill="#4F4296" fill-opacity="0.8"/>
<circle opacity="0.7" cx="334.971" cy="137.056" r="13.4683" transform="rotate(83.6628 334.971 137.056)" fill="#4F4296" fill-opacity="0.8"/>
<circle opacity="0.7" cx="125.144" cy="200.294" r="4.79381" transform="rotate(83.6628 125.144 200.294)" fill="#9BACF2" fill-opacity="0.8"/>
<circle opacity="0.7" cx="364.211" cy="174.921" r="4.79381" transform="rotate(83.6628 364.211 174.921)" fill="#9BACF2" fill-opacity="0.8"/>
<circle opacity="0.7" cx="124.144" cy="151.294" r="4.79381" transform="rotate(83.6628 124.144 151.294)" fill="#9BACF2" fill-opacity="0.8"/>
<circle opacity="0.7" cx="343.793" cy="156.517" r="4.79381" transform="rotate(83.6628 343.793 156.517)" fill="#9BACF2" fill-opacity="0.8"/>
<circle opacity="0.7" cx="73.6859" cy="229.808" r="4.79381" transform="rotate(83.6628 73.6859 229.808)" fill="#9BACF2" fill-opacity="0.8"/>
<circle opacity="0.7" cx="285.686" cy="164.808" r="4.79381" transform="rotate(83.6628 285.686 164.808)" fill="#9BACF2" fill-opacity="0.8"/>
<circle opacity="0.7" cx="101.717" cy="256.783" r="4.79381" transform="rotate(83.6628 101.717 256.783)" fill="#FFCE3F" fill-opacity="0.8"/>
<circle opacity="0.7" cx="313.717" cy="191.783" r="4.79381" transform="rotate(83.6628 313.717 191.783)" fill="#FFCE3F" fill-opacity="0.8"/>
<circle opacity="0.7" cx="76.9649" cy="195.222" r="4.79381" transform="rotate(83.6628 76.9649 195.222)" fill="#9BACF2" fill-opacity="0.8"/>
<circle opacity="0.7" cx="288.965" cy="130.222" r="4.79381" transform="rotate(83.6628 288.965 130.222)" fill="#9BACF2" fill-opacity="0.8"/>
<circle opacity="0.7" cx="149.438" cy="258.295" r="4.79381" transform="rotate(83.6628 149.438 258.295)" fill="#9BACF2" fill-opacity="0.8"/>
<circle opacity="0.7" cx="233.518" cy="343.239" r="2.56533" transform="rotate(83.6628 233.518 343.239)" fill="#9BACF2" fill-opacity="0.8"/>
<circle opacity="0.7" cx="227.683" cy="361.833" r="2.56533" transform="rotate(83.6628 227.683 361.833)" fill="#9BACF2" fill-opacity="0.8"/>
<circle opacity="0.7" cx="331.438" cy="203.295" r="4.79381" transform="rotate(83.6628 331.438 203.295)" fill="#9BACF2" fill-opacity="0.8"/>
<circle opacity="0.7" cx="143.144" cy="134.294" r="4.79381" transform="rotate(83.6628 143.144 134.294)" fill="#8681FF" fill-opacity="0.8"/>
<circle opacity="0.7" cx="337.216" cy="113.838" r="4.79381" transform="rotate(83.6628 337.216 113.838)" fill="#8681FF" fill-opacity="0.8"/>
<circle opacity="0.7" cx="275.144" cy="204.294" r="4.79381" transform="rotate(83.6628 275.144 204.294)" fill="#8681FF" fill-opacity="0.8"/>
<circle opacity="0.7" cx="44.2594" cy="218.013" r="4.79381" transform="rotate(174.809 44.2594 218.013)" fill="#8681FF" fill-opacity="0.8"/>
<circle opacity="0.7" cx="256.259" cy="153.013" r="4.79381" transform="rotate(174.809 256.259 153.013)" fill="#8681FF" fill-opacity="0.8"/>
<circle opacity="0.7" cx="86.997" cy="215.238" r="9.13107" transform="rotate(83.6628 86.997 215.238)" fill="#8681FF" fill-opacity="0.8"/>
<circle opacity="0.7" cx="298.997" cy="150.238" r="9.13107" transform="rotate(83.6628 298.997 150.238)" fill="#8681FF" fill-opacity="0.8"/>
<circle opacity="0.7" cx="72.954" cy="247.001" r="10.8431" transform="rotate(83.6628 72.954 247.001)" fill="#8681FF" fill-opacity="0.8"/>
<circle opacity="0.7" cx="284.954" cy="182.001" r="10.8431" transform="rotate(83.6628 284.954 182.001)" fill="#8681FF" fill-opacity="0.8"/>
<circle opacity="0.7" cx="128.824" cy="224.974" r="10.8431" transform="rotate(83.6628 128.824 224.974)" fill="#9BACF2" fill-opacity="0.8"/>
<circle opacity="0.7" cx="222.487" cy="325.408" r="5.80254" transform="rotate(83.6628 222.487 325.408)" fill="#9BACF2" fill-opacity="0.8"/>
<circle opacity="0.7" cx="241.874" cy="141.538" r="10.8431" transform="rotate(83.6628 241.874 141.538)" fill="#9BACF2" fill-opacity="0.8"/>
<circle opacity="0.7" cx="265.226" cy="191.376" r="6.67978" transform="rotate(83.6628 265.226 191.376)" fill="#9BACF2" fill-opacity="0.8"/>
<circle opacity="0.7" cx="180.824" cy="120.974" r="10.8431" transform="rotate(83.6628 180.824 120.974)" fill="#9BACF2" fill-opacity="0.8"/>
<circle opacity="0.7" cx="356.979" cy="114.974" r="10.8431" transform="rotate(83.6628 356.979 114.974)" fill="#9BACF2" fill-opacity="0.8"/>
<path d="M139.378 124.125C139.09 123.802 138.783 123.495 138.46 123.207C138.175 122.888 137.873 122.585 137.554 122.3C137.268 121.974 136.962 121.668 136.636 121.382C136.35 121.056 136.044 120.75 135.718 120.464C135.433 120.145 135.131 119.843 134.811 119.558C134.523 119.235 134.216 118.928 133.893 118.64C133.609 118.321 133.306 118.018 132.987 117.734C132.699 117.411 132.392 117.104 132.069 116.816C131.784 116.497 131.482 116.194 131.163 115.909C130.226 114.877 129.131 113.998 127.921 113.307V21.8572C127.921 21.3808 127.677 21.1368 127.677 20.6952C127.737 20.1977 127.652 19.6933 127.433 19.2427C127.433 18.9987 127.2 18.5107 127.2 18.2666C127.075 17.7707 126.912 17.285 126.712 16.8141C126.45 16.5484 126.28 16.2068 126.224 15.8381C125.949 15.411 125.621 15.0206 125.248 14.6761C125.004 14.432 124.772 13.9556 124.528 13.7L123.551 12.7355C123.551 12.5845 123.366 12.4334 123.156 12.3404L122.68 11.8524H122.622C122.622 11.7013 122.436 11.5619 122.227 11.4573L121.75 10.9809C121.75 10.8298 121.564 10.6788 121.355 10.5858L120.716 9.90024C120.716 9.74918 120.53 9.59813 120.321 9.50517L119.845 9.02874C119.845 8.8893 119.659 8.73825 119.45 8.63367L118.962 8.15724C118.962 8.00618 118.776 7.85513 118.566 7.76217L118.09 7.27412C118.09 7.13468 117.904 6.98363 117.695 6.87905L117.207 6.40262C117.207 6.25156 117.021 6.10051 116.812 6.00755L116.068 5.25224C116.068 5.10118 115.882 4.96175 115.673 4.85717L115.197 4.38074C115.197 4.22968 115.011 4.07863 114.802 3.98567L114.267 3.45114C114.267 3.21874 113.791 2.97473 113.547 2.97473C113.55 2.94231 113.546 2.90957 113.536 2.87864C113.526 2.8477 113.509 2.81926 113.487 2.79515C113.465 2.77104 113.439 2.75182 113.409 2.73871C113.379 2.72561 113.347 2.71892 113.314 2.71909C112.815 2.48669 112.571 2.24266 112.083 1.99864C111.839 1.75462 111.362 1.51061 110.921 1.02257C110.665 1.02257 110.188 0.790171 109.944 0.790171C109.456 0.546151 108.782 0.546151 108.492 0.290511C108.068 0.327318 107.642 0.246921 107.26 0.0581055H103.147C102.857 0.24452 102.513 0.326517 102.171 0.290511C101.45 0.546151 101.009 0.546151 100.718 0.790171C100.242 0.790171 99.9977 1.02257 99.7421 1.5106C99.2203 1.52597 98.7148 1.69582 98.2896 1.99864C98.0572 2.24266 97.5691 2.48669 97.3135 2.71909C97.0088 3.07459 96.6037 3.32976 96.1515 3.45114C95.9766 3.81997 95.732 4.15144 95.4311 4.42723C95.1871 4.67125 95.1871 4.90364 94.943 4.90364L5.01589 116.467C2.88114 119.023 1.8111 122.301 2.02742 125.624C2.24373 128.946 3.72984 132.059 6.17789 134.316C6.45701 134.651 6.76411 134.962 7.09587 135.245C7.3822 135.574 7.69295 135.881 8.02547 136.163C8.30764 136.496 8.6145 136.806 8.94345 137.093C9.22978 137.422 9.54053 137.729 9.87305 138.011C10.1522 138.346 10.4593 138.657 10.791 138.94C11.0772 139.273 11.3879 139.584 11.7206 139.87C12.004 140.202 12.315 140.509 12.6502 140.788C12.9293 141.123 13.2364 141.434 13.5682 141.717C13.8545 142.046 14.1653 142.353 14.4978 142.635C15.0695 143.282 15.704 143.869 16.3919 144.39C18.6728 146.372 21.6227 147.41 24.6421 147.295H91.8289V156.498C91.8066 158.37 92.1814 160.225 92.9285 161.942C93.6756 163.658 94.778 165.197 96.1631 166.456C96.442 166.77 96.7325 167.061 97.0462 167.351C97.3367 167.665 97.6389 167.967 97.9526 168.246C98.2315 168.56 98.5336 168.85 98.8357 169.141C99.1262 169.454 99.4283 169.757 99.7421 170.035C100.021 170.349 100.323 170.64 100.625 170.93C100.91 171.246 101.212 171.544 101.532 171.825C101.81 172.127 102.113 172.429 102.415 172.708C102.695 173.027 102.994 173.33 103.309 173.614C103.6 173.916 103.89 174.219 104.204 174.497C106.034 176.47 108.414 177.846 111.036 178.448C113.658 179.049 116.401 178.848 118.907 177.871C121.413 176.893 123.568 175.184 125.09 172.966C126.613 170.749 127.433 168.124 127.444 165.434V147.295H129.873C132.588 147.359 135.257 146.589 137.52 145.087C139.784 143.586 141.532 141.427 142.529 138.9C143.526 136.374 143.724 133.603 143.096 130.961C142.468 128.318 141.045 125.932 139.018 124.125H139.378ZM91.8753 72.1602V111.378H60.2922L91.8753 72.1602Z" fill="#9A92FF"/>
<path opacity="0.1" d="M139.378 124.125C139.09 123.802 138.783 123.495 138.46 123.207C138.175 122.888 137.873 122.585 137.554 122.3C137.268 121.974 136.962 121.668 136.636 121.382C136.35 121.056 136.044 120.75 135.718 120.464C135.433 120.145 135.131 119.843 134.811 119.558C134.523 119.235 134.216 118.928 133.893 118.64C133.609 118.321 133.306 118.018 132.987 117.734C132.699 117.411 132.392 117.104 132.069 116.816C131.784 116.497 131.482 116.194 131.163 115.909C130.226 114.877 129.131 113.998 127.921 113.307V21.8572C127.921 21.3808 127.677 21.1368 127.677 20.6952C127.737 20.1977 127.652 19.6933 127.433 19.2427C127.433 18.9987 127.2 18.5107 127.2 18.2666C127.075 17.7707 126.912 17.285 126.712 16.8141C126.45 16.5484 126.28 16.2068 126.224 15.8381C125.949 15.411 125.621 15.0206 125.248 14.6761C125.004 14.432 124.772 13.9556 124.528 13.7L123.551 12.7355C123.551 12.5845 123.366 12.4334 123.156 12.3404L122.68 11.8524H122.622C122.622 11.7013 122.436 11.5619 122.227 11.4573L121.75 10.9809C121.75 10.8298 121.564 10.6788 121.355 10.5858L120.716 9.90024C120.716 9.74918 120.53 9.59813 120.321 9.50517L119.845 9.02874C119.845 8.8893 119.659 8.73825 119.45 8.63367L118.962 8.15724C118.962 8.00618 118.776 7.85513 118.566 7.76217L118.09 7.27412C118.09 7.13468 117.904 6.98363 117.695 6.87905L117.207 6.40262C117.207 6.25156 117.021 6.10051 116.812 6.00755L116.068 5.25224C116.068 5.10118 115.882 4.96175 115.673 4.85717L115.197 4.38074C115.197 4.22968 115.011 4.07863 114.802 3.98567L114.267 3.45114C114.267 3.21874 113.791 2.97473 113.547 2.97473C113.55 2.94231 113.546 2.90957 113.536 2.87864C113.526 2.8477 113.509 2.81926 113.487 2.79515C113.465 2.77104 113.439 2.75182 113.409 2.73871C113.379 2.72561 113.347 2.71892 113.314 2.71909C112.815 2.48669 112.571 2.24266 112.083 1.99864C111.839 1.75462 111.362 1.51061 110.921 1.02257C110.665 1.02257 110.188 0.790171 109.944 0.790171C109.456 0.546151 108.782 0.546151 108.492 0.290511C108.068 0.327318 107.642 0.246921 107.26 0.0581055H103.147C102.857 0.24452 102.513 0.326517 102.171 0.290511C101.45 0.546151 101.009 0.546151 100.718 0.790171C100.242 0.790171 99.9977 1.02257 99.7421 1.5106C99.2203 1.52597 98.7148 1.69582 98.2896 1.99864C98.0572 2.24266 97.5691 2.48669 97.3135 2.71909C97.0088 3.07459 96.6037 3.32976 96.1515 3.45114C95.9766 3.81997 95.732 4.15144 95.4311 4.42723C95.1871 4.67125 95.1871 4.90364 94.943 4.90364L5.01589 116.467C2.88114 119.023 1.8111 122.301 2.02742 125.624C2.24373 128.946 3.72984 132.059 6.17789 134.316C6.45701 134.651 6.76411 134.962 7.09587 135.245C7.3822 135.574 7.69295 135.881 8.02547 136.163C8.30764 136.496 8.6145 136.806 8.94345 137.093C9.22978 137.422 9.54053 137.729 9.87305 138.011C10.1522 138.346 10.4593 138.657 10.791 138.94C11.0772 139.273 11.3879 139.584 11.7206 139.87C12.004 140.202 12.315 140.509 12.6502 140.788C12.9293 141.123 13.2364 141.434 13.5682 141.717C13.8545 142.046 14.1653 142.353 14.4978 142.635C15.0695 143.282 15.704 143.869 16.3919 144.39C18.6728 146.372 21.6227 147.41 24.6421 147.295H91.8289V156.498C91.8066 158.37 92.1814 160.225 92.9285 161.942C93.6756 163.658 94.778 165.197 96.1631 166.456C96.442 166.77 96.7325 167.061 97.0462 167.351C97.3367 167.665 97.6389 167.967 97.9526 168.246C98.2315 168.56 98.5336 168.85 98.8357 169.141C99.1262 169.454 99.4283 169.757 99.7421 170.035C100.021 170.349 100.323 170.64 100.625 170.93C100.91 171.246 101.212 171.544 101.532 171.825C101.81 172.127 102.113 172.429 102.415 172.708C102.695 173.027 102.994 173.33 103.309 173.614C103.6 173.916 103.89 174.219 104.204 174.497C106.034 176.47 108.414 177.846 111.036 178.448C113.658 179.049 116.401 178.848 118.907 177.871C121.413 176.893 123.568 175.184 125.09 172.966C126.613 170.749 127.433 168.124 127.444 165.434V147.295H129.873C132.588 147.359 135.257 146.589 137.52 145.087C139.784 143.586 141.532 141.427 142.529 138.9C143.526 136.374 143.724 133.603 143.096 130.961C142.468 128.318 141.045 125.932 139.018 124.125H139.378ZM91.8753 72.1602V111.378H60.2922L91.8753 72.1602Z" fill="black"/>
<path d="M134.567 124.717C134.564 126.489 134.209 128.242 133.522 129.876C132.836 131.509 131.831 132.989 130.567 134.23C129.303 135.472 127.805 136.449 126.159 137.106C124.514 137.763 122.755 138.086 120.983 138.057H118.555V156.498C118.555 160.042 117.147 163.441 114.641 165.947C112.135 168.453 108.736 169.861 105.192 169.861C101.648 169.861 98.2486 168.453 95.7426 165.947C93.2366 163.441 91.8287 160.042 91.8287 156.498V138.057H15.4388C12.4181 138.168 9.46841 137.125 7.18863 135.141C5.7831 134.084 4.60677 132.754 3.73102 131.229C2.85528 129.705 2.29837 128.018 2.09408 126.272C1.8898 124.526 2.0424 122.756 2.54262 121.071C3.04285 119.385 3.88026 117.819 5.00407 116.467L94.7801 4.84554C95.0242 4.84554 95.0242 4.61313 95.2682 4.36911C95.5696 4.09101 95.8177 3.76023 96.0002 3.39304C96.4444 3.2597 96.8453 3.01112 97.1622 2.67259C97.4063 2.42857 97.8943 2.18456 98.1267 1.94054C98.5545 1.63424 99.0648 1.46415 99.5908 1.4525C99.8232 0.96446 100.067 0.732056 100.555 0.732056C100.799 0.488037 101.287 0.488039 102.019 0.244019C102.36 0.278744 102.701 0.192333 102.984 0H107.109C107.466 0.18706 107.869 0.271519 108.271 0.244019C108.515 0.488039 109.247 0.488037 109.735 0.732056C109.979 0.732056 110.456 0.964453 110.7 0.964453C111.188 1.45249 111.676 1.69652 111.862 1.94054C112.35 2.18456 112.594 2.42857 113.082 2.67259C113.146 2.67259 113.208 2.6983 113.254 2.74407C113.3 2.78983 113.326 2.85189 113.326 2.91661C113.57 2.91661 114.058 3.14902 114.058 3.39304L115.022 4.36911C115.266 4.61313 115.51 5.08955 115.754 5.33357C116.121 5.70204 116.445 6.11142 116.719 6.55368C116.78 6.91708 116.95 7.25332 117.207 7.51813C117.406 7.99312 117.569 8.48256 117.695 8.98225C117.695 9.21465 117.927 9.70269 117.927 9.94671C118.146 10.3975 118.231 10.9017 118.171 11.3992C118.171 11.8873 118.415 12.1313 118.415 12.5612V111.331H120.844C122.625 111.304 124.395 111.628 126.05 112.287C127.706 112.946 129.214 113.926 130.49 115.17C131.765 116.414 132.782 117.898 133.482 119.536C134.182 121.175 134.55 122.936 134.567 124.717ZM91.8751 51.4417L43.5825 111.366H91.8751V51.4417Z" fill="#9A92FF"/>
<path d="M276.505 36.173C273.771 31.9884 270.588 28.1153 267.012 24.6228C266.884 24.4757 266.744 24.3397 266.594 24.2161C266.557 24.1678 266.514 24.1248 266.466 24.0882C266.359 23.9664 266.247 23.8501 266.129 23.7396C265.815 23.4027 265.49 23.0889 265.164 22.7752L265.083 22.6938L264.746 22.3685C264.709 22.3202 264.666 22.2772 264.618 22.2407L264.281 21.8804C263.967 21.5551 263.63 21.2413 263.317 20.9276C263.295 20.8918 263.262 20.8634 263.224 20.8463L262.898 20.5209C262.862 20.4727 262.819 20.4297 262.771 20.3931C262.663 20.2646 262.547 20.1442 262.422 20.0329C262.12 19.7075 261.783 19.3938 261.469 19.0684L261.376 18.9987L261.051 18.6617L260.923 18.5455C260.807 18.4177 260.702 18.3015 260.574 18.1853C260.272 17.8483 259.935 17.5462 259.622 17.2208L259.529 17.1511C259.428 17.0275 259.315 16.9146 259.192 16.8141C259.156 16.7725 259.117 16.7337 259.075 16.6979C249.338 6.64663 236.626 0 222.368 0C203.206 0 187.438 11.4108 177.236 26.9235C166.569 42.4595 160.968 62.6085 160.747 84.9189C160.991 106.997 166.557 127.378 177.236 142.914C179.971 147.022 183.121 150.838 186.636 154.302L187.113 154.767C187.127 154.774 187.139 154.784 187.149 154.796C187.159 154.808 187.166 154.822 187.171 154.836L188.042 155.696C188.182 155.859 188.333 155.998 188.484 156.149L188.96 156.614L189.03 156.684L189.89 157.544L190.332 157.997C190.494 158.16 190.657 158.311 190.808 158.473C190.831 158.466 190.855 158.466 190.878 158.473L191.738 159.333C191.889 159.496 192.028 159.647 192.179 159.787L192.667 160.263C192.692 160.276 192.712 160.296 192.725 160.321L193.585 161.181L194.027 161.634L194.515 162.111C194.54 162.124 194.56 162.144 194.573 162.169C194.852 162.471 195.154 162.75 195.433 163.029C205.031 172.615 217.395 179.029 231.617 179.029C250.291 179.029 266.315 167.409 276.505 152.094C286.963 136.57 292.773 116.188 292.773 94.1103C292.762 71.8464 286.94 51.7322 276.505 36.173ZM244.934 127.866C237.892 138.324 229.898 142.914 222.368 142.914C217.754 142.807 213.287 141.268 209.586 138.51C209.249 138.069 208.912 137.592 208.575 137.116C201.789 126.925 196.955 111.401 196.955 94.1219C196.955 76.692 201.812 61.3652 208.575 50.9304C215.861 40.7397 224.111 35.8942 231.629 36.1266C236.009 36.1047 240.277 37.5032 243.795 40.1122C244.179 40.6235 244.562 41.1464 244.957 41.6809C251.755 52.1389 256.577 67.4076 256.577 84.8724C256.589 102.151 251.732 117.676 244.934 127.866Z" fill="#9A92FF"/>
<path opacity="0.1" d="M276.505 36.173C273.771 31.9884 270.588 28.1153 267.012 24.6228C266.884 24.4757 266.744 24.3397 266.594 24.2161C266.557 24.1678 266.514 24.1248 266.466 24.0882C266.359 23.9664 266.247 23.8501 266.129 23.7396C265.815 23.4027 265.49 23.0889 265.164 22.7752L265.083 22.6938L264.746 22.3685C264.709 22.3202 264.666 22.2772 264.618 22.2407L264.281 21.8804C263.967 21.5551 263.63 21.2413 263.317 20.9276C263.295 20.8918 263.262 20.8634 263.224 20.8463L262.898 20.5209C262.862 20.4727 262.819 20.4297 262.771 20.3931C262.663 20.2646 262.547 20.1442 262.422 20.0329C262.12 19.7075 261.783 19.3938 261.469 19.0684L261.376 18.9987L261.051 18.6617L260.923 18.5455C260.807 18.4177 260.702 18.3015 260.574 18.1853C260.272 17.8483 259.935 17.5462 259.622 17.2208L259.529 17.1511C259.428 17.0275 259.315 16.9146 259.192 16.8141C259.156 16.7725 259.117 16.7337 259.075 16.6979C249.338 6.64663 236.626 0 222.368 0C203.206 0 187.438 11.4108 177.236 26.9235C166.569 42.4595 160.968 62.6085 160.747 84.9189C160.991 106.997 166.557 127.378 177.236 142.914C179.971 147.022 183.121 150.838 186.636 154.302L187.113 154.767C187.127 154.774 187.139 154.784 187.149 154.796C187.159 154.808 187.166 154.822 187.171 154.836L188.042 155.696C188.182 155.859 188.333 155.998 188.484 156.149L188.96 156.614L189.03 156.684L189.89 157.544L190.332 157.997C190.494 158.16 190.657 158.311 190.808 158.473C190.831 158.466 190.855 158.466 190.878 158.473L191.738 159.333C191.889 159.496 192.028 159.647 192.179 159.787L192.667 160.263C192.692 160.276 192.712 160.296 192.725 160.321L193.585 161.181L194.027 161.634L194.515 162.111C194.54 162.124 194.56 162.144 194.573 162.169C194.852 162.471 195.154 162.75 195.433 163.029C205.031 172.615 217.395 179.029 231.617 179.029C250.291 179.029 266.315 167.409 276.505 152.094C286.963 136.57 292.773 116.188 292.773 94.1103C292.762 71.8464 286.94 51.7322 276.505 36.173ZM244.934 127.866C237.892 138.324 229.898 142.914 222.368 142.914C217.754 142.807 213.287 141.268 209.586 138.51C209.249 138.069 208.912 137.592 208.575 137.116C201.789 126.925 196.955 111.401 196.955 94.1219C196.955 76.692 201.812 61.3652 208.575 50.9304C215.861 40.7397 224.111 35.8942 231.629 36.1266C236.009 36.1047 240.277 37.5032 243.795 40.1122C244.179 40.6235 244.562 41.1464 244.957 41.6809C251.755 52.1389 256.577 67.4076 256.577 84.8724C256.589 102.151 251.732 117.676 244.934 127.866Z" fill="black"/>
<path d="M160.747 84.9189C160.991 62.5969 166.557 42.4595 177.247 26.9351C187.427 11.3992 203.206 0 222.368 0C241.053 0 257.065 11.3992 267.268 26.9351C277.726 42.4595 283.536 62.5969 283.536 84.9189C283.536 106.997 277.726 127.378 267.268 142.914C257.065 158.195 241.053 169.838 222.368 169.838C203.206 169.838 187.427 158.218 177.247 142.914C166.569 127.378 160.991 106.997 160.747 84.9189ZM256.577 84.9189C256.577 67.4889 251.732 52.1622 244.957 41.7274C237.985 31.5367 229.921 26.6911 222.391 26.9351C214.873 26.6911 206.623 31.5831 199.349 41.7274C192.551 52.1854 187.729 67.4541 187.729 84.9189C187.729 102.151 192.586 117.676 199.349 127.913C206.623 138.371 214.873 142.961 222.391 142.961C229.909 142.961 237.927 138.313 244.957 127.913C251.732 117.676 256.577 102.151 256.577 84.9189Z" fill="#9A92FF"/>
<path d="M441.811 124.125C441.509 123.799 441.207 123.497 440.893 123.207C440.603 122.893 440.289 122.579 439.987 122.3C439.685 121.975 439.383 121.661 439.069 121.382C438.779 121.057 438.465 120.755 438.163 120.464C437.861 120.151 437.559 119.837 437.245 119.558C436.943 119.233 436.641 118.931 436.327 118.64C436.036 118.326 435.723 118.013 435.42 117.734C435.118 117.408 434.816 117.106 434.502 116.816C434.212 116.502 433.898 116.188 433.596 115.909C432.658 114.873 431.559 113.994 430.343 113.307V21.8572C430.343 21.3808 430.099 21.1368 430.099 20.6952C430.159 20.1976 430.074 19.6933 429.854 19.2427C429.854 18.9987 429.622 18.5106 429.622 18.2666C429.497 17.7706 429.334 17.285 429.134 16.8141C428.877 16.5453 428.707 16.2051 428.646 15.838C428.375 15.4083 428.046 15.0174 427.67 14.676C427.426 14.432 427.194 13.9556 426.95 13.7L425.973 12.7355C425.973 12.5844 425.787 12.4334 425.578 12.3404L425.102 11.8524H425.044C425.044 11.7013 424.87 11.5619 424.649 11.4573L424.172 10.9809C424.172 10.8298 423.986 10.6788 423.777 10.5858L423.301 10.0978H423.243C423.243 9.9467 423.057 9.79565 422.848 9.70269L422.371 9.22626C422.371 9.08682 422.185 8.93577 421.976 8.83119L421.488 8.35476C421.488 8.2037 421.302 8.05265 421.093 7.95969L420.617 7.47165C420.617 7.33221 420.431 7.18114 420.222 7.07656L419.733 6.60015C419.733 6.44909 419.548 6.29802 419.338 6.20506L418.862 5.71703C418.862 5.56597 418.688 5.42652 418.467 5.32194L417.99 4.84553C417.99 4.69447 417.805 4.5434 417.595 4.45044L417.061 3.91592C417.061 3.68352 416.584 3.43951 416.34 3.43951C416.34 3.37171 416.313 3.30669 416.266 3.25874C416.218 3.2108 416.153 3.18387 416.085 3.18387C415.608 2.95147 415.364 2.70745 414.923 2.46343C414.52 2.15741 414.132 1.83165 413.761 1.48735C413.505 1.48735 413.029 1.25494 412.785 1.25494C412.297 1.01092 411.623 1.01092 411.332 0.755285C410.908 0.792091 410.482 0.711704 410.101 0.522888H405.406C405.117 0.709303 404.772 0.791291 404.43 0.755285C403.71 1.01092 403.268 1.01092 402.977 1.25494C402.501 1.25494 402.257 1.48735 402.001 1.97539C401.48 1.99281 400.975 2.16246 400.549 2.46343C400.316 2.70745 399.828 2.95147 399.584 3.18387C399.276 3.53461 398.872 3.78879 398.422 3.91592C398.243 4.28232 397.999 4.61308 397.702 4.89201C397.458 5.13603 397.458 5.36842 397.214 5.36842L307.449 116.99C305.315 119.545 304.245 122.824 304.461 126.147C304.677 129.469 306.163 132.581 308.611 134.838C309.539 135.758 310.461 136.684 311.377 137.616C311.663 137.945 311.974 138.251 312.307 138.534C312.586 138.869 312.893 139.18 313.225 139.463C313.511 139.796 313.822 140.107 314.154 140.393C314.438 140.724 314.749 141.032 315.084 141.311C315.692 141.934 316.308 142.55 316.931 143.158C317.503 143.804 318.138 144.392 318.825 144.913C321.106 146.895 324.056 147.933 327.076 147.818H394.262V157.021C394.242 158.893 394.617 160.748 395.364 162.464C396.111 164.18 397.213 165.719 398.597 166.979C398.877 167.298 399.176 167.601 399.491 167.886C399.782 168.188 400.072 168.49 400.386 168.769C400.665 169.094 400.979 169.385 401.281 169.675C401.571 169.977 401.862 170.279 402.176 170.558C402.455 170.884 402.768 171.174 403.07 171.465C403.361 171.778 403.651 172.069 403.965 172.348C404.244 172.661 404.558 172.964 404.86 173.243C405.139 173.556 405.429 173.847 405.743 174.137C406.034 174.451 406.336 174.753 406.649 175.032C408.48 177.005 410.861 178.381 413.484 178.983C416.107 179.584 418.851 179.382 421.358 178.403C423.864 177.424 426.019 175.713 427.54 173.494C429.062 171.274 429.88 168.648 429.889 165.957V147.295H432.318C435.034 147.362 437.705 146.593 439.97 145.092C442.235 143.592 443.985 141.433 444.984 138.906C445.983 136.379 446.181 133.607 445.554 130.964C444.926 128.32 443.502 125.933 441.474 124.125H441.811ZM394.297 72.1602V111.378H362.703L394.297 72.1602Z" fill="#9A92FF"/>
<path opacity="0.1" d="M441.811 124.125C441.509 123.799 441.207 123.497 440.893 123.207C440.603 122.893 440.289 122.579 439.987 122.3C439.685 121.975 439.383 121.661 439.069 121.382C438.779 121.057 438.465 120.755 438.163 120.464C437.861 120.151 437.559 119.837 437.245 119.558C436.943 119.233 436.641 118.931 436.327 118.64C436.036 118.326 435.723 118.013 435.42 117.734C435.118 117.408 434.816 117.106 434.502 116.816C434.212 116.502 433.898 116.188 433.596 115.909C432.658 114.873 431.559 113.994 430.343 113.307V21.8572C430.343 21.3808 430.099 21.1368 430.099 20.6952C430.159 20.1976 430.074 19.6933 429.854 19.2427C429.854 18.9987 429.622 18.5106 429.622 18.2666C429.497 17.7706 429.334 17.285 429.134 16.8141C428.877 16.5453 428.707 16.2051 428.646 15.838C428.375 15.4083 428.046 15.0174 427.67 14.676C427.426 14.432 427.194 13.9556 426.95 13.7L425.973 12.7355C425.973 12.5844 425.787 12.4334 425.578 12.3404L425.102 11.8524H425.044C425.044 11.7013 424.87 11.5619 424.649 11.4573L424.172 10.9809C424.172 10.8298 423.986 10.6788 423.777 10.5858L423.301 10.0978H423.243C423.243 9.9467 423.057 9.79565 422.848 9.70269L422.371 9.22626C422.371 9.08682 422.185 8.93577 421.976 8.83119L421.488 8.35476C421.488 8.2037 421.302 8.05265 421.093 7.95969L420.617 7.47165C420.617 7.33221 420.431 7.18114 420.222 7.07656L419.733 6.60015C419.733 6.44909 419.548 6.29802 419.338 6.20506L418.862 5.71703C418.862 5.56597 418.688 5.42652 418.467 5.32194L417.99 4.84553C417.99 4.69447 417.805 4.5434 417.595 4.45044L417.061 3.91592C417.061 3.68352 416.584 3.43951 416.34 3.43951C416.34 3.37171 416.313 3.30669 416.266 3.25874C416.218 3.2108 416.153 3.18387 416.085 3.18387C415.608 2.95147 415.364 2.70745 414.923 2.46343C414.52 2.15741 414.132 1.83165 413.761 1.48735C413.505 1.48735 413.029 1.25494 412.785 1.25494C412.297 1.01092 411.623 1.01092 411.332 0.755285C410.908 0.792091 410.482 0.711704 410.101 0.522888H405.406C405.117 0.709303 404.772 0.791291 404.43 0.755285C403.71 1.01092 403.268 1.01092 402.977 1.25494C402.501 1.25494 402.257 1.48735 402.001 1.97539C401.48 1.99281 400.975 2.16246 400.549 2.46343C400.316 2.70745 399.828 2.95147 399.584 3.18387C399.276 3.53461 398.872 3.78879 398.422 3.91592C398.243 4.28232 397.999 4.61308 397.702 4.89201C397.458 5.13603 397.458 5.36842 397.214 5.36842L307.449 116.99C305.315 119.545 304.245 122.824 304.461 126.147C304.677 129.469 306.163 132.581 308.611 134.838C309.539 135.758 310.461 136.684 311.377 137.616C311.663 137.945 311.974 138.251 312.307 138.534C312.586 138.869 312.893 139.18 313.225 139.463C313.511 139.796 313.822 140.107 314.154 140.393C314.438 140.724 314.749 141.032 315.084 141.311C315.692 141.934 316.308 142.55 316.931 143.158C317.503 143.804 318.138 144.392 318.825 144.913C321.106 146.895 324.056 147.933 327.076 147.818H394.262V157.021C394.242 158.893 394.617 160.748 395.364 162.464C396.111 164.18 397.213 165.719 398.597 166.979C398.877 167.298 399.176 167.601 399.491 167.886C399.782 168.188 400.072 168.49 400.386 168.769C400.665 169.094 400.979 169.385 401.281 169.675C401.571 169.977 401.862 170.279 402.176 170.558C402.455 170.884 402.768 171.174 403.07 171.465C403.361 171.778 403.651 172.069 403.965 172.348C404.244 172.661 404.558 172.964 404.86 173.243C405.139 173.556 405.429 173.847 405.743 174.137C406.034 174.451 406.336 174.753 406.649 175.032C408.48 177.005 410.861 178.381 413.484 178.983C416.107 179.584 418.851 179.382 421.358 178.403C423.864 177.424 426.019 175.713 427.54 173.494C429.062 171.274 429.88 168.648 429.889 165.957V147.295H432.318C435.034 147.362 437.705 146.593 439.97 145.092C442.235 143.592 443.985 141.433 444.984 138.906C445.983 136.379 446.181 133.607 445.554 130.964C444.926 128.32 443.502 125.933 441.474 124.125H441.811ZM394.297 72.1602V111.378H362.703L394.297 72.1602Z" fill="black"/>
<path d="M437.001 124.717C436.998 126.49 436.643 128.244 435.955 129.878C435.268 131.512 434.262 132.993 432.997 134.234C431.732 135.476 430.232 136.453 428.585 137.11C426.939 137.766 425.178 138.088 423.405 138.057H420.977V156.498C420.977 160.042 419.569 163.441 417.063 165.947C414.557 168.453 411.158 169.861 407.614 169.861C404.07 169.861 400.671 168.453 398.165 165.947C395.659 163.441 394.251 160.042 394.251 156.498V138.057H317.861C314.84 138.168 311.891 137.125 309.611 135.141C308.205 134.084 307.029 132.754 306.153 131.229C305.277 129.705 304.721 128.018 304.516 126.272C304.312 124.526 304.465 122.756 304.965 121.071C305.465 119.385 306.302 117.819 307.426 116.467L397.202 4.84554C397.446 4.84554 397.446 4.61313 397.69 4.36911C397.992 4.09101 398.24 3.76023 398.422 3.39304C398.867 3.2597 399.268 3.01112 399.584 2.67259C399.828 2.42857 400.316 2.18456 400.561 1.94054C400.983 1.63249 401.49 1.46209 402.013 1.4525C402.245 0.96446 402.489 0.732056 402.977 0.732056C403.222 0.488037 403.71 0.488039 404.442 0.244019C404.782 0.278744 405.123 0.192333 405.406 0H409.531C409.889 0.18706 410.291 0.271519 410.693 0.244019C410.937 0.488039 411.669 0.488037 412.157 0.732056C412.401 0.732056 412.889 0.964453 413.122 0.964453C413.61 1.45249 414.098 1.69652 414.284 1.94054C414.772 2.18456 415.016 2.42857 415.504 2.67259C415.544 2.6498 415.59 2.63896 415.636 2.64134C415.683 2.64372 415.727 2.65923 415.765 2.68604C415.803 2.71286 415.832 2.74987 415.85 2.79275C415.867 2.83564 415.872 2.88264 415.864 2.92823C416.108 2.92823 416.596 3.16064 416.596 3.40466L417.561 4.38073C417.805 4.62475 418.049 5.10118 418.293 5.3452C418.663 5.71049 418.987 6.12031 419.257 6.56529C419.319 6.9287 419.489 7.26495 419.745 7.52975C419.945 8.00474 420.108 8.49419 420.233 8.99387C420.233 9.22627 420.466 9.71432 420.466 9.95834C420.684 10.4091 420.769 10.9133 420.71 11.4108C420.71 11.8989 420.954 12.1429 420.954 12.5728V111.343H423.382C426.96 111.315 430.404 112.707 432.957 115.215C435.51 117.722 436.964 121.139 437.001 124.717ZM394.297 51.4417L346.005 111.366H394.297V51.4417Z" fill="#9A92FF"/>
<path d="M119.405 415.045C119.178 415.045 118.975 415.005 118.795 414.925C118.615 414.842 118.472 414.73 118.365 414.59C118.262 414.45 118.205 414.295 118.195 414.125H118.9C118.913 414.232 118.965 414.32 119.055 414.39C119.148 414.46 119.263 414.495 119.4 414.495C119.533 414.495 119.637 414.468 119.71 414.415C119.787 414.362 119.825 414.293 119.825 414.21C119.825 414.12 119.778 414.053 119.685 414.01C119.595 413.963 119.45 413.913 119.25 413.86C119.043 413.81 118.873 413.758 118.74 413.705C118.61 413.652 118.497 413.57 118.4 413.46C118.307 413.35 118.26 413.202 118.26 413.015C118.26 412.862 118.303 412.722 118.39 412.595C118.48 412.468 118.607 412.368 118.77 412.295C118.937 412.222 119.132 412.185 119.355 412.185C119.685 412.185 119.948 412.268 120.145 412.435C120.342 412.598 120.45 412.82 120.47 413.1H119.8C119.79 412.99 119.743 412.903 119.66 412.84C119.58 412.773 119.472 412.74 119.335 412.74C119.208 412.74 119.11 412.763 119.04 412.81C118.973 412.857 118.94 412.922 118.94 413.005C118.94 413.098 118.987 413.17 119.08 413.22C119.173 413.267 119.318 413.315 119.515 413.365C119.715 413.415 119.88 413.467 120.01 413.52C120.14 413.573 120.252 413.657 120.345 413.77C120.442 413.88 120.492 414.027 120.495 414.21C120.495 414.37 120.45 414.513 120.36 414.64C120.273 414.767 120.147 414.867 119.98 414.94C119.817 415.01 119.625 415.045 119.405 415.045ZM121.885 412.805V414.145C121.885 414.238 121.906 414.307 121.95 414.35C121.996 414.39 122.073 414.41 122.18 414.41H122.505V415H122.065C121.475 415 121.18 414.713 121.18 414.14V412.805H120.85V412.23H121.18V411.545H121.885V412.23H122.505V412.805H121.885ZM124.238 415.045C123.971 415.045 123.731 414.987 123.518 414.87C123.305 414.75 123.136 414.582 123.013 414.365C122.893 414.148 122.833 413.898 122.833 413.615C122.833 413.332 122.895 413.082 123.018 412.865C123.145 412.648 123.316 412.482 123.533 412.365C123.75 412.245 123.991 412.185 124.258 412.185C124.525 412.185 124.766 412.245 124.983 412.365C125.2 412.482 125.37 412.648 125.493 412.865C125.62 413.082 125.683 413.332 125.683 413.615C125.683 413.898 125.618 414.148 125.488 414.365C125.361 414.582 125.188 414.75 124.968 414.87C124.751 414.987 124.508 415.045 124.238 415.045ZM124.238 414.435C124.365 414.435 124.483 414.405 124.593 414.345C124.706 414.282 124.796 414.188 124.863 414.065C124.93 413.942 124.963 413.792 124.963 413.615C124.963 413.352 124.893 413.15 124.753 413.01C124.616 412.867 124.448 412.795 124.248 412.795C124.048 412.795 123.88 412.867 123.743 413.01C123.61 413.15 123.543 413.352 123.543 413.615C123.543 413.878 123.608 414.082 123.738 414.225C123.871 414.365 124.038 414.435 124.238 414.435ZM126.897 412.66C126.987 412.513 127.103 412.398 127.247 412.315C127.393 412.232 127.56 412.19 127.747 412.19V412.925H127.562C127.342 412.925 127.175 412.977 127.062 413.08C126.952 413.183 126.897 413.363 126.897 413.62V415H126.197V412.23H126.897V412.66ZM130.868 412.23L129.153 416.31H128.408L129.008 414.93L127.898 412.23H128.683L129.398 414.165L130.123 412.23H130.868ZM132.305 415.045C132.079 415.045 131.875 415.005 131.695 414.925C131.515 414.842 131.372 414.73 131.265 414.59C131.162 414.45 131.105 414.295 131.095 414.125H131.8C131.814 414.232 131.865 414.32 131.955 414.39C132.049 414.46 132.164 414.495 132.3 414.495C132.434 414.495 132.537 414.468 132.61 414.415C132.687 414.362 132.725 414.293 132.725 414.21C132.725 414.12 132.679 414.053 132.585 414.01C132.495 413.963 132.35 413.913 132.15 413.86C131.944 413.81 131.774 413.758 131.64 413.705C131.51 413.652 131.397 413.57 131.3 413.46C131.207 413.35 131.16 413.202 131.16 413.015C131.16 412.862 131.204 412.722 131.29 412.595C131.38 412.468 131.507 412.368 131.67 412.295C131.837 412.222 132.032 412.185 132.255 412.185C132.585 412.185 132.849 412.268 133.045 412.435C133.242 412.598 133.35 412.82 133.37 413.1H132.7C132.69 412.99 132.644 412.903 132.56 412.84C132.48 412.773 132.372 412.74 132.235 412.74C132.109 412.74 132.01 412.763 131.94 412.81C131.874 412.857 131.84 412.922 131.84 413.005C131.84 413.098 131.887 413.17 131.98 413.22C132.074 413.267 132.219 413.315 132.415 413.365C132.615 413.415 132.78 413.467 132.91 413.52C133.04 413.573 133.152 413.657 133.245 413.77C133.342 413.88 133.392 414.027 133.395 414.21C133.395 414.37 133.35 414.513 133.26 414.64C133.174 414.767 133.047 414.867 132.88 414.94C132.717 415.01 132.525 415.045 132.305 415.045ZM136.545 413.555C136.545 413.655 136.538 413.745 136.525 413.825H134.5C134.517 414.025 134.587 414.182 134.71 414.295C134.833 414.408 134.985 414.465 135.165 414.465C135.425 414.465 135.61 414.353 135.72 414.13H136.475C136.395 414.397 136.242 414.617 136.015 414.79C135.788 414.96 135.51 415.045 135.18 415.045C134.913 415.045 134.673 414.987 134.46 414.87C134.25 414.75 134.085 414.582 133.965 414.365C133.848 414.148 133.79 413.898 133.79 413.615C133.79 413.328 133.848 413.077 133.965 412.86C134.082 412.643 134.245 412.477 134.455 412.36C134.665 412.243 134.907 412.185 135.18 412.185C135.443 412.185 135.678 412.242 135.885 412.355C136.095 412.468 136.257 412.63 136.37 412.84C136.487 413.047 136.545 413.285 136.545 413.555ZM135.82 413.355C135.817 413.175 135.752 413.032 135.625 412.925C135.498 412.815 135.343 412.76 135.16 412.76C134.987 412.76 134.84 412.813 134.72 412.92C134.603 413.023 134.532 413.168 134.505 413.355H135.82ZM137.871 412.805V414.145C137.871 414.238 137.893 414.307 137.936 414.35C137.983 414.39 138.059 414.41 138.166 414.41H138.491V415H138.051C137.461 415 137.166 414.713 137.166 414.14V412.805H136.836V412.23H137.166V411.545H137.871V412.23H138.491V412.805H137.871ZM139.304 415.035C139.178 415.035 139.073 414.997 138.989 414.92C138.909 414.84 138.869 414.742 138.869 414.625C138.869 414.508 138.909 414.412 138.989 414.335C139.073 414.255 139.178 414.215 139.304 414.215C139.428 414.215 139.529 414.255 139.609 414.335C139.689 414.412 139.729 414.508 139.729 414.625C139.729 414.742 139.689 414.84 139.609 414.92C139.529 414.997 139.428 415.035 139.304 415.035ZM140.113 413.615C140.113 413.328 140.172 413.078 140.288 412.865C140.405 412.648 140.567 412.482 140.773 412.365C140.98 412.245 141.217 412.185 141.483 412.185C141.827 412.185 142.11 412.272 142.333 412.445C142.56 412.615 142.712 412.855 142.788 413.165H142.033C141.993 413.045 141.925 412.952 141.828 412.885C141.735 412.815 141.618 412.78 141.478 412.78C141.278 412.78 141.12 412.853 141.003 413C140.887 413.143 140.828 413.348 140.828 413.615C140.828 413.878 140.887 414.083 141.003 414.23C141.12 414.373 141.278 414.445 141.478 414.445C141.762 414.445 141.947 414.318 142.033 414.065H142.788C142.712 414.365 142.56 414.603 142.333 414.78C142.107 414.957 141.823 415.045 141.483 415.045C141.217 415.045 140.98 414.987 140.773 414.87C140.567 414.75 140.405 414.583 140.288 414.37C140.172 414.153 140.113 413.902 140.113 413.615ZM144.531 415.045C144.264 415.045 144.024 414.987 143.811 414.87C143.598 414.75 143.429 414.582 143.306 414.365C143.186 414.148 143.126 413.898 143.126 413.615C143.126 413.332 143.188 413.082 143.311 412.865C143.438 412.648 143.609 412.482 143.826 412.365C144.043 412.245 144.284 412.185 144.551 412.185C144.818 412.185 145.059 412.245 145.276 412.365C145.493 412.482 145.663 412.648 145.786 412.865C145.913 413.082 145.976 413.332 145.976 413.615C145.976 413.898 145.911 414.148 145.781 414.365C145.654 414.582 145.481 414.75 145.261 414.87C145.044 414.987 144.801 415.045 144.531 415.045ZM144.531 414.435C144.658 414.435 144.776 414.405 144.886 414.345C144.999 414.282 145.089 414.188 145.156 414.065C145.223 413.942 145.256 413.792 145.256 413.615C145.256 413.352 145.186 413.15 145.046 413.01C144.909 412.867 144.741 412.795 144.541 412.795C144.341 412.795 144.173 412.867 144.036 413.01C143.903 413.15 143.836 413.352 143.836 413.615C143.836 413.878 143.901 414.082 144.031 414.225C144.164 414.365 144.331 414.435 144.531 414.435ZM149.93 412.19C150.27 412.19 150.543 412.295 150.75 412.505C150.96 412.712 151.065 413.002 151.065 413.375V415H150.365V413.47C150.365 413.253 150.31 413.088 150.2 412.975C150.09 412.858 149.94 412.8 149.75 412.8C149.56 412.8 149.408 412.858 149.295 412.975C149.185 413.088 149.13 413.253 149.13 413.47V415H148.43V413.47C148.43 413.253 148.375 413.088 148.265 412.975C148.155 412.858 148.005 412.8 147.815 412.8C147.621 412.8 147.468 412.858 147.355 412.975C147.245 413.088 147.19 413.253 147.19 413.47V415H146.49V412.23H147.19V412.565C147.28 412.448 147.395 412.357 147.535 412.29C147.678 412.223 147.835 412.19 148.005 412.19C148.221 412.19 148.415 412.237 148.585 412.33C148.755 412.42 148.886 412.55 148.98 412.72C149.07 412.56 149.2 412.432 149.37 412.335C149.543 412.238 149.73 412.19 149.93 412.19Z" fill="#263238"/>
</svg>
