<svg width="524" height="295" viewBox="0 0 524 295" fill="none" xmlns="http://www.w3.org/2000/svg">
<rect y="10.535" width="518.477" height="283.751" rx="141.875" transform="rotate(-1.13706 0 10.535)" fill="#081544"/>
<rect x="165.015" y="41.5784" width="285.079" height="195.202" rx="9.12815" transform="rotate(-3 165.015 41.5784)" fill="white" stroke="#503373" stroke-width="1.40433"/>
<rect x="176.823" y="52.2097" width="264.014" height="174.137" rx="9.12815" transform="rotate(-3 176.823 52.2097)" fill="#F3EEFE" stroke="#503373" stroke-width="1.40433"/>
<path d="M151.727 246.182L150.094 237.83L483.654 220.349L482.903 228.826L151.727 246.182Z" fill="white" stroke="#503373" stroke-width="1.40433"/>
<path d="M356.88 227.696L274.138 232.032L276.401 236.133L354.036 232.064L356.88 227.696Z" fill="#503373"/>
<path d="M356.806 226.294L274.064 230.63L276.71 235.413L353.557 231.386L356.806 226.294Z" fill="#0A1014"/>
<path d="M159.05 252.83L157.562 245.876L479.874 228.985L479.121 236.055L159.05 252.83Z" fill="#9772E1" stroke="#503373" stroke-width="1.40433"/>
<rect x="401.205" y="120.287" width="2.87249" height="2.55333" rx="1.27666" transform="rotate(-3 401.205 120.287)" fill="#CDB1EF"/>
<path d="M228.352 133.501C230.254 133.401 232.039 132.55 233.313 131.135C234.588 129.72 235.247 127.856 235.148 125.954C235.048 124.052 234.197 122.267 232.782 120.993C231.366 119.719 229.503 119.059 227.601 119.158L227.976 126.33L228.352 133.501Z" fill="#CDB1EF"/>
<path fill-rule="evenodd" clip-rule="evenodd" d="M242.188 153.55L242.188 153.55L241.763 145.45C242.286 145.51 242.821 145.527 243.363 145.499C248.644 145.222 252.701 140.717 252.424 135.436C252.147 130.155 247.642 126.098 242.361 126.375C241.818 126.403 241.288 126.476 240.775 126.591L240.35 118.49L240.35 118.49L242.741 118.365C252.422 117.857 260.682 125.295 261.19 134.976C261.697 144.658 254.26 152.918 244.578 153.425L242.188 153.55Z" fill="#CDB1EF"/>
<circle cx="242.711" cy="136.104" r="3.98957" transform="rotate(-3 242.711 136.104)" fill="#CDB1EF"/>
<path fill-rule="evenodd" clip-rule="evenodd" d="M247.034 123.638C246.44 123.09 245.835 122.53 245.809 122.039C245.694 119.839 241.511 118.429 240.191 118.499C238.87 118.568 237.894 120.408 238.009 122.608C238.124 124.808 239.296 126.695 240.616 126.626C240.619 126.626 240.621 126.626 240.623 126.625C241.184 126.491 241.765 126.406 242.361 126.375C242.8 126.352 243.233 126.359 243.659 126.394C245.583 126.268 247.174 126.136 247.914 125.604C248.615 125.1 247.835 124.379 247.034 123.638Z" fill="#CDB1EF"/>
<path fill-rule="evenodd" clip-rule="evenodd" d="M241.393 145.4C240.158 145.926 239.321 147.654 239.42 149.54C239.54 151.829 240.993 153.613 242.665 153.525C244.338 153.437 250.964 150.271 250.844 147.983C250.757 146.316 249.625 145.362 246.702 145.164C246.086 145.184 245.611 145.201 245.236 145.215C244.634 145.368 244.007 145.465 243.363 145.499C242.691 145.534 242.032 145.499 241.393 145.4Z" fill="#CDB1EF"/>
<path fill-rule="evenodd" clip-rule="evenodd" d="M236.107 129.151C236.104 129.002 236.099 128.852 236.091 128.701C235.872 124.52 233.91 121.224 231.71 121.34C229.51 121.455 228.091 128.523 228.31 132.704C228.52 136.703 230.152 136.611 232.219 136.495C232.313 136.49 232.408 136.484 232.503 136.479C232.777 136.465 233.041 136.399 233.294 136.285C233.193 133.516 234.281 130.971 236.107 129.151Z" fill="#CDB1EF"/>
<path d="M273.469 127.702C274.493 127.648 275.414 127.793 276.231 128.135C277.048 128.477 277.745 128.983 278.322 129.652C278.913 130.306 279.368 131.081 279.686 131.978C280.017 132.859 280.21 133.812 280.264 134.837C280.336 136.217 280.153 137.49 279.715 138.654C279.275 139.804 278.597 140.739 277.678 141.458C276.774 142.176 275.632 142.571 274.252 142.643L269.15 142.911C268.78 142.93 268.461 142.825 268.192 142.597C267.937 142.353 267.799 142.047 267.78 141.677L267.133 129.339C267.114 128.97 267.219 128.657 267.448 128.403C267.691 128.133 267.997 127.989 268.367 127.969L273.469 127.702ZM273.91 140.2C274.806 140.153 275.527 139.887 276.072 139.401C276.617 138.902 276.997 138.269 277.214 137.501C277.444 136.718 277.536 135.879 277.489 134.982C277.454 134.314 277.342 133.684 277.154 133.095C276.98 132.491 276.724 131.969 276.387 131.53C276.05 131.077 275.632 130.728 275.134 130.483C274.636 130.238 274.053 130.133 273.384 130.168L269.649 130.363L269.852 130.16L270.4 140.619L270.26 140.391L273.91 140.2ZM284.596 140.795C284.616 141.165 284.511 141.485 284.283 141.754C284.053 142.008 283.754 142.145 283.384 142.165C283.014 142.184 282.702 142.079 282.447 141.85C282.192 141.606 282.054 141.3 282.035 140.93L281.573 132.114C281.554 131.744 281.659 131.432 281.888 131.177C282.116 130.909 282.415 130.765 282.785 130.745C283.155 130.726 283.468 130.838 283.723 131.081C283.978 131.31 284.115 131.61 284.134 131.98L284.596 140.795ZM282.691 129.359C282.208 129.384 281.862 129.324 281.655 129.178C281.447 129.032 281.333 128.759 281.312 128.361L281.291 127.955C281.269 127.543 281.361 127.26 281.567 127.106C281.787 126.938 282.124 126.842 282.58 126.818C283.078 126.792 283.43 126.852 283.638 126.998C283.845 127.144 283.959 127.416 283.98 127.814L284.001 128.22C284.023 128.633 283.931 128.923 283.726 129.091C283.52 129.244 283.175 129.334 282.691 129.359ZM287.937 141.926C287.567 141.945 287.255 141.84 287 141.611C286.745 141.368 286.608 141.061 286.588 140.691L286.126 131.876C286.107 131.506 286.212 131.193 286.441 130.939C286.67 130.67 286.969 130.526 287.339 130.507C287.709 130.487 288.021 130.599 288.277 130.843C288.531 131.072 288.668 131.371 288.688 131.741L288.793 133.748L288.569 132.326C288.707 131.976 288.891 131.667 289.119 131.398C289.361 131.114 289.634 130.879 289.938 130.691C290.242 130.49 290.569 130.337 290.92 130.233C291.272 130.129 291.625 130.068 291.981 130.049C292.408 130.027 292.77 130.129 293.067 130.356C293.379 130.582 293.543 130.859 293.56 131.186C293.585 131.656 293.482 132.004 293.251 132.23C293.019 132.442 292.761 132.555 292.477 132.57C292.206 132.584 291.955 132.548 291.722 132.46C291.503 132.372 291.252 132.335 290.967 132.35C290.711 132.363 290.451 132.441 290.187 132.583C289.937 132.71 289.705 132.908 289.491 133.176C289.291 133.444 289.13 133.773 289.007 134.165C288.899 134.541 288.858 134.986 288.885 135.498L289.15 140.557C289.169 140.927 289.065 141.246 288.836 141.515C288.607 141.77 288.307 141.907 287.937 141.926ZM300.182 141.498C298.972 141.562 297.906 141.368 296.984 140.917C296.075 140.451 295.355 139.796 294.826 138.954C294.311 138.11 294.025 137.141 293.967 136.045C293.9 134.764 294.099 133.662 294.565 132.739C295.043 131.801 295.69 131.068 296.504 130.54C297.318 130.012 298.195 129.724 299.134 129.674C299.86 129.636 300.551 129.75 301.207 130.015C301.877 130.28 302.475 130.662 303.001 131.163C303.525 131.649 303.948 132.226 304.268 132.894C304.603 133.561 304.791 134.279 304.831 135.048C304.834 135.39 304.714 135.674 304.469 135.901C304.224 136.128 303.931 136.251 303.589 136.269L295.435 136.696L294.683 134.595L302.517 134.184L302.07 134.636L302.039 134.06C301.989 133.648 301.82 133.286 301.533 132.973C301.26 132.659 300.919 132.42 300.511 132.256C300.116 132.077 299.698 131.999 299.257 132.022C298.83 132.045 298.435 132.122 298.071 132.256C297.707 132.389 297.397 132.598 297.141 132.882C296.884 133.167 296.69 133.541 296.557 134.004C296.425 134.468 296.376 135.048 296.413 135.746C296.453 136.514 296.644 137.16 296.986 137.685C297.34 138.194 297.774 138.578 298.287 138.837C298.814 139.08 299.362 139.187 299.931 139.157C300.457 139.129 300.875 139.065 301.183 138.963C301.492 138.861 301.736 138.749 301.915 138.625C302.107 138.487 302.28 138.37 302.432 138.277C302.681 138.135 302.92 138.059 303.147 138.047C303.46 138.03 303.722 138.124 303.932 138.327C304.157 138.529 304.277 138.772 304.292 139.057C304.312 139.441 304.131 139.8 303.749 140.134C303.395 140.467 302.891 140.771 302.234 141.048C301.578 141.311 300.893 141.461 300.182 141.498ZM306.282 129.728L311.341 129.463C311.683 129.445 311.973 129.544 312.213 129.759C312.452 129.975 312.581 130.254 312.599 130.595C312.616 130.923 312.517 131.206 312.301 131.446C312.085 131.671 311.806 131.793 311.464 131.811L306.405 132.076C306.064 132.094 305.773 131.995 305.534 131.779C305.294 131.563 305.165 131.285 305.147 130.943C305.13 130.616 305.23 130.339 305.446 130.114C305.662 129.874 305.941 129.746 306.282 129.728ZM308.426 126.94C308.796 126.921 309.102 127.033 309.343 127.277C309.598 127.506 309.735 127.806 309.754 128.176L310.252 137.674C310.262 137.874 310.306 138.035 310.384 138.16C310.476 138.283 310.588 138.37 310.719 138.42C310.864 138.47 311.015 138.491 311.172 138.482C311.342 138.473 311.497 138.437 311.637 138.372C311.775 138.294 311.937 138.25 312.122 138.24C312.321 138.229 312.504 138.313 312.67 138.489C312.851 138.665 312.949 138.917 312.967 139.244C312.987 139.643 312.784 139.982 312.356 140.261C311.943 140.539 311.487 140.692 310.989 140.718C310.69 140.734 310.355 140.73 309.983 140.706C309.624 140.668 309.276 140.565 308.939 140.397C308.615 140.214 308.337 139.929 308.102 139.542C307.868 139.155 307.732 138.613 307.696 137.915L307.193 128.31C307.173 127.94 307.278 127.628 307.507 127.373C307.75 127.104 308.056 126.959 308.426 126.94ZM325.51 134.242C325.571 135.409 325.362 136.454 324.882 137.379C324.416 138.288 323.755 139.014 322.899 139.559C322.057 140.102 321.096 140.402 320.014 140.459C318.933 140.516 317.938 140.318 317.029 139.866C316.135 139.414 315.402 138.76 314.829 137.905C314.27 137.036 313.96 136.018 313.898 134.851C313.837 133.684 314.04 132.646 314.506 131.737C314.985 130.813 315.646 130.079 316.488 129.535C317.343 128.977 318.312 128.669 319.393 128.613C320.475 128.556 321.463 128.761 322.358 129.228C323.266 129.68 324 130.34 324.559 131.21C325.132 132.065 325.449 133.075 325.51 134.242ZM322.949 134.376C322.911 133.651 322.728 133.032 322.402 132.522C322.089 131.996 321.676 131.596 321.162 131.324C320.663 131.05 320.114 130.929 319.516 130.961C318.919 130.992 318.379 131.17 317.896 131.495C317.428 131.819 317.059 132.259 316.788 132.816C316.531 133.357 316.422 133.991 316.46 134.716C316.497 135.428 316.672 136.047 316.985 136.572C317.312 137.083 317.725 137.475 318.224 137.749C318.738 138.022 319.293 138.142 319.891 138.111C320.489 138.08 321.022 137.902 321.49 137.578C321.972 137.253 322.342 136.82 322.599 136.278C322.869 135.722 322.986 135.088 322.949 134.376ZM328.691 139.79C328.321 139.81 328.008 139.705 327.754 139.475C327.499 139.232 327.361 138.925 327.342 138.555L326.88 129.74C326.86 129.37 326.965 129.058 327.195 128.803C327.423 128.534 327.722 128.39 328.092 128.371C328.462 128.351 328.775 128.463 329.03 128.707C329.285 128.936 329.422 129.236 329.441 129.606L329.546 131.612L329.322 130.19C329.461 129.84 329.644 129.531 329.873 129.262C330.115 128.978 330.388 128.743 330.692 128.556C330.995 128.354 331.322 128.201 331.674 128.097C332.025 127.993 332.378 127.932 332.734 127.913C333.161 127.891 333.523 127.993 333.82 128.22C334.132 128.447 334.296 128.723 334.313 129.051C334.338 129.52 334.235 129.868 334.004 130.094C333.773 130.306 333.515 130.42 333.23 130.434C332.96 130.449 332.708 130.412 332.475 130.324C332.257 130.236 332.005 130.199 331.72 130.214C331.464 130.227 331.204 130.305 330.941 130.447C330.691 130.575 330.458 130.772 330.244 131.04C330.044 131.308 329.883 131.637 329.761 132.029C329.652 132.406 329.611 132.85 329.638 133.362L329.903 138.421C329.923 138.791 329.818 139.11 329.59 139.379C329.36 139.634 329.061 139.771 328.691 139.79ZM338.368 137.977C338.388 138.347 338.283 138.667 338.055 138.936C337.825 139.19 337.526 139.327 337.156 139.347C336.786 139.366 336.474 139.261 336.219 139.032C335.964 138.788 335.826 138.482 335.807 138.112L335.345 129.296C335.326 128.926 335.431 128.614 335.66 128.359C335.888 128.091 336.187 127.946 336.557 127.927C336.927 127.908 337.24 128.02 337.495 128.263C337.75 128.492 337.887 128.792 337.906 129.162L338.368 137.977ZM336.463 126.541C335.98 126.566 335.634 126.506 335.427 126.36C335.219 126.214 335.105 125.941 335.084 125.543L335.063 125.137C335.041 124.725 335.133 124.442 335.339 124.288C335.559 124.12 335.896 124.024 336.352 124C336.85 123.974 337.202 124.034 337.41 124.18C337.617 124.326 337.731 124.598 337.752 124.996L337.774 125.402C337.795 125.815 337.703 126.105 337.498 126.273C337.292 126.426 336.947 126.515 336.463 126.541ZM349.168 127.052C349.538 127.033 349.85 127.138 350.105 127.367C350.359 127.596 350.497 127.903 350.517 128.287L350.99 137.316C351.009 137.686 350.905 138.005 350.676 138.274C350.447 138.529 350.148 138.666 349.778 138.685C349.408 138.704 349.095 138.6 348.841 138.37C348.585 138.127 348.448 137.82 348.429 137.45L348.374 136.404L348.854 136.572C348.863 136.757 348.776 136.99 348.591 137.27C348.405 137.537 348.148 137.807 347.82 138.081C347.492 138.355 347.098 138.597 346.638 138.807C346.191 139.001 345.698 139.113 345.157 139.141C344.175 139.193 343.273 138.99 342.45 138.534C341.626 138.063 340.956 137.399 340.44 136.542C339.938 135.669 339.657 134.657 339.596 133.504C339.535 132.337 339.709 131.301 340.118 130.394C340.541 129.473 341.13 128.743 341.887 128.204C342.643 127.651 343.497 127.349 344.451 127.299C345.063 127.267 345.63 127.33 346.152 127.488C346.674 127.647 347.127 127.858 347.512 128.124C347.911 128.388 348.218 128.664 348.433 128.953C348.661 129.226 348.781 129.463 348.791 129.662L348.037 129.979L347.956 128.421C347.936 128.051 348.041 127.739 348.27 127.484C348.499 127.216 348.798 127.072 349.168 127.052ZM345.354 136.777C345.98 136.744 346.52 136.558 346.973 136.221C347.426 135.883 347.767 135.437 347.995 134.883C348.237 134.328 348.34 133.716 348.305 133.048C348.269 132.364 348.102 131.76 347.803 131.233C347.519 130.706 347.134 130.298 346.648 130.009C346.162 129.721 345.606 129.593 344.979 129.626C344.368 129.658 343.835 129.843 343.382 130.181C342.929 130.518 342.581 130.965 342.339 131.519C342.111 132.074 342.015 132.692 342.051 133.375C342.086 134.044 342.246 134.642 342.53 135.169C342.829 135.696 343.221 136.104 343.707 136.392C344.193 136.68 344.742 136.809 345.354 136.777ZM367.055 121.941C367.424 121.922 367.737 122.027 367.991 122.256C368.246 122.485 368.383 122.792 368.403 123.176L369.095 136.367C369.114 136.737 369.01 137.056 368.781 137.325C368.552 137.58 368.252 137.717 367.882 137.736C367.512 137.756 367.2 137.651 366.945 137.421C366.69 137.178 366.553 136.871 366.533 136.501L366.479 135.455L366.958 135.623C366.968 135.808 366.88 136.041 366.695 136.322C366.509 136.588 366.252 136.858 365.924 137.133C365.596 137.407 365.202 137.648 364.742 137.858C364.296 138.053 363.802 138.164 363.262 138.192C362.28 138.244 361.377 138.041 360.554 137.585C359.731 137.115 359.061 136.451 358.545 135.593C358.043 134.72 357.761 133.708 357.701 132.555C357.64 131.388 357.814 130.352 358.223 129.446C358.646 128.525 359.235 127.794 359.992 127.255C360.747 126.702 361.602 126.401 362.555 126.351C363.167 126.318 363.734 126.382 364.256 126.54C364.778 126.698 365.232 126.909 365.617 127.175C366.016 127.439 366.323 127.716 366.538 128.004C366.766 128.277 366.885 128.514 366.896 128.713L366.142 129.031L365.842 123.31C365.823 122.94 365.928 122.628 366.157 122.373C366.385 122.105 366.685 121.961 367.055 121.941ZM363.459 135.828C364.085 135.795 364.625 135.61 365.078 135.272C365.531 134.934 365.871 134.488 366.099 133.934C366.341 133.379 366.445 132.767 366.41 132.099C366.374 131.416 366.207 130.811 365.908 130.284C365.623 129.757 365.238 129.349 364.752 129.061C364.266 128.772 363.71 128.644 363.084 128.677C362.472 128.709 361.94 128.894 361.486 129.232C361.033 129.569 360.686 130.016 360.444 130.571C360.216 131.125 360.12 131.743 360.156 132.426C360.191 133.095 360.35 133.693 360.635 134.221C360.934 134.747 361.326 135.155 361.812 135.443C362.298 135.732 362.847 135.86 363.459 135.828ZM376.686 137.489C375.476 137.552 374.41 137.358 373.488 136.907C372.579 136.441 371.86 135.787 371.33 134.944C370.815 134.101 370.529 133.131 370.471 132.036C370.404 130.755 370.603 129.653 371.069 128.73C371.548 127.791 372.194 127.058 373.008 126.53C373.822 126.003 374.699 125.714 375.638 125.665C376.364 125.627 377.055 125.74 377.711 126.006C378.381 126.27 378.979 126.653 379.505 127.153C380.03 127.639 380.452 128.216 380.773 128.885C381.107 129.552 381.295 130.27 381.335 131.038C381.339 131.381 381.218 131.665 380.973 131.892C380.728 132.119 380.435 132.241 380.093 132.259L371.94 132.686L371.187 130.586L379.021 130.175L378.574 130.626L378.544 130.05C378.493 129.639 378.325 129.277 378.037 128.964C377.764 128.65 377.423 128.411 377.015 128.247C376.62 128.068 376.202 127.99 375.761 128.013C375.334 128.035 374.939 128.113 374.575 128.246C374.211 128.379 373.901 128.588 373.645 128.873C373.388 129.157 373.194 129.531 373.061 129.995C372.929 130.459 372.881 131.039 372.917 131.736C372.957 132.505 373.148 133.151 373.49 133.675C373.845 134.185 374.278 134.569 374.791 134.827C375.318 135.071 375.866 135.177 376.435 135.148C376.961 135.12 377.379 135.055 377.688 134.954C377.996 134.852 378.24 134.739 378.419 134.616C378.611 134.477 378.784 134.361 378.936 134.267C379.185 134.126 379.424 134.049 379.651 134.037C379.964 134.021 380.226 134.114 380.437 134.317C380.661 134.519 380.781 134.763 380.796 135.048C380.816 135.432 380.635 135.791 380.253 136.125C379.9 136.457 379.395 136.762 378.739 137.039C378.082 137.302 377.397 137.452 376.686 137.489ZM393.86 136.375C393.461 136.396 393.128 136.292 392.859 136.063C392.589 135.821 392.445 135.514 392.426 135.144L391.777 122.764L394.552 122.619L395.2 134.999C395.22 135.369 395.101 135.689 394.844 135.959C394.601 136.215 394.272 136.353 393.86 136.375ZM388.488 124.135C388.118 124.155 387.799 124.057 387.531 123.843C387.277 123.628 387.141 123.336 387.121 122.966C387.102 122.596 387.208 122.298 387.438 122.071C387.683 121.83 387.99 121.7 388.36 121.681L397.837 121.184C398.207 121.165 398.519 121.262 398.772 121.477C399.04 121.692 399.184 121.984 399.204 122.354C399.223 122.724 399.111 123.029 398.866 123.27C398.636 123.497 398.335 123.619 397.965 123.639L388.488 124.135Z" fill="#CDB1EF"/>
<rect x="401.389" y="123.793" width="2.87249" height="11.8091" rx="1.43625" transform="rotate(-3 401.389 123.793)" fill="#CDB1EF"/>
<rect x="36.0014" y="156.232" width="114.675" height="74.608" rx="4.8357" transform="rotate(6 36.0014 156.232)" fill="#9772E1" stroke="#503373" stroke-width="1.38163"/>
<rect x="36.2789" y="153.592" width="114.675" height="74.608" rx="4.8357" transform="rotate(6 36.2789 153.592)" fill="white" stroke="#503373" stroke-width="1.38163"/>
<rect x="40.1235" y="156.665" width="106.385" height="69.0815" rx="4.8357" transform="rotate(6 40.1235 156.665)" fill="#F3EEFE" stroke="#503373" stroke-width="1.38163"/>
<rect x="122.739" y="197.344" width="1.07903" height="0.959138" rx="0.479569" transform="rotate(6 122.739 197.344)" fill="#CDB1EF"/>
<path d="M57.8309 192.09C58.5424 192.164 59.2545 191.953 59.8105 191.503C60.3665 191.053 60.7209 190.4 60.7957 189.689C60.8704 188.977 60.6595 188.265 60.2093 187.709C59.759 187.153 59.1064 186.799 58.3948 186.724L58.1129 189.407L57.8309 192.09Z" fill="#CDB1EF"/>
<path fill-rule="evenodd" clip-rule="evenodd" d="M61.7858 200.341L61.7853 200.341L62.1038 197.311C62.2943 197.364 62.4917 197.402 62.6948 197.423C64.6704 197.631 66.4402 196.197 66.6479 194.222C66.8555 192.246 65.4223 190.476 63.4468 190.269C63.2436 190.247 63.0426 190.243 62.8453 190.256L63.1638 187.225L63.1643 187.225L64.0586 187.319C67.6804 187.7 70.3079 190.945 69.9272 194.566C69.5466 198.188 66.3019 200.816 62.68 200.435L61.7858 200.341Z" fill="#CDB1EF"/>
<circle cx="63.0058" cy="193.899" r="1.49865" transform="rotate(6 63.0058 193.899)" fill="#CDB1EF"/>
<path fill-rule="evenodd" clip-rule="evenodd" d="M65.342 189.528C65.1541 189.29 64.9624 189.047 64.9817 188.863C65.0682 188.04 63.599 187.271 63.1051 187.219C62.6112 187.167 62.1407 187.792 62.0542 188.616C61.9676 189.439 62.2916 190.208 62.7855 190.26C62.7863 190.26 62.787 190.26 62.7877 190.26C63.0037 190.243 63.2243 190.245 63.4475 190.269C63.6119 190.286 63.7724 190.314 63.9286 190.352C64.6495 190.418 65.2475 190.463 65.553 190.309C65.8428 190.164 65.5958 189.85 65.342 189.528Z" fill="#CDB1EF"/>
<path fill-rule="evenodd" clip-rule="evenodd" d="M61.9705 197.271C61.4814 197.393 61.0693 197.985 60.9952 198.691C60.9052 199.547 61.3394 200.294 61.965 200.36C62.5906 200.426 65.2353 199.64 65.3252 198.784C65.3908 198.161 65.0268 197.74 63.9538 197.495C63.7243 197.466 63.547 197.445 63.4072 197.428C63.1747 197.449 62.9367 197.448 62.6957 197.423C62.4444 197.397 62.202 197.345 61.9705 197.271Z" fill="#CDB1EF"/>
<path fill-rule="evenodd" clip-rule="evenodd" d="M60.9642 190.931C60.9718 190.876 60.9786 190.82 60.9845 190.763C61.1489 189.199 60.6149 187.861 59.7917 187.775C58.9686 187.688 58.027 190.228 57.8626 191.792C57.7054 193.288 58.3163 193.349 59.0902 193.428C59.1253 193.431 59.1607 193.435 59.1964 193.439C59.2988 193.449 59.4008 193.44 59.5013 193.413C59.6263 192.38 60.1797 191.499 60.9642 190.931Z" fill="#CDB1EF"/>
<path d="M74.9121 192.579C75.2954 192.619 75.6285 192.727 75.9115 192.902C76.1945 193.077 76.4234 193.306 76.5983 193.588C76.7791 193.865 76.9021 194.179 76.9674 194.531C77.0387 194.877 77.0541 195.242 77.0138 195.625C76.9596 196.142 76.8169 196.603 76.5858 197.009C76.3553 197.41 76.0486 197.717 75.6656 197.93C75.288 198.143 74.841 198.223 74.3246 198.168L72.4162 197.968C72.2778 197.953 72.1654 197.896 72.0791 197.795C71.9987 197.69 71.9657 197.568 71.9803 197.43L72.4654 192.814C72.4799 192.676 72.5372 192.566 72.6372 192.485C72.7431 192.399 72.8653 192.364 73.0037 192.378L74.9121 192.579ZM74.3413 197.242C74.6766 197.277 74.9597 197.221 75.1906 197.073C75.422 196.919 75.6004 196.707 75.7259 196.435C75.8572 196.158 75.9405 195.852 75.9758 195.516C76.0021 195.266 75.9977 195.026 75.9627 194.796C75.9335 194.562 75.8693 194.353 75.7701 194.171C75.6714 193.983 75.5369 193.829 75.3666 193.709C75.1962 193.588 74.9859 193.515 74.7357 193.489L73.3383 193.342L73.4257 193.278L73.0145 197.191L72.9758 197.098L74.3413 197.242ZM78.2712 198.091C78.2567 198.229 78.1991 198.342 78.0986 198.428C77.9986 198.509 77.8793 198.542 77.7409 198.528C77.6025 198.513 77.4928 198.456 77.4118 198.356C77.3314 198.25 77.2985 198.128 77.313 197.99L77.6596 194.692C77.6742 194.554 77.7315 194.444 77.8315 194.363C77.932 194.277 78.0515 194.241 78.1899 194.256C78.3283 194.27 78.4378 194.33 78.5182 194.435C78.5992 194.535 78.6324 194.655 78.6178 194.793L78.2712 198.091ZM78.2365 193.736C78.0555 193.717 77.9308 193.674 77.8625 193.608C77.7941 193.541 77.7677 193.433 77.7834 193.284L77.7993 193.133C77.8156 192.978 77.8664 192.879 77.9519 192.834C78.0432 192.784 78.174 192.768 78.3444 192.786C78.5307 192.806 78.658 192.849 78.7264 192.915C78.7948 192.982 78.8211 193.089 78.8055 193.238L78.7895 193.39C78.7733 193.545 78.7222 193.647 78.6362 193.697C78.5507 193.742 78.4175 193.755 78.2365 193.736ZM79.4444 198.707C79.306 198.692 79.1963 198.635 79.1153 198.535C79.0348 198.429 79.0019 198.308 79.0165 198.169L79.3631 194.871C79.3776 194.733 79.4349 194.623 79.5349 194.542C79.6355 194.456 79.755 194.42 79.8934 194.435C80.0318 194.449 80.1412 194.509 80.2216 194.614C80.3026 194.714 80.3358 194.834 80.3213 194.972L80.2424 195.723L80.2427 195.182C80.3147 195.06 80.401 194.956 80.5015 194.87C80.608 194.779 80.7231 194.707 80.847 194.656C80.9713 194.599 81.1018 194.562 81.2382 194.544C81.3746 194.526 81.5094 194.524 81.6425 194.538C81.8022 194.554 81.9305 194.614 82.0275 194.715C82.1297 194.818 82.1745 194.93 82.1616 195.052C82.1431 195.228 82.0844 195.351 81.9856 195.421C81.8872 195.486 81.7848 195.513 81.6784 195.502C81.5772 195.492 81.486 195.463 81.4048 195.417C81.3288 195.371 81.2376 195.343 81.1312 195.332C81.0353 195.322 80.9343 195.335 80.8282 195.372C80.7279 195.405 80.6301 195.465 80.5349 195.552C80.4449 195.639 80.3658 195.752 80.2975 195.89C80.235 196.023 80.1937 196.186 80.1736 196.377L79.9747 198.27C79.9601 198.408 79.9026 198.521 79.802 198.607C79.702 198.688 79.5828 198.721 79.4444 198.707ZM84.0124 199.267C83.56 199.22 83.1758 199.085 82.86 198.864C82.5501 198.637 82.3217 198.352 82.1749 198.009C82.0333 197.665 81.9841 197.289 82.0272 196.879C82.0775 196.4 82.2162 196.003 82.4431 195.687C82.6758 195.368 82.9588 195.134 83.2919 194.986C83.625 194.838 83.9672 194.782 84.3185 194.819C84.59 194.847 84.8397 194.93 85.0675 195.067C85.3006 195.205 85.5 195.382 85.6656 195.598C85.8317 195.81 85.9546 196.049 86.0342 196.315C86.1192 196.582 86.1465 196.86 86.1163 197.147C86.0976 197.275 86.0361 197.373 85.9319 197.443C85.8277 197.513 85.7117 197.541 85.5839 197.527L82.5337 197.207L82.378 196.383L85.3085 196.691L85.1161 196.832L85.1387 196.617C85.1443 196.461 85.103 196.317 85.0147 196.184C84.9317 196.051 84.8194 195.943 84.6776 195.858C84.5417 195.768 84.3912 195.715 84.2262 195.697C84.0665 195.681 83.9152 195.686 83.7723 195.714C83.6294 195.742 83.5021 195.802 83.3903 195.892C83.2786 195.983 83.1845 196.11 83.108 196.274C83.0315 196.438 82.9796 196.651 82.9522 196.912C82.922 197.199 82.9548 197.45 83.0506 197.665C83.1524 197.875 83.2908 198.042 83.4659 198.169C83.6469 198.29 83.8439 198.362 84.0568 198.384C84.2538 198.405 84.4125 198.405 84.533 198.386C84.6535 198.366 84.7505 198.339 84.8242 198.303C84.9038 198.263 84.9745 198.23 85.0364 198.204C85.1373 198.167 85.2303 198.152 85.3155 198.161C85.4326 198.173 85.5242 198.223 85.5903 198.311C85.6618 198.399 85.6919 198.497 85.6807 198.603C85.6656 198.747 85.5774 198.869 85.416 198.971C85.2653 199.073 85.0601 199.157 84.8004 199.221C84.5413 199.28 84.2786 199.295 84.0124 199.267ZM86.9675 195.259L88.8599 195.458C88.9877 195.471 89.0897 195.525 89.1659 195.619C89.2421 195.713 89.2735 195.824 89.2601 195.952C89.2472 196.074 89.1937 196.174 89.0996 196.25C89.006 196.321 88.8954 196.35 88.7676 196.336L86.8752 196.137C86.7474 196.124 86.6454 196.07 86.5692 195.976C86.493 195.882 86.4616 195.771 86.475 195.643C86.4879 195.521 86.5411 195.424 86.6347 195.353C86.7288 195.277 86.8397 195.245 86.9675 195.259ZM87.9268 194.351C88.0652 194.365 88.1719 194.425 88.247 194.529C88.328 194.629 88.3613 194.749 88.3467 194.887L87.9732 198.44C87.9654 198.515 87.9723 198.578 87.9939 198.628C88.0208 198.68 88.057 198.718 88.1027 198.745C88.1537 198.772 88.2085 198.788 88.267 198.794C88.3309 198.801 88.3906 198.796 88.4461 198.781C88.5021 198.76 88.5647 198.753 88.6339 198.76C88.7085 198.768 88.7714 198.81 88.8226 198.885C88.8792 198.961 88.9011 199.06 88.8882 199.182C88.8726 199.332 88.7772 199.445 88.6021 199.524C88.4323 199.603 88.2543 199.633 88.068 199.613C87.9562 199.601 87.8319 199.58 87.6952 199.55C87.5644 199.514 87.4413 199.456 87.3262 199.374C87.2169 199.287 87.1302 199.165 87.066 199.007C87.0018 198.85 86.9834 198.64 87.0108 198.38L87.3885 194.786C87.4031 194.648 87.4603 194.538 87.5603 194.457C87.6662 194.372 87.7884 194.336 87.9268 194.351ZM93.836 198.064C93.7901 198.5 93.6511 198.876 93.4189 199.19C93.1926 199.5 92.9046 199.731 92.5549 199.883C92.2106 200.035 91.8362 200.09 91.4316 200.047C91.0271 200.005 90.6695 199.873 90.3591 199.652C90.0539 199.431 89.8202 199.146 89.6579 198.795C89.5016 198.44 89.4463 198.044 89.4922 197.607C89.5381 197.171 89.6742 196.797 89.9005 196.487C90.1327 196.173 90.421 195.939 90.7653 195.787C91.1155 195.63 91.4928 195.573 91.8974 195.616C92.302 195.658 92.6566 195.792 92.9611 196.018C93.2716 196.239 93.505 196.527 93.6614 196.883C93.8237 197.233 93.8819 197.627 93.836 198.064ZM92.8778 197.963C92.9064 197.691 92.8751 197.451 92.784 197.243C92.6988 197.029 92.5689 196.857 92.3943 196.725C92.2251 196.595 92.0287 196.517 91.8051 196.494C91.5815 196.47 91.3707 196.505 91.1726 196.597C90.9799 196.69 90.817 196.831 90.6839 197.022C90.5568 197.208 90.4789 197.436 90.4504 197.708C90.4224 197.974 90.451 198.214 90.5362 198.427C90.6273 198.636 90.7575 198.806 90.9267 198.937C91.1013 199.068 91.3004 199.145 91.5239 199.169C91.7475 199.192 91.9557 199.158 92.1484 199.065C92.3465 198.973 92.5091 198.834 92.6363 198.648C92.7693 198.457 92.8498 198.229 92.8778 197.963ZM94.6901 200.309C94.5517 200.294 94.442 200.237 94.361 200.137C94.2806 200.032 94.2476 199.91 94.2622 199.772L94.6088 196.474C94.6234 196.335 94.6806 196.226 94.7806 196.145C94.8812 196.058 95.0007 196.022 95.1391 196.037C95.2775 196.052 95.3869 196.111 95.4674 196.217C95.5483 196.317 95.5816 196.436 95.567 196.574L95.4881 197.325L95.4885 196.784C95.5604 196.663 95.6467 196.559 95.7473 196.472C95.8537 196.381 95.9689 196.31 96.0927 196.258C96.2171 196.201 96.3475 196.164 96.4839 196.146C96.6204 196.128 96.7551 196.126 96.8882 196.14C97.0479 196.157 97.1763 196.216 97.2732 196.318C97.3755 196.42 97.4202 196.532 97.4073 196.655C97.3889 196.83 97.3302 196.953 97.2313 197.024C97.133 197.089 97.0306 197.116 96.9241 197.105C96.823 197.094 96.7318 197.066 96.6505 197.019C96.5746 196.974 96.4834 196.945 96.3769 196.934C96.2811 196.924 96.1801 196.938 96.0739 196.975C95.9736 197.007 95.8758 197.067 95.7806 197.154C95.6907 197.241 95.6115 197.354 95.5432 197.492C95.4807 197.626 95.4394 197.788 95.4193 197.98L95.2204 199.872C95.2058 200.011 95.1483 200.123 95.0477 200.209C94.9477 200.29 94.8285 200.323 94.6901 200.309ZM98.3872 200.205C98.3727 200.343 98.3151 200.456 98.2145 200.542C98.1145 200.623 97.9953 200.656 97.8569 200.642C97.7185 200.627 97.6088 200.57 97.5278 200.47C97.4474 200.365 97.4145 200.243 97.429 200.104L97.7756 196.807C97.7902 196.668 97.8474 196.558 97.9474 196.477C98.048 196.391 98.1675 196.355 98.3059 196.37C98.4443 196.384 98.5537 196.444 98.6342 196.55C98.7151 196.65 98.7484 196.769 98.7338 196.907L98.3872 200.205ZM98.3525 195.85C98.1715 195.831 98.0468 195.788 97.9784 195.722C97.9101 195.655 97.8837 195.548 97.8994 195.399L97.9153 195.247C97.9315 195.093 97.9824 194.993 98.0678 194.948C98.1591 194.899 98.29 194.883 98.4603 194.901C98.6466 194.92 98.774 194.963 98.8424 195.03C98.9107 195.096 98.9371 195.204 98.9214 195.353L98.9055 195.504C98.8893 195.659 98.8381 195.761 98.7521 195.811C98.6667 195.856 98.5335 195.869 98.3525 195.85ZM103.036 196.786C103.174 196.801 103.284 196.858 103.365 196.958C103.446 197.058 103.479 197.18 103.464 197.324L103.109 200.701C103.094 200.84 103.037 200.952 102.936 201.038C102.836 201.119 102.717 201.153 102.579 201.138C102.44 201.124 102.331 201.066 102.25 200.966C102.169 200.861 102.136 200.739 102.151 200.601L102.192 200.209L102.36 200.3C102.353 200.369 102.307 200.45 102.221 200.543C102.137 200.631 102.026 200.717 101.888 200.799C101.75 200.881 101.589 200.948 101.407 200.999C101.229 201.045 101.04 201.057 100.838 201.036C100.47 200.997 100.147 200.869 99.8688 200.651C99.5908 200.428 99.3813 200.143 99.2404 199.794C99.1053 199.441 99.0604 199.049 99.1057 198.617C99.1516 198.181 99.277 197.807 99.4821 197.495C99.693 197.178 99.9546 196.941 100.267 196.786C100.58 196.625 100.915 196.563 101.271 196.601C101.5 196.625 101.707 196.682 101.891 196.771C102.076 196.86 102.231 196.965 102.359 197.086C102.491 197.208 102.589 197.329 102.652 197.448C102.72 197.563 102.751 197.658 102.743 197.732L102.444 197.806L102.506 197.223C102.52 197.085 102.578 196.975 102.678 196.894C102.778 196.808 102.898 196.772 103.036 196.786ZM101.05 200.17C101.284 200.195 101.495 200.158 101.683 200.059C101.871 199.96 102.023 199.815 102.141 199.623C102.263 199.431 102.337 199.21 102.364 198.96C102.39 198.704 102.364 198.47 102.284 198.257C102.209 198.045 102.091 197.871 101.927 197.735C101.764 197.6 101.565 197.52 101.331 197.495C101.102 197.471 100.893 197.508 100.705 197.607C100.517 197.706 100.362 197.851 100.24 198.042C100.123 198.235 100.051 198.458 100.024 198.714C99.9977 198.964 100.022 199.195 100.096 199.408C100.176 199.621 100.298 199.795 100.461 199.931C100.625 200.066 100.821 200.146 101.05 200.17ZM109.973 195.941C110.111 195.956 110.221 196.013 110.302 196.113C110.383 196.213 110.416 196.335 110.401 196.478L109.882 201.413C109.867 201.552 109.81 201.664 109.709 201.75C109.609 201.831 109.49 201.864 109.352 201.85C109.213 201.835 109.103 201.778 109.022 201.678C108.942 201.573 108.909 201.451 108.924 201.312L108.965 200.921L109.133 201.012C109.126 201.081 109.079 201.162 108.994 201.255C108.91 201.343 108.798 201.429 108.661 201.511C108.523 201.593 108.362 201.66 108.179 201.711C108.002 201.757 107.813 201.769 107.61 201.748C107.243 201.709 106.92 201.581 106.642 201.363C106.364 201.14 106.154 200.855 106.013 200.506C105.878 200.153 105.833 199.761 105.879 199.329C105.924 198.893 106.05 198.519 106.255 198.206C106.466 197.889 106.728 197.653 107.04 197.498C107.353 197.337 107.688 197.275 108.044 197.313C108.273 197.337 108.48 197.393 108.664 197.483C108.849 197.572 109.004 197.677 109.132 197.798C109.264 197.92 109.362 198.04 109.425 198.16C109.493 198.275 109.524 198.37 109.516 198.444L109.217 198.518L109.442 196.378C109.457 196.239 109.514 196.13 109.614 196.049C109.715 195.962 109.834 195.926 109.973 195.941ZM107.823 200.882C108.057 200.907 108.268 200.87 108.456 200.771C108.644 200.672 108.796 200.527 108.913 200.335C109.036 200.143 109.11 199.922 109.136 199.672C109.163 199.416 109.137 199.182 109.057 198.969C108.982 198.757 108.863 198.583 108.7 198.447C108.537 198.312 108.338 198.232 108.104 198.207C107.875 198.183 107.666 198.22 107.478 198.319C107.29 198.417 107.135 198.563 107.013 198.754C106.896 198.946 106.824 199.17 106.797 199.426C106.771 199.676 106.795 199.907 106.869 200.12C106.949 200.333 107.071 200.507 107.234 200.642C107.397 200.778 107.594 200.858 107.823 200.882ZM112.632 202.275C112.18 202.228 111.796 202.093 111.48 201.872C111.17 201.645 110.942 201.36 110.795 201.017C110.653 200.674 110.604 200.297 110.647 199.887C110.698 199.408 110.836 199.011 111.063 198.696C111.296 198.376 111.579 198.142 111.912 197.994C112.245 197.846 112.587 197.79 112.939 197.827C113.21 197.856 113.46 197.938 113.687 198.075C113.921 198.213 114.12 198.39 114.286 198.606C114.452 198.818 114.575 199.057 114.654 199.323C114.739 199.591 114.767 199.868 114.736 200.155C114.718 200.283 114.656 200.381 114.552 200.451C114.448 200.521 114.332 200.549 114.204 200.535L111.154 200.215L110.998 199.391L113.929 199.699L113.736 199.84L113.759 199.625C113.764 199.469 113.723 199.325 113.635 199.192C113.552 199.059 113.439 198.951 113.298 198.866C113.162 198.776 113.011 198.723 112.846 198.705C112.687 198.689 112.535 198.694 112.392 198.722C112.249 198.75 112.122 198.81 112.01 198.9C111.899 198.991 111.804 199.118 111.728 199.282C111.652 199.446 111.6 199.659 111.572 199.92C111.542 200.207 111.575 200.458 111.671 200.673C111.772 200.883 111.911 201.051 112.086 201.177C112.267 201.298 112.464 201.37 112.677 201.392C112.874 201.413 113.033 201.413 113.153 201.394C113.273 201.374 113.371 201.347 113.444 201.311C113.524 201.271 113.595 201.238 113.656 201.213C113.757 201.175 113.85 201.16 113.935 201.169C114.053 201.181 114.144 201.231 114.21 201.319C114.282 201.407 114.312 201.505 114.301 201.611C114.286 201.755 114.197 201.878 114.036 201.979C113.885 202.082 113.68 202.165 113.42 202.229C113.161 202.288 112.899 202.303 112.632 202.275ZM119.07 202.871C118.921 202.856 118.803 202.798 118.717 202.697C118.631 202.591 118.595 202.469 118.61 202.331L119.097 197.699L120.135 197.808L119.648 202.44C119.633 202.578 119.57 202.69 119.459 202.775C119.354 202.855 119.224 202.888 119.07 202.871ZM117.796 198.015C117.658 198 117.545 197.945 117.458 197.85C117.377 197.755 117.343 197.639 117.358 197.5C117.372 197.362 117.429 197.258 117.528 197.187C117.632 197.112 117.754 197.082 117.892 197.096L121.438 197.469C121.576 197.484 121.686 197.538 121.768 197.633C121.855 197.728 121.891 197.845 121.876 197.983C121.862 198.122 121.802 198.228 121.697 198.304C121.598 198.374 121.48 198.402 121.341 198.387L117.796 198.015Z" fill="#CDB1EF"/>
<rect x="122.601" y="198.656" width="1.07903" height="4.43601" rx="0.539515" transform="rotate(6 122.601 198.656)" fill="#CDB1EF"/>
<rect x="33.6863" y="189.818" width="1.89" height="1.89" rx="0.944998" transform="rotate(6 33.6863 189.818)" fill="#0A1014"/>
<rect x="96.6642" y="65.8475" width="42.1299" height="75.8338" rx="4.91516" transform="rotate(13 96.6642 65.8475)" fill="#9772E1" stroke="#503373" stroke-width="1.40433"/>
<rect x="97.3607" y="63.1259" width="42.1299" height="75.8338" rx="4.91516" transform="rotate(13 97.3607 63.1259)" fill="white" stroke="#503373" stroke-width="1.40433"/>
<rect x="99.4008" y="66.4795" width="36.5126" height="70.2165" rx="4.91516" transform="rotate(13 99.4008 66.4795)" fill="#F3EEFE" stroke="#503373" stroke-width="1.40433"/>
<rect x="121.018" y="112.614" width="0.590071" height="0.524507" rx="0.262254" transform="rotate(13 121.018 112.614)" fill="#CDB1EF"/>
<path d="M104.52 97.0705C105.229 97.234 105.974 97.1094 106.59 96.7241C107.207 96.3387 107.645 95.7242 107.809 95.0156C107.972 94.3071 107.848 93.5625 107.463 92.9458C107.077 92.3291 106.463 91.8908 105.754 91.7272L105.137 94.3988L104.52 97.0705Z" fill="#CDB1EF"/>
<path fill-rule="evenodd" clip-rule="evenodd" d="M107.488 105.885L107.488 105.885L108.185 102.867C108.37 102.944 108.565 103.007 108.767 103.054C110.734 103.508 112.697 102.281 113.152 100.314C113.606 98.3464 112.379 96.3834 110.412 95.9292C110.209 95.8825 110.007 95.8536 109.807 95.8414L110.503 92.8236L110.504 92.8237L111.394 93.0293C115.001 93.862 117.25 97.4609 116.417 101.068C115.585 104.674 111.986 106.923 108.379 106.091L107.488 105.885Z" fill="#CDB1EF"/>
<circle cx="109.517" cy="99.5371" r="1.52328" transform="rotate(13 109.517 99.5371)" fill="#CDB1EF"/>
<path fill-rule="evenodd" clip-rule="evenodd" d="M112.415 95.4165C112.255 95.1528 112.092 94.8837 112.134 94.7009C112.323 93.8811 110.936 92.9235 110.444 92.81C109.953 92.6964 109.401 93.2689 109.211 94.0886C109.022 94.9083 109.254 95.7243 109.745 95.8378C109.747 95.838 109.748 95.8382 109.749 95.8384C109.969 95.8482 110.191 95.8781 110.413 95.9293C110.576 95.967 110.734 96.0152 110.887 96.0729C111.606 96.2289 112.204 96.3481 112.531 96.2308C112.842 96.1196 112.631 95.7729 112.415 95.4165Z" fill="#CDB1EF"/>
<path fill-rule="evenodd" clip-rule="evenodd" d="M108.055 102.81C107.546 102.873 107.057 103.419 106.895 104.122C106.698 104.975 107.044 105.782 107.667 105.926C108.29 106.07 111.055 105.605 111.252 104.753C111.395 104.132 111.08 103.663 110.028 103.282C109.799 103.225 109.623 103.181 109.484 103.146C109.247 103.139 109.007 103.109 108.768 103.054C108.518 102.996 108.279 102.914 108.055 102.81Z" fill="#CDB1EF"/>
<path fill-rule="evenodd" clip-rule="evenodd" d="M107.824 96.2898C107.839 96.2348 107.853 96.1791 107.866 96.1228C108.225 94.5653 107.852 93.1493 107.032 92.9601C106.213 92.7708 104.948 95.2158 104.589 96.7733C104.245 98.2632 104.853 98.4012 105.624 98.576C105.659 98.584 105.695 98.592 105.73 98.6002C105.832 98.6237 105.936 98.6272 106.041 98.6122C106.295 97.5851 106.962 96.7654 107.824 96.2898Z" fill="#CDB1EF"/>
<path d="M95.4392 106.566C95.6445 106.613 95.8182 106.694 95.9601 106.808C96.1021 106.921 96.2111 107.061 96.2872 107.226C96.3668 107.388 96.4127 107.567 96.4247 107.762C96.4403 107.955 96.4243 108.154 96.3769 108.359C96.3131 108.636 96.2049 108.877 96.0524 109.082C95.9005 109.284 95.7136 109.43 95.4916 109.52C95.2724 109.611 95.0245 109.624 94.7478 109.56L93.7253 109.324C93.6512 109.307 93.594 109.268 93.5539 109.208C93.5173 109.146 93.5075 109.077 93.5246 109.003L94.0955 106.53C94.1126 106.456 94.151 106.4 94.2107 106.363C94.2739 106.324 94.3426 106.312 94.4167 106.33L95.4392 106.566ZM94.8186 109.058C94.9983 109.1 95.1557 109.088 95.2909 109.023C95.4267 108.956 95.5377 108.852 95.6239 108.713C95.7137 108.571 95.7793 108.411 95.8208 108.231C95.8517 108.097 95.8653 107.966 95.8616 107.839C95.8614 107.71 95.8405 107.593 95.7988 107.487C95.7578 107.378 95.695 107.286 95.6106 107.209C95.5261 107.132 95.4169 107.079 95.2828 107.048L94.5341 106.875L94.5858 106.846L94.1019 108.943L94.087 108.89L94.8186 109.058ZM96.8951 109.781C96.878 109.855 96.8393 109.913 96.7789 109.953C96.7193 109.99 96.6523 110 96.5782 109.983C96.504 109.966 96.4483 109.927 96.411 109.868C96.3744 109.805 96.3646 109.737 96.3817 109.663L96.7897 107.896C96.8068 107.822 96.8452 107.766 96.9049 107.729C96.9652 107.689 97.0324 107.677 97.1066 107.694C97.1807 107.711 97.2361 107.751 97.2728 107.814C97.3101 107.873 97.3202 107.94 97.303 108.014L96.8951 109.781ZM97.1665 107.415C97.0695 107.393 97.0047 107.361 96.972 107.321C96.9393 107.28 96.9322 107.22 96.9507 107.14L96.9694 107.059C96.9885 106.976 97.0227 106.925 97.0721 106.907C97.125 106.886 97.1971 106.886 97.2883 106.907C97.3882 106.93 97.4544 106.962 97.4871 107.002C97.5198 107.043 97.5269 107.103 97.5085 107.183L97.4897 107.264C97.4706 107.347 97.436 107.399 97.386 107.421C97.3367 107.439 97.2635 107.437 97.1665 107.415ZM97.4908 110.194C97.4167 110.176 97.361 110.138 97.3237 110.078C97.287 110.016 97.2773 109.948 97.2944 109.873L97.7023 108.107C97.7194 108.032 97.7578 107.977 97.8175 107.939C97.8778 107.899 97.9451 107.888 98.0192 107.905C98.0934 107.922 98.1488 107.962 98.1854 108.024C98.2227 108.084 98.2328 108.151 98.2157 108.225L98.1228 108.627L98.1591 108.334C98.2062 108.272 98.26 108.222 98.3203 108.182C98.3842 108.139 98.4514 108.108 98.5221 108.088C98.5934 108.066 98.6667 108.054 98.7419 108.054C98.8172 108.053 98.8905 108.061 98.9618 108.077C99.0473 108.097 99.113 108.138 99.1589 108.199C99.2076 108.262 99.2243 108.326 99.2092 108.391C99.1875 108.485 99.1474 108.548 99.0891 108.58C99.0314 108.609 98.974 108.616 98.9169 108.603C98.8628 108.591 98.8152 108.569 98.7741 108.539C98.736 108.509 98.6883 108.487 98.6313 108.474C98.58 108.462 98.5242 108.463 98.4641 108.476C98.4075 108.487 98.3505 108.513 98.293 108.554C98.2384 108.595 98.1879 108.651 98.1416 108.722C98.0988 108.79 98.0656 108.875 98.0418 108.978L97.8078 109.992C97.7906 110.066 97.7519 110.123 97.6916 110.163C97.6319 110.201 97.565 110.211 97.4908 110.194ZM99.9329 110.802C99.6905 110.747 99.4909 110.648 99.3343 110.507C99.1812 110.363 99.0762 110.193 99.0194 109.997C98.9655 109.801 98.9638 109.593 99.0145 109.374C99.0738 109.117 99.1755 108.911 99.3197 108.755C99.4673 108.597 99.6365 108.488 99.8271 108.43C100.018 108.372 100.207 108.365 100.395 108.408C100.541 108.442 100.671 108.503 100.785 108.593C100.903 108.683 100.999 108.793 101.075 108.921C101.151 109.047 101.202 109.185 101.227 109.335C101.255 109.486 101.252 109.638 101.216 109.792C101.197 109.86 101.158 109.909 101.096 109.94C101.035 109.971 100.97 109.979 100.902 109.963L99.2676 109.585L99.238 109.128L100.808 109.49L100.694 109.554L100.721 109.439C100.734 109.355 100.721 109.274 100.682 109.196C100.646 109.118 100.592 109.052 100.521 108.996C100.453 108.938 100.375 108.899 100.287 108.879C100.201 108.859 100.119 108.852 100.039 108.858C99.96 108.864 99.8869 108.887 99.8202 108.929C99.7535 108.971 99.6939 109.033 99.6415 109.117C99.589 109.202 99.5467 109.313 99.5144 109.453C99.4789 109.607 99.4799 109.746 99.5177 109.868C99.5589 109.989 99.6228 110.09 99.7095 110.17C99.7997 110.247 99.9018 110.3 100.016 110.326C100.121 110.35 100.208 110.361 100.274 110.359C100.341 110.356 100.395 110.347 100.438 110.333C100.484 110.317 100.524 110.304 100.56 110.294C100.617 110.28 100.668 110.278 100.714 110.289C100.777 110.303 100.823 110.337 100.853 110.389C100.886 110.441 100.896 110.496 100.883 110.553C100.865 110.63 100.809 110.691 100.715 110.735C100.626 110.781 100.509 110.812 100.364 110.83C100.219 110.845 100.075 110.835 99.9329 110.802ZM101.804 108.824L102.818 109.058C102.886 109.074 102.938 109.11 102.973 109.166C103.008 109.222 103.018 109.284 103.002 109.353C102.987 109.418 102.951 109.469 102.895 109.504C102.84 109.536 102.778 109.544 102.709 109.528L101.695 109.294C101.627 109.278 101.575 109.242 101.54 109.186C101.505 109.13 101.495 109.068 101.511 108.999C101.526 108.934 101.562 108.885 101.617 108.853C101.673 108.817 101.736 108.808 101.804 108.824ZM102.385 108.395C102.459 108.412 102.513 108.451 102.547 108.513C102.584 108.573 102.594 108.64 102.577 108.714L102.138 110.618C102.129 110.658 102.128 110.692 102.137 110.721C102.148 110.751 102.165 110.774 102.188 110.791C102.214 110.809 102.242 110.822 102.274 110.829C102.308 110.837 102.341 110.839 102.372 110.834C102.404 110.826 102.438 110.827 102.475 110.835C102.515 110.844 102.546 110.871 102.569 110.915C102.595 110.96 102.6 111.016 102.585 111.081C102.567 111.161 102.507 111.217 102.407 111.247C102.31 111.279 102.211 111.283 102.111 111.26C102.051 111.246 101.985 111.227 101.913 111.201C101.844 111.173 101.781 111.133 101.724 111.081C101.671 111.026 101.632 110.954 101.608 110.865C101.583 110.775 101.587 110.66 101.62 110.52L102.064 108.595C102.081 108.521 102.119 108.465 102.179 108.428C102.242 108.389 102.311 108.377 102.385 108.395ZM105.345 110.804C105.291 111.038 105.191 111.232 105.044 111.388C104.9 111.541 104.728 111.647 104.529 111.706C104.332 111.765 104.125 111.77 103.908 111.72C103.691 111.67 103.506 111.575 103.352 111.434C103.201 111.294 103.093 111.124 103.029 110.922C102.967 110.719 102.964 110.5 103.018 110.266C103.072 110.033 103.171 109.839 103.314 109.686C103.461 109.531 103.633 109.423 103.83 109.364C104.031 109.302 104.239 109.296 104.456 109.346C104.673 109.396 104.856 109.492 105.007 109.635C105.16 109.776 105.268 109.948 105.329 110.151C105.394 110.352 105.399 110.57 105.345 110.804ZM104.832 110.685C104.865 110.54 104.864 110.407 104.829 110.288C104.797 110.166 104.738 110.064 104.652 109.981C104.569 109.899 104.467 109.844 104.347 109.816C104.228 109.789 104.111 109.793 103.997 109.83C103.886 109.868 103.789 109.934 103.704 110.028C103.622 110.121 103.565 110.24 103.531 110.385C103.498 110.528 103.498 110.66 103.53 110.781C103.565 110.901 103.625 111.001 103.708 111.084C103.794 111.167 103.897 111.222 104.017 111.25C104.136 111.277 104.252 111.272 104.362 111.235C104.476 111.198 104.574 111.133 104.655 111.041C104.74 110.946 104.799 110.828 104.832 110.685ZM105.659 112.079C105.585 112.062 105.529 112.024 105.492 111.964C105.455 111.902 105.446 111.833 105.463 111.759L105.871 109.992C105.888 109.918 105.926 109.862 105.986 109.825C106.046 109.785 106.113 109.773 106.187 109.791C106.262 109.808 106.317 109.848 106.354 109.91C106.391 109.97 106.401 110.037 106.384 110.111L106.291 110.513L106.327 110.219C106.374 110.158 106.428 110.108 106.489 110.067C106.552 110.025 106.62 109.994 106.69 109.974C106.762 109.952 106.835 109.94 106.91 109.939C106.985 109.939 107.059 109.947 107.13 109.963C107.216 109.983 107.281 110.024 107.327 110.085C107.376 110.148 107.393 110.212 107.377 110.277C107.356 110.371 107.316 110.434 107.257 110.466C107.2 110.494 107.142 110.502 107.085 110.489C107.031 110.477 106.983 110.455 106.942 110.425C106.904 110.395 106.857 110.373 106.8 110.36C106.748 110.348 106.692 110.349 106.632 110.362C106.576 110.373 106.519 110.399 106.461 110.44C106.407 110.481 106.356 110.537 106.31 110.607C106.267 110.676 106.234 110.761 106.21 110.864L105.976 111.878C105.959 111.952 105.92 112.009 105.86 112.049C105.8 112.086 105.733 112.097 105.659 112.079ZM107.673 112.269C107.656 112.344 107.617 112.401 107.557 112.441C107.497 112.478 107.43 112.488 107.356 112.471C107.282 112.454 107.226 112.416 107.189 112.356C107.152 112.293 107.142 112.225 107.159 112.151L107.567 110.384C107.584 110.31 107.623 110.254 107.682 110.217C107.743 110.177 107.81 110.165 107.884 110.182C107.958 110.199 108.014 110.239 108.05 110.302C108.088 110.361 108.098 110.428 108.081 110.503L107.673 112.269ZM107.944 109.903C107.847 109.881 107.782 109.849 107.75 109.809C107.717 109.768 107.71 109.708 107.728 109.628L107.747 109.547C107.766 109.464 107.8 109.413 107.85 109.395C107.903 109.374 107.975 109.374 108.066 109.395C108.166 109.418 108.232 109.45 108.265 109.491C108.297 109.531 108.304 109.591 108.286 109.671L108.267 109.753C108.248 109.835 108.214 109.887 108.164 109.909C108.114 109.927 108.041 109.926 107.944 109.903ZM110.424 110.724C110.498 110.741 110.554 110.779 110.591 110.839C110.628 110.898 110.638 110.967 110.62 111.044L110.202 112.853C110.185 112.928 110.147 112.985 110.086 113.025C110.027 113.062 109.96 113.072 109.886 113.055C109.811 113.038 109.756 113 109.718 112.94C109.682 112.877 109.672 112.809 109.689 112.735L109.737 112.525L109.823 112.586C109.814 112.623 109.784 112.664 109.731 112.709C109.679 112.751 109.613 112.79 109.533 112.825C109.453 112.861 109.361 112.886 109.259 112.901C109.159 112.915 109.056 112.909 108.947 112.884C108.751 112.838 108.584 112.747 108.447 112.61C108.311 112.471 108.216 112.302 108.163 112.103C108.113 111.903 108.115 111.687 108.168 111.456C108.222 111.222 108.316 111.027 108.448 110.871C108.583 110.713 108.741 110.602 108.921 110.539C109.101 110.472 109.287 110.461 109.478 110.505C109.601 110.534 109.709 110.578 109.803 110.639C109.898 110.7 109.975 110.767 110.036 110.841C110.1 110.916 110.145 110.988 110.171 111.057C110.201 111.124 110.211 111.178 110.202 111.218L110.035 111.238L110.107 110.925C110.124 110.851 110.162 110.795 110.222 110.758C110.282 110.718 110.35 110.706 110.424 110.724ZM109.12 112.428C109.246 112.457 109.363 112.451 109.471 112.41C109.58 112.369 109.672 112.3 109.749 112.203C109.828 112.108 109.883 111.993 109.914 111.859C109.946 111.722 109.947 111.593 109.918 111.472C109.891 111.352 109.838 111.249 109.759 111.165C109.679 111.08 109.576 111.024 109.451 110.995C109.328 110.966 109.213 110.973 109.104 111.014C108.996 111.055 108.902 111.123 108.822 111.219C108.746 111.316 108.692 111.432 108.66 111.569C108.63 111.703 108.627 111.83 108.654 111.951C108.683 112.071 108.737 112.174 108.817 112.259C108.896 112.343 108.997 112.4 109.12 112.428ZM114.245 110.727C114.319 110.744 114.375 110.783 114.412 110.842C114.45 110.902 114.459 110.97 114.442 111.047L113.831 113.691C113.814 113.765 113.775 113.823 113.715 113.863C113.655 113.9 113.588 113.91 113.514 113.893C113.44 113.876 113.384 113.837 113.347 113.778C113.31 113.715 113.301 113.647 113.318 113.573L113.366 113.363L113.451 113.423C113.443 113.46 113.412 113.501 113.36 113.546C113.308 113.588 113.242 113.627 113.162 113.663C113.082 113.698 112.99 113.724 112.887 113.739C112.788 113.752 112.684 113.746 112.576 113.721C112.379 113.676 112.213 113.585 112.076 113.448C111.94 113.309 111.845 113.14 111.792 112.941C111.742 112.74 111.744 112.524 111.797 112.293C111.851 112.059 111.944 111.865 112.076 111.709C112.212 111.551 112.37 111.44 112.55 111.377C112.73 111.31 112.916 111.299 113.107 111.343C113.23 111.371 113.338 111.416 113.432 111.477C113.526 111.537 113.604 111.605 113.665 111.679C113.729 111.754 113.774 111.826 113.8 111.895C113.829 111.962 113.84 112.015 113.83 112.055L113.664 112.075L113.928 110.929C113.945 110.855 113.984 110.799 114.043 110.762C114.104 110.721 114.171 110.71 114.245 110.727ZM112.749 113.266C112.874 113.295 112.991 113.289 113.1 113.248C113.209 113.207 113.301 113.138 113.377 113.041C113.457 112.945 113.512 112.83 113.543 112.696C113.574 112.559 113.576 112.431 113.546 112.31C113.52 112.189 113.467 112.087 113.387 112.003C113.308 111.918 113.205 111.861 113.08 111.832C112.957 111.804 112.841 111.81 112.733 111.851C112.624 111.892 112.53 111.961 112.451 112.057C112.375 112.153 112.321 112.27 112.289 112.407C112.258 112.541 112.256 112.668 112.282 112.788C112.311 112.909 112.366 113.012 112.445 113.096C112.525 113.181 112.626 113.237 112.749 113.266ZM115.267 114.343C115.024 114.287 114.825 114.188 114.668 114.047C114.515 113.903 114.41 113.733 114.353 113.537C114.299 113.341 114.298 113.133 114.348 112.914C114.408 112.657 114.509 112.451 114.653 112.295C114.801 112.137 114.97 112.029 115.161 111.97C115.352 111.912 115.541 111.905 115.729 111.948C115.875 111.982 116.005 112.044 116.119 112.133C116.237 112.223 116.333 112.333 116.408 112.461C116.485 112.587 116.535 112.725 116.561 112.875C116.589 113.026 116.585 113.178 116.55 113.332C116.531 113.4 116.491 113.449 116.43 113.48C116.369 113.511 116.304 113.519 116.236 113.503L114.601 113.126L114.572 112.668L116.142 113.031L116.028 113.094L116.055 112.979C116.068 112.895 116.055 112.814 116.016 112.736C115.98 112.658 115.926 112.592 115.855 112.536C115.787 112.479 115.709 112.439 115.621 112.419C115.535 112.399 115.453 112.392 115.373 112.398C115.294 112.404 115.221 112.427 115.154 112.469C115.087 112.511 115.028 112.574 114.975 112.658C114.923 112.742 114.88 112.853 114.848 112.993C114.813 113.147 114.814 113.286 114.851 113.409C114.893 113.529 114.957 113.63 115.043 113.71C115.133 113.788 115.236 113.84 115.35 113.866C115.455 113.89 115.541 113.901 115.608 113.899C115.675 113.896 115.729 113.888 115.772 113.873C115.817 113.857 115.858 113.844 115.893 113.834C115.951 113.82 116.002 113.818 116.048 113.829C116.11 113.843 116.157 113.877 116.187 113.929C116.22 113.981 116.23 114.036 116.216 114.093C116.199 114.17 116.143 114.231 116.048 114.275C115.96 114.321 115.843 114.352 115.697 114.37C115.553 114.385 115.409 114.375 115.267 114.343ZM118.721 115.095C118.641 115.077 118.581 115.037 118.541 114.977C118.501 114.914 118.49 114.845 118.507 114.771L119.08 112.289L119.636 112.418L119.064 114.899C119.046 114.973 119.005 115.03 118.939 115.069C118.876 115.105 118.804 115.114 118.721 115.095ZM118.353 112.374C118.279 112.357 118.222 112.32 118.181 112.262C118.143 112.205 118.132 112.14 118.15 112.066C118.167 111.991 118.204 111.939 118.263 111.907C118.325 111.873 118.393 111.865 118.467 111.882L120.366 112.321C120.441 112.338 120.497 112.375 120.535 112.431C120.575 112.489 120.587 112.555 120.57 112.629C120.553 112.703 120.513 112.757 120.452 112.791C120.393 112.822 120.327 112.83 120.253 112.813L118.353 112.374Z" fill="#CDB1EF"/>
<rect x="120.856" y="113.316" width="0.590071" height="2.42585" rx="0.295035" transform="rotate(13 120.856 113.316)" fill="#CDB1EF"/>
<rect x="117.289" y="68.8429" width="0.823307" height="0.823307" rx="0.411654" transform="rotate(13 117.289 68.8429)" fill="#0A1014"/>
</svg>
