<svg width="39" height="39" viewBox="0 0 39 39" fill="none" xmlns="http://www.w3.org/2000/svg">
<path d="M38.0303 13.4644C39.3863 17.6316 39.2995 22.1342 37.7839 26.2461C36.2683 30.3579 33.4122 33.8391 29.6764 36.1282C25.9405 38.4174 21.5427 39.381 17.1924 38.8636C12.842 38.3462 8.79265 36.378 5.69752 33.2764C2.60239 30.1749 0.64193 26.1208 0.132348 21.7681C-0.377234 17.4155 0.593777 13.018 2.88876 9.28499C5.18374 5.55199 8.66888 2.70114 12.782 1.19226C16.8952 -0.316621 21.3966 -0.395547 25.5601 0.96821L23.0085 3.52059C22.8688 3.66036 22.7404 3.81069 22.6234 3.97158C19.2898 3.29851 15.8281 3.71652 12.7504 5.16379C9.6726 6.61106 7.14218 9.01074 5.53333 12.0079C3.92448 15.0051 3.32264 18.4407 3.81681 21.8065C4.31097 25.1724 5.87491 28.2898 8.27732 30.6977C10.6797 33.1056 13.7931 34.6761 17.1568 35.1771C20.5206 35.678 23.9563 35.0827 26.9557 33.4792C29.9551 31.8758 32.359 29.3493 33.8118 26.2734C35.2647 23.1975 35.6893 19.7355 35.023 16.3995C35.1898 16.2812 35.3463 16.1491 35.4909 16.0046L38.0303 13.4644ZM31.4382 17.0748C31.6006 17.8646 31.6819 18.6772 31.6819 19.5126C31.6811 22.028 30.9025 24.4816 29.4526 26.5369C28.0027 28.5921 25.9527 30.1483 23.5838 30.992C21.2148 31.8357 18.6429 31.9256 16.2209 31.2494C13.7988 30.5731 11.6452 29.1638 10.0555 27.2148C8.46577 25.2658 7.51778 22.8726 7.34155 20.3633C7.16532 17.8541 7.76949 15.3517 9.07118 13.1995C10.3729 11.0473 12.3083 9.35068 14.6121 8.34232C16.9158 7.33395 19.475 7.06325 21.9386 7.56734V11.3362C20.1198 10.793 18.1718 10.8723 16.403 11.5614C14.6343 12.2506 13.1459 13.5102 12.1734 15.1409C11.201 16.7716 10.8001 18.6802 11.0343 20.5644C11.2684 22.4487 12.1242 24.201 13.4661 25.5439C14.808 26.8869 16.5594 27.7437 18.443 27.9787C20.3266 28.2137 22.2347 27.8135 23.8653 26.8414C25.4959 25.8694 26.7557 24.3811 27.4454 22.612C28.1351 20.843 28.2152 18.8944 27.673 17.0748H31.4382ZM19.4967 23.1693C20.0573 23.1696 20.6105 23.0409 21.1135 22.7931C21.6164 22.5454 22.0557 22.1853 22.3972 21.7406C22.7388 21.2959 22.9736 20.7786 23.0834 20.2287C23.1932 19.6788 23.1751 19.111 23.0304 18.5691L26.8858 14.7101L26.9589 14.637H32.9053C33.0654 14.6373 33.224 14.606 33.372 14.5449C33.52 14.4838 33.6546 14.3942 33.768 14.2811L38.642 9.40545C38.8129 9.23497 38.9293 9.01759 38.9765 8.78086C39.0237 8.54413 38.9995 8.29871 38.9071 8.07571C38.8147 7.85272 38.6582 7.66219 38.4574 7.52829C38.2566 7.39438 38.0206 7.32313 37.7793 7.32356H31.6867V1.22906C31.6867 0.988164 31.6153 0.752689 31.4815 0.552364C31.3478 0.352038 31.1577 0.195846 30.9353 0.103511C30.7129 0.0111752 30.4681 -0.0131639 30.2318 0.0335671C29.9956 0.0802981 29.7785 0.196003 29.608 0.366073L24.7339 5.24168C24.6204 5.35488 24.5303 5.48938 24.4688 5.63747C24.4074 5.78555 24.3757 5.94431 24.3757 6.10466V12.0529L24.3025 12.126L20.4472 15.9802C19.9051 15.8342 19.3366 15.815 18.7859 15.9242C18.2352 16.0334 17.717 16.2681 17.2716 16.6099C16.8262 16.9517 16.4654 17.3916 16.2174 17.8954C15.9693 18.3992 15.8406 18.9534 15.8412 19.515C15.8412 20.4848 16.2263 21.4149 16.9119 22.1007C17.5974 22.7865 18.5272 23.1717 19.4967 23.1717" fill="#9A92FF"/>
</svg>
