<svg width="34" height="37" viewBox="0 0 34 37" fill="none" xmlns="http://www.w3.org/2000/svg">
<path d="M16.9538 0V3.0825C7.63689 3.0825 0 10.7194 0 20.0363C0 29.3531 7.63689 36.99 16.9538 36.99C26.2706 36.99 33.9075 29.3531 33.9075 20.0363C33.9075 15.4942 32.1967 11.3898 29.1389 8.332L26.9719 10.5005C29.4641 12.9897 30.825 16.254 30.825 20.0363C30.825 27.6731 24.5906 33.9075 16.9538 33.9075C9.31686 33.9075 3.0825 27.6731 3.0825 20.0363C3.0825 12.3994 9.31686 6.165 16.9538 6.165V9.2475L24.66 4.62375L16.9538 0ZM20.1811 10.1152L16.328 17.8215C15.8419 17.9528 15.4129 18.2412 15.1079 18.6419C14.803 19.0425 14.6391 19.5328 14.6419 20.0363C14.6419 20.6494 14.8854 21.2374 15.319 21.671C15.7526 22.1046 16.3406 22.3481 16.9538 22.3481H17.0508L22.0106 27.3094L24.2269 25.0931L19.2656 20.1333V20.0363C19.2656 19.7326 19.1793 19.4352 19.073 19.1685L22.9739 11.4623L20.1811 10.1137V10.1152Z" fill="#A6A1E1"/>
</svg>
