<svg width="282" height="520" viewBox="0 0 282 520" fill="none" xmlns="http://www.w3.org/2000/svg">
<circle opacity="0.7" cx="97.252" cy="229.018" r="13.6656" fill="#559BDD"/>
<circle opacity="0.7" cx="56.2554" cy="125.55" r="13.6656" fill="#4F4296"/>
<circle opacity="0.7" cx="241.717" cy="109.282" r="13.6656" fill="#8681FF"/>
<circle opacity="0.7" cx="195.514" cy="62.4283" r="13.6656" fill="#8681FF"/>
<circle opacity="0.7" cx="-7.33165" cy="263.197" r="13.6656" transform="rotate(91.1459 -7.33165 263.197)" fill="#559BDD"/>
<circle opacity="0.7" cx="-37.451" cy="100.822" r="38.3937" fill="#4F4296"/>
<circle opacity="0.7" cx="79.0313" cy="29.8912" r="13.6656" fill="#9BACF2"/>
<circle opacity="0.7" cx="20.4649" cy="81.9505" r="13.6656" fill="#9BACF2"/>
<circle opacity="0.7" cx="25.6709" cy="249.191" r="13.6656" fill="#9BACF2"/>
<circle opacity="0.7" cx="110.918" cy="178.26" r="13.6656" fill="#9BACF2"/>
<circle opacity="0.7" cx="257.335" cy="100.822" r="13.6656" fill="#9BACF2"/>
<circle opacity="0.7" cx="-11.422" cy="206.893" r="26.0297" fill="#8681FF"/>
<circle opacity="0.7" cx="70.2462" cy="99.1951" r="30.9102" fill="#8681FF"/>
<circle cx="244.587" cy="389.747" r="27.2472" transform="rotate(-118.034 244.587 389.747)" fill="#9BACF2"/>
<ellipse cx="101.091" cy="364.41" rx="23.9408" ry="25.0808" transform="rotate(-23.8051 101.091 364.41)" fill="#9BACF2"/>
<ellipse cx="162.851" cy="381.653" rx="18.3137" ry="17.867" transform="rotate(-118.034 162.851 381.653)" fill="#9BACF2"/>
<circle cx="223.057" cy="376.527" r="10.051" transform="rotate(-118.034 223.057 376.527)" fill="#9BACF2"/>
<circle cx="68.8817" cy="333.762" r="15.9605" transform="rotate(-23.8051 68.8817 333.762)" fill="#559BDD"/>
<circle cx="95.5578" cy="460.486" r="14.572" transform="rotate(-48.9999 95.5578 460.486)" fill="#39357D"/>
<circle cx="-7.67179" cy="391.23" r="17.1005" transform="rotate(-23.8051 -7.67179 391.23)" fill="#9BACF2"/>
<circle cx="219.608" cy="335.236" r="17.1005" transform="rotate(-23.8051 219.608 335.236)" fill="#9BACF2"/>
<ellipse cx="34.0538" cy="455.295" rx="13.847" ry="13.4003" transform="rotate(-118.034 34.0538 455.295)" fill="#9BACF2"/>
<circle cx="189.989" cy="332.233" r="12.5404" transform="rotate(-23.8051 189.989 332.233)" fill="#9BACF2"/>
<circle cx="195.015" cy="412.153" r="11.4495" transform="rotate(-48.9999 195.015 412.153)" fill="#3E73AF"/>
<circle cx="52.1943" cy="377.284" r="12.5404" transform="rotate(-23.8051 52.1943 377.284)" fill="#9BACF2"/>
<circle cx="98.6862" cy="502.927" r="11.4495" transform="rotate(-48.9999 98.6862 502.927)" fill="#9BACF2"/>
<circle cx="192.031" cy="287.557" r="12.5404" transform="rotate(-23.8051 192.031 287.557)" fill="#9BACF2"/>
</svg>
