<svg width="18" height="14" viewBox="0 0 18 14" fill="none" xmlns="http://www.w3.org/2000/svg">
<path d="M9.0792 0.886206C10.4058 0.260211 11.8726 -0.0425062 13.3499 0.00480422C14.8273 0.0521147 16.2698 0.447996 17.55 1.15747C17.6712 1.22464 17.7744 1.31803 17.8515 1.4302C17.9285 1.54237 17.9772 1.67025 17.9937 1.80365L18 1.90559V13.1361C18 13.2878 17.9584 13.4367 17.8794 13.568C17.8004 13.6994 17.6868 13.8084 17.55 13.8842C17.4132 13.9601 17.258 14 17.1 14C16.942 14 16.7868 13.9601 16.65 13.8842C15.5555 13.2777 14.3139 12.9583 13.05 12.9583C11.7861 12.9583 10.5445 13.2777 9.45 13.8842C9.31318 13.9601 9.15798 14 9 14C8.84202 14 8.68682 13.9601 8.55 13.8842C7.49579 13.2999 6.30444 12.9817 5.08732 12.9593C3.87019 12.937 2.66703 13.2112 1.5903 13.7564L1.296 13.9119L1.2033 13.9499L1.1592 13.9637L1.0602 13.9862L1.0053 13.9948L0.9 14H0.8622L0.7632 13.9896L0.6939 13.9775L0.5967 13.9499L0.4833 13.9015L0.3978 13.8531L0.3177 13.7953L0.2637 13.7469L0.198 13.676L0.1404 13.5992L0.1206 13.5681L0.0918 13.5162L0.0522001 13.4272L0.0378 13.3849L0.0144 13.2899L0.00540004 13.2372L0.00180008 13.1949L0 13.1361V1.90559C4.0133e-06 1.75395 0.0415916 1.60498 0.120583 1.47366C0.199574 1.34234 0.313186 1.23329 0.45 1.15747C1.73016 0.447996 3.17266 0.0521147 4.65005 0.00480422C6.12744 -0.0425062 7.59423 0.260211 8.9208 0.886206L9 0.924217L9.0792 0.886206Z" fill="#9A92FF"/>
</svg>
