<svg width="23" height="23" viewBox="0 0 23 23" fill="none" xmlns="http://www.w3.org/2000/svg">
<path d="M8.94444 0H1.27778C0.93889 0 0.613882 0.134623 0.374252 0.374252C0.134623 0.613882 0 0.93889 0 1.27778V8.94444C0 9.28333 0.134623 9.60834 0.374252 9.84797C0.613882 10.0876 0.93889 10.2222 1.27778 10.2222H8.94444C9.28333 10.2222 9.60834 10.0876 9.84797 9.84797C10.0876 9.60834 10.2222 9.28333 10.2222 8.94444V1.27778C10.2222 0.93889 10.0876 0.613882 9.84797 0.374252C9.60834 0.134623 9.28333 0 8.94444 0ZM21.7222 12.7778H14.0556C13.7167 12.7778 13.3917 12.9124 13.152 13.152C12.9124 13.3917 12.7778 13.7167 12.7778 14.0556V21.7222C12.7778 22.0611 12.9124 22.3861 13.152 22.6257C13.3917 22.8654 13.7167 23 14.0556 23H21.7222C22.0611 23 22.3861 22.8654 22.6257 22.6257C22.8654 22.3861 23 22.0611 23 21.7222V14.0556C23 13.7167 22.8654 13.3917 22.6257 13.152C22.3861 12.9124 22.0611 12.7778 21.7222 12.7778ZM17.8889 0C15.0701 0 12.7778 2.29233 12.7778 5.11111C12.7778 7.92989 15.0701 10.2222 17.8889 10.2222C20.7077 10.2222 23 7.92989 23 5.11111C23 2.29233 20.7077 0 17.8889 0ZM5.11111 12.7778C2.29233 12.7778 0 15.0701 0 17.8889C0 20.7077 2.29233 23 5.11111 23C7.92989 23 10.2222 20.7077 10.2222 17.8889C10.2222 15.0701 7.92989 12.7778 5.11111 12.7778Z" fill="#9A92FF"/>
</svg>
