<svg width="26" height="37" viewBox="0 0 26 37" fill="none" xmlns="http://www.w3.org/2000/svg">
<path d="M15.9418 0.0113028C15.8793 0.0113028 15.8168 0.0135818 15.7555 0.018176C15.3469 0.0512032 15.0759 0.187798 14.7548 0.403687C14.5739 0.524269 14.4108 0.669609 14.2703 0.835464C14.2281 0.885253 14.1883 0.937017 14.151 0.99058L1.17861 18.1592C0.666377 18.8613 0.591134 19.788 0.984711 20.5624C1.37771 21.3368 2.17239 21.8277 3.04347 21.834L9.72618 21.8826L7.62518 34.2612C7.42549 35.3251 7.99271 36.3854 8.99112 36.8125C9.28127 36.9372 9.59381 37.0014 9.90963 37.0012C10.6372 37.0012 11.2351 36.6609 11.6837 36.0462L24.6723 17.4415C25.1845 16.7394 25.2592 15.8116 24.8662 15.0384C24.4732 14.264 23.6785 13.7731 22.8074 13.7668L16.1247 13.7552L18.2032 2.87103C18.2472 2.69284 18.2694 2.50995 18.2692 2.32639C18.2692 1.07389 17.2719 0.0529034 16.024 0.0123881C15.9963 0.0112305 15.969 0.0113028 15.9418 0.0113028Z" fill="#A6A1E1"/>
</svg>
