<svg width="39" height="40" viewBox="0 0 39 40" fill="none" xmlns="http://www.w3.org/2000/svg">
<path d="M2.11219 0L0.149902 2.01394L3.60669 8.14934L5.84845 7.81189L19.5322 21.8573L18.3649 23.0077C17.7671 23.6213 17.7671 24.5508 18.3649 25.1643L18.9717 25.7886C19.5695 26.4021 20.4842 26.4021 20.9325 25.7886L22.708 27.6093C22.5585 28.5296 22.708 29.6232 23.4552 30.3901L31.5345 38.6346C33.1785 40.3218 35.8686 40.3218 37.5126 38.6346C39.4554 36.794 39.4375 34.0422 37.7935 32.355L29.7606 24.0615C29.0133 23.2946 27.9477 22.9878 27.051 23.2946L25.0887 21.4739C25.5371 20.8603 25.5371 19.9216 25.0887 19.4599L24.5283 18.8863C24.3924 18.7409 24.2293 18.6252 24.0488 18.5461C23.8682 18.4671 23.6739 18.4263 23.4776 18.4263C23.2814 18.4263 23.0871 18.4671 22.9065 18.5461C22.726 18.6252 22.5629 18.7409 22.427 18.8863L21.4466 19.8925L7.76292 5.84856L8.08872 3.54779L2.11219 0ZM31.2551 0.0475493C28.3064 -0.204002 24.3968 1.80227 22.5675 3.54626C20.3168 5.85623 20.6844 8.87638 22.4733 11.7922L19.299 15.0517L21.5408 17.6393C22.7364 16.5656 24.4999 16.5656 25.6955 17.6393L26.3038 18.262L26.4442 18.4062L27.7519 17.0641C30.454 18.6945 33.2667 18.9292 35.4113 16.7282C37.5036 14.7341 39.7722 9.81663 38.7261 6.90232L34.5235 11.3597C33.9257 11.9732 33.0201 11.9732 32.4223 11.3597L28.0777 6.90232C27.9361 6.76288 27.8233 6.59547 27.7463 6.41017C27.6693 6.22486 27.6296 6.02548 27.6296 5.82402C27.6296 5.62256 27.6693 5.42318 27.7463 5.23788C27.8233 5.05257 27.9361 4.88517 28.0777 4.74573L32.4238 0.288364C32.0501 0.153385 31.6765 0.0843617 31.2551 0.0475493ZM14.8155 19.1731L9.39641 24.7333C8.81401 24.601 8.21891 24.5367 7.62243 24.5416C3.43782 24.5416 0.149902 27.916 0.149902 32.2108C0.149902 36.5056 3.43782 39.8801 7.62243 39.8801C11.807 39.8801 15.095 36.5056 15.095 32.2108C15.095 31.424 14.9739 30.6678 14.7677 29.9576L17.9435 26.6982L17.4772 26.0754C16.2816 24.8483 16.2906 22.9893 17.3367 21.7607L14.8155 19.1731ZM26.3979 26.1721C26.5847 26.1721 26.7611 26.2089 26.9105 26.3638L35.7386 35.4227C36.0375 35.7295 36.0375 36.2172 35.7386 36.524C35.4397 36.8308 34.9614 36.8308 34.6625 36.524L25.8375 27.4651C25.5386 27.1583 25.5386 26.6706 25.8375 26.3638C25.9869 26.2104 26.2111 26.1721 26.3979 26.1721ZM8.65065 28.2305L11.4992 31.1555L10.471 35.1328L6.59571 36.1881L3.74568 33.263L4.7739 29.2858L8.65065 28.2305Z" fill="white"/>
</svg>
