<svg width="50" height="50" viewBox="0 0 50 50" fill="none" xmlns="http://www.w3.org/2000/svg">
<path fill-rule="evenodd" clip-rule="evenodd" d="M10 0C4.47705 0 0 4.47715 0 10V40C0 45.5229 4.47705 50 10 50H40C45.5229 50 50 45.5229 50 40V10C50 4.47715 45.5229 0 40 0H10ZM9 9.71614L10.667 8L15.7432 11.0232L15.4668 12.9837L27.0898 24.951L27.9229 24.0936C28.0381 23.9697 28.1768 23.8711 28.3301 23.8037C28.4834 23.7364 28.6484 23.7016 28.8149 23.7016C28.9819 23.7016 29.147 23.7364 29.3003 23.8037C29.4536 23.8711 29.5923 23.9697 29.7075 24.0936L30.1836 24.5824C30.5645 24.9758 30.5645 25.7757 30.1836 26.2985L31.8506 27.85C32.6118 27.5886 33.5171 27.85 34.1519 28.5035L40.9751 35.5707C42.3716 37.0084 42.3867 39.3532 40.7368 40.9217C39.3403 42.3594 37.0552 42.3594 35.6587 40.9217L28.7959 33.8964C28.1611 33.2428 28.0342 32.3109 28.1611 31.5267L26.6533 29.9752C26.2725 30.4981 25.4956 30.4981 24.9878 29.9752L24.4722 29.4433C23.9644 28.9205 23.9644 28.1284 24.4722 27.6056L25.4639 26.6253L13.8403 14.6567L11.936 14.9443L9 9.71614ZM28.042 11.0219C29.5957 9.53577 32.9165 7.82616 35.4214 8.04052C35.7793 8.07189 36.0967 8.1307 36.4141 8.24572L32.7227 12.044C32.6021 12.1628 32.5063 12.3055 32.4409 12.4634C32.3755 12.6213 32.3418 12.7912 32.3418 12.9628C32.3418 13.1345 32.3755 13.3044 32.4409 13.4623C32.5063 13.6202 32.6021 13.7629 32.7227 13.8817L36.4126 17.6799C36.9204 18.2027 37.6899 18.2027 38.1978 17.6799L41.7676 13.8817C42.6562 16.365 40.729 20.5554 38.9517 22.2546C37.1299 24.1302 34.7407 23.9302 32.4458 22.5408L31.335 23.6845L31.2158 23.5616L30.6987 23.0309C29.6836 22.116 28.1855 22.116 27.1699 23.0309L25.2656 20.826L27.9619 18.0485C26.4424 15.5638 26.1304 12.9903 28.042 11.0219ZM16.854 29.076L21.457 24.338L23.5986 26.543C22.7104 27.5899 22.7026 29.174 23.7183 30.2197L24.1143 30.7503L21.4165 33.5278C21.5918 34.1329 21.6948 34.7773 21.6948 35.4478C21.6948 39.1075 18.9019 41.983 15.3472 41.983C11.793 41.983 9 39.1075 9 35.4478C9 31.7881 11.793 28.9126 15.3472 28.9126C15.854 28.9085 16.3594 28.9633 16.854 29.076ZM31.731 30.4654C31.604 30.3334 31.4541 30.302 31.2954 30.302C31.1367 30.302 30.9463 30.3347 30.8193 30.4654C30.5654 30.7268 30.5654 31.1424 30.8193 31.4038L38.3159 39.1232C38.5698 39.3846 38.9761 39.3846 39.23 39.1232C39.4839 38.8618 39.4839 38.4462 39.23 38.1848L31.731 30.4654ZM18.6401 34.5486L16.2207 32.0561L12.9277 32.9553L12.0542 36.3444L14.4751 38.837L17.7671 37.9377L18.6401 34.5486Z" fill="white"/>
</svg>
