<svg width="50" height="50" viewBox="0 0 50 50" fill="none" xmlns="http://www.w3.org/2000/svg">
<path fill-rule="evenodd" clip-rule="evenodd" d="M10 0C4.47715 0 0 4.47715 0 10V40C0 45.5228 4.47715 50 10 50H40C45.5228 50 50 45.5228 50 40V10C50 4.47715 45.5228 0 40 0H10ZM12.424 22.8598L10.4955 14.7555L9.88136 12.1749L9.8263 11.9435L9.70669 11.4409H9.2855H9.14525H9.07408H8.67017H7.42537H5.57513C5.15738 11.4409 4.75674 11.2596 4.46134 10.937C4.16595 10.6143 4 10.1767 4 9.72043C4 9.26414 4.16595 8.82655 4.46134 8.5039C4.75674 8.18126 5.15738 8 5.57513 8H7.42537H9.70669H10.9243C11.2731 7.99995 11.6121 8.12636 11.888 8.35942C12.164 8.59248 12.3613 8.91899 12.449 9.28774L12.7569 10.5806H13.3216H13.7934H39.4404C40.3067 10.5806 41.0155 11.3548 41.0155 12.3011V23.6989C41.0155 24.6452 40.3083 25.4598 39.4428 25.508L20.8509 26.5631L17.6401 26.7454L16.6168 26.8034L16.6757 27.0509L16.992 28.3811L17.1295 28.9591C17.2374 29.4133 17.1712 29.8959 16.946 30.2951L16.8349 30.4918L16.8269 30.506L16.7183 30.6984L16.4207 31.2258H17.5143H18.5951H18.5953H21.0704H39.1653H41.0155C41.4333 31.2258 41.8339 31.4071 42.1293 31.7297C42.4247 32.0524 42.5907 32.49 42.5907 32.9462C42.5907 33.4025 42.4247 33.8401 42.1293 34.1628C41.8339 34.4854 41.4333 34.6667 41.0155 34.6667H39.1653H16.4207H13.5988C13.3186 34.6664 13.0435 34.5845 12.8019 34.4293C12.5603 34.2742 12.361 34.0514 12.2245 33.7841C12.0879 33.5168 12.0189 33.2146 12.0249 32.9085C12.0308 32.6025 12.1115 32.3037 12.2584 32.043L13.5142 29.819L13.5149 29.8178L13.6142 29.6419L13.9123 29.114L13.7664 28.5007L13.7663 28.5005L13.5368 27.536L12.424 22.8598ZM16.6583 22.6195L14.7869 14.7555H36.8407V21.4741L16.6583 22.6195ZM14.978 37.8251C14.3181 37.8251 13.7972 38.3589 13.7972 39C13.7972 39.6411 14.3181 40.1749 14.978 40.1749C15.6378 40.1749 16.1588 39.6411 16.1588 39C16.1588 38.3589 15.6378 37.8251 14.978 37.8251ZM17.9721 39C17.9721 40.6569 16.6316 42 14.978 42C13.3244 42 11.9839 40.6569 11.9839 39C11.9839 37.3431 13.3244 36 14.978 36C16.6316 36 17.9721 37.3431 17.9721 39ZM35.7538 38.9999C35.7538 38.3588 36.2747 37.8251 36.9345 37.8251C37.5944 37.8251 38.1153 38.3588 38.1153 38.9999C38.1153 39.641 37.5944 40.1748 36.9345 40.1748C36.2747 40.1748 35.7538 39.641 35.7538 38.9999ZM36.9345 41.9999C38.5881 41.9999 39.9286 40.6568 39.9286 38.9999C39.9286 37.3431 38.5881 35.9999 36.9345 35.9999C35.2809 35.9999 33.9404 37.3431 33.9404 38.9999C33.9404 40.6568 35.2809 41.9999 36.9345 41.9999Z" fill="white"/>
</svg>
