<svg width="39" height="37" viewBox="0 0 39 37" fill="none" xmlns="http://www.w3.org/2000/svg">
<path d="M6.69473 0L4.73624 1.9557L7.65032 4.86839L9.60602 2.91269L6.69473 0ZM32.2538 0L29.3397 2.91269L31.2968 4.86839L34.2095 1.95709L32.2538 0ZM19.4735 0.867964C19.0145 0.871673 18.5509 0.901347 18.0826 0.956986H18.0409C12.3991 1.60379 7.90904 6.16199 7.12871 11.7787C6.50556 16.2994 8.36945 20.3985 11.4755 23.0386C12.7458 24.1231 13.6052 25.6109 13.9097 27.2532V35.599H17.0811C17.5651 36.4294 18.4484 36.99 19.4735 36.99C20.4987 36.99 21.382 36.4294 21.866 35.599H25.0374V30.0352H25.1682V28.3827C25.1682 26.3435 26.2281 24.2877 27.9501 22.6895C30.2535 20.3832 31.9923 17.1075 31.9923 13.3449C31.9923 6.47356 26.3366 0.803979 19.4735 0.867964ZM19.4735 3.6499C24.8496 3.57479 29.2103 7.97581 29.2103 13.3449C29.2103 16.2576 27.8611 18.8226 25.993 20.6893L26.0375 20.7338C24.1819 22.4462 22.9816 24.7523 22.6436 27.2546H16.5595C16.2535 24.8705 15.2311 22.5629 13.299 20.9076C10.8412 18.8212 9.37651 15.6776 9.86613 12.1278C10.474 7.7463 14.0293 4.22298 18.3858 3.74031C18.7455 3.69043 19.1077 3.66071 19.4708 3.65129L19.4735 3.6499ZM0 13.3449V16.1269H4.1729V13.3449H0ZM34.7742 13.3449V16.1269H38.9471V13.3449H34.7742ZM7.65032 24.6034L4.73764 27.5147L6.69473 29.4718L9.60463 26.5591L7.65032 24.6034ZM31.2968 24.6034L29.3411 26.5591L32.2524 29.4718L34.2095 27.5147L31.2968 24.6034ZM16.6916 30.0366H22.2555V32.8185H16.6916V30.0366Z" fill="#9A92FF"/>
</svg>
