<svg width="36" height="37" viewBox="0 0 36 37" fill="none" xmlns="http://www.w3.org/2000/svg">
<path d="M1.80807 0L0 1.86706L3.18512 7.55499L5.2507 7.24215L17.859 20.2632L16.7835 21.3297C16.2327 21.8985 16.2327 22.7602 16.7835 23.329L17.3426 23.9078C17.8934 24.4766 18.7362 24.4766 19.1493 23.9078L20.7852 25.5957C20.6475 26.4489 20.7852 27.4627 21.4738 28.1737L28.9181 35.8169C30.4329 37.381 32.9116 37.381 34.4263 35.8169C36.2165 34.1105 36.2 31.5595 34.6852 29.9953L27.2835 22.3066C26.595 21.5956 25.6132 21.3112 24.787 21.5956L22.9789 19.9077C23.392 19.3389 23.392 18.4687 22.9789 18.0407L22.4625 17.5089C22.3373 17.3741 22.187 17.2668 22.0206 17.1935C21.8543 17.1202 21.6753 17.0825 21.4944 17.0825C21.3136 17.0825 21.1346 17.1202 20.9682 17.1935C20.8018 17.2668 20.6515 17.3741 20.5263 17.5089L19.623 18.4417L7.01471 5.42201L7.3149 3.28904L1.80807 0ZM28.6606 0.0440814C25.9437 -0.189124 22.3413 1.67083 20.6558 3.28762C18.582 5.42912 18.9207 8.22901 20.569 10.9322L17.6442 13.9539L19.7098 16.3528C20.8114 15.3574 22.4363 15.3574 23.538 16.3528L24.0984 16.9301L24.2279 17.0638L25.4328 15.8195C27.9225 17.3311 30.5141 17.5487 32.4902 15.5081C34.4181 13.6596 36.5084 9.10068 35.5445 6.39892L31.6722 10.5312C31.1214 11.1 30.2869 11.1 29.7361 10.5312L25.733 6.39892C25.6024 6.26965 25.4986 6.11445 25.4276 5.94266C25.3566 5.77087 25.3201 5.58603 25.3201 5.39926C25.3201 5.2125 25.3566 5.02766 25.4276 4.85587C25.4986 4.68408 25.6024 4.52888 25.733 4.39961L29.7375 0.267332C29.3932 0.142198 29.0489 0.078209 28.6606 0.0440814ZM13.513 17.7748L8.51983 22.9294C7.98319 22.8068 7.43486 22.7472 6.88526 22.7517C3.02952 22.7517 0 25.8801 0 29.8616C0 33.8432 3.02952 36.9715 6.88526 36.9715C10.741 36.9715 13.7705 33.8432 13.7705 29.8616C13.7705 29.1321 13.659 28.4311 13.469 27.7727L16.3952 24.751L15.9655 24.1737C14.8639 23.0361 14.8722 21.3127 15.8361 20.1736L13.513 17.7748ZM24.1852 24.2633C24.3573 24.2633 24.5198 24.2974 24.6575 24.441L32.7918 32.8392C33.0672 33.1236 33.0672 33.5758 32.7918 33.8602C32.5163 34.1446 32.0757 34.1446 31.8003 33.8602L23.6688 25.462C23.3934 25.1776 23.3934 24.7254 23.6688 24.441C23.8065 24.2988 24.013 24.2633 24.1852 24.2633ZM7.83268 26.1716L10.4573 28.8833L9.50993 32.5705L5.93923 33.5488L3.31319 30.8371L4.2606 27.1499L7.83268 26.1716Z" fill="#A6A1E1"/>
</svg>
