<svg width="50" height="50" viewBox="0 0 50 50" fill="none" xmlns="http://www.w3.org/2000/svg">
<path fill-rule="evenodd" clip-rule="evenodd" d="M10 0C4.47705 0 0 4.47715 0 10V40C0 45.5229 4.47705 50 10 50H40C45.5229 50 50 45.5229 50 40V10C50 4.47715 45.5229 0 40 0H10ZM11 7.91257C9.95801 7.91257 8.93359 8.29943 8.1582 9.02632C7.37842 9.75748 6.9126 10.779 6.9126 11.875V23.125V28.75C6.9126 29.846 7.37842 30.8675 8.1582 31.5987C8.93359 32.3256 9.95801 32.7124 11 32.7124H22.9126V37.9126H19C17.8472 37.9126 16.9126 38.8471 16.9126 40C16.9126 41.1529 17.8472 42.0874 19 42.0874H25H31C32.1528 42.0874 33.0874 41.1529 33.0874 40C33.0874 38.8471 32.1528 37.9126 31 37.9126H27.0874V32.7124H39C40.042 32.7124 41.0664 32.3256 41.8418 31.5987C42.6216 30.8675 43.0874 29.846 43.0874 28.75V23.125V11.875C43.0874 10.779 42.6216 9.75748 41.8418 9.02632C41.0664 8.29943 40.042 7.91257 39 7.91257H11ZM11.0874 28.5376V25.2124H38.9126V28.5376H25H11.0874ZM11.0874 21.0376H38.9126V12.0874H11.0874V21.0376Z" fill="white"/>
</svg>
