<svg width="40" height="37" viewBox="0 0 40 37" fill="none" xmlns="http://www.w3.org/2000/svg">
<path d="M19.6064 24.6875V35M13.0439 35H26.1689M2.10645 16.4375H37.1064M4.29395 24.6875H34.9189C35.4991 24.6875 36.0555 24.4702 36.4657 24.0834C36.876 23.6966 37.1064 23.172 37.1064 22.625V4.0625C37.1064 3.51549 36.876 2.99089 36.4657 2.60409C36.0555 2.2173 35.4991 2 34.9189 2H4.29395C3.71378 2 3.15739 2.2173 2.74715 2.60409C2.33691 2.99089 2.10645 3.51549 2.10645 4.0625V22.625C2.10645 23.172 2.33691 23.6966 2.74715 24.0834C3.15739 24.4702 3.71378 24.6875 4.29395 24.6875Z" stroke="white" stroke-width="4" stroke-linecap="round" stroke-linejoin="round"/>
</svg>
