<svg width="409" height="419" viewBox="0 0 409 419" fill="none" xmlns="http://www.w3.org/2000/svg">
<path d="M407.758 277.31C415.385 319.367 386.415 337.854 361.076 353.096C266.901 400.09 200.392 418.295 81.2163 418.295C-14.1246 418.295 -6.1795 289.258 9.71063 224.74C13.6832 193.675 34.976 114.341 88.3669 45.5215C141.758 -23.2983 204.365 0.916109 228.995 21.6258C360.088 121.988 398.224 224.74 407.758 277.31Z" fill="#081544"/>
<rect x="30.9505" y="327.862" width="298.804" height="14.8467" rx="7.42333" fill="#A78138" stroke="#131353" stroke-width="4.26912"/>
<rect x="56.9111" y="327.862" width="298.804" height="14.8467" rx="7.42333" fill="#FFD688" stroke="#131353" stroke-width="4.26912"/>
<path d="M129.04 326.191H257.673L257.695 326.175C266.036 326.191 266.037 313.049 257.673 313.049L209.486 312.601L216.256 282.782H176.033H155.723V312.102L129.04 311.854H127.447C117.093 311.854 115.5 326.589 127.447 326.084C127.945 326.154 128.476 326.191 129.04 326.191Z" fill="#CBD1DD"/>
<path d="M129.04 311.854L155.723 312.102M129.04 311.854H127.447C117.093 311.854 115.5 326.589 127.447 326.084M129.04 311.854C120.344 311.854 118.109 324.776 127.447 326.084M209.486 312.601L257.673 313.049C266.037 313.049 266.036 326.191 257.695 326.175C257.688 326.18 257.68 326.186 257.673 326.191H129.04C128.476 326.191 127.945 326.154 127.447 326.084M209.486 312.601L216.256 282.782H176.033M209.486 312.601L169.263 312.227M176.033 282.782L169.263 312.227M176.033 282.782H155.723V312.102M169.263 312.227L155.723 312.102" stroke="#131353" stroke-width="5.97677"/>
<rect x="-2.98839" y="2.98839" width="236.953" height="193.146" rx="20.9187" transform="matrix(-1 0 0 1 295.903 83.6591)" fill="#8E91BC" stroke="#131353" stroke-width="5.97677"/>
<rect x="-2.98839" y="2.98839" width="236.953" height="193.146" rx="20.9187" transform="matrix(-1 0 0 1 315.017 83.6591)" fill="#CBD1DD" stroke="#131353" stroke-width="5.97677"/>
<rect x="-2.13456" y="2.13456" width="208.394" height="145.471" rx="11.5266" transform="matrix(-1 0 0 1 301.592 104.368)" fill="#E9EDF6" stroke="#131353" stroke-width="4.26912"/>
<path d="M296.303 118.705C296.303 114.563 292.586 113.262 290.728 113.129H97.5786H95.9856H94.7909L101.959 107.554L143.775 106.359L290.728 107.554H298.693L302.675 115.121V170.078V245.745L296.303 252.515V118.705Z" fill="#B7B7B7"/>
<rect x="-2.13456" y="2.13456" width="208.394" height="145.471" rx="11.5266" transform="matrix(-1 0 0 1 301.592 104.368)" stroke="#131353" stroke-width="4.26912"/>
<circle cx="6.77017" cy="6.77017" r="6.77017" transform="matrix(-1 0 0 1 206.3 258.887)" fill="#131353"/>
<circle cx="5.97368" cy="5.97368" r="5.97368" transform="matrix(-1 0 0 1 204.707 259.684)" fill="#8D8DD0"/>
<rect x="116.895" y="312.054" width="31.4583" height="13.9355" rx="6.96775" fill="#8E91BC" stroke="#131353" stroke-width="5.97677"/>
<path d="M176.431 289.154H215.061L216.256 282.782L156.917 281.587V291.941L176.431 289.154Z" fill="#8E91BC"/>
<path d="M209.486 312.601L257.673 313.049C266.037 313.049 266.036 326.191 257.695 326.175C257.688 326.18 257.68 326.186 257.673 326.191H129.04C128.476 326.191 127.945 326.154 127.447 326.084C115.5 326.589 117.093 311.854 127.447 311.854M209.486 312.601L216.256 282.782H176.033M209.486 312.601L169.263 312.227M176.033 282.782L169.263 312.227M176.033 282.782H155.723V312.102L169.263 312.227" stroke="#131353" stroke-width="5.97677"/>
<path d="M165.955 172.91C170.717 172.91 175.284 171.018 178.651 167.651C182.018 164.284 183.91 159.717 183.91 154.955C183.91 150.193 182.018 145.626 178.651 142.259C175.284 138.892 170.717 137 165.955 137L165.955 154.955V172.91Z" fill="#9A92FF"/>
<path fill-rule="evenodd" clip-rule="evenodd" d="M203.86 224.78H197.875L197.875 204.499C199.173 204.717 200.506 204.83 201.865 204.83C215.087 204.83 225.805 194.112 225.805 180.89C225.805 167.668 215.087 156.95 201.865 156.95C200.506 156.95 199.173 157.063 197.875 157.281L197.875 137H203.86C228.1 137 247.75 156.65 247.75 180.89C247.75 205.13 228.1 224.78 203.86 224.78Z" fill="#9A92FF"/>
<circle cx="201.466" cy="181.289" r="9.975" fill="#9A92FF"/>
<path fill-rule="evenodd" clip-rule="evenodd" d="M213.89 150.728C212.48 149.281 211.042 147.805 211.042 146.576C211.042 141.067 200.781 137 197.476 137C194.171 137 191.491 141.466 191.491 146.975C191.491 152.484 194.171 157.349 197.476 157.349C197.482 157.349 197.488 157.348 197.494 157.348C198.911 157.087 200.372 156.95 201.865 156.95C202.964 156.95 204.045 157.024 205.105 157.167C209.924 157.104 213.914 156.983 215.83 155.753C217.647 154.586 215.794 152.684 213.89 150.728Z" fill="#9A92FF"/>
<path fill-rule="evenodd" clip-rule="evenodd" d="M196.959 204.327C193.807 205.477 191.491 209.682 191.491 214.406C191.491 220.135 194.885 224.78 199.072 224.78C203.259 224.78 220.219 217.741 220.219 212.012C220.219 207.838 217.517 205.309 210.244 204.431C208.703 204.401 207.515 204.381 206.577 204.367C205.053 204.671 203.478 204.83 201.865 204.83C200.184 204.83 198.543 204.657 196.959 204.327Z" fill="#9A92FF"/>
<path fill-rule="evenodd" clip-rule="evenodd" d="M185.888 163.061C185.899 162.69 185.905 162.315 185.905 161.937C185.905 151.47 181.439 142.985 175.93 142.985C170.421 142.985 165.955 160.448 165.955 170.915C165.955 180.928 170.042 180.912 175.219 180.892C175.454 180.891 175.691 180.89 175.93 180.89C176.614 180.89 177.282 180.759 177.928 180.51C178.036 173.581 181.088 167.366 185.888 163.061Z" fill="#9A92FF"/>
</svg>
