<svg width="22" height="27" viewBox="0 0 22 27" fill="none" xmlns="http://www.w3.org/2000/svg">
<path d="M10.2025 26.7497C10.4354 26.9125 10.7141 27 11 27C11.2859 27 11.5646 26.9125 11.7975 26.7497C12.2155 26.4595 22.0398 19.4946 21.9999 10.8003C21.9999 4.8453 17.0651 0 11 0C4.93494 0 0.000121051 4.8453 0.000121051 10.7936C-0.0397535 19.4946 9.78451 26.4595 10.2025 26.7497ZM11 2.70008C15.5498 2.70008 19.2499 6.33305 19.2499 10.8071C19.2788 16.7986 13.2165 22.1785 11 23.943C8.7849 22.1771 2.72122 16.7959 2.75009 10.8003C2.75009 6.33305 6.45018 2.70008 11 2.70008Z" fill="#9A92FF"/>
<path d="M11 16C13.7575 16 16 13.5332 16 10.5C16 7.46675 13.7575 5 11 5C8.2425 5 6 7.46675 6 10.5C6 13.5332 8.2425 16 11 16ZM11 7.75C12.3787 7.75 13.5 8.98337 13.5 10.5C13.5 12.0166 12.3787 13.25 11 13.25C9.62125 13.25 8.5 12.0166 8.5 10.5C8.5 8.98337 9.62125 7.75 11 7.75Z" fill="#9A92FF"/>
</svg>
