<svg width="18" height="18" viewBox="0 0 18 18" fill="none" xmlns="http://www.w3.org/2000/svg">
<path d="M10.8 5.4H11.7C11.9387 5.4 12.1676 5.30518 12.3364 5.1364C12.5052 4.96761 12.6 4.73869 12.6 4.5C12.6 4.2613 12.5052 4.03239 12.3364 3.8636C12.1676 3.69482 11.9387 3.6 11.7 3.6H10.8C10.5613 3.6 10.3324 3.69482 10.1636 3.8636C9.99482 4.03239 9.9 4.2613 9.9 4.5C9.9 4.73869 9.99482 4.96761 10.1636 5.1364C10.3324 5.30518 10.5613 5.4 10.8 5.4ZM10.8 9H11.7C11.9387 9 12.1676 8.90518 12.3364 8.7364C12.5052 8.56761 12.6 8.33869 12.6 8.1C12.6 7.8613 12.5052 7.63239 12.3364 7.4636C12.1676 7.29482 11.9387 7.2 11.7 7.2H10.8C10.5613 7.2 10.3324 7.29482 10.1636 7.4636C9.99482 7.63239 9.9 7.8613 9.9 8.1C9.9 8.33869 9.99482 8.56761 10.1636 8.7364C10.3324 8.90518 10.5613 9 10.8 9ZM6.3 5.4H7.2C7.43869 5.4 7.66761 5.30518 7.8364 5.1364C8.00518 4.96761 8.1 4.73869 8.1 4.5C8.1 4.2613 8.00518 4.03239 7.8364 3.8636C7.66761 3.69482 7.43869 3.6 7.2 3.6H6.3C6.06131 3.6 5.83239 3.69482 5.6636 3.8636C5.49482 4.03239 5.4 4.2613 5.4 4.5C5.4 4.73869 5.49482 4.96761 5.6636 5.1364C5.83239 5.30518 6.06131 5.4 6.3 5.4ZM6.3 9H7.2C7.43869 9 7.66761 8.90518 7.8364 8.7364C8.00518 8.56761 8.1 8.33869 8.1 8.1C8.1 7.8613 8.00518 7.63239 7.8364 7.4636C7.66761 7.29482 7.43869 7.2 7.2 7.2H6.3C6.06131 7.2 5.83239 7.29482 5.6636 7.4636C5.49482 7.63239 5.4 7.8613 5.4 8.1C5.4 8.33869 5.49482 8.56761 5.6636 8.7364C5.83239 8.90518 6.06131 9 6.3 9ZM17.1 16.2H16.2V0.9C16.2 0.661305 16.1052 0.432387 15.9364 0.263604C15.7676 0.0948211 15.5387 0 15.3 0H2.7C2.46131 0 2.23239 0.0948211 2.0636 0.263604C1.89482 0.432387 1.8 0.661305 1.8 0.9V16.2H0.9C0.661305 16.2 0.432387 16.2948 0.263604 16.4636C0.0948211 16.6324 0 16.8613 0 17.1C0 17.3387 0.0948211 17.5676 0.263604 17.7364C0.432387 17.9052 0.661305 18 0.9 18H17.1C17.3387 18 17.5676 17.9052 17.7364 17.7364C17.9052 17.5676 18 17.3387 18 17.1C18 16.8613 17.9052 16.6324 17.7364 16.4636C17.5676 16.2948 17.3387 16.2 17.1 16.2ZM9.9 16.2H8.1V12.6H9.9V16.2ZM14.4 16.2H11.7V11.7C11.7 11.4613 11.6052 11.2324 11.4364 11.0636C11.2676 10.8948 11.0387 10.8 10.8 10.8H7.2C6.96131 10.8 6.73239 10.8948 6.5636 11.0636C6.39482 11.2324 6.3 11.4613 6.3 11.7V16.2H3.6V1.8H14.4V16.2Z" fill="#9A92FF"/>
</svg>
