<svg width="21" height="20" viewBox="0 0 21 20" fill="none" xmlns="http://www.w3.org/2000/svg">
<path d="M19.0893 18.5893L14.4286 13.9286M2 8.75C2 9.70208 2.18753 10.6448 2.55187 11.5245C2.91622 12.4041 3.45025 13.2033 4.12348 13.8765C4.7967 14.5498 5.59594 15.0838 6.47555 15.4481C7.35516 15.8125 8.29792 16 9.25 16C10.2021 16 11.1448 15.8125 12.0245 15.4481C12.9041 15.0838 13.7033 14.5498 14.3765 13.8765C15.0498 13.2033 15.5838 12.4041 15.9481 11.5245C16.3125 10.6448 16.5 9.70208 16.5 8.75C16.5 7.79792 16.3125 6.85516 15.9481 5.97555C15.5838 5.09594 15.0498 4.2967 14.3765 3.62348C13.7033 2.95025 12.9041 2.41622 12.0245 2.05187C11.1448 1.68753 10.2021 1.5 9.25 1.5C8.29792 1.5 7.35516 1.68753 6.47555 2.05187C5.59594 2.41622 4.7967 2.95025 4.12348 3.62348C3.45025 4.2967 2.91622 5.09594 2.55187 5.97555C2.18753 6.85516 2 7.79792 2 8.75Z" stroke="white" stroke-width="2.25" stroke-linecap="round" stroke-linejoin="round"/>
</svg>
