<svg width="32" height="37" viewBox="0 0 32 37" fill="none" xmlns="http://www.w3.org/2000/svg">
<path d="M16 0L32 5.6V18.496C32 25.0992 27.9472 29.7152 24.1664 32.5808C21.8857 34.2951 19.3829 35.6919 16.7264 36.7328L16.5872 36.7856L16.5472 36.8L16.536 36.8032L16.5312 36.8048C16.5296 36.8048 16.528 36.8048 16 35.296L15.4704 36.8064L15.464 36.8032L15.4528 36.8L15.4128 36.784L15.2736 36.7328C14.519 36.441 13.777 36.1175 13.0496 35.7632C11.2134 34.8712 9.46678 33.8055 7.8336 32.5808C4.0544 29.7152 0 25.0992 0 18.496V5.6L16 0ZM16 35.296L15.4704 36.8064L16 36.992L16.5296 36.8064L16 35.296ZM16 33.5808L16.0144 33.5744C18.2283 32.6593 20.3178 31.4686 22.2336 30.0304C25.6544 27.44 28.8 23.6528 28.8 18.496V7.872L16 3.392L3.2 7.872V18.496C3.2 23.6528 6.3456 27.4368 9.7664 30.032C11.6864 31.4729 13.7809 32.6653 16 33.5808ZM25.7152 12.6448L14.4016 23.9584L7.6128 17.1712L9.8768 14.9072L14.4 19.4336L23.4512 10.3824L25.7152 12.6448Z" fill="#9A92FF"/>
</svg>
