<svg width="36" height="29" viewBox="0 0 36 29" fill="none" xmlns="http://www.w3.org/2000/svg">
<path d="M9.525 19.3618L6.375 15.6941C7.925 13.9314 9.7 12.5809 11.7 11.6426C13.7 10.7044 15.8 10.2353 18 10.2353C20.2 10.2353 22.3065 10.7118 24.3195 11.6648C26.3325 12.6178 28.101 13.9894 29.625 15.7794L26.475 19.3618C25.35 18.0824 24.056 17.0946 22.593 16.3986C21.13 15.7026 19.599 15.3541 18 15.3529C16.401 15.3518 14.87 15.7004 13.407 16.3986C11.944 17.0969 10.65 18.0846 9.525 19.3618ZM3.15 12.1118L0 8.52941C2.375 5.77157 5.119 3.66026 8.232 2.19547C11.345 0.730688 14.601 -0.00113593 18 1.32341e-06C21.399 0.00113858 24.6555 0.733531 27.7695 2.19718C30.8835 3.66083 33.627 5.77157 36 8.52941L32.85 12.1118C30.875 9.86569 28.606 8.13877 26.043 6.931C23.48 5.72324 20.799 5.11879 18 5.11765C15.201 5.11651 12.5195 5.72096 9.9555 6.931C7.3915 8.14104 5.123 9.86796 3.15 12.1118ZM18 29L12.7125 22.9441C13.4125 22.148 14.219 21.5368 15.132 21.1103C16.045 20.6838 17.001 20.4706 18 20.4706C18.999 20.4706 19.9555 20.6838 20.8695 21.1103C21.7835 21.5368 22.5895 22.148 23.2875 22.9441L18 29Z" fill="white"/>
</svg>
