<svg width="50" height="50" viewBox="0 0 50 50" fill="none" xmlns="http://www.w3.org/2000/svg">
<path fill-rule="evenodd" clip-rule="evenodd" d="M10 0C4.47705 0 0 4.47715 0 10V40C0 45.5229 4.47705 50 10 50H40C45.5229 50 50 45.5229 50 40V10C50 4.47715 45.5229 0 40 0H10ZM12.6538 26.3802L15.9414 30.2082C17.1157 28.8752 18.4663 27.8443 19.9932 27.1155C21.52 26.3867 23.1182 26.0229 24.7871 26.0241C26.4556 26.0253 28.0537 26.3891 29.5806 27.1155C31.1074 27.842 32.458 28.8728 33.6323 30.2082L36.9199 26.4692C35.3296 24.6009 33.4839 23.1694 31.3828 22.1748C29.2817 21.1801 27.083 20.6827 24.7871 20.6827C22.4907 20.6827 20.2988 21.1724 18.2114 22.1516C16.124 23.1309 14.2715 24.5404 12.6538 26.3802ZM6 18.9023L9.2876 22.6412C11.3472 20.2994 13.7148 18.4969 16.3906 17.234C19.0669 15.9711 21.8657 15.3402 24.7871 15.3414C27.708 15.3426 30.5063 15.9734 33.1816 17.234C35.8564 18.4946 38.2246 20.297 40.2861 22.6412L43.5737 18.9023C41.0972 16.0239 38.2334 13.8209 34.9834 12.2932C31.7334 10.7656 28.3345 10.0012 24.7871 10C21.2393 9.99881 17.8408 10.7626 14.5918 12.2915C11.3428 13.8203 8.479 16.0239 6 18.9023ZM19.2681 33.9471L24.7871 40.2678L30.3057 33.9471C29.5771 33.1163 28.7358 32.4783 27.7817 32.0331C26.8276 31.588 25.8296 31.3655 24.7871 31.3655C23.7441 31.3655 22.7466 31.588 21.7935 32.0331C20.8408 32.4783 19.999 33.1163 19.2681 33.9471Z" fill="white"/>
</svg>
