<svg width="410" height="316" viewBox="0 0 410 316" fill="none" xmlns="http://www.w3.org/2000/svg">
<path d="M149.095 171.823L197.795 199.295V254.24L149.095 281.713L100.395 254.24V199.295L149.095 171.823Z" fill="#BFD7FF"/>
<path d="M144.483 160.85L147.895 158.925L148.381 159.787L149.601 159.099L150.821 159.787L151.307 158.925L154.72 160.85L154.233 161.712L157.646 163.637L158.132 162.775L161.545 164.7L161.058 165.562L164.471 167.487L164.957 166.625L168.37 168.55L167.883 169.412L171.296 171.337L171.782 170.475L175.194 172.4L174.708 173.262L178.12 175.187L178.607 174.325L182.019 176.25L181.533 177.112L184.945 179.037L185.432 178.175L188.844 180.1L188.358 180.962L191.77 182.887L192.256 182.025L195.669 183.95L195.182 184.812L198.595 186.737L199.081 185.875L202.494 187.8L202.007 188.662L205.42 190.587L205.906 189.725L209.319 191.65L208.832 192.512L210.035 193.191V194.538H211.025V198.388H210.035V202.238H211.025V206.088H210.035V209.938H211.025V213.788H210.035V217.638H211.025V221.488H210.035V225.338H211.025V229.188H210.035V233.038H211.025V236.888H210.035V240.738H211.025V244.588H210.035V248.438H211.025V252.288H210.035V256.138H211.025V259.988H210.035V261.334L208.832 262.013L209.319 262.875L205.906 264.8L205.42 263.938L202.007 265.863L202.494 266.725L199.081 268.65L198.595 267.788L195.182 269.713L195.669 270.575L192.256 272.5L191.77 271.638L188.358 273.563L188.844 274.425L185.432 276.35L184.945 275.488L181.533 277.413L182.019 278.275L178.607 280.2L178.12 279.338L174.708 281.263L175.194 282.125L171.782 284.05L171.296 283.188L167.883 285.113L168.37 285.975L164.957 287.9L164.471 287.038L161.058 288.963L161.545 289.825L158.132 291.75L157.646 290.888L154.233 292.813L154.72 293.675L151.307 295.6L150.821 294.738L149.601 295.426L148.381 294.738L147.895 295.6L144.483 293.675L144.969 292.813L141.557 290.888L141.07 291.75L137.658 289.825L138.144 288.963L134.732 287.038L134.245 287.9L130.833 285.975L131.319 285.113L127.907 283.188L127.421 284.05L124.008 282.125L124.495 281.263L121.082 279.338L120.596 280.2L117.183 278.275L117.67 277.413L114.257 275.488L113.771 276.35L110.358 274.425L110.845 273.563L107.432 271.638L106.946 272.5L103.534 270.575L104.02 269.713L100.608 267.788L100.121 268.65L96.7088 266.725L97.1952 265.863L93.7828 263.938L93.2963 264.8L89.8839 262.875L90.3703 262.013L89.1677 261.334V259.988H88.1777V256.138H89.1677V252.288H88.1777V248.438H89.1677V244.588H88.1777V240.738H89.1677V236.888H88.1777V233.038H89.1677V229.188H88.1777V225.338H89.1677V221.488H88.1777V217.638H89.1677V213.788H88.1777V209.938H89.1677V206.088H88.1777V202.238H89.1677V198.388H88.1777V194.538H89.1677V193.191L90.3703 192.512L89.8839 191.65L93.2963 189.725L93.7828 190.587L97.1952 188.662L96.7088 187.8L100.121 185.875L100.608 186.737L104.02 184.812L103.534 183.95L106.946 182.025L107.432 182.887L110.845 180.962L110.358 180.1L113.771 178.175L114.257 179.037L117.67 177.112L117.183 176.25L120.596 174.325L121.082 175.187L124.495 173.262L124.008 172.4L127.421 170.475L127.907 171.337L131.319 169.412L130.833 168.55L134.245 166.625L134.732 167.487L138.144 165.562L137.658 164.7L141.07 162.775L141.557 163.637L144.969 161.712L144.483 160.85Z" stroke="#6193E7" stroke-width="1.98" stroke-dasharray="3.96 3.96"/>
<ellipse cx="152.641" cy="126.283" rx="95.2431" ry="93.06" fill="#BFD7FF"/>
<path d="M237.545 119.921C237.636 121.215 237.698 122.517 237.729 123.826L236.739 123.85C236.754 124.494 236.762 125.14 236.762 125.788C236.762 126.435 236.754 127.081 236.739 127.726L237.729 127.749C237.698 129.058 237.636 130.36 237.545 131.654L236.557 131.584C236.466 132.874 236.344 134.156 236.192 135.429L237.175 135.546C237.021 136.845 236.836 138.136 236.621 139.416L235.645 139.252C235.431 140.526 235.188 141.791 234.915 143.045L235.883 143.255C235.605 144.533 235.297 145.799 234.961 147.055L234.004 146.798C233.67 148.045 233.306 149.28 232.915 150.504L233.857 150.806C233.459 152.05 233.031 153.281 232.576 154.5L231.648 154.153C231.196 155.362 230.716 156.557 230.209 157.739L231.119 158.129C230.604 159.329 230.061 160.514 229.491 161.685L228.601 161.251C228.036 162.411 227.445 163.555 226.827 164.684L227.696 165.159C227.07 166.304 226.417 167.433 225.739 168.545L224.894 168.029C224.223 169.13 223.526 170.214 222.805 171.28L223.626 171.835C222.895 172.915 222.14 173.978 221.361 175.022L220.567 174.43C219.797 175.463 219.002 176.477 218.185 177.473L218.95 178.101C218.123 179.108 217.272 180.096 216.399 181.065L215.664 180.402C214.801 181.358 213.916 182.295 213.01 183.212L213.714 183.908C212.798 184.834 211.86 185.74 210.902 186.624L210.23 185.897C209.284 186.77 208.317 187.622 207.33 188.452L207.968 189.209C206.971 190.048 205.954 190.864 204.919 191.658L204.317 190.872C203.295 191.654 202.254 192.415 201.196 193.152L201.761 193.964C200.693 194.708 199.606 195.429 198.502 196.125L197.974 195.287C196.886 195.974 195.78 196.636 194.658 197.274L195.148 198.135C194.017 198.778 192.869 199.397 191.706 199.991L191.256 199.109C190.11 199.693 188.949 200.253 187.774 200.787L188.183 201.688C186.999 202.226 185.8 202.738 184.587 203.224L184.219 202.305C183.025 202.783 181.818 203.235 180.598 203.661L180.924 204.595C179.697 205.024 178.456 205.425 177.203 205.8L176.92 204.851C175.689 205.219 174.446 205.56 173.191 205.874L173.431 206.834C172.171 207.149 170.9 207.437 169.618 207.697L169.421 206.727C168.163 206.982 166.895 207.21 165.617 207.409L165.77 208.388C164.488 208.588 163.196 208.761 161.895 208.905L161.786 207.921C160.511 208.062 159.228 208.176 157.936 208.262L158.001 209.249C156.707 209.335 155.405 209.392 154.096 209.421L154.074 208.431C153.429 208.446 152.783 208.453 152.134 208.453C151.486 208.453 150.839 208.446 150.195 208.431L150.173 209.421C148.863 209.392 147.561 209.335 146.267 209.249L146.332 208.262C145.041 208.176 143.757 208.062 142.482 207.921L142.373 208.905C141.073 208.761 139.781 208.588 138.498 208.388L138.651 207.409C137.374 207.21 136.105 206.982 134.847 206.727L134.651 207.697C133.369 207.437 132.097 207.149 130.837 206.834L131.077 205.874C129.823 205.56 128.58 205.219 127.348 204.851L127.065 205.8C125.812 205.425 124.572 205.024 123.344 204.595L123.67 203.661C122.45 203.235 121.243 202.783 120.05 202.305L119.682 203.224C118.469 202.738 117.27 202.226 116.085 201.688L116.495 200.787C115.319 200.253 114.158 199.693 113.012 199.109L112.563 199.991C111.399 199.397 110.252 198.778 109.121 198.135L109.61 197.274C108.488 196.636 107.383 195.974 106.295 195.287L105.766 196.125C104.662 195.428 103.576 194.708 102.507 193.964L103.073 193.152C102.014 192.415 100.974 191.654 99.9519 190.872L99.3498 191.658C98.3141 190.864 97.2975 190.048 96.3008 189.209L96.9381 188.452C95.9514 187.622 94.9845 186.77 94.0382 185.897L93.3669 186.624C92.4082 185.74 91.4704 184.834 90.5544 183.908L91.2583 183.212C90.3521 182.295 89.4673 181.358 88.6049 180.402L87.8696 181.065C86.9965 180.096 86.146 179.108 85.3189 178.101L86.0839 177.473C85.2664 176.477 84.472 175.463 83.7015 174.43L82.908 175.022C82.1286 173.978 81.3733 172.915 80.643 171.835L81.4632 171.28C80.7421 170.214 80.0457 169.13 79.3747 168.029L78.5294 168.545C77.8513 167.433 77.1987 166.304 76.5727 165.159L77.4413 164.684C76.8238 163.555 76.2325 162.411 75.668 161.251L74.7779 161.685C74.2079 160.514 73.665 159.329 73.1498 158.129L74.0595 157.739C73.5522 156.557 73.0721 155.362 72.6201 154.153L71.6929 154.5C71.2372 153.282 70.8097 152.05 70.4112 150.806L71.354 150.504C70.9621 149.28 70.5986 148.045 70.2642 146.798L69.308 147.055C68.9713 145.799 68.6637 144.533 68.386 143.255L69.3534 143.045C69.0808 141.791 68.8373 140.527 68.6236 139.252L67.6472 139.416C67.4325 138.136 67.2476 136.845 67.0931 135.546L68.0761 135.429C67.9248 134.156 67.803 132.874 67.7115 131.584L66.724 131.654C66.6323 130.36 66.5707 129.058 66.5398 127.749L67.5296 127.726C67.5144 127.081 67.5068 126.435 67.5068 125.788C67.5068 125.14 67.5144 124.494 67.5296 123.85L66.5398 123.826C66.5707 122.517 66.6323 121.215 66.724 119.921L67.7115 119.991C67.803 118.701 67.9248 117.419 68.0761 116.146L67.0931 116.029C67.2476 114.73 67.4325 113.44 67.6472 112.159L68.6236 112.323C68.8373 111.049 69.0808 109.785 69.3534 108.531L68.386 108.32C68.6637 107.043 68.9713 105.776 69.308 104.521L70.2642 104.777C70.5986 103.53 70.9621 102.295 71.354 101.072L70.4111 100.77C70.8097 99.5256 71.2372 98.2939 71.6929 97.0755L72.6201 97.4223C73.0721 96.2137 73.5521 95.0183 74.0595 93.8368L73.1498 93.4462C73.665 92.2465 74.2079 91.0611 74.7779 89.8906L75.668 90.324C76.2325 89.1647 76.8238 88.0202 77.4412 86.8913L76.5727 86.4163C77.1987 85.2716 77.8512 84.1428 78.5294 83.0306L79.3747 83.5461C80.0457 82.4457 80.7421 81.3618 81.4632 80.2951L80.643 79.7407C81.3733 78.6604 82.1286 77.5976 82.908 76.5531L83.7015 77.1452C84.472 76.1127 85.2664 75.0983 86.0839 74.1027L85.3189 73.4744C86.146 72.4671 86.9965 71.479 87.8696 70.5107L88.6049 71.1736C89.4673 70.2171 90.3521 69.2802 91.2583 68.3638L90.5544 67.6677C91.4704 66.7412 92.4082 65.8354 93.3669 64.951L94.0382 65.6787C94.9845 64.8057 95.9514 63.9537 96.9382 63.1237L96.3009 62.3661C97.2975 61.5277 98.3141 60.7113 99.3499 59.9178L99.9519 60.7037C100.974 59.921 102.014 59.1607 103.073 58.4236L102.507 57.6112C103.576 56.8673 104.662 56.1469 105.767 55.4506L106.295 56.288C107.383 55.6017 108.488 54.9391 109.61 54.301L109.121 53.4404C110.252 52.797 111.399 52.1782 112.563 51.5847L113.012 52.4666C114.158 51.8822 115.319 51.3226 116.495 50.7886L116.085 49.8872C117.27 49.3493 118.469 48.8371 119.682 48.3513L120.05 49.2703C121.243 48.7923 122.45 48.3402 123.67 47.9147L123.344 46.9799C124.572 46.5517 125.812 46.1502 127.065 45.7759L127.348 46.7245C128.58 46.3566 129.823 46.0155 131.077 45.7017L130.837 44.7413C132.097 44.4261 133.369 44.1382 134.651 43.8783L134.848 44.8485C136.105 44.5935 137.374 44.3658 138.651 44.1659L138.499 43.1878C139.781 42.9873 141.073 42.8146 142.373 42.6704L142.482 43.6544C143.757 43.513 145.041 43.3993 146.333 43.3139L146.267 42.326C147.561 42.2404 148.864 42.183 150.173 42.1542L150.195 43.144C150.839 43.1298 151.486 43.1227 152.134 43.1227C152.783 43.1227 153.429 43.1298 154.074 43.144L154.096 42.1542C155.405 42.183 156.707 42.2404 158.001 42.326L157.936 43.3139C159.228 43.3993 160.511 43.513 161.786 43.6544L161.895 42.6704C163.196 42.8146 164.488 42.9873 165.77 43.1878L165.617 44.166C166.895 44.3658 168.163 44.5935 169.421 44.8485L169.618 43.8783C170.9 44.1382 172.171 44.4261 173.431 44.7413L173.191 45.7017C174.446 46.0155 175.689 46.3566 176.92 46.7245L177.203 45.7759C178.456 46.1502 179.697 46.5518 180.925 46.98L180.598 47.9147C181.818 48.3402 183.025 48.7923 184.219 49.2703L184.587 48.3513C185.8 48.8371 186.999 49.3493 188.183 49.8872L187.774 50.7886C188.949 51.3226 190.11 51.8822 191.256 52.4666L191.706 51.5848C192.869 52.1782 194.017 52.797 195.148 53.4404L194.658 54.301C195.78 54.9391 196.886 55.6017 197.974 56.288L198.502 55.4506C199.606 56.1469 200.693 56.8673 201.761 57.6112L201.196 58.4237C202.254 59.1607 203.295 59.921 204.317 60.7037L204.919 59.9178C205.954 60.7114 206.971 61.5277 207.968 62.3661L207.33 63.1237C208.317 63.9537 209.284 64.8057 210.23 65.6787L210.902 64.951C211.86 65.8354 212.798 66.7413 213.714 67.6677L213.01 68.3638C213.916 69.2802 214.801 70.2171 215.664 71.1736L216.399 70.5107C217.272 71.4789 218.123 72.4671 218.95 73.4744L218.185 74.1027C219.002 75.0983 219.797 76.1127 220.567 77.1452L221.361 76.5531C222.14 77.5976 222.895 78.6604 223.626 79.7407L222.805 80.2951C223.526 81.3618 224.223 82.4457 224.894 83.5461L225.739 83.0306C226.417 84.1428 227.07 85.2716 227.696 86.4163L226.827 86.8913C227.445 88.0202 228.036 89.1647 228.601 90.324L229.491 89.8906C230.061 91.0611 230.604 92.2465 231.119 93.4462L230.209 93.8368C230.716 95.0183 231.196 96.2137 231.648 97.4222L232.576 97.0755C233.031 98.2939 233.459 99.5256 233.857 100.77L232.915 101.072C233.306 102.295 233.67 103.53 234.004 104.777L234.961 104.521C235.297 105.776 235.605 107.043 235.883 108.32L234.915 108.531C235.188 109.784 235.431 111.049 235.645 112.323L236.621 112.159C236.836 113.44 237.021 114.73 237.175 116.029L236.192 116.146C236.344 117.419 236.466 118.701 236.557 119.991L237.545 119.921Z" stroke="#6193E7" stroke-width="1.98" stroke-dasharray="3.96 3.96"/>
<rect x="1.27146" y="0.609939" width="99.0897" height="97.2781" transform="matrix(0.945765 -0.324852 0.338541 0.940952 251.799 80.2017)" stroke="#6193E7" stroke-width="1.98" stroke-dasharray="3.96 3.96"/>
<rect x="0.635731" y="0.304969" width="85.4294" height="83.8804" transform="matrix(0.945765 -0.324852 0.338541 0.940952 260.987 83.9372)" fill="#BFD7FF" stroke="#BFD7FF" stroke-width="0.99"/>
<path d="M311.717 174.793L305.638 180.733H297.532V188.653L291.453 194.593L297.532 200.533V208.453H305.638L311.717 214.393L317.797 208.453H325.902V200.533L331.982 194.593L325.902 188.653V180.733H317.797L311.717 174.793Z" stroke="#ACACAC" stroke-width="3.96" stroke-linejoin="round"/>
<path d="M311.717 200.533C313.33 200.533 314.876 199.907 316.016 198.793C317.156 197.679 317.797 196.168 317.797 194.593C317.797 193.017 317.156 191.506 316.016 190.392C314.876 189.279 313.33 188.653 311.717 188.653C310.105 188.653 308.559 189.279 307.418 190.392C306.278 191.506 305.638 193.017 305.638 194.593C305.638 196.168 306.278 197.679 307.418 198.793C308.559 199.907 310.105 200.533 311.717 200.533Z" stroke="#ACACAC" stroke-width="3.96" stroke-linejoin="round"/>
<mask id="path-9-inside-1_91_212" fill="white">
<path d="M288.682 184.08L289.594 183.195C293.813 183.329 293.877 183.185 294.063 182.761L295.222 180.004L295.308 179.743L295.214 179.514C295.164 179.393 295.011 179.033 292.377 176.579V175.288C295.417 172.426 295.352 172.28 295.178 171.861L294.024 169.075C293.851 168.658 293.785 168.494 289.597 168.606L288.685 167.685C288.78 166.329 288.732 164.967 288.542 163.62L288.424 163.36L285.411 162.073C284.967 161.875 284.811 161.804 281.966 164.831L280.687 164.812C277.758 161.757 277.619 161.813 277.18 161.986L274.379 163.093C273.94 163.266 273.785 163.327 273.955 167.485L273.051 168.367C268.834 168.232 268.769 168.378 268.585 168.8L267.424 171.558L267.333 171.823L267.428 172.052C267.478 172.171 267.625 172.527 270.265 174.985V176.272C267.226 179.133 267.291 179.279 267.466 179.699L268.619 182.488C268.795 182.915 268.858 183.066 273.046 182.959L273.957 183.885C273.863 185.239 273.909 186.599 274.096 187.944L274.214 188.206L277.246 189.501C277.687 189.681 277.84 189.746 280.677 186.729L281.956 186.745C284.889 189.804 285.039 189.745 285.468 189.575L288.263 188.471C288.705 188.3 288.859 188.24 288.682 184.08ZM276.667 177.621C276.313 176.718 276.24 175.733 276.458 174.79C276.675 173.847 277.172 172.988 277.887 172.32C278.602 171.652 279.503 171.205 280.477 171.036C281.451 170.866 282.455 170.982 283.362 171.368C284.269 171.753 285.04 172.392 285.576 173.204C286.113 174.016 286.393 174.965 286.38 175.932C286.367 176.898 286.062 177.84 285.503 178.637C284.945 179.435 284.158 180.054 283.241 180.417C281.989 180.895 280.595 180.869 279.363 180.345C278.131 179.821 277.161 178.842 276.667 177.621Z"/>
</mask>
<path d="M288.682 184.08L287.303 182.659L286.666 183.277L286.703 184.164L288.682 184.08ZM289.594 183.195L289.657 181.216L288.817 181.189L288.214 181.774L289.594 183.195ZM294.063 182.761L295.877 183.555L295.883 183.542L295.888 183.528L294.063 182.761ZM295.222 180.004L297.047 180.771L297.078 180.699L297.102 180.624L295.222 180.004ZM295.308 179.743L297.189 180.362L297.418 179.666L297.139 178.988L295.308 179.743ZM295.214 179.514L293.383 180.267L293.383 180.268L295.214 179.514ZM292.377 176.579H290.397V177.44L291.027 178.027L292.377 176.579ZM292.377 175.288L291.02 173.846L290.397 174.432V175.288H292.377ZM295.178 171.861L297.008 171.104L297.008 171.103L295.178 171.861ZM294.024 169.075L295.854 168.318L295.853 168.317L294.024 169.075ZM289.597 168.606L288.19 169.999L288.793 170.608L289.649 170.585L289.597 168.606ZM288.685 167.685L286.71 167.547L286.647 168.441L287.278 169.079L288.685 167.685ZM288.542 163.62L290.502 163.343L290.463 163.063L290.346 162.806L288.542 163.62ZM288.424 163.36L290.229 162.545L289.911 161.842L289.202 161.539L288.424 163.36ZM285.411 162.073L284.604 163.881L284.619 163.888L284.633 163.894L285.411 162.073ZM281.966 164.831L281.937 166.811L282.81 166.824L283.409 166.187L281.966 164.831ZM280.687 164.812L279.258 166.183L279.831 166.78L280.658 166.792L280.687 164.812ZM277.18 161.986L276.453 160.144L276.453 160.144L277.18 161.986ZM274.379 163.093L275.106 164.934L275.106 164.934L274.379 163.093ZM273.955 167.485L275.337 168.904L275.97 168.287L275.934 167.404L273.955 167.485ZM273.051 168.367L272.987 170.345L273.829 170.372L274.432 169.785L273.051 168.367ZM268.585 168.8L266.77 168.011L266.765 168.021L266.76 168.032L268.585 168.8ZM267.424 171.558L265.599 170.79L265.574 170.85L265.552 170.913L267.424 171.558ZM267.333 171.823L265.461 171.177L265.216 171.887L265.504 172.581L267.333 171.823ZM267.428 172.052L265.599 172.811L265.601 172.816L267.428 172.052ZM270.265 174.985H272.245V174.123L271.614 173.535L270.265 174.985ZM270.265 176.272L271.622 177.713L272.245 177.127V176.272H270.265ZM267.466 179.699L269.295 178.943L269.294 178.94L267.466 179.699ZM268.619 182.488L270.449 181.732L270.449 181.731L268.619 182.488ZM273.046 182.959L274.456 181.57L273.853 180.958L272.995 180.98L273.046 182.959ZM273.957 183.885L275.933 184.023L275.995 183.132L275.368 182.495L273.957 183.885ZM274.096 187.944L272.135 188.217L272.174 188.496L272.289 188.753L274.096 187.944ZM274.214 188.206L272.407 189.016L272.724 189.723L273.436 190.027L274.214 188.206ZM277.246 189.501L276.469 191.322L276.483 191.328L276.497 191.334L277.246 189.501ZM280.677 186.729L280.702 184.749L279.831 184.738L279.235 185.373L280.677 186.729ZM281.956 186.745L283.385 185.374L282.81 184.775L281.98 184.765L281.956 186.745ZM285.468 189.575L284.74 187.734L284.74 187.734L285.468 189.575ZM288.263 188.471L287.547 186.625L287.536 186.63L288.263 188.471ZM276.667 177.621L274.823 178.343L274.827 178.354L274.832 178.365L276.667 177.621ZM283.241 180.417L283.947 182.266L283.958 182.262L283.968 182.258L283.241 180.417ZM290.061 185.501L290.973 184.616L288.214 181.774L287.303 182.659L290.061 185.501ZM289.53 185.174C291.59 185.239 292.835 185.248 293.591 185.151C293.96 185.104 294.528 185.001 295.041 184.63C295.629 184.204 295.846 183.625 295.877 183.555L292.249 181.967C292.187 182.109 292.326 181.707 292.718 181.423C293.035 181.194 293.288 181.198 293.09 181.223C292.713 181.271 291.816 181.285 289.657 181.216L289.53 185.174ZM295.888 183.528L297.047 180.771L293.397 179.237L292.238 181.994L295.888 183.528ZM297.102 180.624L297.189 180.362L293.428 179.123L293.341 179.384L297.102 180.624ZM297.139 178.988L297.045 178.76L293.383 180.268L293.477 180.497L297.139 178.988ZM297.045 178.761C296.891 178.386 296.66 178.064 296.231 177.591C295.801 177.117 295.056 176.368 293.726 175.13L291.027 178.027C292.332 179.243 292.981 179.902 293.298 180.252C293.457 180.427 293.503 180.492 293.499 180.486C293.494 180.479 293.471 180.445 293.442 180.391C293.427 180.363 293.413 180.335 293.4 180.308C293.389 180.282 293.381 180.262 293.383 180.267L297.045 178.761ZM294.357 176.579V175.288H290.397V176.579H294.357ZM293.734 176.729C295.218 175.333 296.094 174.463 296.554 173.863C296.778 173.57 297.108 173.09 297.201 172.456C297.306 171.731 297.033 171.166 297.008 171.104L293.349 172.618C293.41 172.766 293.211 172.376 293.282 171.886C293.34 171.487 293.529 171.3 293.411 171.455C293.187 171.747 292.576 172.381 291.02 173.846L293.734 176.729ZM297.008 171.103L295.854 168.318L292.195 169.833L293.349 172.619L297.008 171.103ZM295.853 168.317C295.825 168.249 295.62 167.666 295.04 167.229C294.532 166.846 293.964 166.734 293.592 166.681C292.834 166.575 291.591 166.572 289.544 166.627L289.649 170.585C291.791 170.528 292.675 170.551 293.04 170.603C293.23 170.63 292.973 170.629 292.657 170.391C292.269 170.099 292.137 169.693 292.195 169.834L295.853 168.317ZM291.003 167.213L290.091 166.292L287.278 169.079L288.19 169.999L291.003 167.213ZM290.66 167.824C290.765 166.329 290.712 164.828 290.502 163.343L286.581 163.898C286.752 165.106 286.795 166.329 286.71 167.547L290.66 167.824ZM290.346 162.806L290.229 162.545L286.62 164.175L286.737 164.435L290.346 162.806ZM289.202 161.539L286.189 160.252L284.633 163.894L287.647 165.181L289.202 161.539ZM286.218 160.265C286.16 160.239 285.601 159.95 284.878 160.026C284.216 160.095 283.713 160.426 283.405 160.656C282.786 161.117 281.909 162.001 280.523 163.475L283.409 166.187C284.868 164.634 285.492 164.04 285.773 163.83C285.915 163.724 285.712 163.92 285.293 163.964C284.813 164.014 284.44 163.808 284.604 163.881L286.218 160.265ZM281.995 162.851L280.716 162.833L280.658 166.792L281.937 166.811L281.995 162.851ZM282.116 163.442C280.688 161.952 279.804 161.073 279.198 160.612C278.902 160.387 278.424 160.062 277.797 159.967C277.083 159.859 276.522 160.117 276.453 160.144L277.908 163.828C278.058 163.768 277.679 163.954 277.206 163.883C276.82 163.824 276.643 163.644 276.802 163.765C277.107 163.997 277.758 164.618 279.258 166.183L282.116 163.442ZM276.453 160.144L273.651 161.251L275.106 164.934L277.908 163.827L276.453 160.144ZM273.652 161.251C273.592 161.275 272.988 161.474 272.538 162.056C272.134 162.578 272.024 163.166 271.975 163.54C271.877 164.299 271.894 165.54 271.977 167.566L275.934 167.404C275.846 165.273 275.856 164.404 275.902 164.05C275.926 163.867 275.927 164.147 275.67 164.479C275.366 164.871 274.947 164.997 275.106 164.934L273.652 161.251ZM272.574 166.067L271.669 166.948L274.432 169.785L275.337 168.904L272.574 166.067ZM273.114 166.388C271.054 166.322 269.81 166.314 269.054 166.411C268.685 166.458 268.117 166.561 267.604 166.933C267.016 167.36 266.8 167.94 266.77 168.011L270.401 169.59C270.462 169.449 270.323 169.853 269.93 170.138C269.613 170.368 269.359 170.364 269.557 170.339C269.933 170.29 270.83 170.277 272.987 170.345L273.114 166.388ZM266.76 168.032L265.599 170.79L269.249 172.327L270.41 169.568L266.76 168.032ZM265.552 170.913L265.461 171.177L269.205 172.468L269.296 172.204L265.552 170.913ZM265.504 172.581L265.599 172.811L269.257 171.294L269.162 171.064L265.504 172.581ZM265.601 172.816C265.753 173.18 265.975 173.494 266.409 173.972C266.839 174.446 267.584 175.194 268.916 176.434L271.614 173.535C270.306 172.318 269.658 171.66 269.342 171.311C269.183 171.136 269.138 171.072 269.143 171.079C269.148 171.087 269.171 171.12 269.2 171.174C269.233 171.236 269.255 171.29 269.255 171.289L265.601 172.816ZM268.285 174.985V176.272H272.245V174.985H268.285ZM268.908 174.83C267.425 176.226 266.548 177.096 266.088 177.698C265.863 177.991 265.533 178.473 265.442 179.108C265.338 179.833 265.612 180.398 265.637 180.458L269.294 178.94C269.232 178.79 269.432 179.179 269.362 179.669C269.305 180.07 269.116 180.257 269.233 180.104C269.456 179.812 270.066 179.178 271.622 177.713L268.908 174.83ZM265.636 180.456L266.789 183.244L270.449 181.731L269.295 178.943L265.636 180.456ZM266.789 183.244C266.816 183.311 267.022 183.898 267.603 184.337C268.114 184.723 268.686 184.834 269.056 184.885C269.811 184.99 271.052 184.991 273.096 184.938L272.995 180.98C270.851 181.034 269.967 181.013 269.6 180.962C269.409 180.936 269.67 180.936 269.989 181.176C270.378 181.47 270.509 181.878 270.449 181.732L266.789 183.244ZM271.635 184.349L272.547 185.274L275.368 182.495L274.456 181.57L271.635 184.349ZM271.982 183.746C271.878 185.238 271.929 186.736 272.135 188.217L276.057 187.671C275.889 186.462 275.847 185.24 275.933 184.023L271.982 183.746ZM272.289 188.753L272.407 189.016L276.021 187.397L275.903 187.134L272.289 188.753ZM273.436 190.027L276.469 191.322L278.024 187.68L274.991 186.385L273.436 190.027ZM276.497 191.334C276.56 191.36 277.116 191.624 277.826 191.531C278.467 191.448 278.954 191.123 279.257 190.894C279.866 190.433 280.736 189.556 282.119 188.086L279.235 185.373C277.781 186.919 277.156 187.518 276.87 187.734C276.725 187.843 276.913 187.657 277.313 187.605C277.781 187.544 278.153 187.733 277.996 187.668L276.497 191.334ZM280.653 188.709L281.931 188.725L281.98 184.765L280.702 184.749L280.653 188.709ZM280.527 188.115C281.96 189.61 282.847 190.488 283.456 190.95C283.754 191.175 284.229 191.497 284.851 191.592C285.565 191.701 286.123 191.445 286.195 191.417L284.74 187.734C284.598 187.79 284.977 187.605 285.451 187.677C285.832 187.736 286.006 187.913 285.846 187.792C285.54 187.56 284.885 186.939 283.385 185.374L280.527 188.115ZM286.195 191.417L288.99 190.313L287.536 186.63L284.74 187.734L286.195 191.417ZM288.979 190.318C289.038 190.295 289.647 190.099 290.102 189.515C290.511 188.99 290.62 188.397 290.668 188.024C290.766 187.264 290.746 186.022 290.66 183.995L286.703 184.164C286.794 186.297 286.786 187.165 286.741 187.519C286.717 187.702 286.716 187.417 286.978 187.081C287.285 186.687 287.709 186.563 287.547 186.625L288.979 190.318ZM278.51 176.899C278.302 176.367 278.26 175.788 278.387 175.235L274.528 174.346C274.221 175.679 274.324 177.07 274.823 178.343L278.51 176.899ZM278.387 175.235C278.515 174.68 278.808 174.169 279.239 173.767L276.536 170.873C275.536 171.807 274.835 173.014 274.528 174.346L278.387 175.235ZM279.239 173.767C279.669 173.364 280.218 173.091 280.817 172.986L280.138 169.085C278.789 169.32 277.535 169.939 276.536 170.873L279.239 173.767ZM280.817 172.986C281.416 172.882 282.032 172.954 282.587 173.19L284.137 169.546C282.878 169.01 281.487 168.85 280.138 169.085L280.817 172.986ZM282.587 173.19C283.142 173.425 283.605 173.813 283.925 174.296L287.228 172.112C286.474 170.972 285.397 170.081 284.137 169.546L282.587 173.19ZM283.925 174.296C284.244 174.779 284.408 175.339 284.4 175.905L288.36 175.958C288.378 174.591 287.982 173.253 287.228 172.112L283.925 174.296ZM284.4 175.905C284.392 176.471 284.214 177.027 283.881 177.502L287.126 179.773C287.91 178.652 288.341 177.325 288.36 175.958L284.4 175.905ZM283.881 177.502C283.548 177.978 283.074 178.354 282.513 178.575L283.968 182.258C285.241 181.755 286.342 180.893 287.126 179.773L283.881 177.502ZM282.534 178.567C281.761 178.863 280.898 178.846 280.138 178.523L278.588 182.167C280.292 182.892 282.217 182.927 283.947 182.266L282.534 178.567ZM280.138 178.523C279.379 178.2 278.796 177.604 278.502 176.877L274.832 178.365C275.527 180.08 276.883 181.442 278.588 182.167L280.138 178.523Z" fill="#ACACAC" mask="url(#path-9-inside-1_91_212)"/>
<ellipse cx="311.717" cy="206.473" rx="98.2828" ry="96.03" fill="#BFD7FF"/>
<path d="M399.653 199.903C399.748 201.243 399.812 202.591 399.844 203.947L398.854 203.97C398.87 204.637 398.878 205.307 398.878 205.978C398.878 206.649 398.87 207.318 398.854 207.985L399.844 208.009C399.812 209.364 399.748 210.713 399.653 212.052L398.666 211.982C398.571 213.319 398.445 214.647 398.288 215.966L399.271 216.082C399.111 217.428 398.92 218.764 398.697 220.09L397.721 219.926C397.499 221.246 397.247 222.556 396.965 223.855L397.932 224.065C397.645 225.388 397.326 226.7 396.978 228L396.021 227.743C395.675 229.035 395.298 230.315 394.892 231.582L395.835 231.884C395.422 233.172 394.98 234.448 394.508 235.709L393.581 235.362C393.112 236.614 392.615 237.853 392.09 239.077L392.999 239.467C392.466 240.71 391.904 241.937 391.313 243.149L390.423 242.716C389.839 243.917 389.226 245.102 388.586 246.272L389.455 246.747C388.807 247.932 388.131 249.101 387.429 250.253L386.583 249.737C385.888 250.877 385.167 252 384.42 253.105L385.24 253.66C384.484 254.778 383.702 255.879 382.895 256.96L382.101 256.368C381.303 257.438 380.48 258.489 379.633 259.52L380.398 260.148C379.542 261.191 378.661 262.215 377.757 263.217L377.022 262.554C376.128 263.545 375.212 264.516 374.273 265.465L374.977 266.161C374.028 267.12 373.057 268.058 372.064 268.974L371.393 268.247C370.413 269.151 369.411 270.033 368.389 270.893L369.026 271.651C367.994 272.519 366.942 273.364 365.869 274.186L365.267 273.4C364.209 274.211 363.131 274.999 362.034 275.762L362.599 276.575C361.493 277.345 360.368 278.091 359.225 278.812L358.696 277.975C357.569 278.686 356.424 279.372 355.262 280.033L355.751 280.893C354.58 281.56 353.392 282.201 352.187 282.815L351.737 281.933C350.551 282.539 349.348 283.118 348.13 283.671L348.539 284.573C347.313 285.13 346.071 285.66 344.815 286.163L344.447 285.244C343.211 285.739 341.961 286.208 340.697 286.649L341.023 287.583C339.752 288.027 338.467 288.443 337.17 288.83L336.886 287.882C335.611 288.263 334.323 288.616 333.024 288.941L333.264 289.901C331.959 290.228 330.642 290.526 329.315 290.795L329.118 289.825C327.815 290.089 326.501 290.325 325.178 290.532L325.33 291.51C324.003 291.718 322.665 291.897 321.318 292.046L321.209 291.062C319.888 291.208 318.559 291.326 317.221 291.415L317.286 292.402C315.946 292.491 314.598 292.551 313.242 292.58L313.22 291.591C312.552 291.605 311.882 291.613 311.211 291.613C310.539 291.613 309.869 291.605 309.201 291.591L309.179 292.58C307.824 292.551 306.475 292.491 305.135 292.402L305.201 291.415C303.863 291.326 302.533 291.208 301.212 291.062L301.103 292.046C299.756 291.897 298.419 291.718 297.091 291.51L297.244 290.532C295.92 290.325 294.606 290.089 293.303 289.825L293.106 290.795C291.779 290.526 290.462 290.228 289.157 289.901L289.398 288.941C288.098 288.616 286.81 288.263 285.535 287.882L285.251 288.83C283.954 288.443 282.669 288.027 281.398 287.583L281.724 286.649C280.461 286.208 279.21 285.739 277.974 285.244L277.606 286.163C276.35 285.66 275.108 285.13 273.882 284.573L274.291 283.671C273.073 283.118 271.871 282.539 270.684 281.933L270.234 282.815C269.029 282.2 267.841 281.56 266.67 280.893L267.159 280.033C265.997 279.372 264.852 278.686 263.725 277.975L263.197 278.812C262.053 278.091 260.928 277.345 259.822 276.575L260.387 275.762C259.291 274.999 258.213 274.211 257.154 273.4L256.552 274.186C255.48 273.364 254.427 272.519 253.395 271.651L254.032 270.893C253.01 270.033 252.008 269.151 251.028 268.247L250.357 268.974C249.364 268.058 248.393 267.12 247.444 266.161L248.148 265.465C247.21 264.516 246.293 263.545 245.4 262.554L244.664 263.217C243.76 262.215 242.88 261.191 242.023 260.148L242.788 259.52C241.941 258.489 241.118 257.438 240.32 256.368L239.527 256.96C238.72 255.879 237.937 254.778 237.181 253.659L238.001 253.105C237.254 252 236.533 250.877 235.838 249.737L234.993 250.253C234.29 249.101 233.615 247.932 232.966 246.747L233.835 246.272C233.195 245.102 232.583 243.917 231.998 242.716L231.108 243.149C230.518 241.937 229.955 240.71 229.422 239.467L230.332 239.077C229.806 237.853 229.309 236.614 228.841 235.362L227.913 235.709C227.441 234.448 226.999 233.172 226.586 231.884L227.529 231.582C227.123 230.315 226.746 229.035 226.4 227.743L225.444 228C225.095 226.7 224.777 225.388 224.489 224.065L225.456 223.855C225.174 222.556 224.922 221.246 224.7 219.926L223.724 220.09C223.502 218.764 223.31 217.428 223.15 216.082L224.133 215.966C223.976 214.647 223.85 213.319 223.756 211.982L222.768 212.052C222.673 210.713 222.609 209.364 222.577 208.009L223.567 207.985C223.551 207.318 223.543 206.649 223.543 205.978C223.543 205.307 223.551 204.637 223.567 203.97L222.577 203.947C222.609 202.591 222.673 201.243 222.768 199.903L223.756 199.973C223.85 198.637 223.976 197.309 224.133 195.99L223.15 195.873C223.31 194.527 223.502 193.191 223.724 191.866L224.7 192.029C224.922 190.709 225.174 189.399 225.456 188.1L224.489 187.89C224.777 186.567 225.095 185.256 225.444 183.956L226.4 184.212C226.746 182.92 227.123 181.641 227.529 180.374L226.586 180.071C226.999 178.783 227.441 177.508 227.913 176.246L228.841 176.593C229.309 175.341 229.806 174.102 230.332 172.879L229.422 172.488C229.955 171.246 230.518 170.018 231.108 168.806L231.998 169.24C232.583 168.039 233.195 166.853 233.835 165.683L232.966 165.208C233.615 164.023 234.29 162.854 234.993 161.703L235.838 162.218C236.533 161.078 237.254 159.955 238.001 158.85L237.181 158.296C237.937 157.177 238.72 156.077 239.527 154.995L240.32 155.587C241.118 154.518 241.941 153.467 242.788 152.435L242.023 151.807C242.88 150.764 243.76 149.741 244.664 148.738L245.4 149.401C246.293 148.41 247.21 147.44 248.148 146.49L247.444 145.794C248.393 144.835 249.364 143.897 250.357 142.981L251.028 143.709C252.008 142.804 253.01 141.922 254.032 141.062L253.395 140.304C254.427 139.436 255.48 138.591 256.552 137.769L257.154 138.555C258.213 137.744 259.291 136.957 260.387 136.193L259.822 135.381C260.928 134.61 262.053 133.864 263.197 133.143L263.725 133.981C264.852 133.27 265.997 132.583 267.159 131.922L266.67 131.062C267.841 130.396 269.029 129.755 270.234 129.14L270.684 130.022C271.871 129.417 273.073 128.837 274.291 128.284L273.882 127.382C275.108 126.825 276.35 126.295 277.606 125.792L277.974 126.711C279.21 126.216 280.461 125.748 281.724 125.307L281.398 124.372C282.67 123.929 283.954 123.513 285.251 123.125L285.535 124.074C286.81 123.693 288.098 123.339 289.398 123.014L289.157 122.054C290.462 121.727 291.779 121.429 293.106 121.16L293.303 122.13C294.606 121.866 295.92 121.63 297.244 121.423L297.091 120.445C298.419 120.238 299.756 120.059 301.103 119.909L301.212 120.893C302.533 120.747 303.863 120.629 305.201 120.541L305.135 119.553C306.475 119.464 307.824 119.405 309.18 119.375L309.201 120.365C309.869 120.35 310.539 120.343 311.211 120.343C311.882 120.343 312.552 120.35 313.22 120.365L313.242 119.375C314.598 119.405 315.946 119.464 317.286 119.553L317.221 120.541C318.559 120.629 319.888 120.747 321.209 120.893L321.318 119.909C322.665 120.059 324.003 120.238 325.331 120.445L325.178 121.423C326.501 121.63 327.815 121.866 329.118 122.13L329.315 121.16C330.642 121.429 331.959 121.727 333.264 122.054L333.024 123.014C334.323 123.339 335.611 123.693 336.886 124.074L337.17 123.125C338.467 123.513 339.752 123.929 341.023 124.372L340.697 125.307C341.961 125.748 343.211 126.216 344.447 126.711L344.815 125.792C346.071 126.295 347.313 126.826 348.539 127.383L348.13 128.284C349.348 128.837 350.551 129.417 351.737 130.022L352.187 129.14C353.392 129.755 354.58 130.396 355.751 131.062L355.262 131.922C356.424 132.583 357.569 133.27 358.697 133.981L359.225 133.143C360.368 133.864 361.493 134.61 362.6 135.381L362.034 136.193C363.131 136.957 364.209 137.744 365.267 138.555L365.869 137.769C366.942 138.591 367.994 139.436 369.026 140.304L368.389 141.062C369.411 141.922 370.413 142.804 371.393 143.709L372.064 142.981C373.057 143.897 374.028 144.835 374.977 145.794L374.273 146.49C375.212 147.44 376.128 148.41 377.022 149.401L377.757 148.738C378.661 149.741 379.542 150.764 380.398 151.807L379.633 152.435C380.48 153.467 381.303 154.518 382.101 155.587L382.895 154.995C383.702 156.077 384.484 157.177 385.24 158.296L384.42 158.85C385.167 159.955 385.888 161.078 386.583 162.218L387.429 161.703C388.131 162.854 388.807 164.023 389.455 165.208L388.586 165.683C389.226 166.853 389.839 168.039 390.423 169.24L391.313 168.806C391.904 170.018 392.466 171.246 392.999 172.488L392.09 172.879C392.615 174.103 393.112 175.341 393.581 176.593L394.508 176.246C394.98 177.508 395.422 178.783 395.835 180.071L394.892 180.374C395.298 181.641 395.675 182.92 396.021 184.212L396.978 183.956C397.326 185.256 397.645 186.567 397.932 187.89L396.965 188.1C397.247 189.399 397.499 190.709 397.721 192.029L398.697 191.866C398.92 193.191 399.111 194.527 399.271 195.873L398.288 195.99C398.445 197.309 398.571 198.637 398.666 199.973L399.653 199.903Z" stroke="#6193E7" stroke-width="1.98" stroke-dasharray="3.96 3.96"/>
<path d="M331.475 100.048H142.509L109.072 203.503L261.056 282.703L361.365 130.243L331.475 100.048Z" fill="#BFD7FF"/>
<g filter="url(#filter0_d_91_212)">
<path d="M151.374 71.8326L200.262 154.498L151.374 237.163H53.5982L4.71008 154.498L53.5982 71.8326L151.374 71.8326Z" fill="white"/>
<path d="M54.4452 73.3176L150.527 73.3176L198.537 154.498L150.527 235.678H54.4452L6.43534 154.498L54.4452 73.3176Z" stroke="#32C3D8" stroke-width="2.97"/>
</g>
<path d="M87.7061 206.058C87.7061 210.946 92.8223 214.945 99.0754 214.945C105.329 214.945 110.445 210.946 110.445 206.058H87.7061Z" fill="#616466"/>
<path d="M100.3 117.188C82.0764 117.188 67.2413 131.674 67.2413 149.631C67.2413 159.796 70.7882 164.557 74.7395 170.761C77.3743 174.898 80.089 179.652 81.6112 186.481H118.771C120.285 179.488 123.027 174.647 125.685 170.468C129.642 164.248 133.183 159.572 133.183 149.631C133.183 131.662 118.524 117.188 100.3 117.188Z" fill="#EDC700"/>
<path d="M83.1584 188.284H115.675V192.283H83.1584V188.284ZM85.4322 196.283H113.401V200.282H85.4322V196.283Z" fill="#94989B"/>
<path d="M85.4322 192.283H113.401V196.283H85.4322V192.283Z" fill="#616466"/>
<path d="M117.266 188.284L83.1584 196.195V200.37L117.266 192.239V188.284ZM85.7229 204.325H112.137V208.28H85.7229V204.325Z" fill="#94989B"/>
<path d="M87.7061 200.504H111.127V204.503H87.7061V200.504Z" fill="#616466"/>
<path d="M113.401 196.283L87.7061 204.503V208.724L113.401 200.504V196.283Z" fill="#94989B"/>
<path d="M90.2509 159.705C90.4281 160.795 90.7825 161.886 90.9597 162.977C91.4913 164.976 91.8458 166.794 92.3774 168.794C93.9723 175.701 95.39 181.518 96.6305 186.063H97.6937C96.8077 181.518 95.5672 175.519 93.9723 168.612C93.6179 166.794 93.0862 164.794 92.7318 162.795C92.5546 161.886 92.3774 160.795 92.023 159.886C93.4407 159.523 96.8077 158.432 100.175 154.615C103.542 158.432 106.909 159.523 108.326 159.886C108.149 160.977 107.972 161.886 107.618 162.795C107.263 164.794 106.731 166.794 106.377 168.612C104.782 175.519 103.542 181.518 102.656 186.063H103.719C104.782 181.518 106.377 175.701 107.972 168.794C108.326 166.976 108.858 164.976 109.39 162.977C109.567 161.886 109.921 160.795 110.098 159.705C111.516 159.523 112.757 159.159 113.643 158.25C114.706 157.16 115.238 155.887 114.883 154.433C114.706 153.706 114.352 152.797 113.288 152.615C112.757 152.433 112.402 152.433 111.871 152.615C111.339 152.797 110.985 153.161 110.807 153.342C109.921 154.433 109.567 155.524 109.212 156.614L108.681 158.25C108.681 158.25 107.263 158.432 103.896 156.069C102.124 154.797 101.592 153.888 101.061 153.342C101.592 152.615 102.124 152.07 102.656 151.161C102.833 150.616 103.01 150.252 103.187 149.525C103.187 148.98 103.187 148.253 102.833 147.707C102.478 147.162 102.124 146.617 101.238 146.253C100.884 146.071 100.529 146.071 100.175 146.071C99.8202 146.071 99.4658 146.071 99.1114 146.253C98.4026 146.617 97.8709 147.162 97.5165 147.707C97.1621 148.253 97.1621 148.98 97.1621 149.525C97.1621 150.07 97.3393 150.616 97.6937 151.161C98.0481 152.07 98.5798 152.797 99.2886 153.342C98.757 153.888 98.2253 154.797 96.4532 156.069C93.2635 158.25 91.6686 158.25 91.6686 158.25L91.1369 156.614C90.7825 155.524 90.4281 154.433 89.542 153.342C89.3648 153.161 89.0104 152.797 88.4788 152.615C87.9471 152.433 87.4155 152.433 87.0611 152.615C85.9978 152.979 85.6434 153.888 85.4662 154.433C85.289 155.887 85.8206 157.16 86.7067 158.25C87.7699 159.159 89.0104 159.523 90.2509 159.705ZM110.807 156.978C111.162 156.069 111.516 154.978 112.225 154.433C112.402 154.251 112.579 154.251 112.579 154.251H112.934C113.111 154.251 113.288 154.433 113.465 154.978C113.643 155.705 113.288 156.796 112.579 157.341C112.048 157.705 111.339 158.069 110.63 158.25C110.63 157.705 110.63 157.341 110.807 156.978ZM99.1114 148.253C99.4658 147.889 99.8202 147.525 100.175 147.525C100.529 147.525 100.884 147.707 101.238 148.253C101.592 148.798 101.415 149.525 101.061 150.252C100.884 150.797 100.529 151.343 100.175 151.706C99.8202 151.161 99.4658 150.797 99.2886 150.252C98.9342 149.707 98.757 148.98 99.1114 148.253ZM87.0611 154.615C87.0611 154.251 87.2383 154.069 87.5927 153.888H87.9471C87.9471 153.888 88.1243 154.069 88.3016 154.069C88.8332 154.615 89.3648 155.705 89.7192 156.614C89.8965 156.978 89.8965 157.341 90.0737 157.705C89.3648 157.523 88.656 157.341 88.1243 156.796C87.4155 156.433 87.0611 155.524 87.0611 154.615Z" fill="#B68017"/>
<path d="M147.712 152.269H159.438M135.908 114.709L144.227 106.581M142.302 184.106L150.621 192.228M100.83 92.7493V102.014M57.6065 106.575L65.8676 114.709M51.2125 192.228L59.4736 184.106M53.9491 152.269H42.2288" stroke="#EDC700" stroke-width="2.97" stroke-linecap="round" stroke-linejoin="round"/>
<g filter="url(#filter1_d_91_212)">
<path d="M305.151 178.148L343.491 243.052L305.151 307.956H228.471L190.13 243.052L228.471 178.148L305.151 178.148Z" fill="white"/>
<path d="M297.962 178.148L302.755 178.148V179.313L304.486 179.313L305.346 180.769L306.349 180.176L308.746 184.232L307.742 184.825L310.138 188.882L311.142 188.289L313.538 192.345L312.535 192.938L314.931 196.995L315.934 196.402L318.331 200.459L317.327 201.051L319.723 205.108L320.727 204.515L323.123 208.572L322.12 209.164L324.516 213.221L325.519 212.628L327.916 216.685L326.912 217.277L329.308 221.334L330.312 220.741L332.708 224.798L331.705 225.39L334.101 229.447L335.104 228.854L337.501 232.911L336.497 233.503L338.893 237.56L339.897 236.967L342.293 241.024L341.29 241.616L342.138 243.052L341.29 244.487L342.293 245.08L339.897 249.137L338.893 248.544L336.497 252.6L337.501 253.193L335.104 257.25L334.101 256.657L331.705 260.713L332.708 261.306L330.312 265.363L329.308 264.77L326.912 268.826L327.916 269.419L325.519 273.476L324.516 272.883L322.12 276.939L323.123 277.532L320.727 281.589L319.723 280.996L317.327 285.052L318.331 285.645L315.934 289.702L314.931 289.109L312.535 293.165L313.538 293.758L311.142 297.815L310.138 297.222L307.742 301.279L308.746 301.871L306.349 305.928L305.346 305.335L304.486 306.791H302.755V307.956H297.962V306.791H293.17V307.956H288.377V306.791H283.585V307.956H278.792V306.791H274V307.956H269.207V306.791H264.415V307.956H259.622V306.791H254.829V307.956H250.037V306.791H245.244V307.956H240.452V306.791H235.659V307.956H230.867V306.791H229.136L228.276 305.335L227.272 305.928L224.876 301.871L225.88 301.279L223.483 297.222L222.48 297.815L220.084 293.758L221.087 293.165L218.691 289.109L217.687 289.702L215.291 285.645L216.295 285.052L213.898 280.996L212.895 281.589L210.498 277.532L211.502 276.939L209.106 272.883L208.102 273.476L205.706 269.419L206.709 268.826L204.313 264.77L203.31 265.363L200.913 261.306L201.917 260.713L199.521 256.657L198.517 257.25L196.121 253.193L197.124 252.6L194.728 248.544L193.725 249.137L191.328 245.08L192.332 244.487L191.484 243.052L192.332 241.616L191.328 241.024L193.725 236.967L194.728 237.56L197.124 233.503L196.121 232.911L198.517 228.854L199.521 229.447L201.917 225.39L200.913 224.798L203.31 220.741L204.313 221.334L206.709 217.277L205.706 216.685L208.102 212.628L209.106 213.221L211.502 209.164L210.498 208.572L212.895 204.515L213.898 205.108L216.295 201.051L215.291 200.459L217.687 196.402L218.691 196.995L221.087 192.938L220.084 192.345L222.48 188.289L223.483 188.882L225.88 184.825L224.876 184.232L227.272 180.176L228.276 180.769L229.136 179.313H230.867V178.148L235.659 178.148V179.313L240.452 179.313V178.148L245.244 178.148V179.313L250.037 179.313V178.148L254.829 178.148V179.313L259.622 179.313V178.148L264.415 178.148V179.313L269.207 179.313V178.148L274 178.148V179.313L278.792 179.313V178.148L283.585 178.148V179.313L288.377 179.313V178.148L293.17 178.148V179.313L297.962 179.313V178.148Z" stroke="#32C3D8" stroke-width="2.3311" stroke-dasharray="4.66 4.66"/>
</g>
<g filter="url(#filter2_d_91_212)">
<path d="M305.151 0.552612L343.491 65.4568L305.151 130.361H228.471L190.13 65.4568L228.471 0.552615L305.151 0.552612Z" fill="white"/>
<path d="M297.962 0.552613L302.755 0.552612V1.71816L304.486 1.71816L305.346 3.17367L306.349 2.58086L308.746 6.63737L307.742 7.23019L310.138 11.2867L311.142 10.6939L313.538 14.7504L312.535 15.3432L314.931 19.3997L315.934 18.8069L318.331 22.8634L317.327 23.4562L319.723 27.5127L320.727 26.9199L323.123 30.9764L322.12 31.5692L324.516 35.6258L325.519 35.0329L327.916 39.0895L326.912 39.6823L329.308 43.7388L330.312 43.146L332.708 47.2025L331.705 47.7953L334.101 51.8518L335.104 51.259L337.501 55.3155L336.497 55.9083L338.893 59.9648L339.897 59.372L342.293 63.4285L341.29 64.0213L342.138 65.4568L341.29 66.8922L342.293 67.485L339.897 71.5416L338.893 70.9487L336.497 75.0053L337.501 75.5981L335.104 79.6546L334.101 79.0618L331.705 83.1183L332.708 83.7111L330.312 87.7676L329.308 87.1748L326.912 91.2313L327.916 91.8241L325.519 95.8806L324.516 95.2878L322.12 99.3443L323.123 99.9371L320.727 103.994L319.723 103.401L317.327 107.457L318.331 108.05L315.934 112.107L314.931 111.514L312.535 115.57L313.538 116.163L311.142 120.22L310.138 119.627L307.742 123.683L308.746 124.276L306.349 128.333L305.346 127.74L304.486 129.195H302.755V130.361H297.962V129.195H293.17V130.361H288.377V129.195H283.585V130.361H278.792V129.195H274V130.361H269.207V129.195H264.415V130.361H259.622V129.195H254.829V130.361H250.037V129.195H245.244V130.361H240.452V129.195H235.659V130.361H230.867V129.195H229.136L228.276 127.74L227.272 128.333L224.876 124.276L225.88 123.683L223.483 119.627L222.48 120.22L220.084 116.163L221.087 115.57L218.691 111.514L217.687 112.107L215.291 108.05L216.295 107.457L213.898 103.401L212.895 103.994L210.499 99.9371L211.502 99.3443L209.106 95.2878L208.102 95.8806L205.706 91.8241L206.71 91.2313L204.313 87.1748L203.31 87.7676L200.913 83.7111L201.917 83.1183L199.521 79.0618L198.517 79.6546L196.121 75.5981L197.124 75.0052L194.728 70.9487L193.725 71.5415L191.328 67.485L192.332 66.8922L191.484 65.4568L192.332 64.0213L191.328 63.4285L193.725 59.372L194.728 59.9648L197.124 55.9083L196.121 55.3155L198.517 51.259L199.521 51.8518L201.917 47.7953L200.913 47.2025L203.31 43.146L204.313 43.7388L206.709 39.6823L205.706 39.0895L208.102 35.033L209.106 35.6258L211.502 31.5693L210.499 30.9764L212.895 26.9199L213.898 27.5127L216.295 23.4562L215.291 22.8634L217.687 18.8069L218.691 19.3997L221.087 15.3432L220.084 14.7504L222.48 10.6939L223.483 11.2867L225.88 7.23019L224.876 6.63738L227.272 2.58087L228.276 3.17368L229.136 1.71817H230.867V0.552615L235.659 0.552615V1.71817L240.452 1.71817V0.552615L245.244 0.552615V1.71817L250.037 1.71817V0.552614L254.829 0.552614V1.71817L259.622 1.71817V0.552614L264.415 0.552614V1.71817L269.207 1.71817V0.552614L274 0.552614V1.71817L278.792 1.71817V0.552613L283.585 0.552613V1.71817L288.377 1.71817V0.552613L293.17 0.552613V1.71817L297.962 1.71816V0.552613Z" stroke="#32C3D8" stroke-width="2.3311" stroke-dasharray="4.66 4.66"/>
</g>
<g filter="url(#filter3_d_91_212)">
<path d="M293.02 8.32239L297.889 8.32239V9.06489L299.901 9.06489L300.902 10.7442L301.54 10.3639L303.975 14.447L303.337 14.8273L305.771 18.9104L306.409 18.5301L308.843 22.6132L308.205 22.9935L310.64 27.0766L311.277 26.6963L313.712 30.7794L313.074 31.1597L315.508 35.2428L316.146 34.8625L318.58 38.9456L317.943 39.3259L320.377 43.409L321.015 43.0287L323.449 47.1118L322.811 47.4921L325.246 51.5752L325.883 51.1949L328.318 55.278L327.68 55.6583L330.114 59.7414L330.752 59.3611L333.186 63.4442L332.548 63.8245L333.539 65.4858L332.548 67.1471L333.186 67.5273L330.752 71.6105L330.114 71.2302L327.68 75.3133L328.318 75.6936L325.883 79.7767L325.246 79.3964L322.811 83.4795L323.449 83.8598L321.015 87.9429L320.377 87.5626L317.943 91.6458L318.58 92.026L316.146 96.1091L315.508 95.7289L313.074 99.812L313.712 100.192L311.277 104.275L310.64 103.895L308.205 107.978L308.843 108.358L306.409 112.441L305.771 112.061L303.337 116.144L303.975 116.525L301.54 120.608L300.902 120.227L299.901 121.907H297.889V122.649H293.02V121.907H288.152V122.649H283.283V121.907H278.414V122.649H273.546V121.907H268.677V122.649H263.809V121.907H258.94V122.649H254.071V121.907H249.203V122.649H244.334V121.907H239.465V122.649H234.597V121.907H232.584L231.583 120.227L230.945 120.608L228.511 116.525L229.149 116.144L226.715 112.061L226.077 112.441L223.642 108.358L224.28 107.978L221.846 103.895L221.208 104.275L218.774 100.192L219.412 99.812L216.977 95.7289L216.34 96.1091L213.905 92.026L214.543 91.6458L212.109 87.5626L211.471 87.9429L209.037 83.8598L209.674 83.4795L207.24 79.3964L206.602 79.7767L204.168 75.6936L204.806 75.3133L202.371 71.2302L201.734 71.6105L199.299 67.5274L199.937 67.1471L198.947 65.4858L199.937 63.8245L199.299 63.4443L201.734 59.3612L202.371 59.7414L204.806 55.6583L204.168 55.2781L206.602 51.195L207.24 51.5752L209.674 47.4921L209.037 47.1119L211.471 43.0288L212.109 43.409L214.543 39.3259L213.905 38.9456L216.34 34.8625L216.977 35.2428L219.412 31.1597L218.774 30.7794L221.208 26.6963L221.846 27.0766L224.28 22.9935L223.642 22.6132L226.077 18.5301L226.715 18.9104L229.149 14.8273L228.511 14.447L230.945 10.3639L231.583 10.7442L232.584 9.06489L234.597 9.06489V8.32239L239.465 8.32239V9.06489L244.334 9.06489V8.32239L249.203 8.32239V9.06489L254.071 9.06489V8.32239L258.94 8.32239V9.06489L263.809 9.06489V8.32239L268.677 8.32239V9.06489L273.546 9.06489V8.32239L278.414 8.32239V9.06489L283.283 9.06489V8.32239L288.152 8.32239V9.06489L293.02 9.06489V8.32239Z" stroke="#FFCE3F" stroke-width="1.485" stroke-dasharray="4.66 4.66" shape-rendering="crispEdges"/>
</g>
<path fill-rule="evenodd" clip-rule="evenodd" d="M280.87 215.827C281.382 215.325 282.036 214.984 282.748 214.845C283.459 214.707 284.197 214.779 284.867 215.05L295.248 219.252C296.144 219.613 296.856 220.305 297.229 221.178C297.602 222.05 297.606 223.031 297.24 223.906L292.998 234.038C292.724 234.693 292.258 235.253 291.657 235.648C291.057 236.044 290.35 236.256 289.626 236.259C288.902 236.262 288.193 236.056 287.589 235.665C286.985 235.275 286.514 234.719 286.234 234.067L284.56 230.161L242.401 247.743C241.959 247.928 241.484 248.026 241.003 248.031C240.522 248.036 240.044 247.949 239.598 247.774C239.152 247.6 238.745 247.341 238.401 247.013C238.057 246.685 237.783 246.293 237.594 245.862C237.404 245.43 237.304 244.966 237.299 244.497C237.293 244.028 237.383 243.562 237.562 243.126C237.741 242.69 238.006 242.293 238.342 241.958C238.678 241.622 239.079 241.354 239.521 241.17L281.734 223.568L280.089 219.733C279.808 219.08 279.732 218.36 279.871 217.664C280.01 216.968 280.358 216.329 280.87 215.827ZM294.306 240.884C295.601 240.884 296.842 241.386 297.758 242.279C298.673 243.172 299.187 244.384 299.187 245.647V278.993C299.187 279.625 298.93 280.231 298.472 280.677C298.015 281.124 297.394 281.375 296.747 281.375H284.545C283.898 281.375 283.277 281.124 282.82 280.677C282.362 280.231 282.105 279.625 282.105 278.993V245.647C282.105 244.384 282.619 243.172 283.534 242.279C284.45 241.386 285.691 240.884 286.986 240.884H294.306ZM273.354 249.42C272.438 248.529 271.197 248.028 269.903 248.029H262.582C261.288 248.029 260.047 248.531 259.131 249.425C258.216 250.318 257.702 251.53 257.702 252.793V278.993C257.702 279.625 257.959 280.231 258.416 280.677C258.874 281.124 259.495 281.375 260.142 281.375H272.344C272.991 281.375 273.612 281.124 274.069 280.677C274.527 280.231 274.784 279.625 274.784 278.993V252.793C274.784 252.167 274.658 251.546 274.413 250.968C274.168 250.389 273.808 249.863 273.354 249.42ZM245.5 255.175C246.795 255.175 248.036 255.677 248.951 256.57C249.867 257.463 250.381 258.675 250.381 259.938V278.993C250.381 279.625 250.124 280.231 249.666 280.677C249.208 281.124 248.588 281.375 247.94 281.375H235.739C235.092 281.375 234.471 281.124 234.013 280.677C233.556 280.231 233.299 279.625 233.299 278.993V259.938C233.299 258.675 233.813 257.463 234.728 256.57C235.643 255.677 236.885 255.175 238.179 255.175H245.5Z" fill="#6193E7"/>
<path d="M261.223 71.4245L299.395 90.716V30.6979L261.223 50.4181H228.755V71.4245H238.846M261.223 71.4245H259.906M261.223 71.4245L266.488 85.5716H259.345M238.846 71.4245V83.8568L241.751 82.142M238.846 71.4245H259.906M259.906 71.4245L255.08 74.2735M255.08 74.2735L241.751 82.142M255.08 74.2735L259.345 85.5716M241.751 82.142L248.499 101.005H265.171L259.345 85.5716M265.61 52.1329L294.129 37.9858" stroke="black" stroke-width="1.98" stroke-linecap="round"/>
<path d="M304.221 29.4119V92.0022" stroke="#FFCE3F" stroke-width="1.98" stroke-linecap="round"/>
<rect x="234.897" y="46.9885" width="31.5906" height="28.2943" rx="4.95" fill="#6193E7"/>
<defs>
<filter id="filter0_d_91_212" x="0.750082" y="71.8326" width="203.472" height="173.25" filterUnits="userSpaceOnUse" color-interpolation-filters="sRGB">
<feFlood flood-opacity="0" result="BackgroundImageFix"/>
<feColorMatrix in="SourceAlpha" type="matrix" values="0 0 0 0 0 0 0 0 0 0 0 0 0 0 0 0 0 0 127 0" result="hardAlpha"/>
<feOffset dy="3.96"/>
<feGaussianBlur stdDeviation="1.98"/>
<feComposite in2="hardAlpha" operator="out"/>
<feColorMatrix type="matrix" values="0 0 0 0 0 0 0 0 0 0 0 0 0 0 0 0 0 0 0.25 0"/>
<feBlend mode="normal" in2="BackgroundImageFix" result="effect1_dropShadow_91_212"/>
<feBlend mode="normal" in="SourceGraphic" in2="effect1_dropShadow_91_212" result="shape"/>
</filter>
<filter id="filter1_d_91_212" x="186.17" y="178.148" width="161.281" height="137.728" filterUnits="userSpaceOnUse" color-interpolation-filters="sRGB">
<feFlood flood-opacity="0" result="BackgroundImageFix"/>
<feColorMatrix in="SourceAlpha" type="matrix" values="0 0 0 0 0 0 0 0 0 0 0 0 0 0 0 0 0 0 127 0" result="hardAlpha"/>
<feOffset dy="3.96"/>
<feGaussianBlur stdDeviation="1.98"/>
<feComposite in2="hardAlpha" operator="out"/>
<feColorMatrix type="matrix" values="0 0 0 0 0 0 0 0 0 0 0 0 0 0 0 0 0 0 0.25 0"/>
<feBlend mode="normal" in2="BackgroundImageFix" result="effect1_dropShadow_91_212"/>
<feBlend mode="normal" in="SourceGraphic" in2="effect1_dropShadow_91_212" result="shape"/>
</filter>
<filter id="filter2_d_91_212" x="186.17" y="0.552612" width="161.281" height="137.728" filterUnits="userSpaceOnUse" color-interpolation-filters="sRGB">
<feFlood flood-opacity="0" result="BackgroundImageFix"/>
<feColorMatrix in="SourceAlpha" type="matrix" values="0 0 0 0 0 0 0 0 0 0 0 0 0 0 0 0 0 0 127 0" result="hardAlpha"/>
<feOffset dy="3.96"/>
<feGaussianBlur stdDeviation="1.98"/>
<feComposite in2="hardAlpha" operator="out"/>
<feColorMatrix type="matrix" values="0 0 0 0 0 0 0 0 0 0 0 0 0 0 0 0 0 0 0.25 0"/>
<feBlend mode="normal" in2="BackgroundImageFix" result="effect1_dropShadow_91_212"/>
<feBlend mode="normal" in="SourceGraphic" in2="effect1_dropShadow_91_212" result="shape"/>
</filter>
<filter id="filter3_d_91_212" x="194.122" y="8.32239" width="144.241" height="122.247" filterUnits="userSpaceOnUse" color-interpolation-filters="sRGB">
<feFlood flood-opacity="0" result="BackgroundImageFix"/>
<feColorMatrix in="SourceAlpha" type="matrix" values="0 0 0 0 0 0 0 0 0 0 0 0 0 0 0 0 0 0 127 0" result="hardAlpha"/>
<feOffset dy="3.96"/>
<feGaussianBlur stdDeviation="1.98"/>
<feComposite in2="hardAlpha" operator="out"/>
<feColorMatrix type="matrix" values="0 0 0 0 0 0 0 0 0 0 0 0 0 0 0 0 0 0 0.25 0"/>
<feBlend mode="normal" in2="BackgroundImageFix" result="effect1_dropShadow_91_212"/>
<feBlend mode="normal" in="SourceGraphic" in2="effect1_dropShadow_91_212" result="shape"/>
</filter>
</defs>
</svg>
