<svg width="50" height="23" viewBox="0 0 50 23" fill="none" xmlns="http://www.w3.org/2000/svg">
<path d="M45.3155 20.4829V3.98851V2.00812C45.3155 0.987787 46.1426 0.160645 47.163 0.160645C48.1833 0.160645 49.0104 0.987788 49.0104 2.00812V3.98851V20.4829C49.0104 21.5032 48.1833 22.3303 47.163 22.3303C46.1426 22.3303 45.3155 21.5032 45.3155 20.4829Z" fill="url(#paint0_linear_180_269)"/>
<mask id="mask0_180_269" style="mask-type:alpha" maskUnits="userSpaceOnUse" x="21" y="0" width="29" height="23">
<path d="M21.459 3.8556V0H47.0827C48.1474 0 49.0105 0.863106 49.0105 1.9278C49.0105 2.99249 48.1474 3.8556 47.0827 3.8556H40.3354V13.093V20.4829C40.3354 21.5032 39.5082 22.3304 38.4879 22.3304C37.4676 22.3304 36.6404 21.5032 36.6404 20.4829V13.093V3.8556H21.459Z" fill="url(#paint1_linear_180_269)"/>
</mask>
<g mask="url(#mask0_180_269)">
<path d="M21.459 3.8556V0H47.0827C48.1474 0 49.0105 0.863106 49.0105 1.9278C49.0105 2.99249 48.1474 3.8556 47.0827 3.8556H40.3354V13.093V20.4829C40.3354 21.5032 39.5082 22.3304 38.4879 22.3304C37.4676 22.3304 36.6404 21.5032 36.6404 20.4829V13.093V3.8556H21.459Z" fill="url(#paint2_linear_180_269)"/>
<rect x="17.5231" y="-2.24902" width="19.1174" height="8.3538" fill="url(#paint3_linear_180_269)"/>
</g>
<mask id="mask1_180_269" style="mask-type:alpha" maskUnits="userSpaceOnUse" x="14" y="0" width="20" height="23">
<path d="M14.31 18.4589V12.611V6.426C14.31 5.36131 15.1731 4.4982 16.2378 4.4982C17.3025 4.4982 18.1656 5.3613 18.1656 6.426V18.4748H22.3683C26.2579 18.4748 29.4111 15.3216 29.4111 11.4319V10.7178C29.4111 6.92793 26.3388 3.8556 22.5489 3.8556H19.4508C18.3861 3.8556 17.523 2.99249 17.523 1.9278C17.523 0.863106 18.3861 0 19.4508 0H22.5455C28.4667 0 33.2667 4.80004 33.2667 10.7212V11.0655C33.2667 17.2869 28.2232 22.3304 22.0018 22.3304H18.1814C16.0433 22.3304 14.31 20.597 14.31 18.4589Z" fill="url(#paint4_linear_180_269)"/>
</mask>
<g mask="url(#mask1_180_269)">
<path d="M14.31 18.4589V12.611V6.426C14.31 5.36131 15.1731 4.4982 16.2378 4.4982C17.3025 4.4982 18.1656 5.3613 18.1656 6.426V18.4748H22.3683C26.2579 18.4748 29.4111 15.3216 29.4111 11.4319V10.7178C29.4111 6.92793 26.3388 3.8556 22.5489 3.8556H19.4508C18.3861 3.8556 17.523 2.99249 17.523 1.9278C17.523 0.863106 18.3861 0 19.4508 0H22.5455C28.4667 0 33.2667 4.80004 33.2667 10.7212V11.0655C33.2667 17.2869 28.2232 22.3304 22.0018 22.3304H18.1814C16.0433 22.3304 14.31 20.597 14.31 18.4589Z" fill="url(#paint5_linear_180_269)"/>
<path d="M22.9851 3.85564V18.4748C22.9851 18.4748 23.9155 18.4906 24.5113 18.4748C25.4864 18.449 26.6037 18.3111 27.7066 18.1262C31.0366 17.5678 33.2667 14.5417 33.2667 11.1652C33.2667 7.78878 31.0366 4.76264 27.7066 4.20424C26.6037 4.01929 25.4864 3.88146 24.5113 3.85564C23.9155 3.83987 22.9851 3.85564 22.9851 3.85564Z" fill="url(#paint6_linear_180_269)"/>
</g>
<path fill-rule="evenodd" clip-rule="evenodd" d="M9.05922 11.1653H11.9806V11.9685H9.43987L7.99401 13.7357H7.80369V13.3341C7.80369 13.7357 7.80371 13.7357 7.80369 13.7357H4.29911C4.12077 14.4286 3.49178 14.9406 2.74322 14.9406C1.85597 14.9406 1.13672 14.2213 1.13672 13.3341C1.13672 12.4468 1.85597 11.7276 2.74322 11.7276C3.49178 11.7276 4.12077 12.2395 4.29911 12.9324H7.61337L9.05922 11.1653ZM2.74322 12.5308C2.2996 12.5308 1.93997 12.8904 1.93997 13.3341C1.93997 13.7777 2.2996 14.1373 2.74322 14.1373C3.18684 14.1373 3.54647 13.7777 3.54647 13.3341C3.54647 12.8904 3.18684 12.5308 2.74322 12.5308Z" fill="url(#paint7_linear_180_269)"/>
<path fill-rule="evenodd" clip-rule="evenodd" d="M10.1659 0H16.3985C16.0931 0.298605 15.9493 0.473901 15.7559 0.80325H10.4216L8.81511 2.16878H7.67276C7.49443 2.86167 6.86544 3.37365 6.11688 3.37365C5.22963 3.37365 4.51038 2.6544 4.51038 1.76715C4.51038 0.879905 5.22963 0.16065 6.11688 0.16065C6.86544 0.16065 7.49443 0.672631 7.67276 1.36553H8.55944L10.1659 0ZM6.11688 0.9639C5.67325 0.9639 5.31363 1.32353 5.31363 1.76715C5.31363 2.21077 5.67325 2.5704 6.11688 2.5704C6.5605 2.5704 6.92013 2.21077 6.92013 1.76715C6.92013 1.32353 6.5605 0.9639 6.11688 0.9639Z" fill="url(#paint8_linear_180_269)"/>
<path fill-rule="evenodd" clip-rule="evenodd" d="M5.3136 8.6751C5.3136 7.78786 6.03285 7.0686 6.9201 7.0686C7.66866 7.0686 8.29765 7.58058 8.47599 8.27348H11.9805C11.9806 8.27348 11.9806 8.27348 11.9806 8.6751C11.9806 9.07673 11.9806 9.07673 11.9805 9.07673H8.47599C8.29765 9.76962 7.66866 10.2816 6.9201 10.2816C6.03285 10.2816 5.3136 9.56235 5.3136 8.6751ZM6.9201 7.87185C6.47648 7.87185 6.11685 8.23148 6.11685 8.6751C6.11685 9.11873 6.47648 9.47835 6.9201 9.47835C7.36372 9.47835 7.72335 9.11873 7.72335 8.6751C7.72335 8.23148 7.36372 7.87185 6.9201 7.87185Z" fill="url(#paint9_linear_180_269)"/>
<path fill-rule="evenodd" clip-rule="evenodd" d="M2.58257 3.37354C1.69533 3.37354 0.976074 4.09279 0.976074 4.98004C0.976074 5.86728 1.69533 6.58653 2.58257 6.58653C3.33114 6.58653 3.96012 6.07455 4.13846 5.38166H12.2216C12.3131 5.07451 12.3974 4.899 12.6232 4.57841H4.13846C3.96012 3.88552 3.33114 3.37354 2.58257 3.37354ZM2.58257 4.17679C2.13895 4.17679 1.77932 4.53641 1.77932 4.98004C1.77932 5.42366 2.13895 5.78328 2.58257 5.78328C3.0262 5.78328 3.38582 5.42366 3.38582 4.98004C3.38582 4.53641 3.0262 4.17679 2.58257 4.17679Z" fill="url(#paint10_linear_180_269)"/>
<defs>
<linearGradient id="paint0_linear_180_269" x1="47.2433" y1="-1.52618" x2="47.163" y2="22.3303" gradientUnits="userSpaceOnUse">
<stop stop-color="#3A2D96"/>
<stop offset="0.55" stop-color="#32C3D8"/>
</linearGradient>
<linearGradient id="paint1_linear_180_269" x1="38.5682" y1="0" x2="38.5682" y2="22.3304" gradientUnits="userSpaceOnUse">
<stop stop-color="#32C3D8"/>
<stop offset="1" stop-color="#507FCD"/>
</linearGradient>
<linearGradient id="paint2_linear_180_269" x1="38.5682" y1="0" x2="38.5682" y2="22.3304" gradientUnits="userSpaceOnUse">
<stop offset="0.13" stop-color="#32C3D8"/>
<stop offset="0.865" stop-color="#507FCD"/>
</linearGradient>
<linearGradient id="paint3_linear_180_269" x1="36.6404" y1="1.92788" x2="17.5231" y2="1.92788" gradientUnits="userSpaceOnUse">
<stop stop-color="#32C3D8"/>
<stop offset="1" stop-color="#3A2D96"/>
</linearGradient>
<linearGradient id="paint4_linear_180_269" x1="33.2667" y1="11.1652" x2="14.31" y2="11.1652" gradientUnits="userSpaceOnUse">
<stop stop-color="#507FCD"/>
<stop offset="1" stop-color="#32C3D8"/>
</linearGradient>
<linearGradient id="paint5_linear_180_269" x1="33.2667" y1="11.1652" x2="14.31" y2="11.1652" gradientUnits="userSpaceOnUse">
<stop stop-color="#507FCD"/>
<stop offset="1" stop-color="#32C3D8"/>
</linearGradient>
<linearGradient id="paint6_linear_180_269" x1="22.9851" y1="11.0849" x2="33.2667" y2="11.0849" gradientUnits="userSpaceOnUse">
<stop offset="0.492188" stop-color="#4E77C9"/>
<stop offset="1" stop-color="#3A2BA2"/>
</linearGradient>
<linearGradient id="paint7_linear_180_269" x1="1.13672" y1="13.0529" x2="11.9806" y2="13.0529" gradientUnits="userSpaceOnUse">
<stop stop-color="#3A0699"/>
<stop offset="1" stop-color="#31C5D1"/>
</linearGradient>
<linearGradient id="paint8_linear_180_269" x1="4.02843" y1="1.68683" x2="16.3985" y2="1.68683" gradientUnits="userSpaceOnUse">
<stop stop-color="#3A0699"/>
<stop offset="1" stop-color="#31C5D1"/>
</linearGradient>
<linearGradient id="paint9_linear_180_269" x1="5.3136" y1="8.6751" x2="11.9806" y2="8.6751" gradientUnits="userSpaceOnUse">
<stop stop-color="#3A0699"/>
<stop offset="1" stop-color="#31C5D1"/>
</linearGradient>
<linearGradient id="paint10_linear_180_269" x1="0.976074" y1="4.98003" x2="12.6232" y2="4.98003" gradientUnits="userSpaceOnUse">
<stop stop-color="#3A0699"/>
<stop offset="1" stop-color="#31C5D1"/>
</linearGradient>
</defs>
</svg>
