<svg width="378" height="59" viewBox="0 0 378 59" fill="none" xmlns="http://www.w3.org/2000/svg">
<path d="M116.706 53.9478V10.702V5.50969C116.706 2.83454 118.874 0.665894 121.549 0.665894C124.225 0.665894 126.393 2.83454 126.393 5.50969V10.702V53.9478C126.393 56.623 124.225 58.7916 121.549 58.7916C118.874 58.7916 116.706 56.623 116.706 53.9478Z" fill="url(#paint0_linear_94_256)"/>
<mask id="mask0_94_256" style="mask-type:alpha" maskUnits="userSpaceOnUse" x="54" y="0" width="73" height="59">
<path d="M54.1574 10.3535V0.244629H121.339C124.13 0.244629 126.393 2.50757 126.393 5.29904C126.393 8.09052 124.13 10.3535 121.339 10.3535H103.648V34.5725V53.9478C103.648 56.6229 101.48 58.7916 98.8046 58.7916C96.1295 58.7916 93.9608 56.6229 93.9608 53.9478V34.5725V10.3535H54.1574Z" fill="url(#paint1_linear_94_256)"/>
</mask>
<g mask="url(#mask0_94_256)">
<path d="M54.1574 10.3535V0.244629H121.339C124.13 0.244629 126.393 2.50757 126.393 5.29904C126.393 8.09052 124.13 10.3535 121.339 10.3535H103.648V34.5725V53.9478C103.648 56.6229 101.48 58.7916 98.8046 58.7916C96.1295 58.7916 93.9608 56.6229 93.9608 53.9478V34.5725V10.3535H54.1574Z" fill="url(#paint2_linear_94_256)"/>
<rect x="43.838" y="-5.65222" width="50.1228" height="21.9025" fill="url(#paint3_linear_94_256)"/>
</g>
<mask id="mask1_94_256" style="mask-type:alpha" maskUnits="userSpaceOnUse" x="35" y="0" width="51" height="59">
<path d="M35.414 48.6412V33.3089V17.0927C35.414 14.3012 37.677 12.0383 40.4684 12.0383C43.2599 12.0383 45.5228 14.3012 45.5228 17.0927V48.6828H56.5416C66.7397 48.6828 75.0068 40.4156 75.0068 30.2175V28.3452C75.0068 18.4086 66.9517 10.3535 57.0151 10.3535H48.8924C46.101 10.3535 43.838 8.09052 43.838 5.29904C43.838 2.50757 46.101 0.244629 48.8924 0.244629H57.0063C72.5307 0.244629 85.1156 12.8296 85.1156 28.3539V29.2567C85.1156 45.5684 71.8925 58.7916 55.5808 58.7916H45.5644C39.9585 58.7916 35.414 54.2471 35.414 48.6412Z" fill="url(#paint4_linear_94_256)"/>
</mask>
<g mask="url(#mask1_94_256)">
<path d="M35.414 48.6412V33.3089V17.0927C35.414 14.3012 37.677 12.0383 40.4684 12.0383C43.2599 12.0383 45.5228 14.3012 45.5228 17.0927V48.6828H56.5416C66.7397 48.6828 75.0068 40.4156 75.0068 30.2175V28.3452C75.0068 18.4086 66.9517 10.3535 57.0151 10.3535H48.8924C46.101 10.3535 43.838 8.09052 43.838 5.29904C43.838 2.50757 46.101 0.244629 48.8924 0.244629H57.0063C72.5307 0.244629 85.1156 12.8296 85.1156 28.3539V29.2567C85.1156 45.5684 71.8925 58.7916 55.5808 58.7916H45.5644C39.9585 58.7916 35.414 54.2471 35.414 48.6412Z" fill="url(#paint5_linear_94_256)"/>
<path d="M58.1588 10.3535V48.6828C58.1588 48.6828 60.5981 48.7241 62.1602 48.6828C64.7169 48.6151 67.6463 48.2537 70.5379 47.7688C79.2685 46.3048 85.1156 38.3707 85.1156 29.5181C85.1156 20.6656 79.2685 12.7315 70.5379 11.2674C67.6463 10.7825 64.7169 10.4212 62.1602 10.3535C60.5981 10.3121 58.1588 10.3535 58.1588 10.3535Z" fill="url(#paint6_linear_94_256)"/>
</g>
<path fill-rule="evenodd" clip-rule="evenodd" d="M21.6472 29.5181H29.3066V31.6241H22.6452L18.8544 36.2573H18.3554V35.2043C18.3554 36.2573 18.3555 36.2573 18.3554 36.2573H9.16691C8.69934 38.074 7.05023 39.4163 5.08761 39.4163C2.76139 39.4163 0.87561 37.5305 0.87561 35.2043C0.87561 32.8781 2.76139 30.9923 5.08761 30.9923C7.05023 30.9923 8.69934 32.3346 9.16691 34.1513H17.8564L21.6472 29.5181ZM5.08761 33.0983C3.9245 33.0983 2.98161 34.0412 2.98161 35.2043C2.98161 36.3674 3.9245 37.3103 5.08761 37.3103C6.25072 37.3103 7.19361 36.3674 7.19361 35.2043C7.19361 34.0412 6.25072 33.0983 5.08761 33.0983Z" fill="url(#paint7_linear_94_256)"/>
<path fill-rule="evenodd" clip-rule="evenodd" d="M24.5489 0.244629H40.8896C40.0889 1.02753 39.7118 1.48713 39.2048 2.35063H25.2192L21.0072 5.93084H18.0121C17.5446 7.74751 15.8954 9.08985 13.9328 9.08985C11.6066 9.08985 9.72083 7.20407 9.72083 4.87784C9.72083 2.55161 11.6066 0.66583 13.9328 0.66583C15.8954 0.66583 17.5446 2.00817 18.0121 3.82484H20.3369L24.5489 0.244629ZM13.9328 2.77184C12.7697 2.77184 11.8268 3.71473 11.8268 4.87784C11.8268 6.04096 12.7697 6.98385 13.9328 6.98385C15.0959 6.98385 16.0388 6.04096 16.0388 4.87784C16.0388 3.71473 15.0959 2.77184 13.9328 2.77184Z" fill="url(#paint8_linear_94_256)"/>
<path fill-rule="evenodd" clip-rule="evenodd" d="M11.8268 22.9895C11.8268 20.6632 13.7126 18.7775 16.0388 18.7775C18.0015 18.7775 19.6506 20.1198 20.1181 21.9365H29.3066C29.3066 21.9365 29.3066 21.9365 29.3066 22.9895C29.3066 24.0425 29.3066 24.0425 29.3066 24.0425H20.1181C19.6506 25.8591 18.0015 27.2015 16.0388 27.2015C13.7126 27.2015 11.8268 25.3157 11.8268 22.9895ZM16.0388 20.8835C14.8757 20.8835 13.9328 21.8264 13.9328 22.9895C13.9328 24.1526 14.8757 25.0955 16.0388 25.0955C17.202 25.0955 18.1448 24.1526 18.1448 22.9895C18.1448 21.8264 17.202 20.8835 16.0388 20.8835Z" fill="url(#paint9_linear_94_256)"/>
<path fill-rule="evenodd" clip-rule="evenodd" d="M4.66644 9.08984C2.34021 9.08984 0.454437 10.9756 0.454437 13.3019C0.454437 15.6281 2.34021 17.5139 4.66644 17.5139C6.62906 17.5139 8.27816 16.1715 8.74574 14.3549H29.9384C30.1785 13.5495 30.3994 13.0894 30.9914 12.2489H8.74574C8.27816 10.4322 6.62906 9.08984 4.66644 9.08984ZM4.66644 11.1958C3.50333 11.1958 2.56044 12.1387 2.56044 13.3019C2.56044 14.465 3.50333 15.4079 4.66644 15.4079C5.82955 15.4079 6.77244 14.465 6.77244 13.3019C6.77244 12.1387 5.82955 11.1958 4.66644 11.1958Z" fill="url(#paint10_linear_94_256)"/>
<path d="M132.29 1.31522H139.977V26.1567H169.594V1.31522H177.362V58.1421H169.594V32.9759H139.977V58.1421H132.29V1.31522ZM195.495 58.1421C193.607 58.1421 192.096 57.6009 190.963 56.5185C189.884 55.436 189.345 53.9477 189.345 52.0535V1.31522H229.076V8.05326H197.032V25.7508H226.649V32.4076H197.032V51.404H229.076V58.1421H195.495ZM244.805 58.1421C242.917 58.1421 241.407 57.6009 240.274 56.5185C239.195 55.436 238.655 53.9748 238.655 52.1347V1.31522H246.343V51.3229H277.092V58.1421H244.805ZM284.726 1.31522H312.967C317.445 1.31522 321.032 2.58706 323.729 5.13074C326.481 7.6203 327.856 10.9487 327.856 15.116V23.2342C327.856 27.6179 326.4 31.1629 323.487 33.8689C320.628 36.5208 316.824 37.8468 312.077 37.8468H292.413V58.1421H284.726V1.31522ZM311.915 31.0276C314.397 31.0276 316.393 30.2969 317.903 28.8357C319.414 27.3203 320.169 25.3449 320.169 22.9094V15.1972C320.169 13.0865 319.495 11.3817 318.146 10.0828C316.797 8.78389 315.017 8.13445 312.805 8.13445H292.413V31.0276H311.915ZM351.227 58.7915C345.994 58.7915 341.813 57.222 338.684 54.083C335.556 50.944 333.991 46.7226 333.991 41.4187H341.517C341.517 44.6119 342.407 47.1556 344.187 49.0498C346.021 50.944 348.422 51.8911 351.389 51.8911H360.371C363.338 51.8911 365.712 51.2687 367.492 50.024C369.272 48.7251 370.162 47.0203 370.162 44.9095V40.5258C370.162 38.848 369.515 37.4409 368.22 36.3043C366.979 35.1678 365.199 34.4101 362.879 34.0313L348.152 31.5958C343.836 30.8922 340.492 29.4039 338.118 27.1308C335.798 24.8578 334.638 22.0164 334.638 18.6068V14.1419C334.638 10.0828 336.176 6.83555 339.251 4.4001C342.38 1.91055 346.48 0.665771 351.551 0.665771H360.695C363.877 0.665771 366.683 1.34228 369.11 2.6953C371.592 3.9942 373.507 5.86137 374.856 8.29681C376.204 10.6781 376.879 13.4383 376.879 16.5773H369.272C369.272 13.8713 368.49 11.7064 366.925 10.0828C365.361 8.40505 363.284 7.56618 360.695 7.56618H351.551C348.799 7.56618 346.561 8.18857 344.834 9.43334C343.162 10.624 342.326 12.2747 342.326 14.3854V18.0386C342.326 19.7704 342.919 21.2046 344.106 22.3412C345.347 23.4777 347.1 24.2624 349.366 24.6954L363.931 27.212C368.409 27.9697 371.835 29.458 374.208 31.677C376.636 33.8418 377.85 36.5749 377.85 39.8763V45.1531C377.85 49.2663 376.258 52.5676 373.075 55.0572C369.946 57.5467 365.766 58.7915 360.533 58.7915H351.227Z" fill="#081544"/>
<defs>
<linearGradient id="paint0_linear_94_256" x1="121.76" y1="-3.75672" x2="121.549" y2="58.7917" gradientUnits="userSpaceOnUse">
<stop stop-color="#3A2D96"/>
<stop offset="0.55" stop-color="#32C3D8"/>
</linearGradient>
<linearGradient id="paint1_linear_94_256" x1="99.0153" y1="0.244629" x2="99.0153" y2="58.7916" gradientUnits="userSpaceOnUse">
<stop stop-color="#32C3D8"/>
<stop offset="1" stop-color="#507FCD"/>
</linearGradient>
<linearGradient id="paint2_linear_94_256" x1="99.0153" y1="0.244629" x2="99.0153" y2="58.7916" gradientUnits="userSpaceOnUse">
<stop offset="0.13" stop-color="#32C3D8"/>
<stop offset="0.865" stop-color="#507FCD"/>
</linearGradient>
<linearGradient id="paint3_linear_94_256" x1="93.9608" y1="5.29901" x2="43.838" y2="5.29901" gradientUnits="userSpaceOnUse">
<stop stop-color="#32C3D8"/>
<stop offset="1" stop-color="#3A2D96"/>
</linearGradient>
<linearGradient id="paint4_linear_94_256" x1="85.1156" y1="29.5181" x2="35.414" y2="29.5181" gradientUnits="userSpaceOnUse">
<stop stop-color="#507FCD"/>
<stop offset="1" stop-color="#32C3D8"/>
</linearGradient>
<linearGradient id="paint5_linear_94_256" x1="85.1156" y1="29.5181" x2="35.414" y2="29.5181" gradientUnits="userSpaceOnUse">
<stop stop-color="#507FCD"/>
<stop offset="1" stop-color="#32C3D8"/>
</linearGradient>
<linearGradient id="paint6_linear_94_256" x1="58.1588" y1="29.3075" x2="85.1156" y2="29.3075" gradientUnits="userSpaceOnUse">
<stop offset="0.492188" stop-color="#4E77C9"/>
<stop offset="1" stop-color="#3A2BA2"/>
</linearGradient>
<linearGradient id="paint7_linear_94_256" x1="0.87561" y1="34.4672" x2="29.3066" y2="34.4672" gradientUnits="userSpaceOnUse">
<stop stop-color="#3A0699"/>
<stop offset="1" stop-color="#31C5D1"/>
</linearGradient>
<linearGradient id="paint8_linear_94_256" x1="8.45723" y1="4.66724" x2="40.8896" y2="4.66724" gradientUnits="userSpaceOnUse">
<stop stop-color="#3A0699"/>
<stop offset="1" stop-color="#31C5D1"/>
</linearGradient>
<linearGradient id="paint9_linear_94_256" x1="11.8268" y1="22.9895" x2="29.3066" y2="22.9895" gradientUnits="userSpaceOnUse">
<stop stop-color="#3A0699"/>
<stop offset="1" stop-color="#31C5D1"/>
</linearGradient>
<linearGradient id="paint10_linear_94_256" x1="0.454437" y1="13.3019" x2="30.9914" y2="13.3019" gradientUnits="userSpaceOnUse">
<stop stop-color="#3A0699"/>
<stop offset="1" stop-color="#31C5D1"/>
</linearGradient>
</defs>
</svg>
