<svg width="32" height="32" viewBox="0 0 422 422" fill="none" xmlns="http://www.w3.org/2000/svg">
<circle cx="211" cy="211" r="211" fill="#9A92FF"/>
<path d="M156.25 128.75C156.25 97.684 131.066 72.5 100 72.5V185C131.066 185 156.25 159.816 156.25 128.75Z" fill="white"/>
<path fill-rule="evenodd" clip-rule="evenodd" d="M218.75 347.5H200V283.963C204.065 284.645 208.241 285 212.5 285C253.921 285 287.5 251.421 287.5 210C287.5 168.579 253.921 135 212.5 135C208.241 135 204.065 135.355 200 136.037V72.5H218.75C294.689 72.5 356.25 134.061 356.25 210C356.25 285.939 294.689 347.5 218.75 347.5Z" fill="white"/>
<circle cx="211.25" cy="211.25" r="31.25" fill="white"/>
<path fill-rule="evenodd" clip-rule="evenodd" d="M250.171 115.509C245.755 110.975 241.25 106.35 241.25 102.5C241.25 85.2411 209.105 72.5 198.75 72.5C188.395 72.5 180 86.4911 180 103.75C180 121.009 188.395 136.25 198.75 136.25C198.769 136.249 198.788 136.248 198.806 136.247C203.246 135.428 207.823 135 212.5 135C215.943 135 219.331 135.232 222.65 135.681C237.748 135.481 250.248 135.104 256.25 131.25C261.942 127.594 256.138 121.635 250.171 115.509Z" fill="white"/>
<path fill-rule="evenodd" clip-rule="evenodd" d="M197.131 283.424C187.255 287.028 180 300.201 180 315C180 332.949 190.633 347.5 203.75 347.5C216.867 347.5 270 325.449 270 307.5C270 294.423 261.535 286.499 238.75 283.75C233.923 283.655 230.2 283.593 227.261 283.548C222.489 284.5 217.553 285 212.5 285C207.233 285 202.092 284.457 197.131 283.424Z" fill="white"/>
<path fill-rule="evenodd" clip-rule="evenodd" d="M162.446 154.146C162.482 152.981 162.5 151.807 162.5 150.625C162.5 117.833 148.509 91.25 131.25 91.25C113.991 91.25 100 145.958 100 178.75C100 210.119 112.803 210.069 129.023 210.006C129.759 210.003 130.501 210 131.25 210C133.394 210 135.487 209.59 137.509 208.809C137.847 187.101 147.408 167.631 162.446 154.146Z" fill="white"/>
</svg>
