<svg width="575" height="110" viewBox="0 0 575 110" fill="none" xmlns="http://www.w3.org/2000/svg">
<rect x="565.5" y="32" width="9" height="8" rx="4" fill="#9A92FF"/>
<path d="M22.5 45C28.4674 45 34.1903 42.6295 38.4099 38.4099C42.6295 34.1903 45 28.4674 45 22.5C45 16.5326 42.6295 10.8097 38.4099 6.5901C34.1903 2.37053 28.4674 9.01048e-07 22.5 0L22.5 22.5V45Z" fill="#9A92FF"/>
<path fill-rule="evenodd" clip-rule="evenodd" d="M70 110H62.5V84.5852C64.126 84.858 65.7964 85 67.5 85C84.0685 85 97.5 71.5685 97.5 55C97.5 38.4315 84.0685 25 67.5 25C65.7964 25 64.126 25.142 62.5 25.4148V0H70C100.376 0 125 24.6243 125 55C125 85.3757 100.376 110 70 110Z" fill="#9A92FF"/>
<circle cx="67" cy="55.5" r="12.5" fill="#9A92FF"/>
<path fill-rule="evenodd" clip-rule="evenodd" d="M82.5683 17.2036C80.802 15.3901 79 13.5402 79 12C79 5.09644 66.1421 0 62 0C57.8579 0 54.5 5.59644 54.5 12.5C54.5 19.4036 57.8579 25.5 62 25.5C62.0075 25.4996 62.0151 25.4992 62.0226 25.4989C63.7985 25.1712 65.6293 25 67.5 25C68.877 25 70.2324 25.0928 71.5601 25.2724C77.599 25.1925 82.5994 25.0417 85 23.5C87.277 22.0377 84.9552 19.654 82.5683 17.2036Z" fill="#9A92FF"/>
<path fill-rule="evenodd" clip-rule="evenodd" d="M61.3526 84.3696C57.4019 85.8112 54.5 91.0803 54.5 97C54.5 104.18 58.7533 110 64 110C69.2467 110 90.5 101.18 90.5 94C90.5 88.7693 87.1141 85.5997 78 84.5C76.0693 84.462 74.5798 84.437 73.4044 84.4192C71.4954 84.8002 69.5211 85.0001 67.5 85.0001C65.3931 85.0001 63.3369 84.7829 61.3526 84.3696Z" fill="#9A92FF"/>
<path fill-rule="evenodd" clip-rule="evenodd" d="M47.4784 32.6583C47.4927 32.1923 47.5 31.7228 47.5 31.25C47.5 18.1332 41.9036 7.5 35 7.5C28.0964 7.5 22.5 29.3832 22.5 42.5C22.5 55.0477 27.6214 55.0277 34.1092 55.0023C34.4034 55.0012 34.7005 55 35 55C35.8575 55 36.6948 54.836 37.5037 54.5235C37.6389 45.8402 41.4633 38.0524 47.4784 32.6583Z" fill="#9A92FF"/>
<path d="M164.613 33.1222C167.828 33.1222 170.685 33.7249 173.185 34.9303C175.685 36.1357 177.784 37.8323 179.48 40.0199C181.221 42.1629 182.516 44.663 183.364 47.5204C184.257 50.333 184.704 53.3466 184.704 56.5611C184.704 60.8917 183.922 64.8428 182.36 68.4145C180.797 71.9415 178.52 74.7541 175.529 76.8525C172.582 78.9508 168.944 80 164.613 80H148.608C147.447 80 146.465 79.6205 145.661 78.8615C144.902 78.0579 144.523 77.0757 144.523 75.9149V37.2072C144.523 36.0465 144.902 35.0866 145.661 34.3276C146.465 33.524 147.447 33.1222 148.608 33.1222H164.613ZM163.943 72.2986C166.756 72.2986 169.055 71.5843 170.841 70.1557C172.627 68.6824 173.922 66.7626 174.725 64.3964C175.574 61.9855 175.998 59.3738 175.998 56.5611C175.998 54.4627 175.752 52.476 175.261 50.6009C174.815 48.6811 174.1 47.0069 173.118 45.5783C172.136 44.105 170.886 42.9442 169.368 42.0959C167.85 41.2477 166.042 40.8235 163.943 40.8235H152.224L152.894 40.2208V73.0353L152.492 72.2986H163.943ZM197.283 75.9149C197.283 77.0757 196.904 78.0579 196.145 78.8615C195.386 79.6205 194.426 80 193.265 80C192.104 80 191.144 79.6205 190.385 78.8615C189.626 78.0579 189.247 77.0757 189.247 75.9149V48.257C189.247 47.0962 189.626 46.1363 190.385 45.3774C191.144 44.5738 192.104 44.1719 193.265 44.1719C194.426 44.1719 195.386 44.5738 196.145 45.3774C196.904 46.1363 197.283 47.0962 197.283 48.257V75.9149ZM193.198 39.819C191.68 39.819 190.609 39.5735 189.984 39.0824C189.359 38.5912 189.046 37.7207 189.046 36.4706V35.1982C189.046 33.9035 189.381 33.0329 190.051 32.5864C190.765 32.0953 191.836 31.8498 193.265 31.8498C194.828 31.8498 195.922 32.0953 196.547 32.5864C197.172 33.0775 197.484 33.9481 197.484 35.1982V36.4706C197.484 37.7653 197.149 38.6582 196.48 39.1493C195.81 39.5958 194.716 39.819 193.198 39.819ZM207.551 80C206.391 80 205.431 79.6205 204.672 78.8615C203.913 78.0579 203.533 77.0757 203.533 75.9149V48.257C203.533 47.0962 203.913 46.1363 204.672 45.3774C205.431 44.5738 206.391 44.1719 207.551 44.1719C208.712 44.1719 209.672 44.5738 210.431 45.3774C211.19 46.1363 211.569 47.0962 211.569 48.257V54.552L211.101 50.0652C211.592 48.9937 212.217 48.0561 212.976 47.2525C213.779 46.4042 214.672 45.7122 215.654 45.1765C216.637 44.5961 217.686 44.1719 218.802 43.9041C219.918 43.6362 221.034 43.5023 222.15 43.5023C223.49 43.5023 224.606 43.8817 225.499 44.6407C226.436 45.3997 226.905 46.2926 226.905 47.3195C226.905 48.7928 226.526 49.8643 225.767 50.5339C225.008 51.159 224.182 51.4715 223.289 51.4715C222.441 51.4715 221.659 51.3152 220.945 51.0027C220.275 50.6902 219.494 50.5339 218.601 50.5339C217.797 50.5339 216.972 50.7348 216.123 51.1366C215.32 51.4938 214.561 52.0742 213.846 52.8778C213.177 53.6814 212.619 54.686 212.172 55.8914C211.77 57.0522 211.569 58.4362 211.569 60.0434V75.9149C211.569 77.0757 211.19 78.0579 210.431 78.8615C209.672 79.6205 208.712 80 207.551 80ZM245.933 80.6697C242.138 80.6697 238.834 79.8884 236.022 78.3258C233.254 76.7186 231.111 74.5532 229.593 71.8299C228.12 69.1065 227.383 66.0259 227.383 62.5882C227.383 58.5701 228.186 55.1547 229.794 52.3421C231.446 49.4848 233.589 47.2971 236.223 45.7792C238.857 44.2612 241.647 43.5023 244.594 43.5023C246.871 43.5023 249.014 43.971 251.023 44.9086C253.076 45.8461 254.885 47.1409 256.447 48.7928C258.01 50.4 259.237 52.2751 260.13 54.4181C261.068 56.5611 261.537 58.838 261.537 61.2489C261.492 62.3204 261.068 63.1909 260.264 63.8606C259.461 64.5303 258.523 64.8652 257.452 64.8652H231.87L229.861 58.1683H254.438L252.965 59.5077V57.6995C252.875 56.4048 252.407 55.244 251.558 54.2172C250.755 53.1903 249.728 52.3867 248.478 51.8063C247.272 51.1813 245.978 50.8688 244.594 50.8688C243.254 50.8688 242.004 51.0474 240.843 51.4045C239.683 51.7617 238.678 52.3644 237.83 53.2127C236.982 54.0609 236.312 55.1994 235.821 56.6281C235.33 58.0567 235.084 59.8649 235.084 62.0525C235.084 64.4633 235.575 66.517 236.558 68.2136C237.584 69.8655 238.879 71.1379 240.442 72.0308C242.049 72.879 243.745 73.3032 245.531 73.3032C247.183 73.3032 248.5 73.1692 249.482 72.9014C250.465 72.6335 251.246 72.321 251.826 71.9638C252.451 71.562 253.009 71.2271 253.5 70.9593C254.304 70.5575 255.063 70.3566 255.777 70.3566C256.76 70.3566 257.563 70.6914 258.188 71.3611C258.858 72.0308 259.193 72.8121 259.193 73.705C259.193 74.9104 258.568 76.0042 257.318 76.9864C256.157 77.9686 254.527 78.8392 252.429 79.5982C250.331 80.3125 248.165 80.6697 245.933 80.6697ZM266.951 44.8416H282.822C283.894 44.8416 284.787 45.1988 285.501 45.9131C286.215 46.6274 286.572 47.5204 286.572 48.5919C286.572 49.6187 286.215 50.4893 285.501 51.2036C284.787 51.8733 283.894 52.2081 282.822 52.2081H266.951C265.879 52.2081 264.986 51.851 264.272 51.1366C263.558 50.4223 263.2 49.5294 263.2 48.4579C263.2 47.4311 263.558 46.5828 264.272 45.9131C264.986 45.1988 265.879 44.8416 266.951 44.8416ZM274.116 36.4706C275.277 36.4706 276.215 36.8724 276.929 37.676C277.688 38.435 278.067 39.3949 278.067 40.5557V70.3566C278.067 70.9816 278.179 71.495 278.402 71.8968C278.67 72.2986 279.005 72.5888 279.407 72.7674C279.853 72.946 280.322 73.0353 280.813 73.0353C281.349 73.0353 281.84 72.946 282.286 72.7674C282.733 72.5442 283.246 72.4326 283.827 72.4326C284.452 72.4326 285.01 72.7228 285.501 73.3032C286.037 73.8836 286.305 74.6872 286.305 75.714C286.305 76.9641 285.613 77.9909 284.229 78.7946C282.889 79.5982 281.438 80 279.876 80C278.938 80 277.889 79.933 276.728 79.7991C275.612 79.6205 274.54 79.241 273.514 78.6606C272.531 78.0356 271.705 77.098 271.036 75.848C270.366 74.5979 270.031 72.879 270.031 70.6914V40.5557C270.031 39.3949 270.411 38.435 271.17 37.676C271.973 36.8724 272.956 36.4706 274.116 36.4706ZM326.371 62.1195C326.371 65.7804 325.546 69.0172 323.894 71.8299C322.286 74.5979 320.099 76.7632 317.331 78.3258C314.607 79.8884 311.549 80.6697 308.156 80.6697C304.763 80.6697 301.682 79.8884 298.914 78.3258C296.191 76.7632 294.003 74.5979 292.352 71.8299C290.744 69.0172 289.941 65.7804 289.941 62.1195C289.941 58.4585 290.744 55.244 292.352 52.476C294.003 49.6633 296.191 47.4757 298.914 45.9131C301.682 44.3059 304.763 43.5023 308.156 43.5023C311.549 43.5023 314.607 44.3059 317.331 45.9131C320.099 47.4757 322.286 49.6633 323.894 52.476C325.546 55.244 326.371 58.4585 326.371 62.1195ZM318.335 62.1195C318.335 59.8425 317.866 57.8781 316.929 56.2262C316.036 54.5297 314.808 53.2127 313.246 52.2751C311.728 51.3376 310.031 50.8688 308.156 50.8688C306.281 50.8688 304.562 51.3376 303 52.2751C301.482 53.2127 300.254 54.5297 299.316 56.2262C298.423 57.8781 297.977 59.8425 297.977 62.1195C297.977 64.3517 298.423 66.3161 299.316 68.0127C300.254 69.6646 301.482 70.9593 303 71.8968C304.562 72.8344 306.281 73.3032 308.156 73.3032C310.031 73.3032 311.728 72.8344 313.246 71.8968C314.808 70.9593 316.036 69.6646 316.929 68.0127C317.866 66.3161 318.335 64.3517 318.335 62.1195ZM335.414 80C334.253 80 333.293 79.6205 332.534 78.8615C331.775 78.0579 331.396 77.0757 331.396 75.9149V48.257C331.396 47.0962 331.775 46.1363 332.534 45.3774C333.293 44.5738 334.253 44.1719 335.414 44.1719C336.575 44.1719 337.534 44.5738 338.293 45.3774C339.052 46.1363 339.432 47.0962 339.432 48.257V54.552L338.963 50.0652C339.454 48.9937 340.079 48.0561 340.838 47.2525C341.642 46.4042 342.535 45.7122 343.517 45.1765C344.499 44.5961 345.548 44.1719 346.664 43.9041C347.781 43.6362 348.897 43.5023 350.013 43.5023C351.352 43.5023 352.468 43.8817 353.361 44.6407C354.299 45.3997 354.768 46.2926 354.768 47.3195C354.768 48.7928 354.388 49.8643 353.629 50.5339C352.87 51.159 352.044 51.4715 351.151 51.4715C350.303 51.4715 349.522 51.3152 348.807 51.0027C348.138 50.6902 347.356 50.5339 346.464 50.5339C345.66 50.5339 344.834 50.7348 343.986 51.1366C343.182 51.4938 342.423 52.0742 341.709 52.8778C341.039 53.6814 340.481 54.686 340.035 55.8914C339.633 57.0522 339.432 58.4362 339.432 60.0434V75.9149C339.432 77.0757 339.052 78.0579 338.293 78.8615C337.534 79.6205 336.575 80 335.414 80ZM365.991 75.9149C365.991 77.0757 365.612 78.0579 364.853 78.8615C364.094 79.6205 363.134 80 361.973 80C360.812 80 359.852 79.6205 359.093 78.8615C358.334 78.0579 357.955 77.0757 357.955 75.9149V48.257C357.955 47.0962 358.334 46.1363 359.093 45.3774C359.852 44.5738 360.812 44.1719 361.973 44.1719C363.134 44.1719 364.094 44.5738 364.853 45.3774C365.612 46.1363 365.991 47.0962 365.991 48.257V75.9149ZM361.906 39.819C360.388 39.819 359.317 39.5735 358.692 39.0824C358.066 38.5912 357.754 37.7207 357.754 36.4706V35.1982C357.754 33.9035 358.089 33.0329 358.758 32.5864C359.473 32.0953 360.544 31.8498 361.973 31.8498C363.536 31.8498 364.629 32.0953 365.254 32.5864C365.879 33.0775 366.192 33.9481 366.192 35.1982V36.4706C366.192 37.7653 365.857 38.6582 365.187 39.1493C364.518 39.5958 363.424 39.819 361.906 39.819ZM401.573 43.5023C402.734 43.5023 403.694 43.8817 404.453 44.6407C405.212 45.3997 405.591 46.3819 405.591 47.5873V75.9149C405.591 77.0757 405.212 78.0579 404.453 78.8615C403.694 79.6205 402.734 80 401.573 80C400.412 80 399.453 79.6205 398.694 78.8615C397.935 78.0579 397.555 77.0757 397.555 75.9149V72.6335L399.028 73.2362C399.028 73.8166 398.716 74.5309 398.091 75.3792C397.466 76.1828 396.618 76.9864 395.546 77.79C394.475 78.5937 393.202 79.2857 391.729 79.8661C390.3 80.4018 388.738 80.6697 387.041 80.6697C383.961 80.6697 381.17 79.8884 378.67 78.3258C376.17 76.7186 374.183 74.5309 372.71 71.7629C371.281 68.9502 370.567 65.7357 370.567 62.1195C370.567 58.4585 371.281 55.244 372.71 52.476C374.183 49.6633 376.148 47.4757 378.603 45.9131C381.059 44.3059 383.782 43.5023 386.773 43.5023C388.693 43.5023 390.456 43.7925 392.064 44.3728C393.671 44.9532 395.055 45.6899 396.216 46.5828C397.421 47.4757 398.336 48.3909 398.961 49.3285C399.631 50.2214 399.966 50.9804 399.966 51.6054L397.555 52.476V47.5873C397.555 46.4265 397.935 45.4667 398.694 44.7077C399.453 43.9041 400.412 43.5023 401.573 43.5023ZM388.046 73.3032C390.01 73.3032 391.729 72.8121 393.202 71.8299C394.676 70.8477 395.814 69.5083 396.618 67.8118C397.466 66.1152 397.89 64.2178 397.89 62.1195C397.89 59.9765 397.466 58.0567 396.618 56.3602C395.814 54.6636 394.676 53.3243 393.202 52.3421C391.729 51.3599 390.01 50.8688 388.046 50.8688C386.126 50.8688 384.429 51.3599 382.956 52.3421C381.483 53.3243 380.322 54.6636 379.474 56.3602C378.67 58.0567 378.268 59.9765 378.268 62.1195C378.268 64.2178 378.67 66.1152 379.474 67.8118C380.322 69.5083 381.483 70.8477 382.956 71.8299C384.429 72.8121 386.126 73.3032 388.046 73.3032ZM458.376 30.4434C459.537 30.4434 460.497 30.8229 461.256 31.5819C462.015 32.3409 462.394 33.3231 462.394 34.5285V75.9149C462.394 77.0757 462.015 78.0579 461.256 78.8615C460.497 79.6205 459.537 80 458.376 80C457.215 80 456.255 79.6205 455.496 78.8615C454.737 78.0579 454.358 77.0757 454.358 75.9149V72.6335L455.831 73.2362C455.831 73.8166 455.519 74.5309 454.894 75.3792C454.269 76.1828 453.42 76.9864 452.349 77.79C451.277 78.5937 450.005 79.2857 448.532 79.8661C447.103 80.4018 445.54 80.6697 443.844 80.6697C440.763 80.6697 437.973 79.8884 435.473 78.3258C432.973 76.7186 430.986 74.5309 429.513 71.7629C428.084 68.9502 427.37 65.7357 427.37 62.1195C427.37 58.4585 428.084 55.244 429.513 52.476C430.986 49.6633 432.95 47.4757 435.406 45.9131C437.861 44.3059 440.585 43.5023 443.576 43.5023C445.496 43.5023 447.259 43.7925 448.866 44.3728C450.474 44.9532 451.858 45.6899 453.019 46.5828C454.224 47.4757 455.139 48.3909 455.764 49.3285C456.434 50.2214 456.769 50.9804 456.769 51.6054L454.358 52.476V34.5285C454.358 33.3677 454.737 32.4078 455.496 31.6489C456.255 30.8452 457.215 30.4434 458.376 30.4434ZM444.848 73.3032C446.813 73.3032 448.532 72.8121 450.005 71.8299C451.478 70.8477 452.617 69.5083 453.42 67.8118C454.269 66.1152 454.693 64.2178 454.693 62.1195C454.693 59.9765 454.269 58.0567 453.42 56.3602C452.617 54.6636 451.478 53.3243 450.005 52.3421C448.532 51.3599 446.813 50.8688 444.848 50.8688C442.929 50.8688 441.232 51.3599 439.759 52.3421C438.285 53.3243 437.125 54.6636 436.276 56.3602C435.473 58.0567 435.071 59.9765 435.071 62.1195C435.071 64.2178 435.473 66.1152 436.276 67.8118C437.125 69.5083 438.285 70.8477 439.759 71.8299C441.232 72.8121 442.929 73.3032 444.848 73.3032ZM485.962 80.6697C482.167 80.6697 478.864 79.8884 476.051 78.3258C473.283 76.7186 471.14 74.5532 469.622 71.8299C468.149 69.1065 467.412 66.0259 467.412 62.5882C467.412 58.5701 468.216 55.1547 469.823 52.3421C471.475 49.4848 473.618 47.2971 476.252 45.7792C478.886 44.2612 481.676 43.5023 484.623 43.5023C486.9 43.5023 489.043 43.971 491.052 44.9086C493.106 45.8461 494.914 47.1409 496.476 48.7928C498.039 50.4 499.267 52.2751 500.16 54.4181C501.097 56.5611 501.566 58.838 501.566 61.2489C501.521 62.3204 501.097 63.1909 500.293 63.8606C499.49 64.5303 498.552 64.8652 497.481 64.8652H471.899L469.89 58.1683H494.467L492.994 59.5077V57.6995C492.905 56.4048 492.436 55.244 491.588 54.2172C490.784 53.1903 489.757 52.3867 488.507 51.8063C487.302 51.1813 486.007 50.8688 484.623 50.8688C483.284 50.8688 482.033 51.0474 480.873 51.4045C479.712 51.7617 478.707 52.3644 477.859 53.2127C477.011 54.0609 476.341 55.1994 475.85 56.6281C475.359 58.0567 475.113 59.8649 475.113 62.0525C475.113 64.4633 475.604 66.517 476.587 68.2136C477.614 69.8655 478.908 71.1379 480.471 72.0308C482.078 72.879 483.775 73.3032 485.56 73.3032C487.212 73.3032 488.529 73.1692 489.512 72.9014C490.494 72.6335 491.275 72.321 491.855 71.9638C492.48 71.562 493.039 71.2271 493.53 70.9593C494.333 70.5575 495.092 70.3566 495.807 70.3566C496.789 70.3566 497.592 70.6914 498.217 71.3611C498.887 72.0308 499.222 72.8121 499.222 73.705C499.222 74.9104 498.597 76.0042 497.347 76.9864C496.186 77.9686 494.557 78.8392 492.458 79.5982C490.36 80.3125 488.195 80.6697 485.962 80.6697ZM539.88 80C538.63 80 537.603 79.6205 536.799 78.8615C535.995 78.0579 535.594 77.0757 535.594 75.9149V37.0733H544.3V75.9149C544.3 77.0757 543.875 78.0579 543.027 78.8615C542.223 79.6205 541.174 80 539.88 80ZM525.08 40.8235C523.919 40.8235 522.937 40.4664 522.133 39.752C521.374 39.0377 520.995 38.1001 520.995 36.9394C520.995 35.7786 521.374 34.8633 522.133 34.1937C522.937 33.4793 523.919 33.1222 525.08 33.1222H554.814C555.974 33.1222 556.934 33.4793 557.693 34.1937C558.497 34.908 558.899 35.8455 558.899 37.0063C558.899 38.1671 558.497 39.1047 557.693 39.819C556.934 40.4887 555.974 40.8235 554.814 40.8235H525.08Z" fill="#9A92FF"/>
<rect x="565.5" y="43" width="9" height="37" rx="4.5" fill="#9A92FF"/>
</svg>
