<svg width="41" height="44" viewBox="0 0 41 44" fill="none" xmlns="http://www.w3.org/2000/svg">
<path d="M8.86963 9.39409C8.86963 4.53649 4.93177 0.598633 0.0741749 0.598633V18.1895C4.93177 18.1895 8.86963 14.2517 8.86963 9.39409Z" fill="#9A92FF"/>
<path fill-rule="evenodd" clip-rule="evenodd" d="M15.7111 43.5986H15.7109V33.6638C16.3466 33.7705 16.9995 33.826 17.6655 33.826C24.1423 33.826 29.3928 28.5755 29.3928 22.0987C29.3928 15.6219 24.1423 10.3714 17.6655 10.3714C16.9995 10.3714 16.3466 10.427 15.7109 10.5336V0.598633H15.7111H18.6429C30.517 0.598633 40.1429 10.2245 40.1429 22.0986C40.1429 33.9728 30.517 43.5986 18.6429 43.5986H15.7111Z" fill="#9A92FF"/>
<circle cx="17.4699" cy="22.2941" r="4.88636" fill="#9A92FF"/>
<path fill-rule="evenodd" clip-rule="evenodd" d="M23.5557 7.32367C22.8652 6.61478 22.1608 5.8916 22.1608 5.28954C22.1608 2.59088 17.1345 0.598633 15.5153 0.598633C13.8961 0.598633 12.5835 2.78633 12.5835 5.485C12.5835 8.18366 13.8961 10.5668 15.5153 10.5668C15.5184 10.5667 15.5216 10.5665 15.5247 10.5663C16.2187 10.4383 16.9342 10.3714 17.6653 10.3714C18.2033 10.3714 18.733 10.4077 19.2518 10.4779C21.6127 10.4466 23.5677 10.3877 24.5062 9.785C25.3963 9.21336 24.4887 8.28156 23.5557 7.32367Z" fill="#9A92FF"/>
<path fill-rule="evenodd" clip-rule="evenodd" d="M15.2622 33.5795C13.7178 34.143 12.5835 36.2027 12.5835 38.5168C12.5835 41.3234 14.2461 43.5986 16.2971 43.5986C18.3481 43.5986 26.6562 40.1506 26.6562 37.344C26.6562 35.2993 25.3327 34.0603 21.7699 33.6304C21.0153 33.6156 20.4331 33.6058 19.9737 33.5988C19.2274 33.7478 18.4555 33.8259 17.6654 33.8259C16.8417 33.8259 16.0379 33.741 15.2622 33.5795Z" fill="#9A92FF"/>
<path fill-rule="evenodd" clip-rule="evenodd" d="M9.8385 13.365C9.84411 13.1829 9.84695 12.9994 9.84695 12.8146C9.84695 7.68715 7.65925 3.53052 4.96058 3.53052C2.26192 3.53052 0.0742188 12.0849 0.0742188 17.2123C0.0742188 22.1173 2.07621 22.1095 4.61235 22.0996C4.72738 22.0992 4.8435 22.0987 4.96058 22.0987C5.29574 22.0987 5.62301 22.0346 5.93919 21.9125C5.99205 18.5181 7.48706 15.4737 9.8385 13.365Z" fill="#9A92FF"/>
</svg>
