<svg width="504" height="320" viewBox="0 0 504 320" fill="none" xmlns="http://www.w3.org/2000/svg">
<path d="M488.08 21.16L196.48 1C189.28 0.999939 186.76 2.43989 185.68 7.12L155.8 228.52L467.56 274.24C471.88 274.528 473.68 272.92 474.04 272.08L502.48 36.64C504.784 22.528 494.92 21.16 488.08 21.16Z" fill="#777982" stroke="black" stroke-width="0.72"/>
<path d="M486.28 21.5201L194.68 1.36011C187.48 1.36005 184.96 2.79999 183.88 7.48011L154 228.88L465.76 274.6C470.08 274.888 471.88 273.28 472.24 272.44L500.68 37.0001C502.984 22.8881 493.12 21.5201 486.28 21.5201Z" fill="#373737"/>
<path d="M483.545 38.4874L193.904 14.3674L170.545 201.567L459.109 239.367L483.545 38.4874Z" fill="#837BEA"/>
<path d="M228.545 23.833L203.56 21.3674L201.545 40.5034L226.437 44.3674L228.545 23.833Z" fill="#221B50" stroke="black" stroke-width="0.072"/>
<path d="M224.545 49.833L199.56 47.3674L197.545 66.5034L222.437 70.3674L224.545 49.833Z" fill="#221B50" stroke="black" stroke-width="0.072"/>
<path d="M221.545 75.833L196.56 73.3674L194.545 92.5034L219.437 96.3674L221.545 75.833Z" fill="#221B50" stroke="black" stroke-width="0.072"/>
<path d="M217.545 101.833L192.56 99.3674L190.545 118.503L215.437 122.367L217.545 101.833Z" fill="#221B50" stroke="black" stroke-width="0.072"/>
<path d="M1 258.76L60.4001 243.64L64.36 243.28L147.88 225.28C149.08 225.04 151.768 224.56 152.92 224.56L172 226.72V228.52H184.6L429.04 262.72V264.17L438.4 265.24L441.28 264.52L469 267.76C466.12 272.44 459.064 282.16 453.88 283.6L330.76 318.88C327.4 319.24 319.6 319.744 315.28 318.88L4.6 266.32C3.4 265.72 1 264.448 1 264.16V258.76Z" fill="#777982"/>
<path d="M469 267.76L469.307 267.949L469.602 267.468L469.042 267.402L469 267.76ZM453.88 272.8L453.766 272.459L453.64 272.501L453.571 272.615L453.88 272.8ZM452.8 274.6L452.909 274.943L453.039 274.902L453.109 274.785L452.8 274.6ZM388.36 295.12V295.48H388.416L388.469 295.463L388.36 295.12ZM385.12 295.12V294.76H385.061L385.005 294.779L385.12 295.12ZM330.76 313.48L330.798 313.838L330.838 313.834L330.875 313.821L330.76 313.48ZM316 313.48L316.087 313.131L316.073 313.127L316.059 313.125L316 313.48ZM4.6 261.64L4.46952 261.976L4.50419 261.989L4.54088 261.995L4.6 261.64ZM1 258.76L0.911196 258.411C0.751664 258.452 0.64 258.595 0.64 258.76H1ZM60.4001 243.64L60.3675 243.282L60.339 243.284L60.3113 243.291L60.4001 243.64ZM64.36 243.28L64.3926 243.639L64.4144 243.637L64.4358 243.632L64.36 243.28ZM147.88 225.28L147.809 224.927L147.804 224.928L147.88 225.28ZM152.92 224.56L152.96 224.202L152.94 224.2H152.92V224.56ZM172 226.72H172.36V226.399L172.04 226.362L172 226.72ZM168.4 227.44L168.329 227.087L168.04 227.145V227.44H168.4ZM168.4 228.52H168.04V228.88H168.4V228.52ZM184.6 228.52L184.65 228.164L184.625 228.16H184.6V228.52ZM429.04 262.72H429.4V262.407L429.09 262.364L429.04 262.72ZM425.8 263.8L425.686 263.459L425.759 264.158L425.8 263.8ZM438.4 265.24L438.359 265.598L438.424 265.605L438.487 265.589L438.4 265.24ZM441.28 264.52L441.322 264.162L441.256 264.155L441.193 264.171L441.28 264.52ZM453.88 283.6L453.784 283.253L453.781 283.254L453.88 283.6ZM330.76 318.88L330.798 319.238L330.829 319.235L330.859 319.226L330.76 318.88ZM315.28 318.88L315.351 318.527L315.34 318.525L315.28 318.88ZM4.6 266.32L4.439 266.642L4.48702 266.666L4.53995 266.675L4.6 266.32ZM468.886 267.419L453.766 272.459L453.994 273.142L469.114 268.102L468.886 267.419ZM453.571 272.615L452.491 274.415L453.109 274.785L454.189 272.985L453.571 272.615ZM452.691 274.257L388.251 294.777L388.469 295.463L452.909 274.943L452.691 274.257ZM388.36 294.76H385.12V295.48H388.36V294.76ZM385.005 294.779L330.645 313.139L330.875 313.821L385.235 295.461L385.005 294.779ZM330.722 313.122C329.042 313.302 326.444 313.571 323.728 313.66C321.005 313.75 318.197 313.658 316.087 313.131L315.913 313.829C318.123 314.382 321.015 314.47 323.752 314.38C326.496 314.289 329.117 314.018 330.798 313.838L330.722 313.122ZM316.059 313.125L4.65912 261.285L4.54088 261.995L315.941 313.835L316.059 313.125ZM4.73048 261.305C3.71285 260.909 2.85305 260.224 2.24147 259.627C1.93731 259.331 1.6985 259.059 1.53635 258.863C1.45535 258.765 1.39371 258.686 1.35282 258.632C1.33239 258.605 1.31716 258.584 1.30731 258.571C1.30238 258.564 1.29881 258.559 1.2966 258.556C1.2955 258.554 1.29473 258.553 1.29432 258.553C1.29411 258.552 1.29399 258.552 1.29395 258.552C1.29394 258.552 1.29394 258.552 1.29397 258.552C1.29398 258.552 1.29401 258.552 1.29402 258.552C1.29406 258.552 1.29411 258.552 1 258.76C0.705892 258.968 0.705949 258.968 0.706012 258.968C0.706041 258.968 0.706109 258.968 0.706166 258.968C0.70628 258.968 0.706416 258.968 0.706573 258.969C0.706889 258.969 0.707293 258.97 0.707786 258.97C0.70877 258.972 0.710107 258.974 0.711794 258.976C0.715167 258.981 0.71994 258.987 0.72609 258.996C0.738389 259.012 0.756205 259.037 0.779363 259.067C0.825666 259.128 0.893395 259.215 0.981149 259.321C1.1565 259.534 1.41269 259.825 1.73853 260.143C2.38695 260.776 3.32714 261.531 4.46952 261.976L4.73048 261.305ZM1.0888 259.109L60.4889 243.989L60.3113 243.291L0.911196 258.411L1.0888 259.109ZM60.4327 243.999L64.3926 243.639L64.3274 242.922L60.3675 243.282L60.4327 243.999ZM64.4358 243.632L147.956 225.632L147.804 224.928L64.2841 242.928L64.4358 243.632ZM147.951 225.633C148.546 225.514 149.513 225.335 150.473 225.186C151.441 225.035 152.376 224.92 152.92 224.92V224.2C152.312 224.2 151.326 224.325 150.363 224.474C149.391 224.625 148.414 224.806 147.809 224.927L147.951 225.633ZM152.879 224.918L171.959 227.078L172.04 226.362L152.96 224.202L152.879 224.918ZM171.929 226.367L168.329 227.087L168.471 227.793L172.071 227.073L171.929 226.367ZM168.04 227.44V228.52H168.76V227.44H168.04ZM168.4 228.88H172V228.16H168.4V228.88ZM172 228.88H184.6V228.16H172V228.88ZM171.64 226.72V228.52H172.36V226.72H171.64ZM184.55 228.877L428.99 263.077L429.09 262.364L184.65 228.164L184.55 228.877ZM428.926 262.379L425.686 263.459L425.914 264.142L429.154 263.062L428.926 262.379ZM438.487 265.589L441.367 264.869L441.193 264.171L438.313 264.891L438.487 265.589ZM441.238 264.878L468.958 268.118L469.042 267.402L441.322 264.162L441.238 264.878ZM425.759 264.158L428.999 264.528L429.081 263.813L425.841 263.442L425.759 264.158ZM428.999 264.528L438.359 265.598L438.441 264.882L429.081 263.813L428.999 264.528ZM428.68 262.72V264.17H429.4V262.72H428.68ZM468.693 267.571C467.261 269.898 464.789 273.482 462.032 276.659C460.654 278.248 459.21 279.728 457.795 280.898C456.375 282.072 455.008 282.913 453.784 283.253L453.976 283.947C455.344 283.567 456.803 282.653 458.254 281.453C459.71 280.249 461.182 278.737 462.576 277.131C465.363 273.918 467.859 270.302 469.307 267.949L468.693 267.571ZM453.781 283.254L330.661 318.534L330.859 319.226L453.979 283.946L453.781 283.254ZM330.722 318.522C329.051 318.701 326.271 318.916 323.372 318.979C320.467 319.042 317.47 318.951 315.351 318.527L315.209 319.233C317.41 319.673 320.473 319.762 323.388 319.699C326.309 319.636 329.109 319.419 330.798 319.238L330.722 318.522ZM315.34 318.525L4.66005 265.965L4.53995 266.675L315.22 319.235L315.34 318.525ZM4.761 265.998C4.16447 265.7 3.27089 265.235 2.52874 264.811C2.15651 264.598 1.82974 264.399 1.59897 264.239C1.48227 264.158 1.40039 264.094 1.35127 264.048C1.32617 264.024 1.31927 264.015 1.32122 264.017C1.32253 264.019 1.33041 264.03 1.33871 264.05C1.34674 264.069 1.36 264.108 1.36 264.16H0.64C0.64 264.292 0.702603 264.39 0.733269 264.433C0.77096 264.486 0.8168 264.534 0.859672 264.574C0.946487 264.655 1.06148 264.742 1.18853 264.83C1.44526 265.009 1.79349 265.219 2.17126 265.436C2.9291 265.869 3.83553 266.34 4.439 266.642L4.761 265.998ZM1.36 264.16V258.76H0.64V264.16H1.36Z" fill="#777982"/>
<path d="M469 267.76L453.88 272.8L452.8 274.6L388.36 295.12H385.12L330.76 313.48C327.4 313.84 320.32 314.56 316 313.48L4.6 261.64C2.44 260.8 1 258.76 1 258.76L60.4001 243.64L64.36 243.28L147.88 225.28C149.08 225.04 151.768 224.56 152.92 224.56L172 226.72V228.52H184.6L429.04 262.72V264.17L438.4 265.24L441.28 264.52L469 267.76Z" fill="#B6BEC0"/>
<path d="M469 267.76L469.114 268.102L469.042 267.402L469 267.76ZM453.88 272.8L453.766 272.459L453.64 272.501L453.571 272.615L453.88 272.8ZM452.8 274.6L452.909 274.943L453.039 274.902L453.109 274.785L452.8 274.6ZM388.36 295.12V295.48H388.416L388.469 295.463L388.36 295.12ZM385.12 295.12V294.76H385.061L385.005 294.779L385.12 295.12ZM330.76 313.48L330.798 313.838L330.838 313.834L330.875 313.821L330.76 313.48ZM316 313.48L316.087 313.131L316.073 313.127L316.059 313.125L316 313.48ZM4.6 261.64L4.46952 261.976L4.50419 261.989L4.54088 261.995L4.6 261.64ZM1 258.76L0.911196 258.411C0.796362 258.44 0.703267 258.524 0.662253 258.635C0.621238 258.747 0.637557 258.871 0.705891 258.968L1 258.76ZM60.4001 243.64L60.3675 243.282L60.339 243.284L60.3113 243.291L60.4001 243.64ZM64.36 243.28L64.3926 243.639L64.4144 243.637L64.4358 243.632L64.36 243.28ZM147.88 225.28L147.809 224.927L147.804 224.928L147.88 225.28ZM152.92 224.56L152.96 224.202L152.94 224.2H152.92V224.56ZM172 226.72H172.36V226.399L172.04 226.362L172 226.72ZM168.4 227.44L168.329 227.087L168.04 227.145V227.44H168.4ZM168.4 228.52H168.04V228.88H168.4V228.52ZM184.6 228.52L184.65 228.164L184.625 228.16H184.6V228.52ZM429.04 262.72H429.4V262.407L429.09 262.364L429.04 262.72ZM425.8 263.8L425.686 263.459L425.759 264.158L425.8 263.8ZM438.4 265.24L438.359 265.598L438.424 265.605L438.487 265.589L438.4 265.24ZM441.28 264.52L441.322 264.162L441.256 264.155L441.193 264.171L441.28 264.52ZM429.04 264.17L428.999 264.528L429.04 264.17ZM468.886 267.419L453.766 272.459L453.994 273.142L469.114 268.102L468.886 267.419ZM453.571 272.615L452.491 274.415L453.109 274.785L454.189 272.985L453.571 272.615ZM452.691 274.257L388.251 294.777L388.469 295.463L452.909 274.943L452.691 274.257ZM388.36 294.76H385.12V295.48H388.36V294.76ZM385.005 294.779L330.645 313.139L330.875 313.821L385.235 295.461L385.005 294.779ZM330.722 313.122C329.042 313.302 326.444 313.571 323.728 313.66C321.005 313.75 318.197 313.658 316.087 313.131L315.913 313.829C318.123 314.382 321.015 314.47 323.752 314.38C326.496 314.289 329.117 314.018 330.798 313.838L330.722 313.122ZM316.059 313.125L4.65912 261.285L4.54088 261.995L315.941 313.835L316.059 313.125ZM4.73048 261.305C3.71285 260.909 2.85305 260.224 2.24147 259.627C1.93731 259.331 1.6985 259.059 1.53635 258.863C1.45536 258.765 1.39371 258.686 1.35282 258.632C1.33239 258.605 1.31716 258.584 1.30731 258.571C1.30238 258.564 1.29881 258.559 1.2966 258.556C1.2955 258.554 1.29473 258.553 1.29432 258.553C1.29411 258.552 1.29399 258.552 1.29395 258.552C1.29394 258.552 1.29394 258.552 1.29397 258.552C1.29398 258.552 1.29401 258.552 1.29402 258.552C1.29406 258.552 1.29411 258.552 1 258.76C0.705891 258.968 0.705949 258.968 0.706012 258.968C0.70604 258.968 0.706109 258.968 0.706166 258.968C0.70628 258.968 0.706415 258.968 0.706573 258.969C0.706889 258.969 0.707293 258.97 0.707785 258.97C0.70877 258.972 0.710107 258.974 0.711794 258.976C0.715167 258.981 0.71994 258.987 0.72609 258.996C0.738389 259.012 0.756205 259.037 0.779363 259.067C0.825666 259.128 0.893395 259.215 0.981149 259.321C1.1565 259.534 1.41269 259.825 1.73853 260.143C2.38695 260.776 3.32714 261.531 4.46952 261.976L4.73048 261.305ZM1.0888 259.109L60.4889 243.989L60.3113 243.291L0.911196 258.411L1.0888 259.109ZM60.4327 243.999L64.3926 243.639L64.3274 242.922L60.3675 243.282L60.4327 243.999ZM64.4358 243.632L147.956 225.632L147.804 224.928L64.2841 242.928L64.4358 243.632ZM147.951 225.633C148.546 225.514 149.513 225.335 150.473 225.186C151.441 225.035 152.376 224.92 152.92 224.92V224.2C152.312 224.2 151.326 224.325 150.363 224.474C149.391 224.625 148.414 224.806 147.809 224.927L147.951 225.633ZM152.879 224.918L171.959 227.078L172.04 226.362L152.96 224.202L152.879 224.918ZM171.929 226.367L168.329 227.087L168.471 227.793L172.071 227.073L171.929 226.367ZM168.04 227.44V228.52H168.76V227.44H168.04ZM168.4 228.88H172V228.16H168.4V228.88ZM172 228.88H184.6V228.16H172V228.88ZM171.64 226.72V228.52H172.36V226.72H171.64ZM184.55 228.877L428.99 263.077L429.09 262.364L184.65 228.164L184.55 228.877ZM428.926 262.379L425.686 263.459L425.914 264.142L429.154 263.062L428.926 262.379ZM438.487 265.589L441.367 264.869L441.193 264.171L438.313 264.891L438.487 265.589ZM441.238 264.878L468.958 268.118L469.042 267.402L441.322 264.162L441.238 264.878ZM425.759 264.158L428.999 264.528L429.081 263.813L425.841 263.442L425.759 264.158ZM428.999 264.528L438.359 265.598L438.441 264.882L429.081 263.813L428.999 264.528ZM428.68 262.72V264.17H429.4V262.72H428.68Z" fill="#777982"/>
<path d="M219.52 271.72L135.28 259.12L88.1199 270.64L177.4 284.68L219.52 271.72Z" stroke="black" stroke-width="0.72"/>
<path d="M184.96 282.16L177.4 284.68L128.8 277.037L88.1199 270.64L96.0399 268.84L136.36 274.683L184.96 282.16Z" fill="#86899F"/>
<path d="M136.36 274.683L184.96 282.16L177.4 284.68L128.8 277.037M136.36 274.683L96.0399 268.84L88.1199 270.64L128.8 277.037M136.36 274.683L128.8 277.037" stroke="black" stroke-width="0.72"/>
<path d="M251.92 273.52L78.7595 245.44L142.84 229.96L298.36 254.08L251.92 273.52Z" fill="#1B2750" stroke="black" stroke-width="0.288"/>
<path d="M376.12 291.16L276.4 276.76L321.4 256.6L433 271.72L376.12 291.16Z" fill="#1B2750" stroke="black" stroke-width="0.288"/>
</svg>
