<svg width="403" height="256" viewBox="0 0 403 256" fill="none" xmlns="http://www.w3.org/2000/svg">
<path d="M390.161 17.1072L157.182 1C151.43 0.999951 149.416 2.15042 148.553 5.88968L124.68 182.781L373.766 219.31C377.218 219.54 378.656 218.255 378.944 217.584L401.666 29.4752C403.507 18.2002 395.626 17.1072 390.161 17.1072Z" fill="#777982" stroke="black" stroke-width="0.575257"/>
<path d="M388.723 17.3948L155.744 1.2876C149.992 1.28755 147.978 2.43802 147.115 6.17728L123.242 183.069L372.328 219.598C375.78 219.828 377.218 218.543 377.506 217.872L400.228 29.7628C402.069 18.4878 394.188 17.3948 388.723 17.3948Z" fill="#373737"/>
<path d="M386.538 30.9512L155.124 11.6801L136.461 161.247L367.014 191.448L386.538 30.9512Z" fill="#BDF3FF"/>
<path d="M182.802 19.2429L162.839 17.2729L161.229 32.562L181.117 35.6492L182.802 19.2429Z" fill="#221B50" stroke="black" stroke-width="0.0575257"/>
<path d="M179.606 40.016L159.643 38.046L158.034 53.3351L177.922 56.4223L179.606 40.016Z" fill="#221B50" stroke="black" stroke-width="0.0575257"/>
<path d="M177.209 60.7891L157.246 58.8192L155.636 74.1083L175.524 77.1955L177.209 60.7891Z" fill="#221B50" stroke="black" stroke-width="0.0575257"/>
<path d="M174.013 81.5622L154.051 79.5923L152.441 94.8813L172.329 97.9685L174.013 81.5622Z" fill="#221B50" stroke="black" stroke-width="0.0575257"/>
<path d="M1 206.942L48.4588 194.862L51.6226 194.574L118.352 180.193C119.311 180.001 121.459 179.617 122.379 179.617L137.623 181.343V182.781H147.69L342.99 210.106V211.265L350.468 212.119L352.769 211.544L374.917 214.133C372.616 217.872 366.978 225.638 362.836 226.788L264.468 254.976C261.783 255.264 255.551 255.666 252.1 254.976L3.87628 212.982C2.91752 212.503 1 211.487 1 211.256V206.942Z" fill="#777982"/>
<path d="M374.917 214.133L375.162 214.283L375.398 213.899L374.95 213.847L374.917 214.133ZM362.836 218.16L362.745 217.887L362.645 217.92L362.59 218.012L362.836 218.16ZM361.974 219.598L362.061 219.872L362.164 219.839L362.22 219.746L361.974 219.598ZM310.488 235.992V236.28H310.533L310.575 236.267L310.488 235.992ZM307.899 235.992V235.705H307.852L307.807 235.72L307.899 235.992ZM264.468 250.662L264.498 250.948L264.53 250.944L264.56 250.934L264.468 250.662ZM252.675 250.662L252.745 250.382L252.733 250.38L252.722 250.378L252.675 250.662ZM3.87628 209.243L3.77203 209.511L3.79973 209.522L3.82905 209.527L3.87628 209.243ZM1 206.942L0.929048 206.663C0.801587 206.696 0.712372 206.81 0.712372 206.942H1ZM48.4588 194.862L48.4327 194.575L48.41 194.577L48.3878 194.583L48.4588 194.862ZM51.6226 194.574L51.6486 194.86L51.6661 194.859L51.6832 194.855L51.6226 194.574ZM118.352 180.193L118.296 179.91L118.292 179.911L118.352 180.193ZM122.379 179.617L122.412 179.332L122.395 179.33H122.379V179.617ZM137.623 181.343H137.911V181.086L137.656 181.057L137.623 181.343ZM134.747 181.918L134.691 181.636L134.46 181.683V181.918H134.747ZM134.747 182.781H134.46V183.069H134.747V182.781ZM147.69 182.781L147.73 182.496L147.71 182.494H147.69V182.781ZM342.99 210.106H343.278V209.856L343.03 209.821L342.99 210.106ZM340.401 210.969L340.311 210.696L340.369 211.255L340.401 210.969ZM350.468 212.119L350.436 212.405L350.488 212.411L350.538 212.398L350.468 212.119ZM352.769 211.544L352.803 211.258L352.751 211.252L352.7 211.265L352.769 211.544ZM362.836 226.788L362.759 226.511L362.757 226.512L362.836 226.788ZM264.468 254.976L264.498 255.262L264.523 255.259L264.547 255.252L264.468 254.976ZM252.1 254.976L252.156 254.694L252.148 254.692L252.1 254.976ZM3.87628 212.982L3.74765 213.239L3.78602 213.259L3.82831 213.266L3.87628 212.982ZM374.826 213.86L362.745 217.887L362.927 218.432L375.008 214.406L374.826 213.86ZM362.59 218.012L361.727 219.45L362.22 219.746L363.083 218.307L362.59 218.012ZM361.886 219.324L310.401 235.718L310.575 236.267L362.061 219.872L361.886 219.324ZM310.488 235.705H307.899V236.28H310.488V235.705ZM307.807 235.72L264.376 250.389L264.56 250.934L307.991 236.265L307.807 235.72ZM264.437 250.376C263.095 250.519 261.019 250.734 258.849 250.805C256.674 250.877 254.43 250.804 252.745 250.382L252.605 250.941C254.371 251.382 256.681 251.453 258.868 251.38C261.061 251.308 263.155 251.091 264.498 250.948L264.437 250.376ZM252.722 250.378L3.92352 208.959L3.82905 209.527L252.628 250.945L252.722 250.378ZM3.98053 208.975C3.16748 208.659 2.48053 208.112 1.9919 207.635C1.74888 207.398 1.55808 207.181 1.42853 207.024C1.36381 206.946 1.31456 206.882 1.2819 206.839C1.26557 206.818 1.2534 206.801 1.24553 206.791C1.2416 206.785 1.23874 206.781 1.23697 206.779C1.23609 206.778 1.23548 206.777 1.23515 206.776C1.23498 206.776 1.23489 206.776 1.23486 206.776C1.23485 206.776 1.23485 206.776 1.23487 206.776C1.23488 206.776 1.23491 206.776 1.23491 206.776C1.23495 206.776 1.23498 206.776 1 206.942C0.765017 207.108 0.765063 207.108 0.765113 207.108C0.765136 207.108 0.765191 207.108 0.765236 207.108C0.765327 207.108 0.765435 207.108 0.765561 207.109C0.765814 207.109 0.766137 207.109 0.76653 207.11C0.767317 207.111 0.768385 207.113 0.769732 207.114C0.772428 207.118 0.776241 207.124 0.781155 207.13C0.790981 207.144 0.805216 207.163 0.823718 207.187C0.860712 207.236 0.914826 207.305 0.984939 207.39C1.12504 207.56 1.32972 207.793 1.59006 208.047C2.10813 208.552 2.85931 209.156 3.77203 209.511L3.98053 208.975ZM1.07095 207.221L48.5297 195.14L48.3878 194.583L0.929048 206.663L1.07095 207.221ZM48.4848 195.148L51.6486 194.86L51.5965 194.288L48.4327 194.575L48.4848 195.148ZM51.6832 194.855L118.413 180.474L118.292 179.911L51.562 194.293L51.6832 194.855ZM118.409 180.475C118.885 180.379 119.657 180.236 120.424 180.117C121.198 179.997 121.944 179.905 122.379 179.905V179.33C121.894 179.33 121.106 179.429 120.336 179.549C119.559 179.669 118.779 179.814 118.296 179.911L118.409 180.475ZM122.347 179.903L137.591 181.629L137.656 181.057L122.412 179.332L122.347 179.903ZM137.567 181.061L134.691 181.636L134.804 182.2L137.68 181.625L137.567 181.061ZM134.46 181.918V182.781H135.035V181.918H134.46ZM134.747 183.069H137.623V182.494H134.747V183.069ZM137.623 183.069H147.69V182.494H137.623V183.069ZM137.336 181.343V182.781H137.911V181.343H137.336ZM147.651 183.066L342.95 210.391L343.03 209.821L147.73 182.496L147.651 183.066ZM342.899 209.833L340.311 210.696L340.492 211.242L343.081 210.379L342.899 209.833ZM350.538 212.398L352.839 211.823L352.7 211.265L350.399 211.84L350.538 212.398ZM352.736 211.83L374.883 214.418L374.95 213.847L352.803 211.258L352.736 211.83ZM340.369 211.255L342.957 211.55L343.023 210.979L340.434 210.683L340.369 211.255ZM342.957 211.55L350.436 212.405L350.501 211.834L343.023 210.979L342.957 211.55ZM342.702 210.106V211.265H343.278V210.106H342.702ZM374.672 213.982C373.528 215.841 371.552 218.704 369.35 221.243C368.248 222.512 367.095 223.695 365.964 224.63C364.83 225.568 363.738 226.239 362.759 226.511L362.913 227.066C364.006 226.762 365.172 226.032 366.331 225.073C367.494 224.111 368.671 222.903 369.784 221.62C372.011 219.053 374.005 216.163 375.162 214.283L374.672 213.982ZM362.757 226.512L264.388 254.699L264.547 255.252L362.916 227.065L362.757 226.512ZM264.437 254.69C263.102 254.833 260.881 255.005 258.565 255.055C256.243 255.105 253.849 255.033 252.156 254.694L252.043 255.258C253.802 255.61 256.249 255.681 258.577 255.63C260.911 255.58 263.149 255.407 264.498 255.262L264.437 254.69ZM252.148 254.692L3.92426 212.699L3.82831 213.266L252.052 255.26L252.148 254.692ZM4.00492 212.725C3.52831 212.487 2.81437 212.115 2.22142 211.776C1.92401 211.606 1.66294 211.447 1.47856 211.319C1.38531 211.255 1.3199 211.204 1.28065 211.167C1.2606 211.148 1.25509 211.14 1.25665 211.142C1.25769 211.144 1.26398 211.153 1.27062 211.169C1.27703 211.184 1.28763 211.215 1.28763 211.256H0.712372C0.712372 211.362 0.76239 211.44 0.786891 211.474C0.817005 211.517 0.85363 211.555 0.887883 211.587C0.957245 211.652 1.04912 211.722 1.15063 211.792C1.35575 211.934 1.63397 212.103 1.9358 212.276C2.54129 212.622 3.26549 212.998 3.74765 213.239L4.00492 212.725ZM1.28763 211.256V206.942H0.712372V211.256H1.28763Z" fill="#777982"/>
<path d="M374.917 214.133L362.836 218.16L361.974 219.598L310.488 235.992H307.899L264.468 250.662C261.783 250.949 256.126 251.524 252.675 250.662L3.87628 209.243C2.15051 208.572 1 206.942 1 206.942L48.4588 194.862L51.6226 194.574L118.352 180.193C119.311 180.001 121.459 179.617 122.379 179.617L137.623 181.343V182.781H147.69L342.99 210.106V211.265L350.468 212.119L352.769 211.544L374.917 214.133Z" fill="#B6BEC0"/>
<path d="M374.917 214.133L375.008 214.406L374.95 213.847L374.917 214.133ZM362.836 218.16L362.745 217.887L362.645 217.92L362.59 218.012L362.836 218.16ZM361.974 219.598L362.061 219.872L362.164 219.839L362.22 219.746L361.974 219.598ZM310.488 235.992V236.28H310.533L310.575 236.267L310.488 235.992ZM307.899 235.992V235.705H307.852L307.807 235.72L307.899 235.992ZM264.468 250.662L264.498 250.948L264.53 250.944L264.56 250.934L264.468 250.662ZM252.675 250.662L252.745 250.382L252.733 250.38L252.722 250.378L252.675 250.662ZM3.87628 209.243L3.77203 209.511L3.79973 209.522L3.82905 209.527L3.87628 209.243ZM1 206.942L0.929048 206.663C0.8373 206.687 0.76292 206.754 0.730151 206.842C0.697381 206.931 0.71042 207.031 0.765017 207.108L1 206.942ZM48.4588 194.862L48.4327 194.575L48.41 194.577L48.3878 194.583L48.4588 194.862ZM51.6226 194.574L51.6486 194.86L51.6661 194.859L51.6832 194.855L51.6226 194.574ZM118.352 180.193L118.296 179.91L118.292 179.911L118.352 180.193ZM122.379 179.617L122.412 179.332L122.395 179.33H122.379V179.617ZM137.623 181.343H137.911V181.086L137.656 181.057L137.623 181.343ZM134.747 181.918L134.691 181.636L134.46 181.683V181.918H134.747ZM134.747 182.781H134.46V183.069H134.747V182.781ZM147.69 182.781L147.73 182.496L147.71 182.494H147.69V182.781ZM342.99 210.106H343.278V209.856L343.03 209.821L342.99 210.106ZM340.401 210.969L340.311 210.696L340.369 211.255L340.401 210.969ZM350.468 212.119L350.436 212.405L350.488 212.411L350.538 212.398L350.468 212.119ZM352.769 211.544L352.803 211.258L352.751 211.252L352.7 211.265L352.769 211.544ZM374.826 213.86L362.745 217.887L362.927 218.432L375.008 214.406L374.826 213.86ZM362.59 218.012L361.727 219.45L362.22 219.746L363.083 218.307L362.59 218.012ZM361.886 219.324L310.401 235.718L310.575 236.267L362.061 219.872L361.886 219.324ZM310.488 235.705H307.899V236.28H310.488V235.705ZM307.807 235.72L264.376 250.389L264.56 250.934L307.991 236.265L307.807 235.72ZM264.437 250.376C263.095 250.519 261.019 250.734 258.849 250.805C256.674 250.877 254.43 250.804 252.745 250.382L252.605 250.941C254.371 251.382 256.681 251.453 258.868 251.38C261.061 251.308 263.155 251.091 264.498 250.948L264.437 250.376ZM252.722 250.378L3.92352 208.959L3.82905 209.527L252.628 250.945L252.722 250.378ZM3.98053 208.975C3.16748 208.659 2.48053 208.112 1.9919 207.635C1.74888 207.398 1.55808 207.181 1.42853 207.024C1.36381 206.946 1.31456 206.882 1.2819 206.839C1.26557 206.818 1.2534 206.801 1.24553 206.791C1.2416 206.785 1.23874 206.781 1.23697 206.779C1.23609 206.778 1.23548 206.777 1.23515 206.776C1.23498 206.776 1.23489 206.776 1.23486 206.776C1.23485 206.776 1.23485 206.776 1.23487 206.776C1.23488 206.776 1.23491 206.776 1.23491 206.776C1.23495 206.776 1.23498 206.776 1 206.942C0.765017 207.108 0.765063 207.108 0.765113 207.108C0.765136 207.108 0.765191 207.108 0.765236 207.108C0.765327 207.108 0.765435 207.108 0.765561 207.109C0.765814 207.109 0.766137 207.109 0.76653 207.11C0.767317 207.111 0.768385 207.113 0.769732 207.114C0.772428 207.118 0.776241 207.124 0.781155 207.13C0.790981 207.144 0.805216 207.163 0.823718 207.187C0.860712 207.236 0.914826 207.305 0.984939 207.39C1.12504 207.56 1.32972 207.793 1.59006 208.047C2.10813 208.552 2.85931 209.156 3.77203 209.511L3.98053 208.975ZM1.07095 207.221L48.5297 195.14L48.3878 194.583L0.929048 206.663L1.07095 207.221ZM48.4848 195.148L51.6486 194.86L51.5965 194.288L48.4327 194.575L48.4848 195.148ZM51.6832 194.855L118.413 180.474L118.292 179.911L51.562 194.293L51.6832 194.855ZM118.409 180.475C118.885 180.379 119.657 180.236 120.424 180.117C121.198 179.997 121.944 179.905 122.379 179.905V179.33C121.894 179.33 121.106 179.429 120.336 179.549C119.559 179.669 118.779 179.814 118.296 179.911L118.409 180.475ZM122.347 179.903L137.591 181.629L137.656 181.057L122.412 179.332L122.347 179.903ZM137.567 181.061L134.691 181.636L134.804 182.2L137.68 181.625L137.567 181.061ZM134.46 181.918V182.781H135.035V181.918H134.46ZM134.747 183.069H137.623V182.494H134.747V183.069ZM137.623 183.069H147.69V182.494H137.623V183.069ZM137.336 181.343V182.781H137.911V181.343H137.336ZM147.651 183.066L342.95 210.391L343.03 209.821L147.73 182.496L147.651 183.066ZM342.899 209.833L340.311 210.696L340.492 211.242L343.081 210.379L342.899 209.833ZM350.538 212.398L352.839 211.823L352.7 211.265L350.399 211.84L350.538 212.398ZM352.736 211.83L374.883 214.418L374.95 213.847L352.803 211.258L352.736 211.83ZM340.369 211.255L342.957 211.55L343.023 210.979L340.434 210.683L340.369 211.255ZM342.957 211.55L350.436 212.405L350.501 211.834L343.023 210.979L342.957 211.55ZM342.702 210.106V211.265H343.278V210.106H342.702Z" fill="#777982"/>
<path d="M175.59 217.297L108.285 207.23L70.606 216.434L141.938 227.651L175.59 217.297Z" stroke="black" stroke-width="0.575257"/>
<path d="M147.978 225.638L141.938 227.651L103.108 221.545L70.606 216.434L76.9338 214.996L109.148 219.664L147.978 225.638Z" fill="#86899F"/>
<path d="M109.148 219.664L147.978 225.638L141.938 227.651L103.108 221.545M109.148 219.664L76.9338 214.996L70.606 216.434L103.108 221.545M109.148 219.664L103.108 221.545" stroke="black" stroke-width="0.575257"/>
<path d="M201.477 218.735L63.1274 196.3L114.325 183.932L238.581 203.203L201.477 218.735Z" fill="#1B2750" stroke="black" stroke-width="0.230103"/>
<path d="M300.709 232.829L221.036 221.323L256.989 205.216L346.154 217.297L300.709 232.829Z" fill="#1B2750" stroke="black" stroke-width="0.230103"/>
</svg>
