<svg width="45" height="33" viewBox="0 0 45 33" fill="none" xmlns="http://www.w3.org/2000/svg">
<path d="M20.0455 32.0727H11.025C7.98477 32.0727 5.38755 31.0203 3.23333 28.9156C1.07911 26.8108 0.00133636 24.2383 0 21.1981C0 18.5922 0.785113 16.2702 2.35534 14.2323C3.92557 12.1943 5.98023 10.8914 8.51932 10.3234C9.35455 7.24977 11.025 4.7608 13.5307 2.85648C16.0364 0.95216 18.8761 0 22.05 0C25.9589 0 29.275 1.36175 31.9986 4.08526C34.7221 6.80877 36.0832 10.1243 36.0818 14.0318C38.387 14.2991 40.3001 15.2933 41.8208 17.0146C43.3416 18.7358 44.1013 20.7484 44.1 23.0523C44.1 25.558 43.2233 27.6881 41.47 29.4428C39.7167 31.1974 37.5866 32.0741 35.0795 32.0727H24.0545V17.7402L27.2618 20.8473L30.0682 18.0409L22.05 10.0227L14.0318 18.0409L16.8382 20.8473L20.0455 17.7402V32.0727Z" fill="#6486F6"/>
</svg>
