<svg width="45" height="37" viewBox="0 0 45 37" fill="none" xmlns="http://www.w3.org/2000/svg">
<path d="M42.2625 0H1.8375C1.35016 0 0.882789 0.193593 0.538191 0.538191C0.193593 0.882789 0 1.35016 0 1.8375L0 34.9125C0 35.3998 0.193593 35.8672 0.538191 36.2118C0.882789 36.5564 1.35016 36.75 1.8375 36.75H42.2625C42.7498 36.75 43.2172 36.5564 43.5618 36.2118C43.9064 35.8672 44.1 35.3998 44.1 34.9125V1.8375C44.1 1.35016 43.9064 0.882789 43.5618 0.538191C43.2172 0.193593 42.7498 0 42.2625 0ZM40.425 33.075H36.75V31.2375H27.5625V33.075H3.675V3.675H40.425V33.075ZM18.9079 14.1671C18.9079 13.3338 19.2389 12.5346 19.8282 11.9453C20.4174 11.356 21.2167 11.025 22.05 11.025C23.7956 11.025 25.1921 12.4399 25.1921 14.1671C25.1921 15.9128 23.7956 17.3276 22.05 17.3276C20.3044 17.3276 18.9079 15.9128 18.9079 14.1671ZM10.4921 17.0704C10.4921 15.7657 11.5579 14.7 12.8625 14.7C13.4912 14.7 14.0941 14.9497 14.5386 15.3943C14.9831 15.8388 15.2329 16.4417 15.2329 17.0704C15.2329 18.375 14.1671 19.4224 12.8625 19.4224C11.5579 19.4224 10.4921 18.375 10.4921 17.0704ZM28.8671 17.0704C28.8671 16.4417 29.1169 15.8388 29.5614 15.3943C30.0059 14.9497 30.6088 14.7 31.2375 14.7C31.8662 14.7 32.4691 14.9497 32.9136 15.3943C33.3581 15.8388 33.6079 16.4417 33.6079 17.0704C33.6079 18.375 32.5421 19.4224 31.2375 19.4224C29.9329 19.4224 28.8671 18.375 28.8671 17.0704ZM36.75 24.1448V25.725H7.35V24.1448C7.35 22.4175 10.1981 21.0026 12.8625 21.0026C13.8731 21.0026 14.9021 21.2047 15.8025 21.5539C17.1806 20.286 19.6612 19.4224 22.05 19.4224C24.4387 19.4224 26.9194 20.286 28.2975 21.5539C29.1979 21.2047 30.2269 21.0026 31.2375 21.0026C33.9019 21.0026 36.75 22.4175 36.75 24.1448Z" fill="#7594F7"/>
</svg>
