<svg width="38" height="26" viewBox="0 0 38 26" fill="none" xmlns="http://www.w3.org/2000/svg">
<path d="M2 19C2 14.4913 3.79107 10.1673 6.97918 6.97918C10.1673 3.79107 14.4913 2 19 2C23.5087 2 27.8327 3.79107 31.0208 6.97918C34.2089 10.1673 36 14.4913 36 19" stroke="#7494F6" stroke-width="4" stroke-linejoin="round"/>
<path d="M14.75 21.125C14.75 19.9978 15.1978 18.9168 15.9948 18.1198C16.7918 17.3228 17.8728 16.875 19 16.875C20.1272 16.875 21.2082 17.3228 22.0052 18.1198C22.8022 18.9168 23.25 19.9978 23.25 21.125" stroke="#7494F6" stroke-width="4" stroke-linejoin="round"/>
<path d="M21.125 16.875L25.375 10.5M36 19V21.125C36 21.6886 35.7761 22.2291 35.3776 22.6276C34.9791 23.0261 34.4386 23.25 33.875 23.25H4.125C3.56141 23.25 3.02091 23.0261 2.6224 22.6276C2.22388 22.2291 2 21.6886 2 21.125V19" stroke="#7494F6" stroke-width="4" stroke-linecap="round" stroke-linejoin="round"/>
</svg>
