<svg width="41" height="31" viewBox="0 0 41 31" fill="none" xmlns="http://www.w3.org/2000/svg">
<path d="M41 4.23456V28.1816C41 29.738 39.7495 30.9983 38.2052 30.9983H31.681V15.0347L20.5 23.4883L9.31896 15.0347V31H2.79483C2.42767 31 2.0641 30.9271 1.7249 30.7854C1.38571 30.6438 1.07753 30.4361 0.817984 30.1744C0.558437 29.9127 0.352607 29.602 0.212254 29.26C0.071901 28.9181 -0.000223907 28.5516 5.22155e-07 28.1816V4.23456C5.22155e-07 0.751572 3.94454 -1.23698 6.70863 0.853152L9.31896 2.82793L20.5 11.278L31.681 2.82449L34.2914 0.853152C37.0538 -1.23526 41 0.751572 41 4.23456Z" fill="#7594F7"/>
</svg>
