<svg width="44" height="28" viewBox="0 0 44 28" fill="none" xmlns="http://www.w3.org/2000/svg">
<path d="M30.8 0C28.314 0 25.894 0.753846 23.848 2.15385H4.4C1.958 2.15385 0 4.07077 0 6.46154V19.3846C0 21.7754 1.958 23.6923 4.4 23.6923H6.6V25.8462C6.6 26.4174 6.83179 26.9652 7.24437 27.3692C7.65695 27.7731 8.21652 28 8.8 28H13.2C13.7835 28 14.3431 27.7731 14.7556 27.3692C15.1682 26.9652 15.4 26.4174 15.4 25.8462V23.6923H28.6V25.8462C28.6 26.4174 28.8318 26.9652 29.2444 27.3692C29.6569 27.7731 30.2165 28 30.8 28H35.2C35.7835 28 36.3431 27.7731 36.7556 27.3692C37.1682 26.9652 37.4 26.4174 37.4 25.8462V23.6923H39.6C42.042 23.6923 44 21.7754 44 19.3846V6.46154C44 4.07077 42.042 2.15385 39.6 2.15385H37.73C35.706 0.753846 33.286 0 30.8 0ZM30.8 3.23077C31.8112 3.23077 32.8125 3.42576 33.7467 3.8046C34.6809 4.18344 35.5297 4.73872 36.2447 5.43873C36.9597 6.13875 37.5269 6.96978 37.9139 7.88439C38.3008 8.799 38.5 9.77927 38.5 10.7692C38.5 12.7686 37.6888 14.686 36.2447 16.0997C34.8007 17.5135 32.8422 18.3077 30.8 18.3077C28.7578 18.3077 26.7993 17.5135 25.3553 16.0997C23.9112 14.686 23.1 12.7686 23.1 10.7692C23.1 8.76991 23.9112 6.85247 25.3553 5.43873C26.7993 4.025 28.7578 3.23077 30.8 3.23077ZM4.4 6.46154H13.2V8.61539H4.4V6.46154ZM30.8 6.46154C29.633 6.46154 28.5139 6.91538 27.6887 7.72323C26.8636 8.53108 26.4 9.62676 26.4 10.7692C26.4 11.9117 26.8636 13.0074 27.6887 13.8152C28.5139 14.6231 29.633 15.0769 30.8 15.0769C31.967 15.0769 33.0861 14.6231 33.9113 13.8152C34.7364 13.0074 35.2 11.9117 35.2 10.7692C35.2 9.62676 34.7364 8.53108 33.9113 7.72323C33.0861 6.91538 31.967 6.46154 30.8 6.46154ZM4.4 10.7692H13.2V12.9231H4.4V10.7692ZM4.4 15.0769H13.2V17.2308H4.4V15.0769Z" fill="#7594F7"/>
</svg>
