<svg width="33" height="24" viewBox="0 0 33 24" fill="none" xmlns="http://www.w3.org/2000/svg">
<path d="M15.2788 14.1143L1.18716 23.8672C1.07212 23.9466 0.938468 23.9922 0.800441 23.9991C0.662415 24.0059 0.525182 23.9738 0.403358 23.9061C0.281535 23.8384 0.179684 23.7377 0.108653 23.6146C0.0376225 23.4916 7.1383e-05 23.3508 0 23.2074V0.792639C7.1383e-05 0.649189 0.0376225 0.508446 0.108653 0.385398C0.179684 0.262351 0.281535 0.161607 0.403358 0.0938989C0.525182 0.0261903 0.662415 -0.00594844 0.800441 0.000906029C0.938468 0.0077605 1.07212 0.0533518 1.18716 0.132823L15.2788 9.88573V0.792639C15.2788 0.649189 15.3164 0.508446 15.3874 0.385398C15.4584 0.262351 15.5603 0.161607 15.6821 0.0938989C15.8039 0.0261903 15.9412 -0.00594844 16.0792 0.000906029C16.2172 0.0077605 16.3509 0.0533518 16.4659 0.132823L32.6599 11.3402C32.7645 11.4126 32.8503 11.5107 32.9096 11.6258C32.969 11.7409 33 11.8695 33 12C33 12.1305 32.969 12.2591 32.9096 12.3742C32.8503 12.4893 32.7645 12.5874 32.6599 12.6598L16.4659 23.8672C16.3509 23.9466 16.2172 23.9922 16.0792 23.9991C15.9412 24.0059 15.8039 23.9738 15.6821 23.9061C15.5603 23.8384 15.4584 23.7377 15.3874 23.6146C15.3164 23.4916 15.2788 23.3508 15.2788 23.2074V14.1143Z" fill="#7494F6"/>
</svg>
